G04 #@! TF.GenerationSoftware,KiCad,Pcbnew,(5.0.1-3-g963ef8bb5)*
G04 #@! TF.CreationDate,2019-09-11T13:55:26+02:00*
G04 #@! TF.ProjectId,crecol_v30,637265636F6C5F7633302E6B69636164,rev?*
G04 #@! TF.SameCoordinates,Original*
G04 #@! TF.FileFunction,Legend,Bot*
G04 #@! TF.FilePolarity,Positive*
%FSLAX46Y46*%
G04 Gerber Fmt 4.6, Leading zero omitted, Abs format (unit mm)*
G04 Created by KiCad (PCBNEW (5.0.1-3-g963ef8bb5)) date 2019 September 11, Wednesday 13:55:26*
%MOMM*%
%LPD*%
G01*
G04 APERTURE LIST*
%ADD10C,0.600000*%
%ADD11C,0.500000*%
%ADD12C,0.300000*%
%ADD13C,0.700000*%
%ADD14C,0.120000*%
%ADD15C,0.150000*%
%ADD16C,0.010000*%
G04 APERTURE END LIST*
D10*
X155539095Y-109134389D02*
X155539095Y-106991532D01*
X156824809Y-108277246D02*
X152967666Y-109134389D01*
X154253380Y-107277246D02*
X154253380Y-109420103D01*
X152967666Y-108134389D02*
X156824809Y-107277246D01*
D11*
X158000000Y-111000000D02*
X158000000Y-90000000D01*
X152000000Y-111000000D02*
X158000000Y-111000000D01*
X152000000Y-90000000D02*
X152000000Y-111000000D01*
X158000000Y-90000000D02*
X152000000Y-90000000D01*
D12*
X56281114Y-157044482D02*
X55531114Y-158343520D01*
X56499841Y-157665636D01*
X56397140Y-158843520D01*
X57147140Y-157544482D01*
X58436608Y-158453914D02*
X58410464Y-158356341D01*
X58260601Y-158187339D01*
X58136883Y-158115911D01*
X57915592Y-158070627D01*
X57720445Y-158122916D01*
X57587158Y-158210920D01*
X57382442Y-158422641D01*
X57275299Y-158608218D01*
X57194301Y-158891368D01*
X57184731Y-159050801D01*
X57237021Y-159245947D01*
X57386883Y-159414949D01*
X57510601Y-159486378D01*
X57731892Y-159531661D01*
X57829465Y-159505517D01*
X59064767Y-158651625D02*
X58314767Y-159950663D01*
X58671910Y-159332074D02*
X59414218Y-159760645D01*
X59807075Y-159080197D02*
X59057075Y-160379235D01*
X61106113Y-159830197D02*
X60363806Y-159401625D01*
X60734959Y-159615911D02*
X59984959Y-160914949D01*
X59968384Y-160657943D01*
X59916095Y-160462797D01*
X59828091Y-160329509D01*
X61724703Y-160187339D02*
X61972138Y-160330197D01*
X62060142Y-160463484D01*
X62086287Y-160561057D01*
X62102862Y-160818063D01*
X62021864Y-161101213D01*
X61736149Y-161596085D01*
X61602862Y-161684088D01*
X61505289Y-161710233D01*
X61345856Y-161700663D01*
X61098421Y-161557806D01*
X61010417Y-161424519D01*
X60984272Y-161326945D01*
X60993842Y-161167513D01*
X61172413Y-160858218D01*
X61305701Y-160770215D01*
X61403274Y-160744070D01*
X61562706Y-160753640D01*
X61810142Y-160896497D01*
X61898146Y-161029784D01*
X61924290Y-161127358D01*
X61914721Y-161286790D01*
X62397459Y-162307806D02*
X62521177Y-162379235D01*
X62680609Y-162388804D01*
X62778182Y-162362660D01*
X62911470Y-162274656D01*
X63116186Y-162062934D01*
X63294757Y-161753640D01*
X63375755Y-161470490D01*
X63385325Y-161311057D01*
X63359180Y-161213484D01*
X63271177Y-161080197D01*
X63147459Y-161008768D01*
X62988026Y-160999198D01*
X62890453Y-161025343D01*
X62757166Y-161113347D01*
X62552450Y-161325068D01*
X62373878Y-161634363D01*
X62292880Y-161917513D01*
X62283310Y-162076945D01*
X62309455Y-162174519D01*
X62397459Y-162307806D01*
X64199061Y-161615911D02*
X64446497Y-161758768D01*
X64534500Y-161892056D01*
X64560645Y-161989629D01*
X64577220Y-162246634D01*
X64496222Y-162529784D01*
X64210508Y-163024656D01*
X64077220Y-163112660D01*
X63979647Y-163138804D01*
X63820215Y-163129235D01*
X63572779Y-162986378D01*
X63484775Y-162853090D01*
X63458631Y-162755517D01*
X63468200Y-162596085D01*
X63646772Y-162286790D01*
X63780059Y-162198786D01*
X63877632Y-162172641D01*
X64037065Y-162182211D01*
X64284500Y-162325068D01*
X64372504Y-162458356D01*
X64398649Y-162555929D01*
X64389079Y-162715361D01*
X64871817Y-163736378D02*
X64995535Y-163807806D01*
X65154967Y-163817376D01*
X65252540Y-163791231D01*
X65385828Y-163703227D01*
X65590544Y-163491506D01*
X65769115Y-163182211D01*
X65850114Y-162899061D01*
X65859683Y-162739629D01*
X65833539Y-162642056D01*
X65745535Y-162508768D01*
X65621817Y-162437339D01*
X65462385Y-162427770D01*
X65364812Y-162453914D01*
X65231524Y-162541918D01*
X65026808Y-162753640D01*
X64848236Y-163062934D01*
X64767238Y-163346085D01*
X64757669Y-163505517D01*
X64783813Y-163603090D01*
X64871817Y-163736378D01*
X66668291Y-164196222D02*
X67168291Y-163330197D01*
X66073282Y-164512522D02*
X66299701Y-163406066D01*
X67103868Y-163870352D01*
X67848739Y-163723054D02*
X67098739Y-165022092D01*
X67455882Y-164403502D02*
X68198190Y-164832074D01*
X68591047Y-164151625D02*
X67841047Y-165450663D01*
X68274060Y-165700663D02*
X69457072Y-164651625D01*
X69140085Y-166200663D01*
X69449380Y-166379235D02*
X70253546Y-166843520D01*
X70106248Y-166098649D01*
X70291825Y-166205792D01*
X70451257Y-166215361D01*
X70548830Y-166189217D01*
X70682118Y-166101213D01*
X70860689Y-165791918D01*
X70870259Y-165632486D01*
X70844114Y-165534913D01*
X70756110Y-165401625D01*
X70384957Y-165187339D01*
X70225524Y-165177770D01*
X70127951Y-165203914D01*
X71488848Y-165989629D02*
X71586422Y-165963484D01*
X71560277Y-165865911D01*
X71462704Y-165892056D01*
X71488848Y-165989629D01*
X71560277Y-165865911D01*
X71676302Y-167664949D02*
X71800020Y-167736378D01*
X71959452Y-167745947D01*
X72057026Y-167719802D01*
X72190313Y-167631799D01*
X72395029Y-167420077D01*
X72573601Y-167110782D01*
X72654599Y-166827632D01*
X72664169Y-166668200D01*
X72638024Y-166570627D01*
X72550020Y-166437339D01*
X72426302Y-166365911D01*
X72266870Y-166356341D01*
X72169297Y-166382486D01*
X72036009Y-166470490D01*
X71831293Y-166682211D01*
X71652722Y-166991506D01*
X71571724Y-167274656D01*
X71562154Y-167434088D01*
X71588299Y-167531661D01*
X71676302Y-167664949D01*
D13*
X56546315Y-160792468D02*
X56485311Y-160564797D01*
X56135632Y-160170459D01*
X55846957Y-160003793D01*
X55330611Y-159898130D01*
X54875269Y-160020139D01*
X54564265Y-160225480D01*
X54086594Y-160719497D01*
X53836594Y-161152510D01*
X53647598Y-161813194D01*
X53625269Y-162185202D01*
X53747277Y-162640544D01*
X54096957Y-163034882D01*
X54385632Y-163201548D01*
X54901978Y-163307211D01*
X55129649Y-163246206D01*
X59744071Y-162253793D02*
X57900375Y-163113835D01*
X58012020Y-161253793D02*
X56262020Y-164284882D01*
X57416721Y-164951548D01*
X57788729Y-164973877D01*
X58016400Y-164912873D01*
X58327404Y-164707531D01*
X58577404Y-164274519D01*
X58599733Y-163902510D01*
X58538729Y-163674839D01*
X58333387Y-163363835D01*
X57178687Y-162697168D01*
X60126442Y-164591506D02*
X61136805Y-165174839D01*
X62486485Y-163837126D02*
X61043109Y-163003793D01*
X59293109Y-166034882D01*
X60736485Y-166868215D01*
X65350907Y-165875801D02*
X65289903Y-165648130D01*
X64940223Y-165253793D01*
X64651548Y-165087126D01*
X64135202Y-164981464D01*
X63679860Y-165103472D01*
X63368856Y-165308814D01*
X62891185Y-165802831D01*
X62641185Y-166235843D01*
X62452189Y-166896527D01*
X62429860Y-167268535D01*
X62551869Y-167723877D01*
X62901548Y-168118215D01*
X63190223Y-168284882D01*
X63706569Y-168390544D01*
X63934240Y-168329540D01*
X65643962Y-169701548D02*
X66221312Y-170034882D01*
X66593321Y-170057211D01*
X67048663Y-169935202D01*
X67526333Y-169441185D01*
X68109667Y-168430822D01*
X68298663Y-167770139D01*
X68176654Y-167314797D01*
X67971312Y-167003793D01*
X67393962Y-166670459D01*
X67021954Y-166648130D01*
X66566612Y-166770139D01*
X66088941Y-167264156D01*
X65505607Y-168274519D01*
X65316612Y-168935202D01*
X65438620Y-169390544D01*
X65643962Y-169701548D01*
X71435414Y-169003793D02*
X69992038Y-168170459D01*
X68242038Y-171201548D01*
D12*
X103285714Y-55778571D02*
X104000000Y-55778571D01*
X104071428Y-56492857D01*
X104000000Y-56421428D01*
X103857142Y-56350000D01*
X103500000Y-56350000D01*
X103357142Y-56421428D01*
X103285714Y-56492857D01*
X103214285Y-56635714D01*
X103214285Y-56992857D01*
X103285714Y-57135714D01*
X103357142Y-57207142D01*
X103500000Y-57278571D01*
X103857142Y-57278571D01*
X104000000Y-57207142D01*
X104071428Y-57135714D01*
X102785714Y-55778571D02*
X102285714Y-57278571D01*
X101785714Y-55778571D01*
X99357142Y-57278571D02*
X100214285Y-57278571D01*
X99785714Y-57278571D02*
X99785714Y-55778571D01*
X99928571Y-55992857D01*
X100071428Y-56135714D01*
X100214285Y-56207142D01*
X98714285Y-57135714D02*
X98642857Y-57207142D01*
X98714285Y-57278571D01*
X98785714Y-57207142D01*
X98714285Y-57135714D01*
X98714285Y-57278571D01*
X98071428Y-55921428D02*
X98000000Y-55850000D01*
X97857142Y-55778571D01*
X97500000Y-55778571D01*
X97357142Y-55850000D01*
X97285714Y-55921428D01*
X97214285Y-56064285D01*
X97214285Y-56207142D01*
X97285714Y-56421428D01*
X98142857Y-57278571D01*
X97214285Y-57278571D01*
X96642857Y-56850000D02*
X95928571Y-56850000D01*
X96785714Y-57278571D02*
X96285714Y-55778571D01*
X95785714Y-57278571D01*
X76634660Y-52275801D02*
X76794092Y-52266231D01*
X77041528Y-52123374D01*
X77129532Y-51990086D01*
X77119962Y-51830654D01*
X76834248Y-51335782D01*
X76700960Y-51247779D01*
X76541528Y-51257348D01*
X76294092Y-51400206D01*
X76206088Y-51533493D01*
X76215658Y-51692925D01*
X76287087Y-51816643D01*
X76977105Y-51583218D01*
X75551785Y-51828777D02*
X76051785Y-52694802D01*
X75623213Y-51952495D02*
X75525640Y-51926350D01*
X75366208Y-51935920D01*
X75180631Y-52043063D01*
X75092627Y-52176350D01*
X75102197Y-52335782D01*
X75495054Y-53016231D01*
X74284019Y-53632943D02*
X74443452Y-53623374D01*
X74690887Y-53480517D01*
X74778891Y-53347229D01*
X74805036Y-53249656D01*
X74795466Y-53090224D01*
X74581180Y-52719070D01*
X74447893Y-52631066D01*
X74350320Y-52604922D01*
X74190887Y-52614491D01*
X73943452Y-52757348D01*
X73855448Y-52890636D01*
X73577426Y-54123374D02*
X73665430Y-53990086D01*
X73691575Y-53892513D01*
X73682005Y-53733081D01*
X73467719Y-53361927D01*
X73334432Y-53273924D01*
X73236858Y-53247779D01*
X73077426Y-53257348D01*
X72891849Y-53364491D01*
X72803846Y-53497779D01*
X72777701Y-53595352D01*
X72787271Y-53754784D01*
X73001556Y-54125938D01*
X73134844Y-54213942D01*
X73232417Y-54240086D01*
X73391849Y-54230517D01*
X73577426Y-54123374D01*
X72030952Y-55016231D02*
X71280952Y-53717193D01*
X71995238Y-54954372D02*
X72154670Y-54944802D01*
X72402106Y-54801945D01*
X72490110Y-54668658D01*
X72516254Y-54571085D01*
X72506685Y-54411652D01*
X72292399Y-54040499D01*
X72159112Y-53952495D01*
X72061538Y-53926350D01*
X71902106Y-53935920D01*
X71654670Y-54078777D01*
X71566667Y-54212065D01*
X70881777Y-55597229D02*
X71041209Y-55587660D01*
X71288645Y-55444802D01*
X71376648Y-55311515D01*
X71367079Y-55152083D01*
X71081365Y-54657211D01*
X70948077Y-54569207D01*
X70788645Y-54578777D01*
X70541209Y-54721634D01*
X70453205Y-54854922D01*
X70462775Y-55014354D01*
X70534204Y-55138072D01*
X71224222Y-54904647D01*
X70298902Y-56016231D02*
X69798902Y-55150206D01*
X69941759Y-55397641D02*
X69808471Y-55309638D01*
X69710898Y-55283493D01*
X69551466Y-55293063D01*
X69427748Y-55364491D01*
X84525524Y-59422229D02*
X84437521Y-59555517D01*
X84190085Y-59698374D01*
X84030653Y-59707943D01*
X83897365Y-59619940D01*
X83861651Y-59558081D01*
X83852081Y-59398649D01*
X83940085Y-59265361D01*
X84125662Y-59158218D01*
X84213666Y-59024931D01*
X84204096Y-58865499D01*
X84168382Y-58803640D01*
X84035094Y-58715636D01*
X83875662Y-58725206D01*
X83690085Y-58832348D01*
X83602081Y-58965636D01*
X83071495Y-59189491D02*
X83324060Y-60198374D01*
X82719481Y-59722641D01*
X82829188Y-60484088D01*
X82081752Y-59760920D01*
X82086880Y-60912660D02*
X81586880Y-60046634D01*
X81336880Y-59613621D02*
X81434454Y-59639766D01*
X81408309Y-59737339D01*
X81310736Y-59711195D01*
X81336880Y-59613621D01*
X81408309Y-59737339D01*
X81153868Y-60296634D02*
X80658996Y-60582348D01*
X80718291Y-59970764D02*
X81361148Y-61084226D01*
X81370718Y-61243658D01*
X81282714Y-61376945D01*
X81158996Y-61448374D01*
X80133539Y-61957943D02*
X80292971Y-61948374D01*
X80540407Y-61805517D01*
X80628410Y-61672229D01*
X80654555Y-61574656D01*
X80644985Y-61415224D01*
X80430700Y-61044070D01*
X80297412Y-60956066D01*
X80199839Y-60929922D01*
X80040407Y-60939491D01*
X79792971Y-61082348D01*
X79704967Y-61215636D01*
X79612522Y-62341231D02*
X78862522Y-61042193D01*
X79055792Y-62662660D02*
X78662934Y-61982211D01*
X78653365Y-61822779D01*
X78741368Y-61689491D01*
X78926945Y-61582348D01*
X79086378Y-61572779D01*
X79183951Y-61598924D01*
X76947459Y-62725206D02*
X77697459Y-64024244D01*
X76983173Y-62787065D02*
X76823741Y-62796634D01*
X76576305Y-62939491D01*
X76488301Y-63072779D01*
X76462157Y-63170352D01*
X76471726Y-63329784D01*
X76686012Y-63700938D01*
X76819299Y-63788942D01*
X76916873Y-63815086D01*
X77076305Y-63805517D01*
X77323741Y-63662660D01*
X77411744Y-63529372D01*
X76086562Y-64376945D02*
X76174565Y-64243658D01*
X76164996Y-64084226D01*
X75522138Y-62970764D01*
X75034959Y-64984088D02*
X74642102Y-64303640D01*
X74632533Y-64144207D01*
X74720536Y-64010920D01*
X74967972Y-63868063D01*
X75127404Y-63858493D01*
X74999245Y-64922229D02*
X75158677Y-64912660D01*
X75467972Y-64734088D01*
X75555976Y-64600801D01*
X75546406Y-64441368D01*
X75474977Y-64317651D01*
X75341690Y-64229647D01*
X75182258Y-64239217D01*
X74872963Y-64417788D01*
X74713531Y-64427358D01*
X74101947Y-64368063D02*
X73607075Y-64653777D01*
X73666370Y-64042193D02*
X74309227Y-65155654D01*
X74318797Y-65315086D01*
X74230793Y-65448374D01*
X74107075Y-65519802D01*
X73143476Y-65993658D02*
X73302909Y-65984088D01*
X73550344Y-65841231D01*
X73638348Y-65707943D01*
X73628778Y-65548511D01*
X73343064Y-65053640D01*
X73209777Y-64965636D01*
X73050344Y-64975206D01*
X72802909Y-65118063D01*
X72714905Y-65251350D01*
X72724475Y-65410782D01*
X72795903Y-65534500D01*
X73485921Y-65301075D01*
X67351945Y-70806916D02*
X66485920Y-70306916D01*
X66609638Y-70378344D02*
X66512065Y-70404489D01*
X66378777Y-70492492D01*
X66271634Y-70678069D01*
X66262065Y-70837501D01*
X66350068Y-70970789D01*
X67030517Y-71363646D01*
X66350068Y-70970789D02*
X66190636Y-70961219D01*
X66057348Y-71049223D01*
X65950206Y-71234800D01*
X65940636Y-71394232D01*
X66028640Y-71527520D01*
X66709088Y-71920377D01*
X66244802Y-72724543D02*
X66254372Y-72565111D01*
X66228227Y-72467538D01*
X66140224Y-72334250D01*
X65769070Y-72119965D01*
X65609638Y-72110395D01*
X65512065Y-72136540D01*
X65378777Y-72224543D01*
X65271634Y-72410120D01*
X65262065Y-72569552D01*
X65288209Y-72667126D01*
X65376213Y-72800413D01*
X65747367Y-73014699D01*
X65906799Y-73024268D01*
X66004372Y-72998124D01*
X66137660Y-72910120D01*
X66244802Y-72724543D01*
X64914491Y-73028710D02*
X64628777Y-73523581D01*
X64374336Y-72964287D02*
X65487797Y-73607144D01*
X65575801Y-73740431D01*
X65566231Y-73899863D01*
X65494802Y-74023581D01*
X65137660Y-74642171D02*
X65147229Y-74482739D01*
X65121085Y-74385165D01*
X65033081Y-74251878D01*
X64661927Y-74037592D01*
X64502495Y-74028023D01*
X64404922Y-74054167D01*
X64271634Y-74142171D01*
X64164491Y-74327748D01*
X64154922Y-74487180D01*
X64181066Y-74584753D01*
X64269070Y-74718041D01*
X64640224Y-74932326D01*
X64799656Y-74941896D01*
X64897229Y-74915751D01*
X65030517Y-74827748D01*
X65137660Y-74642171D01*
X64566231Y-75631914D02*
X63700206Y-75131914D01*
X63947641Y-75274771D02*
X63788209Y-75265202D01*
X63690636Y-75291346D01*
X63557348Y-75379350D01*
X63485920Y-75503068D01*
X63147229Y-77946840D02*
X63280517Y-77858837D01*
X63423374Y-77611401D01*
X63432943Y-77451969D01*
X63406799Y-77354395D01*
X63318795Y-77221108D01*
X62947641Y-77006822D01*
X62788209Y-76997253D01*
X62690636Y-77023397D01*
X62557348Y-77111401D01*
X62414491Y-77358837D01*
X62404922Y-77518269D01*
X62780517Y-78724862D02*
X62790086Y-78565430D01*
X62763942Y-78467857D01*
X62675938Y-78334569D01*
X62304784Y-78120283D01*
X62145352Y-78110714D01*
X62047779Y-78136858D01*
X61914491Y-78224862D01*
X61807348Y-78410439D01*
X61797779Y-78569871D01*
X61823924Y-78667444D01*
X61911927Y-78800732D01*
X62283081Y-79015018D01*
X62442513Y-79024587D01*
X62540086Y-78998443D01*
X62673374Y-78910439D01*
X62780517Y-78724862D01*
X61343063Y-79214605D02*
X62209088Y-79714605D01*
X61466781Y-79286034D02*
X61369207Y-79312179D01*
X61235920Y-79400182D01*
X61128777Y-79585759D01*
X61119207Y-79745191D01*
X61207211Y-79878479D01*
X61887660Y-80271336D01*
X60771634Y-80204349D02*
X60485920Y-80699220D01*
X60231479Y-80139926D02*
X61344940Y-80782783D01*
X61432943Y-80916070D01*
X61423374Y-81075502D01*
X61351945Y-81199220D01*
X61101945Y-81632233D02*
X60235920Y-81132233D01*
X60483356Y-81275090D02*
X60323924Y-81265521D01*
X60226350Y-81291665D01*
X60093063Y-81379669D01*
X60021634Y-81503387D01*
X60530517Y-82621976D02*
X60540086Y-82462544D01*
X60513942Y-82364971D01*
X60425938Y-82231683D01*
X60054784Y-82017398D01*
X59895352Y-82007828D01*
X59797779Y-82033973D01*
X59664491Y-82121976D01*
X59557348Y-82307553D01*
X59547779Y-82466985D01*
X59573924Y-82564559D01*
X59661927Y-82697846D01*
X60033081Y-82912132D01*
X60192513Y-82921702D01*
X60290086Y-82895557D01*
X60423374Y-82807553D01*
X60530517Y-82621976D01*
X59851945Y-83797297D02*
X59861515Y-83637864D01*
X59773511Y-83504577D01*
X58660050Y-82861720D01*
X59459088Y-84477745D02*
X59468658Y-84318313D01*
X59380654Y-84185025D01*
X58267193Y-83542168D01*
X58825801Y-85431774D02*
X58959088Y-85343771D01*
X59101945Y-85096335D01*
X59111515Y-84936902D01*
X59023511Y-84803615D01*
X58528640Y-84517901D01*
X58369207Y-84508331D01*
X58235920Y-84596335D01*
X58093063Y-84843771D01*
X58083493Y-85003203D01*
X58171497Y-85136490D01*
X58295215Y-85207919D01*
X58776075Y-84660758D01*
X58530517Y-86086078D02*
X57664491Y-85586078D01*
X57911927Y-85728935D02*
X57752495Y-85719366D01*
X57654922Y-85745510D01*
X57521634Y-85833514D01*
X57450206Y-85957232D01*
D14*
G04 #@! TO.C,J33*
X97370000Y-49820000D02*
X97370000Y-51150000D01*
X98700000Y-49820000D02*
X97370000Y-49820000D01*
X99970000Y-49820000D02*
X99970000Y-52480000D01*
X99970000Y-52480000D02*
X102570000Y-52480000D01*
X99970000Y-49820000D02*
X102570000Y-49820000D01*
X102570000Y-49820000D02*
X102570000Y-52480000D01*
D15*
G04 #@! TO.C,U40*
X70151907Y-43775288D02*
X66298093Y-46000288D01*
X68022595Y-37037212D02*
X62848093Y-40024712D01*
D14*
G04 #@! TO.C,C31*
X66803322Y-56856039D02*
X66506678Y-57027306D01*
X66293322Y-55972694D02*
X65996678Y-56143961D01*
G04 #@! TO.C,C30*
X63893322Y-51772694D02*
X63596678Y-51943961D01*
X64403322Y-52656039D02*
X64106678Y-52827306D01*
G04 #@! TO.C,R32*
X64396678Y-53343961D02*
X64693322Y-53172694D01*
X64906678Y-54227306D02*
X65203322Y-54056039D01*
G04 #@! TO.C,R33*
X65706678Y-55627306D02*
X66003322Y-55456039D01*
X65196678Y-54743961D02*
X65493322Y-54572694D01*
G04 #@! TO.C,C10*
X67903322Y-36056039D02*
X67606678Y-36227306D01*
X67393322Y-35172694D02*
X67096678Y-35343961D01*
G04 #@! TO.C,C11*
X60593322Y-38872694D02*
X60296678Y-39043961D01*
X61103322Y-39756039D02*
X60806678Y-39927306D01*
G04 #@! TO.C,C20*
X127396678Y-46956039D02*
X127693322Y-47127306D01*
X127906678Y-46072694D02*
X128203322Y-46243961D01*
G04 #@! TO.C,C21*
X132306678Y-48572694D02*
X132603322Y-48743961D01*
X131796678Y-49456039D02*
X132093322Y-49627306D01*
G04 #@! TO.C,J10*
X158231408Y-73982089D02*
X158714421Y-73818691D01*
X156955575Y-74372281D02*
X158231408Y-73982089D01*
X155556536Y-74949077D02*
X156955575Y-74372281D01*
X154380704Y-75512474D02*
X155556536Y-74949077D01*
X152821858Y-76412474D02*
X154380704Y-75512474D01*
X151746026Y-77149076D02*
X152821858Y-76412474D01*
X151103205Y-77635679D02*
X151746026Y-77149076D01*
X149780962Y-78745486D02*
X151103205Y-77635679D01*
X149188141Y-79318691D02*
X149780962Y-78745486D01*
X149921155Y-79588306D02*
X158581407Y-74588307D01*
X148738141Y-78539269D02*
X149238141Y-79405294D01*
X158264421Y-73039269D02*
X158764421Y-73905294D01*
X147517046Y-79244268D02*
X159485516Y-72334269D01*
X152525517Y-60279195D02*
X140557045Y-67189195D01*
X153875517Y-62617464D02*
X152525517Y-60279195D01*
X159485516Y-72334269D02*
X159285517Y-71987858D01*
X158025516Y-69805475D02*
X155135516Y-64799848D01*
X141907045Y-69527464D02*
X140557045Y-67189195D01*
X146057046Y-76715474D02*
X143167046Y-71709847D01*
X147517046Y-79244268D02*
X147317045Y-78897858D01*
X158764421Y-73905295D02*
G75*
G02X158581407Y-74588307I-433013J-249999D01*
G01*
X149921154Y-79588307D02*
G75*
G02X149238141Y-79405294I-250000J433013D01*
G01*
D15*
G04 #@! TO.C,J20*
X132536343Y-54666284D02*
G75*
G03X127936344Y-62633715I-7236343J-1133716D01*
G01*
D14*
G04 #@! TO.C,R10*
X72364450Y-44689806D02*
X72661094Y-44518539D01*
X71854450Y-43806461D02*
X72151094Y-43635194D01*
G04 #@! TO.C,R20*
X137489806Y-47864450D02*
X137318539Y-48161094D01*
X136606461Y-47354450D02*
X136435194Y-47651094D01*
G04 #@! TO.C,J30*
X57737506Y-82553114D02*
X53649866Y-80193114D01*
X53649866Y-80193114D02*
X59709866Y-69696886D01*
X59709866Y-69696886D02*
X63797506Y-72056886D01*
X63797506Y-72056886D02*
X57737506Y-82553114D01*
X58617506Y-81028910D02*
X58790711Y-81128910D01*
X58790711Y-81128910D02*
X58640711Y-81388717D01*
X58640711Y-81388717D02*
X58467506Y-81288717D01*
X58704109Y-81078910D02*
X58554109Y-81338717D01*
X59017506Y-80336089D02*
X58489230Y-80031089D01*
X58489230Y-80031089D02*
X57514230Y-81719839D01*
X57514230Y-81719839D02*
X54483142Y-79969839D01*
X54483142Y-79969839D02*
X59933142Y-70530162D01*
X59933142Y-70530162D02*
X62964230Y-72280162D01*
X62964230Y-72280162D02*
X61989230Y-73968911D01*
X61989230Y-73968911D02*
X62517506Y-74273911D01*
X56603013Y-81898114D02*
X56908013Y-81369839D01*
X55477180Y-81248114D02*
X55782180Y-80719839D01*
X62663013Y-71401886D02*
X62358013Y-71930162D01*
X61537180Y-70751886D02*
X61232180Y-71280162D01*
X55658142Y-77934679D02*
X56091154Y-78184679D01*
X56091154Y-78184679D02*
X56191154Y-78011474D01*
X56191154Y-78011474D02*
X55758142Y-77761474D01*
X55708142Y-77848077D02*
X56141154Y-78098077D01*
X56658142Y-76202628D02*
X57091154Y-76452628D01*
X57091154Y-76452628D02*
X57191154Y-76279423D01*
X57191154Y-76279423D02*
X56758142Y-76029423D01*
X56708142Y-76116026D02*
X57141154Y-76366026D01*
X57658142Y-74470578D02*
X58091154Y-74720578D01*
X58091154Y-74720578D02*
X58191154Y-74547372D01*
X58191154Y-74547372D02*
X57758142Y-74297372D01*
X57708142Y-74383975D02*
X58141154Y-74633975D01*
X58658142Y-72738527D02*
X59091154Y-72988527D01*
X59091154Y-72988527D02*
X59191154Y-72815322D01*
X59191154Y-72815322D02*
X58758142Y-72565322D01*
X58708142Y-72651924D02*
X59141154Y-72901924D01*
X58472314Y-81880390D02*
X57847314Y-82962922D01*
X57847314Y-82962922D02*
X56764782Y-82337922D01*
G04 #@! TO.C,J31*
X68779129Y-54607314D02*
X68154129Y-53524782D01*
X69861661Y-53982314D02*
X68779129Y-54607314D01*
X71216025Y-48108142D02*
X71466025Y-48541154D01*
X71552628Y-48491154D02*
X71302628Y-48058142D01*
X71379423Y-48591154D02*
X71552628Y-48491154D01*
X71129423Y-48158142D02*
X71379423Y-48591154D01*
X69483975Y-49108142D02*
X69733974Y-49541154D01*
X69820577Y-49491154D02*
X69570577Y-49058142D01*
X69647372Y-49591154D02*
X69820577Y-49491154D01*
X69397372Y-49158142D02*
X69647372Y-49591154D01*
X74616063Y-47877180D02*
X74087788Y-48182181D01*
X75266063Y-49003013D02*
X74737787Y-49308013D01*
X67583937Y-51937180D02*
X68112212Y-51632180D01*
X68233937Y-53063013D02*
X68762212Y-52758013D01*
X73399038Y-50889230D02*
X73704038Y-51417506D01*
X75087787Y-49914231D02*
X73399038Y-50889230D01*
X73337788Y-46883142D02*
X75087787Y-49914231D01*
X67362212Y-50333142D02*
X73337788Y-46883142D01*
X69112212Y-53364230D02*
X67362212Y-50333142D01*
X70800961Y-52389230D02*
X69112212Y-53364230D01*
X71105962Y-52917506D02*
X70800961Y-52389230D01*
X70463142Y-53404109D02*
X70203334Y-53554109D01*
X70253334Y-53640711D02*
X70153334Y-53467506D01*
X70513141Y-53490711D02*
X70253334Y-53640711D01*
X70413141Y-53317506D02*
X70513141Y-53490711D01*
X75921063Y-50137506D02*
X68888937Y-54197506D01*
X73561063Y-46049866D02*
X75921063Y-50137506D01*
X66528937Y-50109866D02*
X73561063Y-46049866D01*
X68888937Y-54197506D02*
X66528937Y-50109866D01*
G04 #@! TO.C,J32*
X73888937Y-62797506D02*
X71528937Y-58709866D01*
X71528937Y-58709866D02*
X78561063Y-54649866D01*
X78561063Y-54649866D02*
X80921063Y-58737506D01*
X80921063Y-58737506D02*
X73888937Y-62797506D01*
X75413141Y-61917506D02*
X75513141Y-62090711D01*
X75513141Y-62090711D02*
X75253334Y-62240711D01*
X75253334Y-62240711D02*
X75153334Y-62067506D01*
X75463141Y-62004109D02*
X75203334Y-62154109D01*
X76105962Y-61517506D02*
X75800962Y-60989230D01*
X75800962Y-60989230D02*
X74112212Y-61964230D01*
X74112212Y-61964230D02*
X72362212Y-58933142D01*
X72362212Y-58933142D02*
X78337787Y-55483142D01*
X78337787Y-55483142D02*
X80087787Y-58514230D01*
X80087787Y-58514230D02*
X78399038Y-59489230D01*
X78399038Y-59489230D02*
X78704038Y-60017506D01*
X73233937Y-61663013D02*
X73762212Y-61358013D01*
X72583937Y-60537180D02*
X73112212Y-60232180D01*
X80266063Y-57603013D02*
X79737787Y-57908013D01*
X79616063Y-56477180D02*
X79087787Y-56782180D01*
X74397372Y-57758142D02*
X74647372Y-58191154D01*
X74647372Y-58191154D02*
X74820577Y-58091154D01*
X74820577Y-58091154D02*
X74570577Y-57658142D01*
X74483974Y-57708142D02*
X74733974Y-58141154D01*
X76129423Y-56758142D02*
X76379423Y-57191154D01*
X76379423Y-57191154D02*
X76552628Y-57091154D01*
X76552628Y-57091154D02*
X76302628Y-56658142D01*
X76216025Y-56708142D02*
X76466025Y-57141154D01*
X74861661Y-62582314D02*
X73779129Y-63207314D01*
X73779129Y-63207314D02*
X73154129Y-62124782D01*
G04 #@! TO.C,R30*
X113210000Y-20628733D02*
X113210000Y-20971267D01*
X112190000Y-20628733D02*
X112190000Y-20971267D01*
G04 #@! TO.C,R31*
X109690000Y-20628733D02*
X109690000Y-20971267D01*
X110710000Y-20628733D02*
X110710000Y-20971267D01*
D15*
G04 #@! TO.C,U30*
X119050000Y-43890000D02*
X121590000Y-43890000D01*
X121590000Y-43890000D02*
X121590000Y-41350000D01*
X121590000Y-28650000D02*
X121590000Y-26110000D01*
X121590000Y-26110000D02*
X119050000Y-26110000D01*
X80315000Y-43890000D02*
X77775000Y-43890000D01*
X77775000Y-43890000D02*
X77775000Y-41350000D01*
X77775000Y-28650000D02*
X77775000Y-26110000D01*
X77775000Y-26110000D02*
X80315000Y-26110000D01*
D14*
G04 #@! TO.C,J34*
X49137506Y-77653114D02*
X45049866Y-75293114D01*
X45049866Y-75293114D02*
X51109866Y-64796886D01*
X51109866Y-64796886D02*
X55197506Y-67156886D01*
X55197506Y-67156886D02*
X49137506Y-77653114D01*
X50017506Y-76128910D02*
X50190711Y-76228910D01*
X50190711Y-76228910D02*
X50040711Y-76488717D01*
X50040711Y-76488717D02*
X49867506Y-76388717D01*
X50104109Y-76178910D02*
X49954109Y-76438717D01*
X50417506Y-75436089D02*
X49889230Y-75131089D01*
X49889230Y-75131089D02*
X48914230Y-76819839D01*
X48914230Y-76819839D02*
X45883142Y-75069839D01*
X45883142Y-75069839D02*
X51333142Y-65630162D01*
X51333142Y-65630162D02*
X54364230Y-67380162D01*
X54364230Y-67380162D02*
X53389230Y-69068911D01*
X53389230Y-69068911D02*
X53917506Y-69373911D01*
X48003013Y-76998114D02*
X48308013Y-76469839D01*
X46877180Y-76348114D02*
X47182180Y-75819839D01*
X54063013Y-66501886D02*
X53758013Y-67030162D01*
X52937180Y-65851886D02*
X52632180Y-66380162D01*
X47058142Y-73034679D02*
X47491154Y-73284679D01*
X47491154Y-73284679D02*
X47591154Y-73111474D01*
X47591154Y-73111474D02*
X47158142Y-72861474D01*
X47108142Y-72948077D02*
X47541154Y-73198077D01*
X48058142Y-71302628D02*
X48491154Y-71552628D01*
X48491154Y-71552628D02*
X48591154Y-71379423D01*
X48591154Y-71379423D02*
X48158142Y-71129423D01*
X48108142Y-71216026D02*
X48541154Y-71466026D01*
X49058142Y-69570578D02*
X49491154Y-69820578D01*
X49491154Y-69820578D02*
X49591154Y-69647372D01*
X49591154Y-69647372D02*
X49158142Y-69397372D01*
X49108142Y-69483975D02*
X49541154Y-69733975D01*
X50058142Y-67838527D02*
X50491154Y-68088527D01*
X50491154Y-68088527D02*
X50591154Y-67915322D01*
X50591154Y-67915322D02*
X50158142Y-67665322D01*
X50108142Y-67751924D02*
X50541154Y-68001924D01*
X49872314Y-76980390D02*
X49247314Y-78062922D01*
X49247314Y-78062922D02*
X48164782Y-77437922D01*
D15*
G04 #@! TO.C,U20*
X135384503Y-42857485D02*
X135359503Y-42900786D01*
X131790497Y-40782485D02*
X131717997Y-40908058D01*
X129215497Y-45242515D02*
X129287997Y-45116942D01*
X132809503Y-47317515D02*
X132882003Y-47191942D01*
X135384503Y-42857485D02*
X131790497Y-40782485D01*
X132809503Y-47317515D02*
X129215497Y-45242515D01*
X135359503Y-42900786D02*
X136571938Y-43600786D01*
G04 #@! TO.C,J35*
X17894333Y-112665448D02*
X33349146Y-108524344D01*
X22553076Y-130052113D02*
X38007889Y-125911009D01*
G04 #@! TO.C,J36*
X17894333Y-87334552D02*
X33349146Y-91475656D01*
X22553076Y-69947887D02*
X38007889Y-74088991D01*
D16*
G04 #@! TO.C,G\002A\002A\002A*
G36*
X70647167Y-153530723D02*
X70978947Y-153595418D01*
X71365004Y-153600275D01*
X71724376Y-153554375D01*
X71976103Y-153466800D01*
X72045613Y-153373866D01*
X72141662Y-153253224D01*
X72193520Y-153244002D01*
X72321541Y-153137551D01*
X72536299Y-152853368D01*
X72804539Y-152437594D01*
X72942570Y-152204753D01*
X73539956Y-151170050D01*
X73375708Y-150557068D01*
X73251637Y-150175039D01*
X73085328Y-149925103D01*
X72799201Y-149709305D01*
X72619650Y-149602405D01*
X72234088Y-149403597D01*
X71930914Y-149334156D01*
X71586935Y-149374274D01*
X71431108Y-149411287D01*
X70922033Y-149629224D01*
X70451064Y-149984772D01*
X70086630Y-150413030D01*
X69897159Y-150849100D01*
X69893571Y-150869539D01*
X69823264Y-151121326D01*
X69750112Y-151218643D01*
X69699633Y-151347757D01*
X69668562Y-151652469D01*
X69663434Y-151902927D01*
X69764597Y-152567961D01*
X70043751Y-153098687D01*
X70478413Y-153457901D01*
X70647167Y-153530723D01*
X70647167Y-153530723D01*
G37*
X70647167Y-153530723D02*
X70978947Y-153595418D01*
X71365004Y-153600275D01*
X71724376Y-153554375D01*
X71976103Y-153466800D01*
X72045613Y-153373866D01*
X72141662Y-153253224D01*
X72193520Y-153244002D01*
X72321541Y-153137551D01*
X72536299Y-152853368D01*
X72804539Y-152437594D01*
X72942570Y-152204753D01*
X73539956Y-151170050D01*
X73375708Y-150557068D01*
X73251637Y-150175039D01*
X73085328Y-149925103D01*
X72799201Y-149709305D01*
X72619650Y-149602405D01*
X72234088Y-149403597D01*
X71930914Y-149334156D01*
X71586935Y-149374274D01*
X71431108Y-149411287D01*
X70922033Y-149629224D01*
X70451064Y-149984772D01*
X70086630Y-150413030D01*
X69897159Y-150849100D01*
X69893571Y-150869539D01*
X69823264Y-151121326D01*
X69750112Y-151218643D01*
X69699633Y-151347757D01*
X69668562Y-151652469D01*
X69663434Y-151902927D01*
X69764597Y-152567961D01*
X70043751Y-153098687D01*
X70478413Y-153457901D01*
X70647167Y-153530723D01*
G36*
X58132712Y-156496859D02*
X58354672Y-156536966D01*
X58417517Y-156585605D01*
X58543179Y-156646614D01*
X58856480Y-156735548D01*
X59295101Y-156835206D01*
X59395221Y-156855474D01*
X59996436Y-156991946D01*
X60622905Y-157161206D01*
X61097166Y-157312419D01*
X61513841Y-157452705D01*
X61843955Y-157547434D01*
X61994780Y-157574302D01*
X62238303Y-157602963D01*
X62268245Y-157612227D01*
X62468377Y-157681140D01*
X62758537Y-157779016D01*
X63114710Y-157909793D01*
X63543946Y-158082212D01*
X63655949Y-158129652D01*
X64029086Y-158281133D01*
X64332130Y-158389098D01*
X64402175Y-158408997D01*
X64720368Y-158533413D01*
X65190870Y-158777434D01*
X65762319Y-159108894D01*
X66383353Y-159495629D01*
X67002608Y-159905478D01*
X67568720Y-160306274D01*
X68030328Y-160665855D01*
X68097762Y-160723207D01*
X68523701Y-161092325D01*
X68800649Y-161335951D01*
X68971632Y-161494860D01*
X69079677Y-161609827D01*
X69167810Y-161721625D01*
X69206956Y-161774363D01*
X69397127Y-161934081D01*
X69493259Y-161959418D01*
X69634223Y-162051206D01*
X69643588Y-162097208D01*
X69744825Y-162276497D01*
X69838893Y-162347980D01*
X69921969Y-162398994D01*
X70015610Y-162471815D01*
X70148332Y-162594986D01*
X70348651Y-162797052D01*
X70645086Y-163106560D01*
X71066151Y-163552053D01*
X71465351Y-163976066D01*
X71882541Y-164394490D01*
X72229838Y-164694719D01*
X72466038Y-164841938D01*
X72500294Y-164850492D01*
X72790798Y-164901793D01*
X72898401Y-164931006D01*
X73351793Y-164969296D01*
X73856377Y-164843382D01*
X74224856Y-164636822D01*
X74539969Y-164306931D01*
X74807618Y-163872140D01*
X74981278Y-163425188D01*
X75014955Y-163061843D01*
X75012423Y-162894628D01*
X75041008Y-162878781D01*
X75100869Y-162791583D01*
X75174571Y-162529009D01*
X75199501Y-162406671D01*
X75325853Y-161862452D01*
X75527912Y-161145218D01*
X75784769Y-160316859D01*
X76075519Y-159439272D01*
X76379254Y-158574346D01*
X76675065Y-157783976D01*
X76942047Y-157130053D01*
X77092368Y-156803151D01*
X77584149Y-155900063D01*
X78169606Y-155001436D01*
X78874307Y-154074881D01*
X79723819Y-153088009D01*
X80743709Y-152008431D01*
X81385896Y-151364043D01*
X81738744Y-151014247D01*
X82019243Y-150733926D01*
X82180412Y-150570110D01*
X82198871Y-150550253D01*
X82340476Y-150412038D01*
X82493892Y-150259523D01*
X82502904Y-150249184D01*
X82649254Y-150094435D01*
X82854438Y-149888931D01*
X83132256Y-149456625D01*
X83265220Y-148897170D01*
X83234604Y-148303892D01*
X83200326Y-148165087D01*
X82919474Y-147653890D01*
X82398569Y-147224443D01*
X81638164Y-146877125D01*
X81033455Y-146699928D01*
X80561692Y-146586439D01*
X80169868Y-146496956D01*
X79938796Y-146449900D01*
X79931919Y-146448846D01*
X79638705Y-146385679D01*
X79557525Y-146361316D01*
X79336446Y-146301340D01*
X78974183Y-146215886D01*
X78785614Y-146174304D01*
X78365743Y-146061796D01*
X77823561Y-145886910D01*
X77270833Y-145685885D01*
X77228942Y-145669539D01*
X76754684Y-145488097D01*
X76355877Y-145344118D01*
X76104249Y-145263279D01*
X76074406Y-145256253D01*
X75778683Y-145152739D01*
X75329339Y-144939967D01*
X74783678Y-144650202D01*
X74199001Y-144315705D01*
X73632609Y-143968739D01*
X73141804Y-143641569D01*
X72930411Y-143486064D01*
X72480771Y-143140495D01*
X72052224Y-142814277D01*
X71728906Y-142571413D01*
X71698341Y-142548821D01*
X71423250Y-142318027D01*
X71043113Y-141962938D01*
X70624461Y-141546545D01*
X70465723Y-141381778D01*
X69673434Y-140558227D01*
X69022388Y-139909800D01*
X68487322Y-139419809D01*
X68042979Y-139071562D01*
X67664096Y-138848370D01*
X67325415Y-138733542D01*
X67001675Y-138710388D01*
X66667616Y-138762218D01*
X66548554Y-138793571D01*
X66176860Y-138921772D01*
X65930700Y-139093971D01*
X65714657Y-139388372D01*
X65614666Y-139558978D01*
X65306721Y-140326224D01*
X65233799Y-140792126D01*
X65183523Y-141299649D01*
X65106896Y-141805566D01*
X65078256Y-141948822D01*
X65006392Y-142309978D01*
X64967497Y-142573147D01*
X64965152Y-142616756D01*
X64934587Y-142862430D01*
X64927265Y-142888176D01*
X64862098Y-143097575D01*
X64792588Y-143323685D01*
X64486588Y-144186265D01*
X64062866Y-145182684D01*
X63919385Y-145481485D01*
X67786609Y-147714228D01*
X68085726Y-147206389D01*
X68308041Y-146842973D01*
X68432811Y-146659085D01*
X68445068Y-146646243D01*
X68634534Y-146630799D01*
X68922632Y-146735950D01*
X68968454Y-146761151D01*
X69356855Y-146985394D01*
X67870879Y-149559180D01*
X69103195Y-150270658D01*
X69542203Y-149610319D01*
X70088048Y-149046465D01*
X70686268Y-148640317D01*
X71012379Y-148507984D01*
X71701858Y-148426691D01*
X72394569Y-148570302D01*
X73028774Y-148918167D01*
X73446358Y-149321999D01*
X73619517Y-149618960D01*
X73779061Y-150023134D01*
X73814824Y-150144298D01*
X73961905Y-150693212D01*
X74189040Y-150299804D01*
X74356175Y-150047317D01*
X74510659Y-149991409D01*
X74756453Y-150103010D01*
X74801123Y-150128644D01*
X75186072Y-150350894D01*
X70995072Y-157609919D01*
X70115190Y-157101919D01*
X70982156Y-155600290D01*
X71325544Y-155002401D01*
X71553077Y-154592237D01*
X71677152Y-154338282D01*
X71710164Y-154209019D01*
X71664509Y-154172930D01*
X71552584Y-154198498D01*
X71530651Y-154205768D01*
X71043161Y-154255591D01*
X70457057Y-154138176D01*
X69849963Y-153869191D01*
X69842666Y-153864991D01*
X69426809Y-153583608D01*
X69130923Y-153262085D01*
X68920258Y-152840116D01*
X68760063Y-152257397D01*
X68681458Y-151849829D01*
X68647202Y-151579843D01*
X68657562Y-151456698D01*
X68658390Y-151456379D01*
X68714807Y-151337926D01*
X68800578Y-151059690D01*
X68825484Y-150966263D01*
X69103195Y-150270658D01*
X67870879Y-149559180D01*
X66519347Y-151900102D01*
X66145565Y-151595011D01*
X65771784Y-151289919D01*
X67040933Y-149022748D01*
X67431430Y-148331383D01*
X67786609Y-147714228D01*
X63919385Y-145481485D01*
X63554140Y-146242123D01*
X62993126Y-147293766D01*
X62813711Y-147607118D01*
X61752247Y-149276779D01*
X60875914Y-150420108D01*
X64873691Y-152728226D01*
X65049356Y-152507953D01*
X65208282Y-152456432D01*
X65526553Y-152580925D01*
X65786662Y-152817261D01*
X65890906Y-153063876D01*
X65808200Y-153395456D01*
X65582763Y-153611343D01*
X65289449Y-153693347D01*
X65003120Y-153623272D01*
X64798632Y-153382928D01*
X64780500Y-153333739D01*
X64768859Y-153034687D01*
X64873691Y-152728226D01*
X60875914Y-150420108D01*
X60651547Y-150712833D01*
X59516851Y-151909254D01*
X58353398Y-152860017D01*
X58093492Y-153036015D01*
X57465308Y-153523783D01*
X57075100Y-154024346D01*
X56907285Y-154565538D01*
X56933268Y-155108955D01*
X57106705Y-155617399D01*
X57400952Y-156059455D01*
X57762556Y-156373272D01*
X58132712Y-156496859D01*
X58132712Y-156496859D01*
G37*
X58132712Y-156496859D02*
X58354672Y-156536966D01*
X58417517Y-156585605D01*
X58543179Y-156646614D01*
X58856480Y-156735548D01*
X59295101Y-156835206D01*
X59395221Y-156855474D01*
X59996436Y-156991946D01*
X60622905Y-157161206D01*
X61097166Y-157312419D01*
X61513841Y-157452705D01*
X61843955Y-157547434D01*
X61994780Y-157574302D01*
X62238303Y-157602963D01*
X62268245Y-157612227D01*
X62468377Y-157681140D01*
X62758537Y-157779016D01*
X63114710Y-157909793D01*
X63543946Y-158082212D01*
X63655949Y-158129652D01*
X64029086Y-158281133D01*
X64332130Y-158389098D01*
X64402175Y-158408997D01*
X64720368Y-158533413D01*
X65190870Y-158777434D01*
X65762319Y-159108894D01*
X66383353Y-159495629D01*
X67002608Y-159905478D01*
X67568720Y-160306274D01*
X68030328Y-160665855D01*
X68097762Y-160723207D01*
X68523701Y-161092325D01*
X68800649Y-161335951D01*
X68971632Y-161494860D01*
X69079677Y-161609827D01*
X69167810Y-161721625D01*
X69206956Y-161774363D01*
X69397127Y-161934081D01*
X69493259Y-161959418D01*
X69634223Y-162051206D01*
X69643588Y-162097208D01*
X69744825Y-162276497D01*
X69838893Y-162347980D01*
X69921969Y-162398994D01*
X70015610Y-162471815D01*
X70148332Y-162594986D01*
X70348651Y-162797052D01*
X70645086Y-163106560D01*
X71066151Y-163552053D01*
X71465351Y-163976066D01*
X71882541Y-164394490D01*
X72229838Y-164694719D01*
X72466038Y-164841938D01*
X72500294Y-164850492D01*
X72790798Y-164901793D01*
X72898401Y-164931006D01*
X73351793Y-164969296D01*
X73856377Y-164843382D01*
X74224856Y-164636822D01*
X74539969Y-164306931D01*
X74807618Y-163872140D01*
X74981278Y-163425188D01*
X75014955Y-163061843D01*
X75012423Y-162894628D01*
X75041008Y-162878781D01*
X75100869Y-162791583D01*
X75174571Y-162529009D01*
X75199501Y-162406671D01*
X75325853Y-161862452D01*
X75527912Y-161145218D01*
X75784769Y-160316859D01*
X76075519Y-159439272D01*
X76379254Y-158574346D01*
X76675065Y-157783976D01*
X76942047Y-157130053D01*
X77092368Y-156803151D01*
X77584149Y-155900063D01*
X78169606Y-155001436D01*
X78874307Y-154074881D01*
X79723819Y-153088009D01*
X80743709Y-152008431D01*
X81385896Y-151364043D01*
X81738744Y-151014247D01*
X82019243Y-150733926D01*
X82180412Y-150570110D01*
X82198871Y-150550253D01*
X82340476Y-150412038D01*
X82493892Y-150259523D01*
X82502904Y-150249184D01*
X82649254Y-150094435D01*
X82854438Y-149888931D01*
X83132256Y-149456625D01*
X83265220Y-148897170D01*
X83234604Y-148303892D01*
X83200326Y-148165087D01*
X82919474Y-147653890D01*
X82398569Y-147224443D01*
X81638164Y-146877125D01*
X81033455Y-146699928D01*
X80561692Y-146586439D01*
X80169868Y-146496956D01*
X79938796Y-146449900D01*
X79931919Y-146448846D01*
X79638705Y-146385679D01*
X79557525Y-146361316D01*
X79336446Y-146301340D01*
X78974183Y-146215886D01*
X78785614Y-146174304D01*
X78365743Y-146061796D01*
X77823561Y-145886910D01*
X77270833Y-145685885D01*
X77228942Y-145669539D01*
X76754684Y-145488097D01*
X76355877Y-145344118D01*
X76104249Y-145263279D01*
X76074406Y-145256253D01*
X75778683Y-145152739D01*
X75329339Y-144939967D01*
X74783678Y-144650202D01*
X74199001Y-144315705D01*
X73632609Y-143968739D01*
X73141804Y-143641569D01*
X72930411Y-143486064D01*
X72480771Y-143140495D01*
X72052224Y-142814277D01*
X71728906Y-142571413D01*
X71698341Y-142548821D01*
X71423250Y-142318027D01*
X71043113Y-141962938D01*
X70624461Y-141546545D01*
X70465723Y-141381778D01*
X69673434Y-140558227D01*
X69022388Y-139909800D01*
X68487322Y-139419809D01*
X68042979Y-139071562D01*
X67664096Y-138848370D01*
X67325415Y-138733542D01*
X67001675Y-138710388D01*
X66667616Y-138762218D01*
X66548554Y-138793571D01*
X66176860Y-138921772D01*
X65930700Y-139093971D01*
X65714657Y-139388372D01*
X65614666Y-139558978D01*
X65306721Y-140326224D01*
X65233799Y-140792126D01*
X65183523Y-141299649D01*
X65106896Y-141805566D01*
X65078256Y-141948822D01*
X65006392Y-142309978D01*
X64967497Y-142573147D01*
X64965152Y-142616756D01*
X64934587Y-142862430D01*
X64927265Y-142888176D01*
X64862098Y-143097575D01*
X64792588Y-143323685D01*
X64486588Y-144186265D01*
X64062866Y-145182684D01*
X63919385Y-145481485D01*
X67786609Y-147714228D01*
X68085726Y-147206389D01*
X68308041Y-146842973D01*
X68432811Y-146659085D01*
X68445068Y-146646243D01*
X68634534Y-146630799D01*
X68922632Y-146735950D01*
X68968454Y-146761151D01*
X69356855Y-146985394D01*
X67870879Y-149559180D01*
X69103195Y-150270658D01*
X69542203Y-149610319D01*
X70088048Y-149046465D01*
X70686268Y-148640317D01*
X71012379Y-148507984D01*
X71701858Y-148426691D01*
X72394569Y-148570302D01*
X73028774Y-148918167D01*
X73446358Y-149321999D01*
X73619517Y-149618960D01*
X73779061Y-150023134D01*
X73814824Y-150144298D01*
X73961905Y-150693212D01*
X74189040Y-150299804D01*
X74356175Y-150047317D01*
X74510659Y-149991409D01*
X74756453Y-150103010D01*
X74801123Y-150128644D01*
X75186072Y-150350894D01*
X70995072Y-157609919D01*
X70115190Y-157101919D01*
X70982156Y-155600290D01*
X71325544Y-155002401D01*
X71553077Y-154592237D01*
X71677152Y-154338282D01*
X71710164Y-154209019D01*
X71664509Y-154172930D01*
X71552584Y-154198498D01*
X71530651Y-154205768D01*
X71043161Y-154255591D01*
X70457057Y-154138176D01*
X69849963Y-153869191D01*
X69842666Y-153864991D01*
X69426809Y-153583608D01*
X69130923Y-153262085D01*
X68920258Y-152840116D01*
X68760063Y-152257397D01*
X68681458Y-151849829D01*
X68647202Y-151579843D01*
X68657562Y-151456698D01*
X68658390Y-151456379D01*
X68714807Y-151337926D01*
X68800578Y-151059690D01*
X68825484Y-150966263D01*
X69103195Y-150270658D01*
X67870879Y-149559180D01*
X66519347Y-151900102D01*
X66145565Y-151595011D01*
X65771784Y-151289919D01*
X67040933Y-149022748D01*
X67431430Y-148331383D01*
X67786609Y-147714228D01*
X63919385Y-145481485D01*
X63554140Y-146242123D01*
X62993126Y-147293766D01*
X62813711Y-147607118D01*
X61752247Y-149276779D01*
X60875914Y-150420108D01*
X64873691Y-152728226D01*
X65049356Y-152507953D01*
X65208282Y-152456432D01*
X65526553Y-152580925D01*
X65786662Y-152817261D01*
X65890906Y-153063876D01*
X65808200Y-153395456D01*
X65582763Y-153611343D01*
X65289449Y-153693347D01*
X65003120Y-153623272D01*
X64798632Y-153382928D01*
X64780500Y-153333739D01*
X64768859Y-153034687D01*
X64873691Y-152728226D01*
X60875914Y-150420108D01*
X60651547Y-150712833D01*
X59516851Y-151909254D01*
X58353398Y-152860017D01*
X58093492Y-153036015D01*
X57465308Y-153523783D01*
X57075100Y-154024346D01*
X56907285Y-154565538D01*
X56933268Y-155108955D01*
X57106705Y-155617399D01*
X57400952Y-156059455D01*
X57762556Y-156373272D01*
X58132712Y-156496859D01*
G36*
X81839684Y-143591797D02*
X81964387Y-143491523D01*
X82127489Y-143215185D01*
X82203411Y-143065296D01*
X82433018Y-142664337D01*
X82635819Y-142461833D01*
X82759433Y-142416504D01*
X83059408Y-142432728D01*
X83168452Y-142616372D01*
X83086548Y-142967319D01*
X82890695Y-143356096D01*
X82684606Y-143726332D01*
X82601485Y-143943028D01*
X82632941Y-144070033D01*
X82770583Y-144171202D01*
X82782665Y-144178208D01*
X82923500Y-144247294D01*
X83038085Y-144237188D01*
X83165840Y-144111262D01*
X83346178Y-143832893D01*
X83573566Y-143443328D01*
X84089503Y-142549698D01*
X83726204Y-142426799D01*
X83467620Y-142297066D01*
X83358577Y-142159557D01*
X83241582Y-141957858D01*
X82916674Y-141883869D01*
X82742927Y-141890553D01*
X82541713Y-141934972D01*
X82369851Y-142061357D01*
X82177098Y-142320567D01*
X81958734Y-142684299D01*
X81731470Y-143095240D01*
X81627403Y-143345067D01*
X81631730Y-143485904D01*
X81710222Y-143559234D01*
X81839684Y-143591797D01*
X81839684Y-143591797D01*
G37*
X81839684Y-143591797D02*
X81964387Y-143491523D01*
X82127489Y-143215185D01*
X82203411Y-143065296D01*
X82433018Y-142664337D01*
X82635819Y-142461833D01*
X82759433Y-142416504D01*
X83059408Y-142432728D01*
X83168452Y-142616372D01*
X83086548Y-142967319D01*
X82890695Y-143356096D01*
X82684606Y-143726332D01*
X82601485Y-143943028D01*
X82632941Y-144070033D01*
X82770583Y-144171202D01*
X82782665Y-144178208D01*
X82923500Y-144247294D01*
X83038085Y-144237188D01*
X83165840Y-144111262D01*
X83346178Y-143832893D01*
X83573566Y-143443328D01*
X84089503Y-142549698D01*
X83726204Y-142426799D01*
X83467620Y-142297066D01*
X83358577Y-142159557D01*
X83241582Y-141957858D01*
X82916674Y-141883869D01*
X82742927Y-141890553D01*
X82541713Y-141934972D01*
X82369851Y-142061357D01*
X82177098Y-142320567D01*
X81958734Y-142684299D01*
X81731470Y-143095240D01*
X81627403Y-143345067D01*
X81631730Y-143485904D01*
X81710222Y-143559234D01*
X81839684Y-143591797D01*
G36*
X76354637Y-140894353D02*
X76391223Y-140850881D01*
X76597456Y-140687435D01*
X76848525Y-140752201D01*
X76858832Y-140758081D01*
X77087201Y-140834339D01*
X77205276Y-140708848D01*
X77207408Y-140702699D01*
X77173459Y-140484322D01*
X77015639Y-140381229D01*
X76866216Y-140294072D01*
X76848190Y-140159146D01*
X76964601Y-139906794D01*
X77042330Y-139769760D01*
X77242624Y-139458813D01*
X77414361Y-139324868D01*
X77636383Y-139314751D01*
X77702774Y-139324337D01*
X77956875Y-139352202D01*
X78016048Y-139284501D01*
X77948916Y-139103459D01*
X77813035Y-138848294D01*
X77650351Y-138764020D01*
X77414586Y-138774785D01*
X77148695Y-138904718D01*
X76859011Y-139253953D01*
X76804216Y-139338931D01*
X76530500Y-139701186D01*
X76281113Y-139897899D01*
X76224949Y-139915506D01*
X76041523Y-139980816D01*
X76049684Y-140144663D01*
X76065969Y-140190867D01*
X76110869Y-140480859D01*
X76093237Y-140608502D01*
X76073820Y-140870709D01*
X76180146Y-140981605D01*
X76354637Y-140894353D01*
X76354637Y-140894353D01*
G37*
X76354637Y-140894353D02*
X76391223Y-140850881D01*
X76597456Y-140687435D01*
X76848525Y-140752201D01*
X76858832Y-140758081D01*
X77087201Y-140834339D01*
X77205276Y-140708848D01*
X77207408Y-140702699D01*
X77173459Y-140484322D01*
X77015639Y-140381229D01*
X76866216Y-140294072D01*
X76848190Y-140159146D01*
X76964601Y-139906794D01*
X77042330Y-139769760D01*
X77242624Y-139458813D01*
X77414361Y-139324868D01*
X77636383Y-139314751D01*
X77702774Y-139324337D01*
X77956875Y-139352202D01*
X78016048Y-139284501D01*
X77948916Y-139103459D01*
X77813035Y-138848294D01*
X77650351Y-138764020D01*
X77414586Y-138774785D01*
X77148695Y-138904718D01*
X76859011Y-139253953D01*
X76804216Y-139338931D01*
X76530500Y-139701186D01*
X76281113Y-139897899D01*
X76224949Y-139915506D01*
X76041523Y-139980816D01*
X76049684Y-140144663D01*
X76065969Y-140190867D01*
X76110869Y-140480859D01*
X76093237Y-140608502D01*
X76073820Y-140870709D01*
X76180146Y-140981605D01*
X76354637Y-140894353D01*
G36*
X71184502Y-137453822D02*
X71387461Y-137469898D01*
X71480666Y-137324855D01*
X71489662Y-137278279D01*
X71404596Y-137089726D01*
X71231430Y-137008762D01*
X70982372Y-136887578D01*
X70962655Y-136759645D01*
X71151311Y-136661360D01*
X71450550Y-136628383D01*
X71876340Y-136541216D01*
X72124614Y-136324540D01*
X72194864Y-136031013D01*
X72086583Y-135713293D01*
X71799261Y-135424038D01*
X71463810Y-135256692D01*
X71208463Y-135245823D01*
X71114383Y-135363126D01*
X71154490Y-135573622D01*
X71283807Y-135656021D01*
X71541710Y-135751492D01*
X71641526Y-135789227D01*
X71733385Y-135892463D01*
X71641671Y-136014274D01*
X71428496Y-136108766D01*
X71177563Y-136132048D01*
X70760253Y-136169370D01*
X70521282Y-136375335D01*
X70437225Y-136693299D01*
X70462154Y-136953270D01*
X70637166Y-137154036D01*
X70828579Y-137276513D01*
X71184502Y-137453822D01*
X71184502Y-137453822D01*
G37*
X71184502Y-137453822D02*
X71387461Y-137469898D01*
X71480666Y-137324855D01*
X71489662Y-137278279D01*
X71404596Y-137089726D01*
X71231430Y-137008762D01*
X70982372Y-136887578D01*
X70962655Y-136759645D01*
X71151311Y-136661360D01*
X71450550Y-136628383D01*
X71876340Y-136541216D01*
X72124614Y-136324540D01*
X72194864Y-136031013D01*
X72086583Y-135713293D01*
X71799261Y-135424038D01*
X71463810Y-135256692D01*
X71208463Y-135245823D01*
X71114383Y-135363126D01*
X71154490Y-135573622D01*
X71283807Y-135656021D01*
X71541710Y-135751492D01*
X71641526Y-135789227D01*
X71733385Y-135892463D01*
X71641671Y-136014274D01*
X71428496Y-136108766D01*
X71177563Y-136132048D01*
X70760253Y-136169370D01*
X70521282Y-136375335D01*
X70437225Y-136693299D01*
X70462154Y-136953270D01*
X70637166Y-137154036D01*
X70828579Y-137276513D01*
X71184502Y-137453822D01*
G36*
X79604679Y-135621955D02*
X79782143Y-135493889D01*
X79799043Y-135455348D01*
X79786824Y-135214369D01*
X79629913Y-135055715D01*
X79415756Y-135052335D01*
X79358774Y-135088065D01*
X79233424Y-135302250D01*
X79234833Y-135413435D01*
X79381273Y-135592094D01*
X79604679Y-135621955D01*
X79604679Y-135621955D01*
G37*
X79604679Y-135621955D02*
X79782143Y-135493889D01*
X79799043Y-135455348D01*
X79786824Y-135214369D01*
X79629913Y-135055715D01*
X79415756Y-135052335D01*
X79358774Y-135088065D01*
X79233424Y-135302250D01*
X79234833Y-135413435D01*
X79381273Y-135592094D01*
X79604679Y-135621955D01*
G36*
X79735970Y-134913740D02*
X79881700Y-134951253D01*
X80012132Y-134903304D01*
X80169415Y-134731250D01*
X80395698Y-134396447D01*
X80527975Y-134187629D01*
X80787762Y-133763793D01*
X80922982Y-133501225D01*
X80950273Y-133350059D01*
X80886274Y-133260433D01*
X80845957Y-133234702D01*
X80614682Y-133148013D01*
X80524034Y-133146605D01*
X80408507Y-133264552D01*
X80210617Y-133547127D01*
X79970483Y-133936438D01*
X79938294Y-133991803D01*
X79702107Y-134409689D01*
X79584297Y-134661859D01*
X79573329Y-134800863D01*
X79657673Y-134879250D01*
X79735970Y-134913740D01*
X79735970Y-134913740D01*
G37*
X79735970Y-134913740D02*
X79881700Y-134951253D01*
X80012132Y-134903304D01*
X80169415Y-134731250D01*
X80395698Y-134396447D01*
X80527975Y-134187629D01*
X80787762Y-133763793D01*
X80922982Y-133501225D01*
X80950273Y-133350059D01*
X80886274Y-133260433D01*
X80845957Y-133234702D01*
X80614682Y-133148013D01*
X80524034Y-133146605D01*
X80408507Y-133264552D01*
X80210617Y-133547127D01*
X79970483Y-133936438D01*
X79938294Y-133991803D01*
X79702107Y-134409689D01*
X79584297Y-134661859D01*
X79573329Y-134800863D01*
X79657673Y-134879250D01*
X79735970Y-134913740D01*
G36*
X85923932Y-138445463D02*
X86323157Y-138371619D01*
X86659317Y-138139858D01*
X86900287Y-137798223D01*
X87013941Y-137394752D01*
X86968153Y-136977488D01*
X86730799Y-136594470D01*
X86677305Y-136543493D01*
X86367026Y-136355911D01*
X86137901Y-136287873D01*
X85715140Y-136339158D01*
X85378853Y-136574723D01*
X85197013Y-136858052D01*
X85619850Y-137102177D01*
X85874899Y-136873718D01*
X86120136Y-136801828D01*
X86423617Y-136857883D01*
X86543909Y-137079370D01*
X86471539Y-137435839D01*
X86271039Y-137751591D01*
X86010858Y-137949828D01*
X85765682Y-137977493D01*
X85731317Y-137961676D01*
X85522492Y-137722421D01*
X85493858Y-137410500D01*
X85619850Y-137102177D01*
X85197013Y-136858052D01*
X85148336Y-136933894D01*
X85042884Y-137356000D01*
X85081794Y-137780365D01*
X85284357Y-138146314D01*
X85493768Y-138313352D01*
X85923932Y-138445463D01*
X85923932Y-138445463D01*
G37*
X85923932Y-138445463D02*
X86323157Y-138371619D01*
X86659317Y-138139858D01*
X86900287Y-137798223D01*
X87013941Y-137394752D01*
X86968153Y-136977488D01*
X86730799Y-136594470D01*
X86677305Y-136543493D01*
X86367026Y-136355911D01*
X86137901Y-136287873D01*
X85715140Y-136339158D01*
X85378853Y-136574723D01*
X85197013Y-136858052D01*
X85619850Y-137102177D01*
X85874899Y-136873718D01*
X86120136Y-136801828D01*
X86423617Y-136857883D01*
X86543909Y-137079370D01*
X86471539Y-137435839D01*
X86271039Y-137751591D01*
X86010858Y-137949828D01*
X85765682Y-137977493D01*
X85731317Y-137961676D01*
X85522492Y-137722421D01*
X85493858Y-137410500D01*
X85619850Y-137102177D01*
X85197013Y-136858052D01*
X85148336Y-136933894D01*
X85042884Y-137356000D01*
X85081794Y-137780365D01*
X85284357Y-138146314D01*
X85493768Y-138313352D01*
X85923932Y-138445463D01*
G36*
X74210345Y-132744674D02*
X74309054Y-132702763D01*
X74446114Y-132539738D01*
X74649068Y-132222422D01*
X74945458Y-131717632D01*
X74965273Y-131683328D01*
X75246337Y-131196610D01*
X75479278Y-130793413D01*
X75635400Y-130523391D01*
X75684783Y-130438205D01*
X75633193Y-130312266D01*
X75496680Y-130192508D01*
X75212107Y-129969887D01*
X75073901Y-129844179D01*
X74795263Y-129675400D01*
X74602122Y-129622219D01*
X74246039Y-129688856D01*
X73889527Y-129931293D01*
X73683578Y-130196142D01*
X74110438Y-130442589D01*
X74216606Y-130311599D01*
X74542705Y-130074243D01*
X74818499Y-130076484D01*
X75011500Y-130286236D01*
X75001421Y-130527673D01*
X74804290Y-130902796D01*
X74789083Y-130925474D01*
X74567352Y-131213925D01*
X74392221Y-131317226D01*
X74215242Y-131285105D01*
X74010866Y-131087560D01*
X73975967Y-130780272D01*
X74110438Y-130442589D01*
X73683578Y-130196142D01*
X73614453Y-130285033D01*
X73540572Y-130458514D01*
X73492452Y-130953337D01*
X73658158Y-131375836D01*
X73957024Y-131636107D01*
X74173143Y-131790039D01*
X74198313Y-131975304D01*
X74118621Y-132182478D01*
X74038678Y-132521995D01*
X74122444Y-132698651D01*
X74210345Y-132744674D01*
X74210345Y-132744674D01*
G37*
X74210345Y-132744674D02*
X74309054Y-132702763D01*
X74446114Y-132539738D01*
X74649068Y-132222422D01*
X74945458Y-131717632D01*
X74965273Y-131683328D01*
X75246337Y-131196610D01*
X75479278Y-130793413D01*
X75635400Y-130523391D01*
X75684783Y-130438205D01*
X75633193Y-130312266D01*
X75496680Y-130192508D01*
X75212107Y-129969887D01*
X75073901Y-129844179D01*
X74795263Y-129675400D01*
X74602122Y-129622219D01*
X74246039Y-129688856D01*
X73889527Y-129931293D01*
X73683578Y-130196142D01*
X74110438Y-130442589D01*
X74216606Y-130311599D01*
X74542705Y-130074243D01*
X74818499Y-130076484D01*
X75011500Y-130286236D01*
X75001421Y-130527673D01*
X74804290Y-130902796D01*
X74789083Y-130925474D01*
X74567352Y-131213925D01*
X74392221Y-131317226D01*
X74215242Y-131285105D01*
X74010866Y-131087560D01*
X73975967Y-130780272D01*
X74110438Y-130442589D01*
X73683578Y-130196142D01*
X73614453Y-130285033D01*
X73540572Y-130458514D01*
X73492452Y-130953337D01*
X73658158Y-131375836D01*
X73957024Y-131636107D01*
X74173143Y-131790039D01*
X74198313Y-131975304D01*
X74118621Y-132182478D01*
X74038678Y-132521995D01*
X74122444Y-132698651D01*
X74210345Y-132744674D01*
G36*
X87947412Y-133170710D02*
X88106106Y-133036738D01*
X88210939Y-132871163D01*
X88371470Y-132626263D01*
X88503067Y-132583445D01*
X88693501Y-132719194D01*
X88713322Y-132736550D01*
X89068795Y-132910485D01*
X89445877Y-132878433D01*
X89800792Y-132679845D01*
X90089763Y-132354173D01*
X90269014Y-131940869D01*
X90294769Y-131479384D01*
X90265975Y-131337274D01*
X90107723Y-131037296D01*
X89858065Y-130815312D01*
X89598722Y-130733126D01*
X89500420Y-130758330D01*
X89314543Y-130737852D01*
X89191496Y-130643412D01*
X89110458Y-130575525D01*
X89025079Y-130584887D01*
X88909015Y-130702983D01*
X88735927Y-130961301D01*
X88479470Y-131391327D01*
X88355685Y-131604919D01*
X88773577Y-131846190D01*
X88975571Y-131501674D01*
X89241362Y-131226045D01*
X89440508Y-131183962D01*
X89661480Y-131309013D01*
X89811149Y-131541837D01*
X89824632Y-131597851D01*
X89781032Y-131854399D01*
X89616993Y-132131277D01*
X89396210Y-132354329D01*
X89182378Y-132449396D01*
X89107995Y-132432207D01*
X88900974Y-132245611D01*
X88803789Y-132115120D01*
X88773577Y-131846190D01*
X88355685Y-131604919D01*
X88284864Y-131727120D01*
X87972338Y-132273761D01*
X87774272Y-132642689D01*
X87675659Y-132874718D01*
X87661488Y-133010664D01*
X87716750Y-133091339D01*
X87770306Y-133126361D01*
X87947412Y-133170710D01*
X87947412Y-133170710D01*
G37*
X87947412Y-133170710D02*
X88106106Y-133036738D01*
X88210939Y-132871163D01*
X88371470Y-132626263D01*
X88503067Y-132583445D01*
X88693501Y-132719194D01*
X88713322Y-132736550D01*
X89068795Y-132910485D01*
X89445877Y-132878433D01*
X89800792Y-132679845D01*
X90089763Y-132354173D01*
X90269014Y-131940869D01*
X90294769Y-131479384D01*
X90265975Y-131337274D01*
X90107723Y-131037296D01*
X89858065Y-130815312D01*
X89598722Y-130733126D01*
X89500420Y-130758330D01*
X89314543Y-130737852D01*
X89191496Y-130643412D01*
X89110458Y-130575525D01*
X89025079Y-130584887D01*
X88909015Y-130702983D01*
X88735927Y-130961301D01*
X88479470Y-131391327D01*
X88355685Y-131604919D01*
X88773577Y-131846190D01*
X88975571Y-131501674D01*
X89241362Y-131226045D01*
X89440508Y-131183962D01*
X89661480Y-131309013D01*
X89811149Y-131541837D01*
X89824632Y-131597851D01*
X89781032Y-131854399D01*
X89616993Y-132131277D01*
X89396210Y-132354329D01*
X89182378Y-132449396D01*
X89107995Y-132432207D01*
X88900974Y-132245611D01*
X88803789Y-132115120D01*
X88773577Y-131846190D01*
X88355685Y-131604919D01*
X88284864Y-131727120D01*
X87972338Y-132273761D01*
X87774272Y-132642689D01*
X87675659Y-132874718D01*
X87661488Y-133010664D01*
X87716750Y-133091339D01*
X87770306Y-133126361D01*
X87947412Y-133170710D01*
G36*
X83213405Y-129451634D02*
X83647386Y-129393918D01*
X83923400Y-129222493D01*
X84202976Y-128876327D01*
X84350127Y-128636284D01*
X84551362Y-128266347D01*
X84625451Y-128049221D01*
X84585203Y-127925756D01*
X84515189Y-127874139D01*
X84263084Y-127702956D01*
X84025193Y-127516337D01*
X83728272Y-127340911D01*
X83481606Y-127283108D01*
X83215151Y-127400178D01*
X83006213Y-127676549D01*
X83005902Y-127677672D01*
X83457588Y-127938453D01*
X83597462Y-127796308D01*
X83771589Y-127818569D01*
X83844777Y-127902417D01*
X83916713Y-128169680D01*
X83897139Y-128297247D01*
X83744402Y-128444790D01*
X83553550Y-128405979D01*
X83429663Y-128204248D01*
X83427482Y-128192507D01*
X83457588Y-127938453D01*
X83005902Y-127677672D01*
X82912186Y-128017517D01*
X82929222Y-128194505D01*
X83093726Y-128470677D01*
X83281145Y-128628133D01*
X83459573Y-128776776D01*
X83409997Y-128909958D01*
X83392815Y-128924571D01*
X83234335Y-129064710D01*
X83200628Y-129103275D01*
X83113828Y-129051107D01*
X82964076Y-128886988D01*
X82738646Y-128707632D01*
X82574242Y-128726144D01*
X82534817Y-128913842D01*
X82580544Y-129058986D01*
X82827684Y-129332956D01*
X83213405Y-129451634D01*
X83213405Y-129451634D01*
G37*
X83213405Y-129451634D02*
X83647386Y-129393918D01*
X83923400Y-129222493D01*
X84202976Y-128876327D01*
X84350127Y-128636284D01*
X84551362Y-128266347D01*
X84625451Y-128049221D01*
X84585203Y-127925756D01*
X84515189Y-127874139D01*
X84263084Y-127702956D01*
X84025193Y-127516337D01*
X83728272Y-127340911D01*
X83481606Y-127283108D01*
X83215151Y-127400178D01*
X83006213Y-127676549D01*
X83005902Y-127677672D01*
X83457588Y-127938453D01*
X83597462Y-127796308D01*
X83771589Y-127818569D01*
X83844777Y-127902417D01*
X83916713Y-128169680D01*
X83897139Y-128297247D01*
X83744402Y-128444790D01*
X83553550Y-128405979D01*
X83429663Y-128204248D01*
X83427482Y-128192507D01*
X83457588Y-127938453D01*
X83005902Y-127677672D01*
X82912186Y-128017517D01*
X82929222Y-128194505D01*
X83093726Y-128470677D01*
X83281145Y-128628133D01*
X83459573Y-128776776D01*
X83409997Y-128909958D01*
X83392815Y-128924571D01*
X83234335Y-129064710D01*
X83200628Y-129103275D01*
X83113828Y-129051107D01*
X82964076Y-128886988D01*
X82738646Y-128707632D01*
X82574242Y-128726144D01*
X82534817Y-128913842D01*
X82580544Y-129058986D01*
X82827684Y-129332956D01*
X83213405Y-129451634D01*
G36*
X76893259Y-126819262D02*
X76997521Y-126765672D01*
X77138180Y-126598537D01*
X77341366Y-126284903D01*
X77633207Y-125791819D01*
X77743170Y-125601870D01*
X78064875Y-125034907D01*
X78267879Y-124647427D01*
X78367433Y-124403109D01*
X78378788Y-124265627D01*
X78329609Y-124205128D01*
X78177663Y-124124094D01*
X78155628Y-124116901D01*
X78090774Y-124221513D01*
X77920971Y-124500977D01*
X77672167Y-124912467D01*
X77376703Y-125402539D01*
X77050279Y-125951077D01*
X76842571Y-126323400D01*
X76737382Y-126558504D01*
X76718508Y-126695374D01*
X76769749Y-126773005D01*
X76799267Y-126792258D01*
X76893259Y-126819262D01*
X76893259Y-126819262D01*
G37*
X76893259Y-126819262D02*
X76997521Y-126765672D01*
X77138180Y-126598537D01*
X77341366Y-126284903D01*
X77633207Y-125791819D01*
X77743170Y-125601870D01*
X78064875Y-125034907D01*
X78267879Y-124647427D01*
X78367433Y-124403109D01*
X78378788Y-124265627D01*
X78329609Y-124205128D01*
X78177663Y-124124094D01*
X78155628Y-124116901D01*
X78090774Y-124221513D01*
X77920971Y-124500977D01*
X77672167Y-124912467D01*
X77376703Y-125402539D01*
X77050279Y-125951077D01*
X76842571Y-126323400D01*
X76737382Y-126558504D01*
X76718508Y-126695374D01*
X76769749Y-126773005D01*
X76799267Y-126792258D01*
X76893259Y-126819262D01*
G36*
X129778276Y-155313064D02*
X129885179Y-154914093D01*
X129482545Y-154806207D01*
X129428832Y-155007382D01*
X129375121Y-155208557D01*
X129177241Y-155155725D01*
X128979362Y-155102892D01*
X128926396Y-155300560D01*
X128873431Y-155498228D01*
X129272402Y-155605132D01*
X129671372Y-155712035D01*
X129778276Y-155313064D01*
X129778276Y-155313064D01*
G37*
X129778276Y-155313064D02*
X129885179Y-154914093D01*
X129482545Y-154806207D01*
X129428832Y-155007382D01*
X129375121Y-155208557D01*
X129177241Y-155155725D01*
X128979362Y-155102892D01*
X128926396Y-155300560D01*
X128873431Y-155498228D01*
X129272402Y-155605132D01*
X129671372Y-155712035D01*
X129778276Y-155313064D01*
G36*
X130726431Y-153381498D02*
X130755879Y-153269839D01*
X130780252Y-153175734D01*
X130799820Y-153097135D01*
X130814850Y-153031989D01*
X130825612Y-152978249D01*
X130832372Y-152933862D01*
X130835401Y-152896779D01*
X130834967Y-152864950D01*
X130831339Y-152836325D01*
X130824785Y-152808852D01*
X130815572Y-152780484D01*
X130807907Y-152759580D01*
X130781184Y-152701514D01*
X130745445Y-152650424D01*
X130742276Y-152646611D01*
X130721282Y-152622199D01*
X130701220Y-152601148D01*
X130680154Y-152582671D01*
X130656153Y-152565985D01*
X130627281Y-152550306D01*
X130591603Y-152534851D01*
X130547188Y-152518833D01*
X130492100Y-152501470D01*
X130424404Y-152481978D01*
X130342169Y-152459571D01*
X130243459Y-152433466D01*
X130167778Y-152413683D01*
X130077773Y-152390286D01*
X129993951Y-152368648D01*
X129918329Y-152349280D01*
X129852923Y-152332692D01*
X129799752Y-152319392D01*
X129760834Y-152309890D01*
X129738187Y-152304697D01*
X129733112Y-152303886D01*
X129729189Y-152313968D01*
X129720974Y-152340698D01*
X129709332Y-152381068D01*
X129695128Y-152432069D01*
X129679226Y-152490695D01*
X129676606Y-152500495D01*
X129624758Y-152694741D01*
X130422515Y-152908499D01*
X130315692Y-153307524D01*
X130208868Y-153706550D01*
X130611761Y-153814505D01*
X130726431Y-153381498D01*
X130726431Y-153381498D01*
G37*
X130726431Y-153381498D02*
X130755879Y-153269839D01*
X130780252Y-153175734D01*
X130799820Y-153097135D01*
X130814850Y-153031989D01*
X130825612Y-152978249D01*
X130832372Y-152933862D01*
X130835401Y-152896779D01*
X130834967Y-152864950D01*
X130831339Y-152836325D01*
X130824785Y-152808852D01*
X130815572Y-152780484D01*
X130807907Y-152759580D01*
X130781184Y-152701514D01*
X130745445Y-152650424D01*
X130742276Y-152646611D01*
X130721282Y-152622199D01*
X130701220Y-152601148D01*
X130680154Y-152582671D01*
X130656153Y-152565985D01*
X130627281Y-152550306D01*
X130591603Y-152534851D01*
X130547188Y-152518833D01*
X130492100Y-152501470D01*
X130424404Y-152481978D01*
X130342169Y-152459571D01*
X130243459Y-152433466D01*
X130167778Y-152413683D01*
X130077773Y-152390286D01*
X129993951Y-152368648D01*
X129918329Y-152349280D01*
X129852923Y-152332692D01*
X129799752Y-152319392D01*
X129760834Y-152309890D01*
X129738187Y-152304697D01*
X129733112Y-152303886D01*
X129729189Y-152313968D01*
X129720974Y-152340698D01*
X129709332Y-152381068D01*
X129695128Y-152432069D01*
X129679226Y-152490695D01*
X129676606Y-152500495D01*
X129624758Y-152694741D01*
X130422515Y-152908499D01*
X130315692Y-153307524D01*
X130208868Y-153706550D01*
X130611761Y-153814505D01*
X130726431Y-153381498D01*
G36*
X128570539Y-154970896D02*
X128579753Y-154944332D01*
X128592198Y-154904090D01*
X128606951Y-154853168D01*
X128623091Y-154794567D01*
X128625706Y-154784806D01*
X128677559Y-154590545D01*
X128278614Y-154483553D01*
X127879669Y-154376560D01*
X127985723Y-153981129D01*
X128008727Y-153894984D01*
X128029877Y-153815070D01*
X128048630Y-153743488D01*
X128064444Y-153682340D01*
X128076777Y-153633727D01*
X128085087Y-153599754D01*
X128088833Y-153582519D01*
X128088955Y-153580809D01*
X128078693Y-153576702D01*
X128052422Y-153568599D01*
X128013836Y-153557488D01*
X127966626Y-153544356D01*
X127914482Y-153530189D01*
X127861097Y-153515976D01*
X127810163Y-153502703D01*
X127765373Y-153491358D01*
X127730415Y-153482928D01*
X127708984Y-153478399D01*
X127704262Y-153477937D01*
X127699972Y-153487800D01*
X127691088Y-153515326D01*
X127678178Y-153558524D01*
X127661809Y-153615399D01*
X127642549Y-153683962D01*
X127620966Y-153762221D01*
X127597628Y-153848185D01*
X127580229Y-153913084D01*
X127550109Y-154026159D01*
X127525030Y-154121621D01*
X127504844Y-154201502D01*
X127489406Y-154267837D01*
X127478567Y-154322656D01*
X127472183Y-154367994D01*
X127470106Y-154405886D01*
X127472189Y-154438362D01*
X127478285Y-154467457D01*
X127488248Y-154495203D01*
X127501931Y-154523635D01*
X127519188Y-154554783D01*
X127532291Y-154577518D01*
X127552284Y-154611733D01*
X127570748Y-154640936D01*
X127589525Y-154666020D01*
X127610457Y-154687879D01*
X127635386Y-154707406D01*
X127666156Y-154725493D01*
X127704609Y-154743033D01*
X127752586Y-154760921D01*
X127811931Y-154780049D01*
X127884487Y-154801311D01*
X127972095Y-154825599D01*
X128076598Y-154853808D01*
X128133900Y-154869162D01*
X128223262Y-154893004D01*
X128306581Y-154915064D01*
X128381808Y-154934809D01*
X128446888Y-154951709D01*
X128499770Y-154965234D01*
X128538401Y-154974851D01*
X128560729Y-154980031D01*
X128565475Y-154980783D01*
X128570539Y-154970896D01*
X128570539Y-154970896D01*
G37*
X128570539Y-154970896D02*
X128579753Y-154944332D01*
X128592198Y-154904090D01*
X128606951Y-154853168D01*
X128623091Y-154794567D01*
X128625706Y-154784806D01*
X128677559Y-154590545D01*
X128278614Y-154483553D01*
X127879669Y-154376560D01*
X127985723Y-153981129D01*
X128008727Y-153894984D01*
X128029877Y-153815070D01*
X128048630Y-153743488D01*
X128064444Y-153682340D01*
X128076777Y-153633727D01*
X128085087Y-153599754D01*
X128088833Y-153582519D01*
X128088955Y-153580809D01*
X128078693Y-153576702D01*
X128052422Y-153568599D01*
X128013836Y-153557488D01*
X127966626Y-153544356D01*
X127914482Y-153530189D01*
X127861097Y-153515976D01*
X127810163Y-153502703D01*
X127765373Y-153491358D01*
X127730415Y-153482928D01*
X127708984Y-153478399D01*
X127704262Y-153477937D01*
X127699972Y-153487800D01*
X127691088Y-153515326D01*
X127678178Y-153558524D01*
X127661809Y-153615399D01*
X127642549Y-153683962D01*
X127620966Y-153762221D01*
X127597628Y-153848185D01*
X127580229Y-153913084D01*
X127550109Y-154026159D01*
X127525030Y-154121621D01*
X127504844Y-154201502D01*
X127489406Y-154267837D01*
X127478567Y-154322656D01*
X127472183Y-154367994D01*
X127470106Y-154405886D01*
X127472189Y-154438362D01*
X127478285Y-154467457D01*
X127488248Y-154495203D01*
X127501931Y-154523635D01*
X127519188Y-154554783D01*
X127532291Y-154577518D01*
X127552284Y-154611733D01*
X127570748Y-154640936D01*
X127589525Y-154666020D01*
X127610457Y-154687879D01*
X127635386Y-154707406D01*
X127666156Y-154725493D01*
X127704609Y-154743033D01*
X127752586Y-154760921D01*
X127811931Y-154780049D01*
X127884487Y-154801311D01*
X127972095Y-154825599D01*
X128076598Y-154853808D01*
X128133900Y-154869162D01*
X128223262Y-154893004D01*
X128306581Y-154915064D01*
X128381808Y-154934809D01*
X128446888Y-154951709D01*
X128499770Y-154965234D01*
X128538401Y-154974851D01*
X128560729Y-154980031D01*
X128565475Y-154980783D01*
X128570539Y-154970896D01*
G36*
X129703327Y-153983775D02*
X129727522Y-153892676D01*
X129750058Y-153805819D01*
X129770357Y-153725564D01*
X129787847Y-153654275D01*
X129801954Y-153594314D01*
X129812102Y-153548041D01*
X129817718Y-153517818D01*
X129818646Y-153509475D01*
X129812642Y-153425980D01*
X129788559Y-153344536D01*
X129748578Y-153268744D01*
X129694882Y-153202204D01*
X129629653Y-153148518D01*
X129584736Y-153123433D01*
X129565122Y-153116231D01*
X129528191Y-153104560D01*
X129476278Y-153089088D01*
X129411725Y-153070488D01*
X129336873Y-153049427D01*
X129254059Y-153026579D01*
X129165626Y-153002611D01*
X129125191Y-152991792D01*
X128711544Y-152881553D01*
X128605909Y-153277199D01*
X129001348Y-153383059D01*
X129087578Y-153406324D01*
X129167576Y-153428257D01*
X129239233Y-153448253D01*
X129300438Y-153465707D01*
X129349083Y-153480017D01*
X129383059Y-153490576D01*
X129400255Y-153496780D01*
X129401932Y-153497832D01*
X129400504Y-153509279D01*
X129394265Y-153538201D01*
X129383748Y-153582471D01*
X129369482Y-153639960D01*
X129352000Y-153708537D01*
X129331833Y-153786075D01*
X129309512Y-153870444D01*
X129301037Y-153902136D01*
X129194995Y-154297527D01*
X129392724Y-154350697D01*
X129590455Y-154403868D01*
X129703327Y-153983775D01*
X129703327Y-153983775D01*
G37*
X129703327Y-153983775D02*
X129727522Y-153892676D01*
X129750058Y-153805819D01*
X129770357Y-153725564D01*
X129787847Y-153654275D01*
X129801954Y-153594314D01*
X129812102Y-153548041D01*
X129817718Y-153517818D01*
X129818646Y-153509475D01*
X129812642Y-153425980D01*
X129788559Y-153344536D01*
X129748578Y-153268744D01*
X129694882Y-153202204D01*
X129629653Y-153148518D01*
X129584736Y-153123433D01*
X129565122Y-153116231D01*
X129528191Y-153104560D01*
X129476278Y-153089088D01*
X129411725Y-153070488D01*
X129336873Y-153049427D01*
X129254059Y-153026579D01*
X129165626Y-153002611D01*
X129125191Y-152991792D01*
X128711544Y-152881553D01*
X128605909Y-153277199D01*
X129001348Y-153383059D01*
X129087578Y-153406324D01*
X129167576Y-153428257D01*
X129239233Y-153448253D01*
X129300438Y-153465707D01*
X129349083Y-153480017D01*
X129383059Y-153490576D01*
X129400255Y-153496780D01*
X129401932Y-153497832D01*
X129400504Y-153509279D01*
X129394265Y-153538201D01*
X129383748Y-153582471D01*
X129369482Y-153639960D01*
X129352000Y-153708537D01*
X129331833Y-153786075D01*
X129309512Y-153870444D01*
X129301037Y-153902136D01*
X129194995Y-154297527D01*
X129392724Y-154350697D01*
X129590455Y-154403868D01*
X129703327Y-153983775D01*
G36*
X127611079Y-155379331D02*
X127663896Y-155181507D01*
X127268457Y-155075647D01*
X127182231Y-155052385D01*
X127102239Y-155030460D01*
X127030590Y-155010477D01*
X126969395Y-154993039D01*
X126920760Y-154978750D01*
X126886797Y-154968211D01*
X126869612Y-154962031D01*
X126867939Y-154960987D01*
X126869377Y-154949565D01*
X126875617Y-154920663D01*
X126886128Y-154876409D01*
X126900379Y-154818930D01*
X126917838Y-154750353D01*
X126937977Y-154672808D01*
X126960265Y-154588421D01*
X126968791Y-154556482D01*
X127074725Y-154160778D01*
X126876907Y-154107962D01*
X126679088Y-154055146D01*
X126566057Y-154481118D01*
X126542077Y-154572105D01*
X126519708Y-154658162D01*
X126499507Y-154737056D01*
X126482033Y-154806556D01*
X126467842Y-154864427D01*
X126457494Y-154908440D01*
X126451546Y-154936361D01*
X126450331Y-154944314D01*
X126454327Y-155022290D01*
X126475851Y-155100674D01*
X126512595Y-155175436D01*
X126562257Y-155242550D01*
X126622532Y-155297986D01*
X126669598Y-155327579D01*
X126689639Y-155335525D01*
X126727011Y-155347912D01*
X126779380Y-155364057D01*
X126844415Y-155383276D01*
X126919783Y-155404886D01*
X127003152Y-155428202D01*
X127092187Y-155452542D01*
X127138013Y-155464859D01*
X127558261Y-155577155D01*
X127611079Y-155379331D01*
X127611079Y-155379331D01*
G37*
X127611079Y-155379331D02*
X127663896Y-155181507D01*
X127268457Y-155075647D01*
X127182231Y-155052385D01*
X127102239Y-155030460D01*
X127030590Y-155010477D01*
X126969395Y-154993039D01*
X126920760Y-154978750D01*
X126886797Y-154968211D01*
X126869612Y-154962031D01*
X126867939Y-154960987D01*
X126869377Y-154949565D01*
X126875617Y-154920663D01*
X126886128Y-154876409D01*
X126900379Y-154818930D01*
X126917838Y-154750353D01*
X126937977Y-154672808D01*
X126960265Y-154588421D01*
X126968791Y-154556482D01*
X127074725Y-154160778D01*
X126876907Y-154107962D01*
X126679088Y-154055146D01*
X126566057Y-154481118D01*
X126542077Y-154572105D01*
X126519708Y-154658162D01*
X126499507Y-154737056D01*
X126482033Y-154806556D01*
X126467842Y-154864427D01*
X126457494Y-154908440D01*
X126451546Y-154936361D01*
X126450331Y-154944314D01*
X126454327Y-155022290D01*
X126475851Y-155100674D01*
X126512595Y-155175436D01*
X126562257Y-155242550D01*
X126622532Y-155297986D01*
X126669598Y-155327579D01*
X126689639Y-155335525D01*
X126727011Y-155347912D01*
X126779380Y-155364057D01*
X126844415Y-155383276D01*
X126919783Y-155404886D01*
X127003152Y-155428202D01*
X127092187Y-155452542D01*
X127138013Y-155464859D01*
X127558261Y-155577155D01*
X127611079Y-155379331D01*
G36*
X129291130Y-151538076D02*
X126246739Y-153295756D01*
X126460099Y-153665306D01*
X129504490Y-151907626D01*
X129291130Y-151538076D01*
X129291130Y-151538076D01*
G37*
X129291130Y-151538076D02*
X126246739Y-153295756D01*
X126460099Y-153665306D01*
X129504490Y-151907626D01*
X129291130Y-151538076D01*
G36*
X141608249Y-142071633D02*
X140362598Y-139919463D01*
X140302071Y-139860554D01*
X140198054Y-139772653D01*
X140085513Y-139702293D01*
X139966158Y-139649881D01*
X139841696Y-139615823D01*
X139713836Y-139600527D01*
X139584286Y-139604400D01*
X139454755Y-139627848D01*
X139396932Y-139644893D01*
X139384866Y-139649258D01*
X139370292Y-139655327D01*
X139352320Y-139663601D01*
X139330056Y-139674584D01*
X139302610Y-139688781D01*
X139269089Y-139706693D01*
X139228603Y-139728825D01*
X139180257Y-139755677D01*
X139123163Y-139787755D01*
X139056425Y-139825561D01*
X138979155Y-139869598D01*
X138890458Y-139920369D01*
X138789445Y-139978377D01*
X138675222Y-140044127D01*
X138546899Y-140118118D01*
X138403581Y-140200857D01*
X138244380Y-140292845D01*
X138088003Y-140383251D01*
X137907782Y-140487505D01*
X137744423Y-140582098D01*
X137597161Y-140667481D01*
X137465234Y-140744105D01*
X137347876Y-140812420D01*
X137244325Y-140872878D01*
X137153816Y-140925930D01*
X137075585Y-140972025D01*
X137008869Y-141011614D01*
X136952902Y-141045149D01*
X136906922Y-141073081D01*
X136870165Y-141095860D01*
X136841866Y-141113936D01*
X136821263Y-141127759D01*
X136807590Y-141137783D01*
X136803472Y-141141194D01*
X136712983Y-141234011D01*
X136638043Y-141339602D01*
X136579203Y-141457031D01*
X136537010Y-141585363D01*
X136533286Y-141600624D01*
X136514439Y-141697855D01*
X136506514Y-141787930D01*
X136509569Y-141877592D01*
X136523659Y-141973587D01*
X136536967Y-142035059D01*
X136539448Y-142044382D01*
X136542983Y-142055057D01*
X136548073Y-142067974D01*
X136555216Y-142084030D01*
X136564910Y-142104113D01*
X136577655Y-142129118D01*
X136593949Y-142159937D01*
X136614293Y-142197461D01*
X136639183Y-142242586D01*
X136669119Y-142296200D01*
X136704600Y-142359198D01*
X136746125Y-142432473D01*
X136794192Y-142516916D01*
X136849301Y-142613419D01*
X136911950Y-142722876D01*
X136982639Y-142846179D01*
X137061865Y-142984220D01*
X137150128Y-143137892D01*
X137247927Y-143308087D01*
X137270309Y-143347032D01*
X137372477Y-143524812D01*
X137465049Y-143685880D01*
X137548583Y-143831129D01*
X137623633Y-143961448D01*
X137690756Y-144077728D01*
X137750508Y-144180861D01*
X137803445Y-144271738D01*
X137850121Y-144351250D01*
X137891094Y-144420288D01*
X137926920Y-144479742D01*
X137958156Y-144530506D01*
X137985356Y-144573467D01*
X138009077Y-144609519D01*
X138029873Y-144639552D01*
X138048304Y-144664459D01*
X138064923Y-144685128D01*
X138080286Y-144702452D01*
X138094950Y-144717321D01*
X138109472Y-144730627D01*
X138124406Y-144743260D01*
X138140309Y-144756112D01*
X138157736Y-144770075D01*
X138158786Y-144770921D01*
X138260160Y-144840174D01*
X138372820Y-144894699D01*
X138493101Y-144933515D01*
X138617338Y-144955636D01*
X138741864Y-144960084D01*
X138832123Y-144951405D01*
X138859295Y-144947111D01*
X138884158Y-144942827D01*
X138907929Y-144937932D01*
X138931822Y-144931805D01*
X138957055Y-144923826D01*
X138984842Y-144913375D01*
X139016402Y-144899832D01*
X139052948Y-144882576D01*
X139095699Y-144860986D01*
X139145869Y-144834443D01*
X139204674Y-144802327D01*
X139273331Y-144764016D01*
X139353056Y-144718889D01*
X139445065Y-144666328D01*
X139550573Y-144605712D01*
X139670798Y-144536420D01*
X139806955Y-144457832D01*
X139862344Y-144425851D01*
X140662264Y-143964018D01*
X140225384Y-143207319D01*
X138703188Y-144086159D01*
X137382388Y-141798467D01*
X139678880Y-140472587D01*
X142096960Y-144660824D01*
X142475430Y-144442315D01*
X142853901Y-144223805D01*
X141608249Y-142071633D01*
X141608249Y-142071633D01*
G37*
X141608249Y-142071633D02*
X140362598Y-139919463D01*
X140302071Y-139860554D01*
X140198054Y-139772653D01*
X140085513Y-139702293D01*
X139966158Y-139649881D01*
X139841696Y-139615823D01*
X139713836Y-139600527D01*
X139584286Y-139604400D01*
X139454755Y-139627848D01*
X139396932Y-139644893D01*
X139384866Y-139649258D01*
X139370292Y-139655327D01*
X139352320Y-139663601D01*
X139330056Y-139674584D01*
X139302610Y-139688781D01*
X139269089Y-139706693D01*
X139228603Y-139728825D01*
X139180257Y-139755677D01*
X139123163Y-139787755D01*
X139056425Y-139825561D01*
X138979155Y-139869598D01*
X138890458Y-139920369D01*
X138789445Y-139978377D01*
X138675222Y-140044127D01*
X138546899Y-140118118D01*
X138403581Y-140200857D01*
X138244380Y-140292845D01*
X138088003Y-140383251D01*
X137907782Y-140487505D01*
X137744423Y-140582098D01*
X137597161Y-140667481D01*
X137465234Y-140744105D01*
X137347876Y-140812420D01*
X137244325Y-140872878D01*
X137153816Y-140925930D01*
X137075585Y-140972025D01*
X137008869Y-141011614D01*
X136952902Y-141045149D01*
X136906922Y-141073081D01*
X136870165Y-141095860D01*
X136841866Y-141113936D01*
X136821263Y-141127759D01*
X136807590Y-141137783D01*
X136803472Y-141141194D01*
X136712983Y-141234011D01*
X136638043Y-141339602D01*
X136579203Y-141457031D01*
X136537010Y-141585363D01*
X136533286Y-141600624D01*
X136514439Y-141697855D01*
X136506514Y-141787930D01*
X136509569Y-141877592D01*
X136523659Y-141973587D01*
X136536967Y-142035059D01*
X136539448Y-142044382D01*
X136542983Y-142055057D01*
X136548073Y-142067974D01*
X136555216Y-142084030D01*
X136564910Y-142104113D01*
X136577655Y-142129118D01*
X136593949Y-142159937D01*
X136614293Y-142197461D01*
X136639183Y-142242586D01*
X136669119Y-142296200D01*
X136704600Y-142359198D01*
X136746125Y-142432473D01*
X136794192Y-142516916D01*
X136849301Y-142613419D01*
X136911950Y-142722876D01*
X136982639Y-142846179D01*
X137061865Y-142984220D01*
X137150128Y-143137892D01*
X137247927Y-143308087D01*
X137270309Y-143347032D01*
X137372477Y-143524812D01*
X137465049Y-143685880D01*
X137548583Y-143831129D01*
X137623633Y-143961448D01*
X137690756Y-144077728D01*
X137750508Y-144180861D01*
X137803445Y-144271738D01*
X137850121Y-144351250D01*
X137891094Y-144420288D01*
X137926920Y-144479742D01*
X137958156Y-144530506D01*
X137985356Y-144573467D01*
X138009077Y-144609519D01*
X138029873Y-144639552D01*
X138048304Y-144664459D01*
X138064923Y-144685128D01*
X138080286Y-144702452D01*
X138094950Y-144717321D01*
X138109472Y-144730627D01*
X138124406Y-144743260D01*
X138140309Y-144756112D01*
X138157736Y-144770075D01*
X138158786Y-144770921D01*
X138260160Y-144840174D01*
X138372820Y-144894699D01*
X138493101Y-144933515D01*
X138617338Y-144955636D01*
X138741864Y-144960084D01*
X138832123Y-144951405D01*
X138859295Y-144947111D01*
X138884158Y-144942827D01*
X138907929Y-144937932D01*
X138931822Y-144931805D01*
X138957055Y-144923826D01*
X138984842Y-144913375D01*
X139016402Y-144899832D01*
X139052948Y-144882576D01*
X139095699Y-144860986D01*
X139145869Y-144834443D01*
X139204674Y-144802327D01*
X139273331Y-144764016D01*
X139353056Y-144718889D01*
X139445065Y-144666328D01*
X139550573Y-144605712D01*
X139670798Y-144536420D01*
X139806955Y-144457832D01*
X139862344Y-144425851D01*
X140662264Y-143964018D01*
X140225384Y-143207319D01*
X138703188Y-144086159D01*
X137382388Y-141798467D01*
X139678880Y-140472587D01*
X142096960Y-144660824D01*
X142475430Y-144442315D01*
X142853901Y-144223805D01*
X141608249Y-142071633D01*
G36*
X135401594Y-146998551D02*
X136995016Y-146075438D01*
X137055388Y-146007286D01*
X137140985Y-145896327D01*
X137208158Y-145777909D01*
X137256496Y-145653087D01*
X137285591Y-145522915D01*
X137295035Y-145388449D01*
X137295034Y-145388345D01*
X137289759Y-145316531D01*
X137275607Y-145235035D01*
X137254327Y-145151490D01*
X137227671Y-145073534D01*
X137217035Y-145048170D01*
X137206795Y-145027837D01*
X137186647Y-144990489D01*
X137156903Y-144936675D01*
X137117875Y-144866943D01*
X137069877Y-144781842D01*
X137013220Y-144681919D01*
X136948216Y-144567724D01*
X136875179Y-144439802D01*
X136794422Y-144298704D01*
X136706255Y-144144977D01*
X136610992Y-143979169D01*
X136508945Y-143801829D01*
X136400427Y-143613505D01*
X136300729Y-143440693D01*
X135423312Y-141920608D01*
X134657815Y-142362568D01*
X136415495Y-145406959D01*
X134127803Y-146727759D01*
X132370123Y-143683368D01*
X131613424Y-144120248D01*
X133808172Y-147921662D01*
X135401594Y-146998551D01*
X135401594Y-146998551D01*
G37*
X135401594Y-146998551D02*
X136995016Y-146075438D01*
X137055388Y-146007286D01*
X137140985Y-145896327D01*
X137208158Y-145777909D01*
X137256496Y-145653087D01*
X137285591Y-145522915D01*
X137295035Y-145388449D01*
X137295034Y-145388345D01*
X137289759Y-145316531D01*
X137275607Y-145235035D01*
X137254327Y-145151490D01*
X137227671Y-145073534D01*
X137217035Y-145048170D01*
X137206795Y-145027837D01*
X137186647Y-144990489D01*
X137156903Y-144936675D01*
X137117875Y-144866943D01*
X137069877Y-144781842D01*
X137013220Y-144681919D01*
X136948216Y-144567724D01*
X136875179Y-144439802D01*
X136794422Y-144298704D01*
X136706255Y-144144977D01*
X136610992Y-143979169D01*
X136508945Y-143801829D01*
X136400427Y-143613505D01*
X136300729Y-143440693D01*
X135423312Y-141920608D01*
X134657815Y-142362568D01*
X136415495Y-145406959D01*
X134127803Y-146727759D01*
X132370123Y-143683368D01*
X131613424Y-144120248D01*
X133808172Y-147921662D01*
X135401594Y-146998551D01*
G36*
X130557990Y-149796247D02*
X130683229Y-149723750D01*
X130823243Y-149642625D01*
X130978949Y-149552357D01*
X131151266Y-149452430D01*
X131160506Y-149447071D01*
X131334149Y-149346353D01*
X131491081Y-149255290D01*
X131632181Y-149173358D01*
X131758326Y-149100037D01*
X131870393Y-149034801D01*
X131969259Y-148977128D01*
X132055802Y-148926498D01*
X132130899Y-148882383D01*
X132195428Y-148844264D01*
X132250266Y-148811617D01*
X132296290Y-148783918D01*
X132334376Y-148760646D01*
X132365405Y-148741277D01*
X132390252Y-148725287D01*
X132409793Y-148712155D01*
X132424908Y-148701358D01*
X132436473Y-148692371D01*
X132445366Y-148684674D01*
X132452464Y-148677743D01*
X132453969Y-148676165D01*
X132522917Y-148597728D01*
X132577211Y-148522673D01*
X132620296Y-148445143D01*
X132655612Y-148359279D01*
X132674780Y-148300414D01*
X132704690Y-148174490D01*
X132716530Y-148053307D01*
X132710467Y-147932649D01*
X132693270Y-147835539D01*
X132675894Y-147759593D01*
X132197187Y-146924391D01*
X131718481Y-146089188D01*
X130961270Y-146526364D01*
X131840148Y-148048625D01*
X129545478Y-149367500D01*
X128884114Y-148227143D01*
X128222752Y-147086785D01*
X131276008Y-145323987D01*
X130839128Y-144567288D01*
X129266754Y-145476056D01*
X129068417Y-145590706D01*
X128886931Y-145695662D01*
X128721541Y-145791369D01*
X128571485Y-145878273D01*
X128436010Y-145956819D01*
X128314356Y-146027456D01*
X128205766Y-146090627D01*
X128109484Y-146146779D01*
X128024750Y-146196357D01*
X127950809Y-146239809D01*
X127886902Y-146277579D01*
X127832273Y-146310113D01*
X127786163Y-146337857D01*
X127747815Y-146361258D01*
X127716472Y-146380762D01*
X127691377Y-146396813D01*
X127671771Y-146409857D01*
X127656898Y-146420342D01*
X127646000Y-146428713D01*
X127640371Y-146433518D01*
X127550108Y-146528198D01*
X127476087Y-146633913D01*
X127418855Y-146748792D01*
X127378956Y-146870964D01*
X127356935Y-146998563D01*
X127353338Y-147129717D01*
X127368709Y-147262556D01*
X127381569Y-147320844D01*
X127402172Y-147402168D01*
X128095278Y-148609254D01*
X128203185Y-148797069D01*
X128301414Y-148967801D01*
X128390313Y-149122042D01*
X128470228Y-149260384D01*
X128541505Y-149383420D01*
X128604491Y-149491743D01*
X128659532Y-149585944D01*
X128706976Y-149666616D01*
X128747167Y-149734351D01*
X128780454Y-149789742D01*
X128807183Y-149833382D01*
X128827700Y-149865860D01*
X128842351Y-149887774D01*
X128846878Y-149894020D01*
X128935404Y-149995364D01*
X129035767Y-150080626D01*
X129146686Y-150149056D01*
X129266876Y-150199902D01*
X129395058Y-150232415D01*
X129434816Y-150238473D01*
X129558515Y-150245560D01*
X129681964Y-150235543D01*
X129799424Y-150208944D01*
X129815240Y-150203867D01*
X129828803Y-150199242D01*
X129842468Y-150194244D01*
X129857150Y-150188358D01*
X129873768Y-150181068D01*
X129893239Y-150171857D01*
X129916480Y-150160210D01*
X129944408Y-150145611D01*
X129977939Y-150127545D01*
X130017991Y-150105494D01*
X130065483Y-150078943D01*
X130121329Y-150047377D01*
X130186447Y-150010278D01*
X130261756Y-149967131D01*
X130348171Y-149917422D01*
X130446611Y-149860632D01*
X130557990Y-149796247D01*
X130557990Y-149796247D01*
G37*
X130557990Y-149796247D02*
X130683229Y-149723750D01*
X130823243Y-149642625D01*
X130978949Y-149552357D01*
X131151266Y-149452430D01*
X131160506Y-149447071D01*
X131334149Y-149346353D01*
X131491081Y-149255290D01*
X131632181Y-149173358D01*
X131758326Y-149100037D01*
X131870393Y-149034801D01*
X131969259Y-148977128D01*
X132055802Y-148926498D01*
X132130899Y-148882383D01*
X132195428Y-148844264D01*
X132250266Y-148811617D01*
X132296290Y-148783918D01*
X132334376Y-148760646D01*
X132365405Y-148741277D01*
X132390252Y-148725287D01*
X132409793Y-148712155D01*
X132424908Y-148701358D01*
X132436473Y-148692371D01*
X132445366Y-148684674D01*
X132452464Y-148677743D01*
X132453969Y-148676165D01*
X132522917Y-148597728D01*
X132577211Y-148522673D01*
X132620296Y-148445143D01*
X132655612Y-148359279D01*
X132674780Y-148300414D01*
X132704690Y-148174490D01*
X132716530Y-148053307D01*
X132710467Y-147932649D01*
X132693270Y-147835539D01*
X132675894Y-147759593D01*
X132197187Y-146924391D01*
X131718481Y-146089188D01*
X130961270Y-146526364D01*
X131840148Y-148048625D01*
X129545478Y-149367500D01*
X128884114Y-148227143D01*
X128222752Y-147086785D01*
X131276008Y-145323987D01*
X130839128Y-144567288D01*
X129266754Y-145476056D01*
X129068417Y-145590706D01*
X128886931Y-145695662D01*
X128721541Y-145791369D01*
X128571485Y-145878273D01*
X128436010Y-145956819D01*
X128314356Y-146027456D01*
X128205766Y-146090627D01*
X128109484Y-146146779D01*
X128024750Y-146196357D01*
X127950809Y-146239809D01*
X127886902Y-146277579D01*
X127832273Y-146310113D01*
X127786163Y-146337857D01*
X127747815Y-146361258D01*
X127716472Y-146380762D01*
X127691377Y-146396813D01*
X127671771Y-146409857D01*
X127656898Y-146420342D01*
X127646000Y-146428713D01*
X127640371Y-146433518D01*
X127550108Y-146528198D01*
X127476087Y-146633913D01*
X127418855Y-146748792D01*
X127378956Y-146870964D01*
X127356935Y-146998563D01*
X127353338Y-147129717D01*
X127368709Y-147262556D01*
X127381569Y-147320844D01*
X127402172Y-147402168D01*
X128095278Y-148609254D01*
X128203185Y-148797069D01*
X128301414Y-148967801D01*
X128390313Y-149122042D01*
X128470228Y-149260384D01*
X128541505Y-149383420D01*
X128604491Y-149491743D01*
X128659532Y-149585944D01*
X128706976Y-149666616D01*
X128747167Y-149734351D01*
X128780454Y-149789742D01*
X128807183Y-149833382D01*
X128827700Y-149865860D01*
X128842351Y-149887774D01*
X128846878Y-149894020D01*
X128935404Y-149995364D01*
X129035767Y-150080626D01*
X129146686Y-150149056D01*
X129266876Y-150199902D01*
X129395058Y-150232415D01*
X129434816Y-150238473D01*
X129558515Y-150245560D01*
X129681964Y-150235543D01*
X129799424Y-150208944D01*
X129815240Y-150203867D01*
X129828803Y-150199242D01*
X129842468Y-150194244D01*
X129857150Y-150188358D01*
X129873768Y-150181068D01*
X129893239Y-150171857D01*
X129916480Y-150160210D01*
X129944408Y-150145611D01*
X129977939Y-150127545D01*
X130017991Y-150105494D01*
X130065483Y-150078943D01*
X130121329Y-150047377D01*
X130186447Y-150010278D01*
X130261756Y-149967131D01*
X130348171Y-149917422D01*
X130446611Y-149860632D01*
X130557990Y-149796247D01*
G36*
X121595225Y-154972378D02*
X122777050Y-154290051D01*
X122976435Y-154174840D01*
X123158242Y-154069586D01*
X123322461Y-153974295D01*
X123469083Y-153888971D01*
X123598097Y-153813622D01*
X123709492Y-153748252D01*
X123803261Y-153692869D01*
X123879394Y-153647476D01*
X123937879Y-153612082D01*
X123978707Y-153586690D01*
X124001868Y-153571307D01*
X124005745Y-153568334D01*
X124102735Y-153474166D01*
X124182600Y-153369669D01*
X124244926Y-153256072D01*
X124289299Y-153134605D01*
X124315303Y-153006498D01*
X124322525Y-152872983D01*
X124310553Y-152735290D01*
X124302099Y-152688060D01*
X124287236Y-152614519D01*
X123366285Y-151013983D01*
X122445334Y-149413448D01*
X121688357Y-149850488D01*
X123446037Y-152894879D01*
X121158345Y-154215679D01*
X119400665Y-151171288D01*
X118635168Y-151613248D01*
X121490128Y-156558184D01*
X122255625Y-156116224D01*
X121595225Y-154972378D01*
X121595225Y-154972378D01*
G37*
X121595225Y-154972378D02*
X122777050Y-154290051D01*
X122976435Y-154174840D01*
X123158242Y-154069586D01*
X123322461Y-153974295D01*
X123469083Y-153888971D01*
X123598097Y-153813622D01*
X123709492Y-153748252D01*
X123803261Y-153692869D01*
X123879394Y-153647476D01*
X123937879Y-153612082D01*
X123978707Y-153586690D01*
X124001868Y-153571307D01*
X124005745Y-153568334D01*
X124102735Y-153474166D01*
X124182600Y-153369669D01*
X124244926Y-153256072D01*
X124289299Y-153134605D01*
X124315303Y-153006498D01*
X124322525Y-152872983D01*
X124310553Y-152735290D01*
X124302099Y-152688060D01*
X124287236Y-152614519D01*
X123366285Y-151013983D01*
X122445334Y-149413448D01*
X121688357Y-149850488D01*
X123446037Y-152894879D01*
X121158345Y-154215679D01*
X119400665Y-151171288D01*
X118635168Y-151613248D01*
X121490128Y-156558184D01*
X122255625Y-156116224D01*
X121595225Y-154972378D01*
G36*
X117869670Y-152055208D02*
X117112972Y-152492088D01*
X118870690Y-155536545D01*
X116576020Y-156855420D01*
X115914656Y-155715063D01*
X115253294Y-154574705D01*
X116784355Y-153690747D01*
X116347475Y-152934048D01*
X115536198Y-153403396D01*
X115394694Y-153485307D01*
X115269737Y-153557755D01*
X115160248Y-153621384D01*
X115065146Y-153676843D01*
X114983352Y-153724777D01*
X114913787Y-153765833D01*
X114855372Y-153800656D01*
X114807026Y-153829893D01*
X114767671Y-153854191D01*
X114736227Y-153874196D01*
X114711613Y-153890555D01*
X114692751Y-153903913D01*
X114678562Y-153914917D01*
X114670933Y-153921473D01*
X114581599Y-154015451D01*
X114507998Y-154120839D01*
X114450761Y-154235458D01*
X114410515Y-154357127D01*
X114387886Y-154483666D01*
X114383506Y-154612896D01*
X114397999Y-154742636D01*
X114414090Y-154812853D01*
X114437562Y-154899021D01*
X115158922Y-156148454D01*
X115259289Y-156322271D01*
X115350040Y-156479369D01*
X115431705Y-156620638D01*
X115504808Y-156746966D01*
X115569879Y-156859243D01*
X115627446Y-156958359D01*
X115678034Y-157045202D01*
X115722171Y-157120661D01*
X115760386Y-157185626D01*
X115793205Y-157240985D01*
X115821158Y-157287628D01*
X115844768Y-157326445D01*
X115864567Y-157358323D01*
X115881080Y-157384153D01*
X115894835Y-157404823D01*
X115906360Y-157421222D01*
X115916181Y-157434241D01*
X115924826Y-157444767D01*
X115932824Y-157453691D01*
X115933948Y-157454889D01*
X116031216Y-157543946D01*
X116138882Y-157616657D01*
X116254849Y-157672488D01*
X116377020Y-157710900D01*
X116503297Y-157731359D01*
X116631585Y-157733327D01*
X116759782Y-157716270D01*
X116855259Y-157690454D01*
X116866168Y-157686485D01*
X116879512Y-157680910D01*
X116896074Y-157673286D01*
X116916638Y-157663168D01*
X116941987Y-157650113D01*
X116972904Y-157633678D01*
X117010173Y-157613419D01*
X117054577Y-157588893D01*
X117106899Y-157559656D01*
X117167924Y-157525265D01*
X117238434Y-157485277D01*
X117319214Y-157439247D01*
X117411045Y-157386733D01*
X117514713Y-157327291D01*
X117631000Y-157260477D01*
X117760689Y-157185849D01*
X117904564Y-157102962D01*
X118063410Y-157011373D01*
X118238007Y-156910638D01*
X118429141Y-156800316D01*
X118497669Y-156760752D01*
X120064230Y-155856298D01*
X117869670Y-152055208D01*
X117869670Y-152055208D01*
G37*
X117869670Y-152055208D02*
X117112972Y-152492088D01*
X118870690Y-155536545D01*
X116576020Y-156855420D01*
X115914656Y-155715063D01*
X115253294Y-154574705D01*
X116784355Y-153690747D01*
X116347475Y-152934048D01*
X115536198Y-153403396D01*
X115394694Y-153485307D01*
X115269737Y-153557755D01*
X115160248Y-153621384D01*
X115065146Y-153676843D01*
X114983352Y-153724777D01*
X114913787Y-153765833D01*
X114855372Y-153800656D01*
X114807026Y-153829893D01*
X114767671Y-153854191D01*
X114736227Y-153874196D01*
X114711613Y-153890555D01*
X114692751Y-153903913D01*
X114678562Y-153914917D01*
X114670933Y-153921473D01*
X114581599Y-154015451D01*
X114507998Y-154120839D01*
X114450761Y-154235458D01*
X114410515Y-154357127D01*
X114387886Y-154483666D01*
X114383506Y-154612896D01*
X114397999Y-154742636D01*
X114414090Y-154812853D01*
X114437562Y-154899021D01*
X115158922Y-156148454D01*
X115259289Y-156322271D01*
X115350040Y-156479369D01*
X115431705Y-156620638D01*
X115504808Y-156746966D01*
X115569879Y-156859243D01*
X115627446Y-156958359D01*
X115678034Y-157045202D01*
X115722171Y-157120661D01*
X115760386Y-157185626D01*
X115793205Y-157240985D01*
X115821158Y-157287628D01*
X115844768Y-157326445D01*
X115864567Y-157358323D01*
X115881080Y-157384153D01*
X115894835Y-157404823D01*
X115906360Y-157421222D01*
X115916181Y-157434241D01*
X115924826Y-157444767D01*
X115932824Y-157453691D01*
X115933948Y-157454889D01*
X116031216Y-157543946D01*
X116138882Y-157616657D01*
X116254849Y-157672488D01*
X116377020Y-157710900D01*
X116503297Y-157731359D01*
X116631585Y-157733327D01*
X116759782Y-157716270D01*
X116855259Y-157690454D01*
X116866168Y-157686485D01*
X116879512Y-157680910D01*
X116896074Y-157673286D01*
X116916638Y-157663168D01*
X116941987Y-157650113D01*
X116972904Y-157633678D01*
X117010173Y-157613419D01*
X117054577Y-157588893D01*
X117106899Y-157559656D01*
X117167924Y-157525265D01*
X117238434Y-157485277D01*
X117319214Y-157439247D01*
X117411045Y-157386733D01*
X117514713Y-157327291D01*
X117631000Y-157260477D01*
X117760689Y-157185849D01*
X117904564Y-157102962D01*
X118063410Y-157011373D01*
X118238007Y-156910638D01*
X118429141Y-156800316D01*
X118497669Y-156760752D01*
X120064230Y-155856298D01*
X117869670Y-152055208D01*
G36*
X128407248Y-150007148D02*
X127273655Y-150658652D01*
X126140063Y-151310154D01*
X123628589Y-148712698D01*
X123233013Y-148938029D01*
X122837435Y-149163362D01*
X122854402Y-149180084D01*
X122863111Y-149188992D01*
X122885260Y-149211769D01*
X122920148Y-149247694D01*
X122967074Y-149296045D01*
X123025337Y-149356098D01*
X123094237Y-149427131D01*
X123173073Y-149508420D01*
X123261144Y-149599245D01*
X123357749Y-149698882D01*
X123462189Y-149806607D01*
X123573762Y-149921699D01*
X123691767Y-150043436D01*
X123815505Y-150171094D01*
X123944273Y-150303950D01*
X124077372Y-150441283D01*
X124205834Y-150573840D01*
X124342835Y-150715170D01*
X124476457Y-150852935D01*
X124605980Y-150986396D01*
X124730683Y-151114812D01*
X124849843Y-151237441D01*
X124962738Y-151353546D01*
X125068648Y-151462382D01*
X125166851Y-151563211D01*
X125256625Y-151655293D01*
X125337249Y-151737886D01*
X125408000Y-151810249D01*
X125468159Y-151871644D01*
X125517001Y-151921328D01*
X125553808Y-151958563D01*
X125577857Y-151982605D01*
X125588015Y-151992369D01*
X125687966Y-152066394D01*
X125798786Y-152125280D01*
X125917214Y-152168027D01*
X126039989Y-152193631D01*
X126163849Y-152201091D01*
X126247728Y-152195198D01*
X126269588Y-152192566D01*
X126289270Y-152190227D01*
X126307730Y-152187678D01*
X126325922Y-152184422D01*
X126344801Y-152179959D01*
X126365319Y-152173790D01*
X126388433Y-152165416D01*
X126415095Y-152154338D01*
X126446262Y-152140056D01*
X126482885Y-152122072D01*
X126525921Y-152099886D01*
X126576324Y-152072998D01*
X126635046Y-152040910D01*
X126703044Y-152003122D01*
X126781270Y-151959136D01*
X126870681Y-151908451D01*
X126972230Y-151850570D01*
X127086870Y-151784992D01*
X127215557Y-151711218D01*
X127359244Y-151628749D01*
X127518887Y-151537086D01*
X127653389Y-151459866D01*
X128849548Y-150773234D01*
X128407248Y-150007148D01*
X128407248Y-150007148D01*
G37*
X128407248Y-150007148D02*
X127273655Y-150658652D01*
X126140063Y-151310154D01*
X123628589Y-148712698D01*
X123233013Y-148938029D01*
X122837435Y-149163362D01*
X122854402Y-149180084D01*
X122863111Y-149188992D01*
X122885260Y-149211769D01*
X122920148Y-149247694D01*
X122967074Y-149296045D01*
X123025337Y-149356098D01*
X123094237Y-149427131D01*
X123173073Y-149508420D01*
X123261144Y-149599245D01*
X123357749Y-149698882D01*
X123462189Y-149806607D01*
X123573762Y-149921699D01*
X123691767Y-150043436D01*
X123815505Y-150171094D01*
X123944273Y-150303950D01*
X124077372Y-150441283D01*
X124205834Y-150573840D01*
X124342835Y-150715170D01*
X124476457Y-150852935D01*
X124605980Y-150986396D01*
X124730683Y-151114812D01*
X124849843Y-151237441D01*
X124962738Y-151353546D01*
X125068648Y-151462382D01*
X125166851Y-151563211D01*
X125256625Y-151655293D01*
X125337249Y-151737886D01*
X125408000Y-151810249D01*
X125468159Y-151871644D01*
X125517001Y-151921328D01*
X125553808Y-151958563D01*
X125577857Y-151982605D01*
X125588015Y-151992369D01*
X125687966Y-152066394D01*
X125798786Y-152125280D01*
X125917214Y-152168027D01*
X126039989Y-152193631D01*
X126163849Y-152201091D01*
X126247728Y-152195198D01*
X126269588Y-152192566D01*
X126289270Y-152190227D01*
X126307730Y-152187678D01*
X126325922Y-152184422D01*
X126344801Y-152179959D01*
X126365319Y-152173790D01*
X126388433Y-152165416D01*
X126415095Y-152154338D01*
X126446262Y-152140056D01*
X126482885Y-152122072D01*
X126525921Y-152099886D01*
X126576324Y-152072998D01*
X126635046Y-152040910D01*
X126703044Y-152003122D01*
X126781270Y-151959136D01*
X126870681Y-151908451D01*
X126972230Y-151850570D01*
X127086870Y-151784992D01*
X127215557Y-151711218D01*
X127359244Y-151628749D01*
X127518887Y-151537086D01*
X127653389Y-151459866D01*
X128849548Y-150773234D01*
X128407248Y-150007148D01*
G04 #@! TO.C,J33*
D15*
X95822380Y-50340476D02*
X96536666Y-50340476D01*
X96679523Y-50292857D01*
X96774761Y-50197619D01*
X96822380Y-50054761D01*
X96822380Y-49959523D01*
X95822380Y-50721428D02*
X95822380Y-51340476D01*
X96203333Y-51007142D01*
X96203333Y-51150000D01*
X96250952Y-51245238D01*
X96298571Y-51292857D01*
X96393809Y-51340476D01*
X96631904Y-51340476D01*
X96727142Y-51292857D01*
X96774761Y-51245238D01*
X96822380Y-51150000D01*
X96822380Y-50864285D01*
X96774761Y-50769047D01*
X96727142Y-50721428D01*
X95822380Y-51673809D02*
X95822380Y-52292857D01*
X96203333Y-51959523D01*
X96203333Y-52102380D01*
X96250952Y-52197619D01*
X96298571Y-52245238D01*
X96393809Y-52292857D01*
X96631904Y-52292857D01*
X96727142Y-52245238D01*
X96774761Y-52197619D01*
X96822380Y-52102380D01*
X96822380Y-51816666D01*
X96774761Y-51721428D01*
X96727142Y-51673809D01*
G04 #@! TO.C,U40*
X65148412Y-37082791D02*
X65553174Y-37783859D01*
X65559554Y-37890147D01*
X65542124Y-37955196D01*
X65483455Y-38044054D01*
X65318497Y-38139292D01*
X65212209Y-38145672D01*
X65147161Y-38128242D01*
X65058302Y-38069573D01*
X64653540Y-37368505D01*
X64036660Y-38109561D02*
X64369993Y-38686912D01*
X64052380Y-37660599D02*
X64615720Y-38160141D01*
X64079609Y-38469665D01*
X63251404Y-38178029D02*
X63168925Y-38225648D01*
X63110256Y-38314506D01*
X63092826Y-38379555D01*
X63099206Y-38485843D01*
X63153205Y-38674610D01*
X63272253Y-38880807D01*
X63408730Y-39021954D01*
X63497588Y-39080623D01*
X63562637Y-39098053D01*
X63668925Y-39091673D01*
X63751404Y-39044054D01*
X63810073Y-38955196D01*
X63827503Y-38890147D01*
X63821123Y-38783859D01*
X63767124Y-38595092D01*
X63648077Y-38388896D01*
X63511599Y-38247748D01*
X63422741Y-38189079D01*
X63357692Y-38171649D01*
X63251404Y-38178029D01*
G04 #@! TO.C,C31*
X64135302Y-58187866D02*
X64200350Y-58205295D01*
X64347878Y-58175106D01*
X64430356Y-58127487D01*
X64530265Y-58014819D01*
X64565124Y-57884722D01*
X64558745Y-57778434D01*
X64504746Y-57589667D01*
X64433317Y-57465949D01*
X64296840Y-57324801D01*
X64207982Y-57266132D01*
X64077884Y-57231273D01*
X63930356Y-57261462D01*
X63847878Y-57309081D01*
X63747969Y-57421749D01*
X63730540Y-57486798D01*
X63394245Y-57570986D02*
X62858134Y-57880509D01*
X63337286Y-58043757D01*
X63213568Y-58115186D01*
X63154899Y-58204044D01*
X63137469Y-58269093D01*
X63143849Y-58375381D01*
X63262896Y-58581578D01*
X63351755Y-58640247D01*
X63416804Y-58657676D01*
X63523092Y-58651297D01*
X63770528Y-58508440D01*
X63829197Y-58419581D01*
X63846626Y-58354532D01*
X62533348Y-59222725D02*
X63028220Y-58937011D01*
X62780784Y-59079868D02*
X62280784Y-58213843D01*
X62434691Y-58289942D01*
X62564789Y-58324801D01*
X62671077Y-58318421D01*
G04 #@! TO.C,C30*
X61835302Y-54087866D02*
X61900350Y-54105295D01*
X62047878Y-54075106D01*
X62130356Y-54027487D01*
X62230265Y-53914819D01*
X62265124Y-53784722D01*
X62258745Y-53678434D01*
X62204746Y-53489667D01*
X62133317Y-53365949D01*
X61996840Y-53224801D01*
X61907982Y-53166132D01*
X61777884Y-53131273D01*
X61630356Y-53161462D01*
X61547878Y-53209081D01*
X61447969Y-53321749D01*
X61430540Y-53386798D01*
X61094245Y-53470986D02*
X60558134Y-53780509D01*
X61037286Y-53943757D01*
X60913568Y-54015186D01*
X60854899Y-54104044D01*
X60837469Y-54169093D01*
X60843849Y-54275381D01*
X60962896Y-54481578D01*
X61051755Y-54540247D01*
X61116804Y-54557676D01*
X61223092Y-54551297D01*
X61470528Y-54408440D01*
X61529197Y-54319581D01*
X61546626Y-54254532D01*
X60022024Y-54090033D02*
X59939545Y-54137652D01*
X59880876Y-54226511D01*
X59863446Y-54291559D01*
X59869826Y-54397848D01*
X59923825Y-54586614D01*
X60042872Y-54792811D01*
X60179350Y-54933959D01*
X60268208Y-54992628D01*
X60333257Y-55010057D01*
X60439545Y-55003678D01*
X60522024Y-54956059D01*
X60580693Y-54867200D01*
X60598122Y-54802151D01*
X60591743Y-54695863D01*
X60537744Y-54507097D01*
X60418696Y-54300900D01*
X60282219Y-54159752D01*
X60193360Y-54101083D01*
X60128312Y-54083653D01*
X60022024Y-54090033D01*
G04 #@! TO.C,R32*
X62682921Y-55570344D02*
X62733500Y-54991285D01*
X63177792Y-55284630D02*
X62677792Y-54418605D01*
X62347878Y-54609081D01*
X62289209Y-54697939D01*
X62271779Y-54762988D01*
X62278159Y-54869276D01*
X62349587Y-54992994D01*
X62438446Y-55051663D01*
X62503494Y-55069093D01*
X62609783Y-55062713D01*
X62939697Y-54872237D01*
X61894245Y-54870986D02*
X61358134Y-55180509D01*
X61837286Y-55343757D01*
X61713568Y-55415186D01*
X61654899Y-55504044D01*
X61637469Y-55569093D01*
X61643849Y-55675381D01*
X61762896Y-55881578D01*
X61851755Y-55940247D01*
X61916804Y-55957676D01*
X62023092Y-55951297D01*
X62270528Y-55808440D01*
X62329197Y-55719581D01*
X62346626Y-55654532D01*
X61075839Y-55453464D02*
X61010790Y-55436034D01*
X60904502Y-55442414D01*
X60698306Y-55561462D01*
X60639637Y-55650320D01*
X60622207Y-55715369D01*
X60628586Y-55821657D01*
X60676206Y-55904136D01*
X60788873Y-56004044D01*
X61569459Y-56213201D01*
X61033348Y-56522725D01*
G04 #@! TO.C,R33*
X63432921Y-56870344D02*
X63483500Y-56291285D01*
X63927792Y-56584630D02*
X63427792Y-55718605D01*
X63097878Y-55909081D01*
X63039209Y-55997939D01*
X63021779Y-56062988D01*
X63028159Y-56169276D01*
X63099587Y-56292994D01*
X63188446Y-56351663D01*
X63253494Y-56369093D01*
X63359783Y-56362713D01*
X63689697Y-56172237D01*
X62644245Y-56170986D02*
X62108134Y-56480509D01*
X62587286Y-56643757D01*
X62463568Y-56715186D01*
X62404899Y-56804044D01*
X62387469Y-56869093D01*
X62393849Y-56975381D01*
X62512896Y-57181578D01*
X62601755Y-57240247D01*
X62666804Y-57257676D01*
X62773092Y-57251297D01*
X63020528Y-57108440D01*
X63079197Y-57019581D01*
X63096626Y-56954532D01*
X61819459Y-56647176D02*
X61283348Y-56956700D01*
X61762500Y-57119948D01*
X61638782Y-57191376D01*
X61580113Y-57280235D01*
X61562683Y-57345283D01*
X61569063Y-57451572D01*
X61688110Y-57657768D01*
X61776969Y-57716437D01*
X61842017Y-57733867D01*
X61948306Y-57727487D01*
X62195741Y-57584630D01*
X62254411Y-57495772D01*
X62271840Y-57430723D01*
G04 #@! TO.C,C10*
X67520302Y-34449450D02*
X67585350Y-34466879D01*
X67732878Y-34436690D01*
X67815356Y-34389071D01*
X67915265Y-34276403D01*
X67950124Y-34146306D01*
X67943745Y-34040018D01*
X67889746Y-33851251D01*
X67818317Y-33727533D01*
X67681840Y-33586385D01*
X67592982Y-33527716D01*
X67462884Y-33492857D01*
X67315356Y-33523046D01*
X67232878Y-33570665D01*
X67132969Y-33683333D01*
X67115540Y-33748382D01*
X66743134Y-35008119D02*
X67238006Y-34722405D01*
X66990570Y-34865262D02*
X66490570Y-33999236D01*
X66644478Y-34075335D01*
X66774575Y-34110195D01*
X66880863Y-34103815D01*
X65707024Y-34451617D02*
X65624545Y-34499236D01*
X65565876Y-34588095D01*
X65548446Y-34653143D01*
X65554826Y-34759432D01*
X65608825Y-34948198D01*
X65727872Y-35154395D01*
X65864350Y-35295543D01*
X65953208Y-35354212D01*
X66018257Y-35371641D01*
X66124545Y-35365262D01*
X66207024Y-35317643D01*
X66265693Y-35228784D01*
X66283122Y-35163735D01*
X66276743Y-35057447D01*
X66222744Y-34868681D01*
X66103696Y-34662484D01*
X65967219Y-34521336D01*
X65878360Y-34462667D01*
X65813312Y-34445237D01*
X65707024Y-34451617D01*
G04 #@! TO.C,C11*
X60720302Y-38149450D02*
X60785350Y-38166879D01*
X60932878Y-38136690D01*
X61015356Y-38089071D01*
X61115265Y-37976403D01*
X61150124Y-37846306D01*
X61143745Y-37740018D01*
X61089746Y-37551251D01*
X61018317Y-37427533D01*
X60881840Y-37286385D01*
X60792982Y-37227716D01*
X60662884Y-37192857D01*
X60515356Y-37223046D01*
X60432878Y-37270665D01*
X60332969Y-37383333D01*
X60315540Y-37448382D01*
X59943134Y-38708119D02*
X60438006Y-38422405D01*
X60190570Y-38565262D02*
X59690570Y-37699236D01*
X59844478Y-37775335D01*
X59974575Y-37810195D01*
X60080863Y-37803815D01*
X59118348Y-39184309D02*
X59613220Y-38898595D01*
X59365784Y-39041452D02*
X58865784Y-38175427D01*
X59019691Y-38251526D01*
X59149789Y-38286385D01*
X59256077Y-38280005D01*
G04 #@! TO.C,C20*
X125178159Y-45430723D02*
X125195588Y-45495772D01*
X125295497Y-45608440D01*
X125377975Y-45656059D01*
X125525503Y-45686248D01*
X125655601Y-45651388D01*
X125744459Y-45592719D01*
X125880936Y-45451572D01*
X125952365Y-45327854D01*
X126006364Y-45139087D01*
X126012743Y-45032799D01*
X125977884Y-44902701D01*
X125877975Y-44790033D01*
X125795497Y-44742414D01*
X125647969Y-44712225D01*
X125582921Y-44729655D01*
X125253006Y-44539178D02*
X125235576Y-44474130D01*
X125176907Y-44385271D01*
X124970711Y-44266224D01*
X124864423Y-44259844D01*
X124799374Y-44277274D01*
X124710515Y-44335943D01*
X124662896Y-44418421D01*
X124632707Y-44565949D01*
X124841865Y-45346535D01*
X124305754Y-45037011D01*
X124269643Y-43861462D02*
X124187164Y-43813843D01*
X124080876Y-43807463D01*
X124015827Y-43824893D01*
X123926969Y-43883562D01*
X123790491Y-44024710D01*
X123671444Y-44230906D01*
X123617445Y-44419673D01*
X123611065Y-44525961D01*
X123628495Y-44591010D01*
X123687164Y-44679868D01*
X123769643Y-44727487D01*
X123875931Y-44733867D01*
X123940980Y-44716437D01*
X124029838Y-44657768D01*
X124166315Y-44516620D01*
X124285363Y-44310424D01*
X124339362Y-44121657D01*
X124345741Y-44015369D01*
X124328312Y-43950320D01*
X124269643Y-43861462D01*
G04 #@! TO.C,C21*
X135578159Y-51430723D02*
X135595588Y-51495772D01*
X135695497Y-51608440D01*
X135777975Y-51656059D01*
X135925503Y-51686248D01*
X136055601Y-51651388D01*
X136144459Y-51592719D01*
X136280936Y-51451572D01*
X136352365Y-51327854D01*
X136406364Y-51139087D01*
X136412743Y-51032799D01*
X136377884Y-50902701D01*
X136277975Y-50790033D01*
X136195497Y-50742414D01*
X136047969Y-50712225D01*
X135982921Y-50729655D01*
X135653006Y-50539178D02*
X135635576Y-50474130D01*
X135576907Y-50385271D01*
X135370711Y-50266224D01*
X135264423Y-50259844D01*
X135199374Y-50277274D01*
X135110515Y-50335943D01*
X135062896Y-50418421D01*
X135032707Y-50565949D01*
X135241865Y-51346535D01*
X134705754Y-51037011D01*
X133880967Y-50560821D02*
X134375839Y-50846535D01*
X134128403Y-50703678D02*
X134628403Y-49837652D01*
X134639453Y-50008989D01*
X134674313Y-50139087D01*
X134732982Y-50227945D01*
G04 #@! TO.C,J10*
X155018539Y-76798190D02*
X155375682Y-77416779D01*
X155488350Y-77516688D01*
X155618448Y-77551547D01*
X155765975Y-77521358D01*
X155848454Y-77473739D01*
X154652514Y-78164215D02*
X155147385Y-77878501D01*
X154899950Y-78021358D02*
X154399950Y-77155332D01*
X154553857Y-77231431D01*
X154683954Y-77266291D01*
X154790243Y-77259911D01*
X153616403Y-77607713D02*
X153533924Y-77655332D01*
X153475255Y-77744191D01*
X153457825Y-77809240D01*
X153464205Y-77915528D01*
X153518204Y-78104295D01*
X153637251Y-78310491D01*
X153773729Y-78451639D01*
X153862587Y-78510308D01*
X153927636Y-78527738D01*
X154033924Y-78521358D01*
X154116403Y-78473739D01*
X154175072Y-78384880D01*
X154192502Y-78319832D01*
X154186122Y-78213543D01*
X154132123Y-78024777D01*
X154013076Y-77818580D01*
X153876598Y-77677433D01*
X153787740Y-77618763D01*
X153722691Y-77601334D01*
X153616403Y-77607713D01*
G04 #@! TO.C,J20*
X129658712Y-63155249D02*
X130277302Y-63512392D01*
X130424829Y-63542581D01*
X130554927Y-63507721D01*
X130667595Y-63407813D01*
X130715214Y-63325334D01*
X129526905Y-63574022D02*
X129461856Y-63591451D01*
X129372998Y-63650120D01*
X129253950Y-63856317D01*
X129247571Y-63962605D01*
X129265001Y-64027654D01*
X129323670Y-64116512D01*
X129406148Y-64164131D01*
X129553676Y-64194321D01*
X130334262Y-63985163D01*
X130024738Y-64521274D01*
X128849189Y-64557385D02*
X128801570Y-64639864D01*
X128795190Y-64746152D01*
X128812620Y-64811201D01*
X128871289Y-64900059D01*
X129012436Y-65036536D01*
X129218633Y-65155584D01*
X129407400Y-65209583D01*
X129513688Y-65215963D01*
X129578737Y-65198533D01*
X129667595Y-65139864D01*
X129715214Y-65057385D01*
X129721594Y-64951097D01*
X129704164Y-64886048D01*
X129645495Y-64797190D01*
X129504347Y-64660712D01*
X129298151Y-64541665D01*
X129109384Y-64487666D01*
X129003096Y-64481286D01*
X128938047Y-64498716D01*
X128849189Y-64557385D01*
G04 #@! TO.C,R10*
X73755693Y-45471260D02*
X73806272Y-44892201D01*
X74250564Y-45185546D02*
X73750564Y-44319521D01*
X73420650Y-44509997D01*
X73361981Y-44598855D01*
X73344551Y-44663904D01*
X73350931Y-44770192D01*
X73422359Y-44893910D01*
X73511218Y-44952579D01*
X73576266Y-44970009D01*
X73682555Y-44963629D01*
X74012469Y-44773153D01*
X72930906Y-45947451D02*
X73425778Y-45661737D01*
X73178342Y-45804594D02*
X72678342Y-44938568D01*
X72832250Y-45014667D01*
X72962347Y-45049527D01*
X73068635Y-45043147D01*
X71894796Y-45390949D02*
X71812317Y-45438568D01*
X71753648Y-45527427D01*
X71736218Y-45592475D01*
X71742598Y-45698764D01*
X71796597Y-45887530D01*
X71915644Y-46093727D01*
X72052122Y-46234875D01*
X72140980Y-46293544D01*
X72206029Y-46310973D01*
X72312317Y-46304594D01*
X72394796Y-46256975D01*
X72453465Y-46168116D01*
X72470894Y-46103067D01*
X72464515Y-45996779D01*
X72410516Y-45808013D01*
X72291468Y-45601816D01*
X72154991Y-45460668D01*
X72066132Y-45401999D01*
X72001084Y-45384569D01*
X71894796Y-45390949D01*
G04 #@! TO.C,R20*
X139075702Y-48427231D02*
X138829976Y-47900461D01*
X139361417Y-47932360D02*
X138495391Y-47432360D01*
X138304915Y-47762274D01*
X138298535Y-47868562D01*
X138315965Y-47933611D01*
X138374634Y-48022469D01*
X138498352Y-48093898D01*
X138604640Y-48100278D01*
X138669689Y-48082848D01*
X138758548Y-48024179D01*
X138949024Y-47694264D01*
X138101679Y-48304765D02*
X138036631Y-48322195D01*
X137947772Y-48380864D01*
X137828725Y-48587060D01*
X137822345Y-48693348D01*
X137839775Y-48758397D01*
X137898444Y-48847256D01*
X137980922Y-48894875D01*
X138128450Y-48925064D01*
X138909036Y-48715906D01*
X138599512Y-49252017D01*
X137423963Y-49288128D02*
X137376344Y-49370607D01*
X137369964Y-49476895D01*
X137387394Y-49541944D01*
X137446063Y-49630802D01*
X137587211Y-49767280D01*
X137793407Y-49886327D01*
X137982174Y-49940326D01*
X138088462Y-49946706D01*
X138153511Y-49929276D01*
X138242369Y-49870607D01*
X138289988Y-49788128D01*
X138296368Y-49681840D01*
X138278938Y-49616791D01*
X138220269Y-49527933D01*
X138079121Y-49391456D01*
X137872925Y-49272408D01*
X137684158Y-49218409D01*
X137577870Y-49212030D01*
X137512821Y-49229459D01*
X137423963Y-49288128D01*
G04 #@! TO.C,J30*
X55530509Y-73325122D02*
X56149099Y-73682265D01*
X56296626Y-73712454D01*
X56426724Y-73677594D01*
X56539392Y-73577686D01*
X56587011Y-73495207D01*
X55340033Y-73655036D02*
X55030509Y-74191147D01*
X55527091Y-74092948D01*
X55455662Y-74216666D01*
X55449282Y-74322954D01*
X55466712Y-74388003D01*
X55525381Y-74476861D01*
X55731578Y-74595909D01*
X55837866Y-74602289D01*
X55902915Y-74584859D01*
X55991773Y-74526190D01*
X56134630Y-74278754D01*
X56141010Y-74172466D01*
X56123580Y-74107417D01*
X54720986Y-74727258D02*
X54673367Y-74809737D01*
X54666987Y-74916025D01*
X54684417Y-74981074D01*
X54743086Y-75069932D01*
X54884233Y-75206409D01*
X55090430Y-75325457D01*
X55279197Y-75379456D01*
X55385485Y-75385836D01*
X55450534Y-75368406D01*
X55539392Y-75309737D01*
X55587011Y-75227258D01*
X55593391Y-75120970D01*
X55575961Y-75055921D01*
X55517292Y-74967063D01*
X55376144Y-74830585D01*
X55169948Y-74711538D01*
X54981181Y-74657539D01*
X54874893Y-74651159D01*
X54809844Y-74668589D01*
X54720986Y-74727258D01*
G04 #@! TO.C,J31*
X69827258Y-46120986D02*
X70184401Y-46739575D01*
X70297069Y-46839484D01*
X70427167Y-46874343D01*
X70574694Y-46844154D01*
X70657173Y-46796535D01*
X69497344Y-46311462D02*
X68961233Y-46620986D01*
X69440384Y-46784233D01*
X69316666Y-46855662D01*
X69257997Y-46944520D01*
X69240567Y-47009569D01*
X69246947Y-47115857D01*
X69365995Y-47322054D01*
X69454853Y-47380723D01*
X69519902Y-47398153D01*
X69626190Y-47391773D01*
X69873626Y-47248916D01*
X69932295Y-47160057D01*
X69949725Y-47095009D01*
X68636447Y-47963201D02*
X69131318Y-47677487D01*
X68883882Y-47820344D02*
X68383882Y-46954319D01*
X68537790Y-47030418D01*
X68667887Y-47065277D01*
X68774175Y-47058898D01*
G04 #@! TO.C,J32*
X74727258Y-54720986D02*
X75084401Y-55339575D01*
X75197069Y-55439484D01*
X75327167Y-55474343D01*
X75474694Y-55444154D01*
X75557173Y-55396535D01*
X74397344Y-54911462D02*
X73861233Y-55220986D01*
X74340384Y-55384233D01*
X74216666Y-55455662D01*
X74157997Y-55544520D01*
X74140567Y-55609569D01*
X74146947Y-55715857D01*
X74265995Y-55922054D01*
X74354853Y-55980723D01*
X74419902Y-55998153D01*
X74526190Y-55991773D01*
X74773626Y-55848916D01*
X74832295Y-55760057D01*
X74849725Y-55695009D01*
X73578937Y-55493940D02*
X73513889Y-55476511D01*
X73407600Y-55482890D01*
X73201404Y-55601938D01*
X73142735Y-55690796D01*
X73125305Y-55755845D01*
X73131685Y-55862133D01*
X73179304Y-55944612D01*
X73291972Y-56044520D01*
X74072558Y-56253678D01*
X73536447Y-56563201D01*
G04 #@! TO.C,R30*
X114952380Y-20157142D02*
X114476190Y-19823809D01*
X114952380Y-19585714D02*
X113952380Y-19585714D01*
X113952380Y-19966666D01*
X114000000Y-20061904D01*
X114047619Y-20109523D01*
X114142857Y-20157142D01*
X114285714Y-20157142D01*
X114380952Y-20109523D01*
X114428571Y-20061904D01*
X114476190Y-19966666D01*
X114476190Y-19585714D01*
X113952380Y-20490476D02*
X113952380Y-21109523D01*
X114333333Y-20776190D01*
X114333333Y-20919047D01*
X114380952Y-21014285D01*
X114428571Y-21061904D01*
X114523809Y-21109523D01*
X114761904Y-21109523D01*
X114857142Y-21061904D01*
X114904761Y-21014285D01*
X114952380Y-20919047D01*
X114952380Y-20633333D01*
X114904761Y-20538095D01*
X114857142Y-20490476D01*
X113952380Y-21728571D02*
X113952380Y-21823809D01*
X114000000Y-21919047D01*
X114047619Y-21966666D01*
X114142857Y-22014285D01*
X114333333Y-22061904D01*
X114571428Y-22061904D01*
X114761904Y-22014285D01*
X114857142Y-21966666D01*
X114904761Y-21919047D01*
X114952380Y-21823809D01*
X114952380Y-21728571D01*
X114904761Y-21633333D01*
X114857142Y-21585714D01*
X114761904Y-21538095D01*
X114571428Y-21490476D01*
X114333333Y-21490476D01*
X114142857Y-21538095D01*
X114047619Y-21585714D01*
X114000000Y-21633333D01*
X113952380Y-21728571D01*
G04 #@! TO.C,R31*
X109052380Y-20257142D02*
X108576190Y-19923809D01*
X109052380Y-19685714D02*
X108052380Y-19685714D01*
X108052380Y-20066666D01*
X108100000Y-20161904D01*
X108147619Y-20209523D01*
X108242857Y-20257142D01*
X108385714Y-20257142D01*
X108480952Y-20209523D01*
X108528571Y-20161904D01*
X108576190Y-20066666D01*
X108576190Y-19685714D01*
X108052380Y-20590476D02*
X108052380Y-21209523D01*
X108433333Y-20876190D01*
X108433333Y-21019047D01*
X108480952Y-21114285D01*
X108528571Y-21161904D01*
X108623809Y-21209523D01*
X108861904Y-21209523D01*
X108957142Y-21161904D01*
X109004761Y-21114285D01*
X109052380Y-21019047D01*
X109052380Y-20733333D01*
X109004761Y-20638095D01*
X108957142Y-20590476D01*
X109052380Y-22161904D02*
X109052380Y-21590476D01*
X109052380Y-21876190D02*
X108052380Y-21876190D01*
X108195238Y-21780952D01*
X108290476Y-21685714D01*
X108338095Y-21590476D01*
G04 #@! TO.C,U30*
X98952380Y-33761904D02*
X99761904Y-33761904D01*
X99857142Y-33809523D01*
X99904761Y-33857142D01*
X99952380Y-33952380D01*
X99952380Y-34142857D01*
X99904761Y-34238095D01*
X99857142Y-34285714D01*
X99761904Y-34333333D01*
X98952380Y-34333333D01*
X98952380Y-34714285D02*
X98952380Y-35333333D01*
X99333333Y-35000000D01*
X99333333Y-35142857D01*
X99380952Y-35238095D01*
X99428571Y-35285714D01*
X99523809Y-35333333D01*
X99761904Y-35333333D01*
X99857142Y-35285714D01*
X99904761Y-35238095D01*
X99952380Y-35142857D01*
X99952380Y-34857142D01*
X99904761Y-34761904D01*
X99857142Y-34714285D01*
X98952380Y-35952380D02*
X98952380Y-36047619D01*
X99000000Y-36142857D01*
X99047619Y-36190476D01*
X99142857Y-36238095D01*
X99333333Y-36285714D01*
X99571428Y-36285714D01*
X99761904Y-36238095D01*
X99857142Y-36190476D01*
X99904761Y-36142857D01*
X99952380Y-36047619D01*
X99952380Y-35952380D01*
X99904761Y-35857142D01*
X99857142Y-35809523D01*
X99761904Y-35761904D01*
X99571428Y-35714285D01*
X99333333Y-35714285D01*
X99142857Y-35761904D01*
X99047619Y-35809523D01*
X99000000Y-35857142D01*
X98952380Y-35952380D01*
G04 #@! TO.C,J34*
X53041983Y-71975122D02*
X53660573Y-72332265D01*
X53808100Y-72362454D01*
X53938198Y-72327594D01*
X54050866Y-72227686D01*
X54098485Y-72145207D01*
X52851507Y-72305036D02*
X52541983Y-72841147D01*
X53038565Y-72742948D01*
X52967136Y-72866666D01*
X52960756Y-72972954D01*
X52978186Y-73038003D01*
X53036855Y-73126861D01*
X53243052Y-73245909D01*
X53349340Y-73252289D01*
X53414389Y-73234859D01*
X53503247Y-73176190D01*
X53646104Y-72928754D01*
X53652484Y-72822466D01*
X53635054Y-72757417D01*
X52402087Y-73750121D02*
X52979437Y-74083455D01*
X52191220Y-73353449D02*
X52928857Y-73504395D01*
X52619334Y-74040506D01*
G04 #@! TO.C,U20*
X135396031Y-41163706D02*
X134991269Y-41864774D01*
X134902411Y-41923443D01*
X134837362Y-41940873D01*
X134731074Y-41934493D01*
X134566117Y-41839255D01*
X134507447Y-41750397D01*
X134490018Y-41685348D01*
X134496397Y-41579060D01*
X134901159Y-40877992D01*
X134482387Y-40746185D02*
X134464957Y-40681136D01*
X134406288Y-40592278D01*
X134200091Y-40473230D01*
X134093803Y-40466850D01*
X134028754Y-40484280D01*
X133939896Y-40542949D01*
X133892277Y-40625428D01*
X133862087Y-40772955D01*
X134071245Y-41553541D01*
X133535134Y-41244017D01*
X133499023Y-40068468D02*
X133416544Y-40020849D01*
X133310256Y-40014469D01*
X133245207Y-40031899D01*
X133156349Y-40090568D01*
X133019872Y-40231716D01*
X132900824Y-40437912D01*
X132846825Y-40626679D01*
X132840445Y-40732967D01*
X132857875Y-40798016D01*
X132916544Y-40886874D01*
X132999023Y-40934493D01*
X133105311Y-40940873D01*
X133170360Y-40923443D01*
X133259218Y-40864774D01*
X133395696Y-40723627D01*
X133514743Y-40517430D01*
X133568742Y-40328663D01*
X133575122Y-40222375D01*
X133557692Y-40157326D01*
X133499023Y-40068468D01*
G04 #@! TO.C,J35*
X35441780Y-110354618D02*
X34751833Y-110539489D01*
X34626168Y-110622460D01*
X34558825Y-110739102D01*
X34549803Y-110889416D01*
X34574452Y-110981409D01*
X35343182Y-109986646D02*
X35182961Y-109388692D01*
X34901262Y-109809265D01*
X34864288Y-109671276D01*
X34793642Y-109591608D01*
X34735321Y-109557936D01*
X34631003Y-109536589D01*
X34401021Y-109598213D01*
X34321353Y-109668858D01*
X34287681Y-109727180D01*
X34266334Y-109831497D01*
X34340282Y-110107476D01*
X34410928Y-110187144D01*
X34469249Y-110220816D01*
X34948791Y-108514759D02*
X35072039Y-108974724D01*
X34624399Y-109143968D01*
X34658070Y-109085647D01*
X34679417Y-108981329D01*
X34617794Y-108751347D01*
X34547148Y-108671678D01*
X34488827Y-108638007D01*
X34384509Y-108616660D01*
X34154527Y-108678283D01*
X34074859Y-108748929D01*
X34041187Y-108807250D01*
X34019840Y-108911568D01*
X34081463Y-109141550D01*
X34152109Y-109221219D01*
X34210430Y-109254890D01*
G04 #@! TO.C,J36*
X38266147Y-74873024D02*
X38956094Y-75057895D01*
X39106408Y-75048873D01*
X39223051Y-74981529D01*
X39306021Y-74855865D01*
X39330671Y-74763872D01*
X38167550Y-75240996D02*
X38007328Y-75838950D01*
X38461573Y-75615573D01*
X38424599Y-75753562D01*
X38445946Y-75857880D01*
X38479618Y-75916201D01*
X38559286Y-75986847D01*
X38789268Y-76048470D01*
X38893586Y-76027123D01*
X38951907Y-75993452D01*
X39022553Y-75913783D01*
X39096501Y-75637804D01*
X39075154Y-75533487D01*
X39041482Y-75475166D01*
X37785483Y-76666887D02*
X37834782Y-76482901D01*
X37905428Y-76403232D01*
X37963749Y-76369561D01*
X38126388Y-76314542D01*
X38322699Y-76317844D01*
X38690670Y-76416442D01*
X38770339Y-76487088D01*
X38804010Y-76545409D01*
X38825357Y-76649727D01*
X38776059Y-76833713D01*
X38705413Y-76913381D01*
X38647092Y-76947053D01*
X38542774Y-76968400D01*
X38312792Y-76906776D01*
X38233123Y-76836130D01*
X38199452Y-76777809D01*
X38178105Y-76673491D01*
X38227403Y-76489505D01*
X38298049Y-76409837D01*
X38356370Y-76376166D01*
X38460688Y-76354818D01*
G04 #@! TD*
M02*
