G04 #@! TF.GenerationSoftware,KiCad,Pcbnew,(5.0.1-3-g963ef8bb5)*
G04 #@! TF.CreationDate,2019-09-11T13:55:26+02:00*
G04 #@! TF.ProjectId,crecol_v30,637265636F6C5F7633302E6B69636164,rev?*
G04 #@! TF.SameCoordinates,Original*
G04 #@! TF.FileFunction,Paste,Top*
G04 #@! TF.FilePolarity,Positive*
%FSLAX46Y46*%
G04 Gerber Fmt 4.6, Leading zero omitted, Abs format (unit mm)*
G04 Created by KiCad (PCBNEW (5.0.1-3-g963ef8bb5)) date 2019 September 11, Wednesday 13:55:26*
%MOMM*%
%LPD*%
G01*
G04 APERTURE LIST*
%ADD10R,1.500000X1.000000*%
%ADD11C,1.000000*%
%ADD12C,0.100000*%
%ADD13R,1.000000X1.500000*%
G04 APERTURE END LIST*
D10*
G04 #@! TO.C,U06*
X97550000Y-168400000D03*
X97550000Y-171600000D03*
X102450000Y-168400000D03*
X102450000Y-171600000D03*
G04 #@! TD*
D11*
G04 #@! TO.C,U05*
X137921762Y-160760641D03*
D12*
G36*
X137522243Y-161568654D02*
X137022243Y-160702628D01*
X138321281Y-159952628D01*
X138821281Y-160818654D01*
X137522243Y-161568654D01*
X137522243Y-161568654D01*
G37*
D11*
X136321762Y-157989359D03*
D12*
G36*
X135922243Y-158797372D02*
X135422243Y-157931346D01*
X136721281Y-157181346D01*
X137221281Y-158047372D01*
X135922243Y-158797372D01*
X135922243Y-158797372D01*
G37*
D11*
X133678238Y-163210641D03*
D12*
G36*
X133278719Y-164018654D02*
X132778719Y-163152628D01*
X134077757Y-162402628D01*
X134577757Y-163268654D01*
X133278719Y-164018654D01*
X133278719Y-164018654D01*
G37*
D11*
X132078238Y-160439359D03*
D12*
G36*
X131678719Y-161247372D02*
X131178719Y-160381346D01*
X132477757Y-159631346D01*
X132977757Y-160497372D01*
X131678719Y-161247372D01*
X131678719Y-161247372D01*
G37*
G04 #@! TD*
D11*
G04 #@! TO.C,U07*
X63678238Y-157989359D03*
D12*
G36*
X62778719Y-158047372D02*
X63278719Y-157181346D01*
X64577757Y-157931346D01*
X64077757Y-158797372D01*
X62778719Y-158047372D01*
X62778719Y-158047372D01*
G37*
D11*
X62078238Y-160760641D03*
D12*
G36*
X61178719Y-160818654D02*
X61678719Y-159952628D01*
X62977757Y-160702628D01*
X62477757Y-161568654D01*
X61178719Y-160818654D01*
X61178719Y-160818654D01*
G37*
D11*
X67921762Y-160439359D03*
D12*
G36*
X67022243Y-160497372D02*
X67522243Y-159631346D01*
X68821281Y-160381346D01*
X68321281Y-161247372D01*
X67022243Y-160497372D01*
X67022243Y-160497372D01*
G37*
D11*
X66321762Y-163210641D03*
D12*
G36*
X65422243Y-163268654D02*
X65922243Y-162402628D01*
X67221281Y-163152628D01*
X66721281Y-164018654D01*
X65422243Y-163268654D01*
X65422243Y-163268654D01*
G37*
G04 #@! TD*
D13*
G04 #@! TO.C,U03*
X171600000Y-97550000D03*
X168400000Y-97550000D03*
X171600000Y-102450000D03*
X168400000Y-102450000D03*
G04 #@! TD*
D11*
G04 #@! TO.C,U02*
X160439359Y-67921762D03*
D12*
G36*
X161247372Y-68321281D02*
X160381346Y-68821281D01*
X159631346Y-67522243D01*
X160497372Y-67022243D01*
X161247372Y-68321281D01*
X161247372Y-68321281D01*
G37*
D11*
X163210641Y-66321762D03*
D12*
G36*
X164018654Y-66721281D02*
X163152628Y-67221281D01*
X162402628Y-65922243D01*
X163268654Y-65422243D01*
X164018654Y-66721281D01*
X164018654Y-66721281D01*
G37*
D11*
X157989359Y-63678238D03*
D12*
G36*
X158797372Y-64077757D02*
X157931346Y-64577757D01*
X157181346Y-63278719D01*
X158047372Y-62778719D01*
X158797372Y-64077757D01*
X158797372Y-64077757D01*
G37*
D11*
X160760641Y-62078238D03*
D12*
G36*
X161568654Y-62477757D02*
X160702628Y-62977757D01*
X159952628Y-61678719D01*
X160818654Y-61178719D01*
X161568654Y-62477757D01*
X161568654Y-62477757D01*
G37*
G04 #@! TD*
D11*
G04 #@! TO.C,U01*
X133678238Y-36789359D03*
D12*
G36*
X134577757Y-36731346D02*
X134077757Y-37597372D01*
X132778719Y-36847372D01*
X133278719Y-35981346D01*
X134577757Y-36731346D01*
X134577757Y-36731346D01*
G37*
D11*
X132078238Y-39560641D03*
D12*
G36*
X132977757Y-39502628D02*
X132477757Y-40368654D01*
X131178719Y-39618654D01*
X131678719Y-38752628D01*
X132977757Y-39502628D01*
X132977757Y-39502628D01*
G37*
D11*
X137921762Y-39239359D03*
D12*
G36*
X138821281Y-39181346D02*
X138321281Y-40047372D01*
X137022243Y-39297372D01*
X137522243Y-38431346D01*
X138821281Y-39181346D01*
X138821281Y-39181346D01*
G37*
D11*
X136321762Y-42010641D03*
D12*
G36*
X137221281Y-41952628D02*
X136721281Y-42818654D01*
X135422243Y-42068654D01*
X135922243Y-41202628D01*
X137221281Y-41952628D01*
X137221281Y-41952628D01*
G37*
G04 #@! TD*
D11*
G04 #@! TO.C,U08*
X39510641Y-132078238D03*
D12*
G36*
X38702628Y-131678719D02*
X39568654Y-131178719D01*
X40318654Y-132477757D01*
X39452628Y-132977757D01*
X38702628Y-131678719D01*
X38702628Y-131678719D01*
G37*
D11*
X36739359Y-133678238D03*
D12*
G36*
X35931346Y-133278719D02*
X36797372Y-132778719D01*
X37547372Y-134077757D01*
X36681346Y-134577757D01*
X35931346Y-133278719D01*
X35931346Y-133278719D01*
G37*
D11*
X41960641Y-136321762D03*
D12*
G36*
X41152628Y-135922243D02*
X42018654Y-135422243D01*
X42768654Y-136721281D01*
X41902628Y-137221281D01*
X41152628Y-135922243D01*
X41152628Y-135922243D01*
G37*
D11*
X39189359Y-137921762D03*
D12*
G36*
X38381346Y-137522243D02*
X39247372Y-137022243D01*
X39997372Y-138321281D01*
X39131346Y-138821281D01*
X38381346Y-137522243D01*
X38381346Y-137522243D01*
G37*
G04 #@! TD*
D13*
G04 #@! TO.C,U09*
X28400000Y-102450000D03*
X31600000Y-102450000D03*
X28400000Y-97550000D03*
X31600000Y-97550000D03*
G04 #@! TD*
D11*
G04 #@! TO.C,U10*
X41960641Y-63678238D03*
D12*
G36*
X41902628Y-62778719D02*
X42768654Y-63278719D01*
X42018654Y-64577757D01*
X41152628Y-64077757D01*
X41902628Y-62778719D01*
X41902628Y-62778719D01*
G37*
D11*
X39189359Y-62078238D03*
D12*
G36*
X39131346Y-61178719D02*
X39997372Y-61678719D01*
X39247372Y-62977757D01*
X38381346Y-62477757D01*
X39131346Y-61178719D01*
X39131346Y-61178719D01*
G37*
D11*
X39510641Y-67921762D03*
D12*
G36*
X39452628Y-67022243D02*
X40318654Y-67522243D01*
X39568654Y-68821281D01*
X38702628Y-68321281D01*
X39452628Y-67022243D01*
X39452628Y-67022243D01*
G37*
D11*
X36739359Y-66321762D03*
D12*
G36*
X36681346Y-65422243D02*
X37547372Y-65922243D01*
X36797372Y-67221281D01*
X35931346Y-66721281D01*
X36681346Y-65422243D01*
X36681346Y-65422243D01*
G37*
G04 #@! TD*
D11*
G04 #@! TO.C,U11*
X62078238Y-39239359D03*
D12*
G36*
X62477757Y-38431346D02*
X62977757Y-39297372D01*
X61678719Y-40047372D01*
X61178719Y-39181346D01*
X62477757Y-38431346D01*
X62477757Y-38431346D01*
G37*
D11*
X63678238Y-42010641D03*
D12*
G36*
X64077757Y-41202628D02*
X64577757Y-42068654D01*
X63278719Y-42818654D01*
X62778719Y-41952628D01*
X64077757Y-41202628D01*
X64077757Y-41202628D01*
G37*
D11*
X66321762Y-36789359D03*
D12*
G36*
X66721281Y-35981346D02*
X67221281Y-36847372D01*
X65922243Y-37597372D01*
X65422243Y-36731346D01*
X66721281Y-35981346D01*
X66721281Y-35981346D01*
G37*
D11*
X67921762Y-39560641D03*
D12*
G36*
X68321281Y-38752628D02*
X68821281Y-39618654D01*
X67522243Y-40368654D01*
X67022243Y-39502628D01*
X68321281Y-38752628D01*
X68321281Y-38752628D01*
G37*
G04 #@! TD*
D10*
G04 #@! TO.C,U12*
X102450000Y-31600000D03*
X102450000Y-28400000D03*
X97550000Y-31600000D03*
X97550000Y-28400000D03*
G04 #@! TD*
D13*
G04 #@! TO.C,U13*
X145350000Y-97550000D03*
X142150000Y-97550000D03*
X145350000Y-102450000D03*
X142150000Y-102450000D03*
G04 #@! TD*
D10*
G04 #@! TO.C,U14*
X97550000Y-142150000D03*
X97550000Y-145350000D03*
X102450000Y-142150000D03*
X102450000Y-145350000D03*
G04 #@! TD*
D13*
G04 #@! TO.C,U15*
X54650000Y-102450000D03*
X57850000Y-102450000D03*
X54650000Y-97550000D03*
X57850000Y-97550000D03*
G04 #@! TD*
D10*
G04 #@! TO.C,U16*
X102450000Y-57850000D03*
X102450000Y-54650000D03*
X97550000Y-57850000D03*
X97550000Y-54650000D03*
G04 #@! TD*
D11*
G04 #@! TO.C,U04*
X163210641Y-133678238D03*
D12*
G36*
X163268654Y-134577757D02*
X162402628Y-134077757D01*
X163152628Y-132778719D01*
X164018654Y-133278719D01*
X163268654Y-134577757D01*
X163268654Y-134577757D01*
G37*
D11*
X160439359Y-132078238D03*
D12*
G36*
X160497372Y-132977757D02*
X159631346Y-132477757D01*
X160381346Y-131178719D01*
X161247372Y-131678719D01*
X160497372Y-132977757D01*
X160497372Y-132977757D01*
G37*
D11*
X160760641Y-137921762D03*
D12*
G36*
X160818654Y-138821281D02*
X159952628Y-138321281D01*
X160702628Y-137022243D01*
X161568654Y-137522243D01*
X160818654Y-138821281D01*
X160818654Y-138821281D01*
G37*
D11*
X157989359Y-136321762D03*
D12*
G36*
X158047372Y-137221281D02*
X157181346Y-136721281D01*
X157931346Y-135422243D01*
X158797372Y-135922243D01*
X158047372Y-137221281D01*
X158047372Y-137221281D01*
G37*
G04 #@! TD*
M02*
