G04 #@! TF.GenerationSoftware,KiCad,Pcbnew,(5.0.1-3-g963ef8bb5)*
G04 #@! TF.CreationDate,2019-09-11T13:55:26+02:00*
G04 #@! TF.ProjectId,crecol_v30,637265636F6C5F7633302E6B69636164,rev?*
G04 #@! TF.SameCoordinates,Original*
G04 #@! TF.FileFunction,Soldermask,Top*
G04 #@! TF.FilePolarity,Negative*
%FSLAX46Y46*%
G04 Gerber Fmt 4.6, Leading zero omitted, Abs format (unit mm)*
G04 Created by KiCad (PCBNEW (5.0.1-3-g963ef8bb5)) date 2019 September 11, Wednesday 13:55:26*
%MOMM*%
%LPD*%
G01*
G04 APERTURE LIST*
%ADD10C,0.100000*%
G04 APERTURE END LIST*
D10*
G36*
X121469008Y-177114253D02*
X121575331Y-177135402D01*
X121875794Y-177259858D01*
X122142604Y-177438135D01*
X122146206Y-177440542D01*
X122376165Y-177670501D01*
X122556850Y-177940915D01*
X122681305Y-178241377D01*
X122744752Y-178560344D01*
X122744752Y-178885566D01*
X122681305Y-179204533D01*
X122556850Y-179504995D01*
X122376165Y-179775409D01*
X122146206Y-180005368D01*
X122146203Y-180005370D01*
X121875794Y-180186052D01*
X121575331Y-180310508D01*
X121469008Y-180331657D01*
X121256363Y-180373955D01*
X120931141Y-180373955D01*
X120718496Y-180331657D01*
X120612173Y-180310508D01*
X120311710Y-180186052D01*
X120041301Y-180005370D01*
X120041298Y-180005368D01*
X119811339Y-179775409D01*
X119630654Y-179504995D01*
X119506199Y-179204533D01*
X119442752Y-178885566D01*
X119442752Y-178560344D01*
X119506199Y-178241377D01*
X119630654Y-177940915D01*
X119811339Y-177670501D01*
X120041298Y-177440542D01*
X120044900Y-177438135D01*
X120311710Y-177259858D01*
X120612173Y-177135402D01*
X120718496Y-177114253D01*
X120931141Y-177071955D01*
X121256363Y-177071955D01*
X121469008Y-177114253D01*
X121469008Y-177114253D01*
G37*
G36*
X79281504Y-177114253D02*
X79387827Y-177135402D01*
X79688290Y-177259858D01*
X79955100Y-177438135D01*
X79958702Y-177440542D01*
X80188661Y-177670501D01*
X80369346Y-177940915D01*
X80493801Y-178241377D01*
X80557248Y-178560344D01*
X80557248Y-178885566D01*
X80493801Y-179204533D01*
X80369346Y-179504995D01*
X80188661Y-179775409D01*
X79958702Y-180005368D01*
X79958699Y-180005370D01*
X79688290Y-180186052D01*
X79387827Y-180310508D01*
X79281504Y-180331657D01*
X79068859Y-180373955D01*
X78743637Y-180373955D01*
X78530992Y-180331657D01*
X78424669Y-180310508D01*
X78124206Y-180186052D01*
X77853797Y-180005370D01*
X77853794Y-180005368D01*
X77623835Y-179775409D01*
X77443150Y-179504995D01*
X77318695Y-179204533D01*
X77255248Y-178885566D01*
X77255248Y-178560344D01*
X77318695Y-178241377D01*
X77443150Y-177940915D01*
X77623835Y-177670501D01*
X77853794Y-177440542D01*
X77857396Y-177438135D01*
X78124206Y-177259858D01*
X78424669Y-177135402D01*
X78530992Y-177114253D01*
X78743637Y-177071955D01*
X79068859Y-177071955D01*
X79281504Y-177114253D01*
X79281504Y-177114253D01*
G37*
G36*
X103251000Y-172151000D02*
X101649000Y-172151000D01*
X101649000Y-171049000D01*
X103251000Y-171049000D01*
X103251000Y-172151000D01*
X103251000Y-172151000D01*
G37*
G36*
X98351000Y-172151000D02*
X96749000Y-172151000D01*
X96749000Y-171049000D01*
X98351000Y-171049000D01*
X98351000Y-172151000D01*
X98351000Y-172151000D01*
G37*
G36*
X103251000Y-168951000D02*
X101649000Y-168951000D01*
X101649000Y-167849000D01*
X103251000Y-167849000D01*
X103251000Y-168951000D01*
X103251000Y-168951000D01*
G37*
G36*
X98351000Y-168951000D02*
X96749000Y-168951000D01*
X96749000Y-167849000D01*
X98351000Y-167849000D01*
X98351000Y-168951000D01*
X98351000Y-168951000D01*
G37*
G36*
X66597262Y-162733461D02*
X67290949Y-163133961D01*
X66739949Y-164088321D01*
X66739948Y-164088321D01*
X66046262Y-163687821D01*
X65352575Y-163287321D01*
X65903575Y-162332961D01*
X65903576Y-162332961D01*
X66597262Y-162733461D01*
X66597262Y-162733461D01*
G37*
G36*
X134647425Y-163287321D02*
X133953738Y-163687821D01*
X133260052Y-164088321D01*
X133260051Y-164088321D01*
X132709051Y-163133961D01*
X133402738Y-162733461D01*
X134096424Y-162332961D01*
X134096425Y-162332961D01*
X134647425Y-163287321D01*
X134647425Y-163287321D01*
G37*
G36*
X138890949Y-160837321D02*
X138197262Y-161237821D01*
X137503576Y-161638321D01*
X137503575Y-161638321D01*
X136952575Y-160683961D01*
X137646262Y-160283461D01*
X138339948Y-159882961D01*
X138339949Y-159882961D01*
X138890949Y-160837321D01*
X138890949Y-160837321D01*
G37*
G36*
X62353738Y-160283461D02*
X63047425Y-160683961D01*
X62496425Y-161638321D01*
X62496424Y-161638321D01*
X61802738Y-161237821D01*
X61109051Y-160837321D01*
X61660051Y-159882961D01*
X61660052Y-159882961D01*
X62353738Y-160283461D01*
X62353738Y-160283461D01*
G37*
G36*
X133047425Y-160516039D02*
X132756575Y-160683961D01*
X131660052Y-161317039D01*
X131660051Y-161317039D01*
X131109051Y-160362679D01*
X131939948Y-159882961D01*
X132496424Y-159561679D01*
X132496425Y-159561679D01*
X133047425Y-160516039D01*
X133047425Y-160516039D01*
G37*
G36*
X68060052Y-159882961D02*
X68890949Y-160362679D01*
X68339949Y-161317039D01*
X68339948Y-161317039D01*
X67243425Y-160683961D01*
X66952575Y-160516039D01*
X67503575Y-159561679D01*
X67503576Y-159561679D01*
X68060052Y-159882961D01*
X68060052Y-159882961D01*
G37*
G36*
X42746053Y-156020501D02*
X42852376Y-156041650D01*
X43152839Y-156166106D01*
X43419649Y-156344383D01*
X43423251Y-156346790D01*
X43653210Y-156576749D01*
X43653212Y-156576752D01*
X43833894Y-156847161D01*
X43949857Y-157127119D01*
X43958350Y-157147625D01*
X44021797Y-157466592D01*
X44021797Y-157791814D01*
X43958350Y-158110781D01*
X43833895Y-158411243D01*
X43653210Y-158681657D01*
X43423251Y-158911616D01*
X43423248Y-158911618D01*
X43152839Y-159092300D01*
X42852376Y-159216756D01*
X42746053Y-159237905D01*
X42533408Y-159280203D01*
X42208186Y-159280203D01*
X41995541Y-159237905D01*
X41889218Y-159216756D01*
X41588755Y-159092300D01*
X41318346Y-158911618D01*
X41318343Y-158911616D01*
X41088384Y-158681657D01*
X40907699Y-158411243D01*
X40783244Y-158110781D01*
X40719797Y-157791814D01*
X40719797Y-157466592D01*
X40783244Y-157147625D01*
X40791738Y-157127119D01*
X40907700Y-156847161D01*
X41088382Y-156576752D01*
X41088384Y-156576749D01*
X41318343Y-156346790D01*
X41321945Y-156344383D01*
X41588755Y-156166106D01*
X41889218Y-156041650D01*
X41995541Y-156020501D01*
X42208186Y-155978203D01*
X42533408Y-155978203D01*
X42746053Y-156020501D01*
X42746053Y-156020501D01*
G37*
G36*
X158004459Y-156020501D02*
X158110782Y-156041650D01*
X158411245Y-156166106D01*
X158678055Y-156344383D01*
X158681657Y-156346790D01*
X158911616Y-156576749D01*
X158911618Y-156576752D01*
X159092300Y-156847161D01*
X159208263Y-157127119D01*
X159216756Y-157147625D01*
X159280203Y-157466592D01*
X159280203Y-157791814D01*
X159216756Y-158110781D01*
X159092301Y-158411243D01*
X158911616Y-158681657D01*
X158681657Y-158911616D01*
X158681654Y-158911618D01*
X158411245Y-159092300D01*
X158110782Y-159216756D01*
X158004459Y-159237905D01*
X157791814Y-159280203D01*
X157466592Y-159280203D01*
X157253947Y-159237905D01*
X157147624Y-159216756D01*
X156847161Y-159092300D01*
X156576752Y-158911618D01*
X156576749Y-158911616D01*
X156346790Y-158681657D01*
X156166105Y-158411243D01*
X156041650Y-158110781D01*
X155978203Y-157791814D01*
X155978203Y-157466592D01*
X156041650Y-157147625D01*
X156050144Y-157127119D01*
X156166106Y-156847161D01*
X156346788Y-156576752D01*
X156346790Y-156576749D01*
X156576749Y-156346790D01*
X156580351Y-156344383D01*
X156847161Y-156166106D01*
X157147624Y-156041650D01*
X157253947Y-156020501D01*
X157466592Y-155978203D01*
X157791814Y-155978203D01*
X158004459Y-156020501D01*
X158004459Y-156020501D01*
G37*
G36*
X63953738Y-157512179D02*
X64647425Y-157912679D01*
X64096425Y-158867039D01*
X64096424Y-158867039D01*
X63306966Y-158411245D01*
X62709051Y-158066039D01*
X63260051Y-157111679D01*
X63260052Y-157111679D01*
X63953738Y-157512179D01*
X63953738Y-157512179D01*
G37*
G36*
X137290949Y-158066039D02*
X136693034Y-158411245D01*
X135903576Y-158867039D01*
X135903575Y-158867039D01*
X135352575Y-157912679D01*
X136046262Y-157512179D01*
X136739948Y-157111679D01*
X136739949Y-157111679D01*
X137290949Y-158066039D01*
X137290949Y-158066039D01*
G37*
G36*
X100700142Y-152691942D02*
X100881081Y-152766890D01*
X101136967Y-152872881D01*
X101530105Y-153135567D01*
X101864433Y-153469895D01*
X102127119Y-153863033D01*
X102308058Y-154299859D01*
X102400300Y-154763590D01*
X102400300Y-155236410D01*
X102308058Y-155700141D01*
X102127119Y-156136967D01*
X101864433Y-156530105D01*
X101530105Y-156864433D01*
X101136967Y-157127119D01*
X100881081Y-157233110D01*
X100700142Y-157308058D01*
X100236410Y-157400300D01*
X99763590Y-157400300D01*
X99299858Y-157308058D01*
X99118919Y-157233110D01*
X98863033Y-157127119D01*
X98469895Y-156864433D01*
X98135567Y-156530105D01*
X97872881Y-156136967D01*
X97691942Y-155700141D01*
X97599700Y-155236410D01*
X97599700Y-154763590D01*
X97691942Y-154299859D01*
X97872881Y-153863033D01*
X98135567Y-153469895D01*
X98469895Y-153135567D01*
X98863033Y-152872881D01*
X99118919Y-152766890D01*
X99299858Y-152691942D01*
X99763590Y-152599700D01*
X100236410Y-152599700D01*
X100700142Y-152691942D01*
X100700142Y-152691942D01*
G37*
G36*
X98351000Y-145901000D02*
X96749000Y-145901000D01*
X96749000Y-144799000D01*
X98351000Y-144799000D01*
X98351000Y-145901000D01*
X98351000Y-145901000D01*
G37*
G36*
X103251000Y-145901000D02*
X101649000Y-145901000D01*
X101649000Y-144799000D01*
X103251000Y-144799000D01*
X103251000Y-145901000D01*
X103251000Y-145901000D01*
G37*
G36*
X98351000Y-142701000D02*
X96749000Y-142701000D01*
X96749000Y-141599000D01*
X98351000Y-141599000D01*
X98351000Y-142701000D01*
X98351000Y-142701000D01*
G37*
G36*
X103251000Y-142701000D02*
X101649000Y-142701000D01*
X101649000Y-141599000D01*
X103251000Y-141599000D01*
X103251000Y-142701000D01*
X103251000Y-142701000D01*
G37*
G36*
X39461399Y-137290949D02*
X40067039Y-138339948D01*
X40067039Y-138339949D01*
X39112679Y-138890949D01*
X38712179Y-138197262D01*
X38311679Y-137503576D01*
X38311679Y-137503575D01*
X39266039Y-136952575D01*
X39461399Y-137290949D01*
X39461399Y-137290949D01*
G37*
G36*
X161638321Y-137503575D02*
X161638321Y-137503576D01*
X161237821Y-138197262D01*
X160837321Y-138890949D01*
X159882961Y-138339949D01*
X159882961Y-138339948D01*
X160488601Y-137290949D01*
X160683961Y-136952575D01*
X161638321Y-137503575D01*
X161638321Y-137503575D01*
G37*
G36*
X42355441Y-135903575D02*
X42838321Y-136739948D01*
X42838321Y-136739949D01*
X41883961Y-137290949D01*
X41483461Y-136597262D01*
X41082961Y-135903576D01*
X41082961Y-135903575D01*
X42037321Y-135352575D01*
X42355441Y-135903575D01*
X42355441Y-135903575D01*
G37*
G36*
X158867039Y-135903575D02*
X158867039Y-135903576D01*
X158466539Y-136597262D01*
X158066039Y-137290949D01*
X157111679Y-136739949D01*
X157111679Y-136739948D01*
X157594559Y-135903575D01*
X157912679Y-135352575D01*
X158867039Y-135903575D01*
X158867039Y-135903575D01*
G37*
G36*
X37011399Y-133047425D02*
X37617039Y-134096424D01*
X37617039Y-134096425D01*
X36662679Y-134647425D01*
X36262179Y-133953738D01*
X35861679Y-133260052D01*
X35861679Y-133260051D01*
X36816039Y-132709051D01*
X37011399Y-133047425D01*
X37011399Y-133047425D01*
G37*
G36*
X164088321Y-133260051D02*
X164088321Y-133260052D01*
X163687821Y-133953738D01*
X163287321Y-134647425D01*
X162332961Y-134096425D01*
X162332961Y-134096424D01*
X162938601Y-133047425D01*
X163133961Y-132709051D01*
X164088321Y-133260051D01*
X164088321Y-133260051D01*
G37*
G36*
X39905441Y-131660051D02*
X40388321Y-132496424D01*
X40388321Y-132496425D01*
X39433961Y-133047425D01*
X39033461Y-132353738D01*
X38632961Y-131660052D01*
X38632961Y-131660051D01*
X39587321Y-131109051D01*
X39905441Y-131660051D01*
X39905441Y-131660051D01*
G37*
G36*
X161317039Y-131660051D02*
X161317039Y-131660052D01*
X160916539Y-132353738D01*
X160516039Y-133047425D01*
X159561679Y-132496425D01*
X159561679Y-132496424D01*
X160044559Y-131660051D01*
X160362679Y-131109051D01*
X161317039Y-131660051D01*
X161317039Y-131660051D01*
G37*
G36*
X21249632Y-125237976D02*
X21355987Y-125259131D01*
X21426827Y-125288474D01*
X21556353Y-125342125D01*
X21736687Y-125462621D01*
X21890036Y-125615970D01*
X21890038Y-125615973D01*
X21890039Y-125615974D01*
X21949890Y-125705547D01*
X22010532Y-125796304D01*
X22022849Y-125826041D01*
X22093526Y-125996670D01*
X22104622Y-126052454D01*
X22135837Y-126209380D01*
X22135837Y-126426260D01*
X22128509Y-126463098D01*
X22103754Y-126587553D01*
X22093526Y-126638969D01*
X22010532Y-126839336D01*
X21890036Y-127019670D01*
X21736687Y-127173019D01*
X21736684Y-127173021D01*
X21736683Y-127173022D01*
X21628296Y-127245444D01*
X21556353Y-127293515D01*
X21426827Y-127347166D01*
X21355987Y-127376509D01*
X21249631Y-127397665D01*
X21143277Y-127418820D01*
X20926397Y-127418820D01*
X20820043Y-127397665D01*
X20713687Y-127376509D01*
X20642847Y-127347166D01*
X20513321Y-127293515D01*
X20441378Y-127245444D01*
X20332991Y-127173022D01*
X20332990Y-127173021D01*
X20332987Y-127173019D01*
X20179638Y-127019670D01*
X20059142Y-126839336D01*
X19976148Y-126638969D01*
X19965921Y-126587553D01*
X19941165Y-126463098D01*
X19933837Y-126426260D01*
X19933837Y-126209380D01*
X19965052Y-126052454D01*
X19976148Y-125996670D01*
X20046825Y-125826041D01*
X20059142Y-125796304D01*
X20119784Y-125705547D01*
X20179635Y-125615974D01*
X20179636Y-125615973D01*
X20179638Y-125615970D01*
X20332987Y-125462621D01*
X20513321Y-125342125D01*
X20642847Y-125288474D01*
X20713687Y-125259131D01*
X20820042Y-125237976D01*
X20926397Y-125216820D01*
X21143277Y-125216820D01*
X21249632Y-125237976D01*
X21249632Y-125237976D01*
G37*
G36*
X31555937Y-125064599D02*
X31662293Y-125085755D01*
X31733133Y-125115098D01*
X31862659Y-125168749D01*
X31862662Y-125168751D01*
X31997925Y-125259131D01*
X32042993Y-125289245D01*
X32196342Y-125442594D01*
X32196344Y-125442597D01*
X32196345Y-125442598D01*
X32312189Y-125615970D01*
X32316838Y-125622928D01*
X32351061Y-125705550D01*
X32399832Y-125823294D01*
X32442143Y-126036005D01*
X32442143Y-126252883D01*
X32400329Y-126463097D01*
X32399832Y-126465593D01*
X32316838Y-126665960D01*
X32316836Y-126665963D01*
X32200990Y-126839339D01*
X32196342Y-126846294D01*
X32042993Y-126999643D01*
X31862659Y-127120139D01*
X31734994Y-127173019D01*
X31662293Y-127203133D01*
X31555938Y-127224288D01*
X31449583Y-127245444D01*
X31232703Y-127245444D01*
X31126348Y-127224288D01*
X31019993Y-127203133D01*
X30947292Y-127173019D01*
X30819627Y-127120139D01*
X30639293Y-126999643D01*
X30485944Y-126846294D01*
X30481297Y-126839339D01*
X30365450Y-126665963D01*
X30365448Y-126665960D01*
X30282454Y-126465593D01*
X30281958Y-126463097D01*
X30240143Y-126252883D01*
X30240143Y-126036005D01*
X30282454Y-125823294D01*
X30331225Y-125705550D01*
X30365448Y-125622928D01*
X30370097Y-125615970D01*
X30485941Y-125442598D01*
X30485942Y-125442597D01*
X30485944Y-125442594D01*
X30639293Y-125289245D01*
X30684362Y-125259131D01*
X30819624Y-125168751D01*
X30819627Y-125168749D01*
X30949153Y-125115098D01*
X31019993Y-125085755D01*
X31126349Y-125064599D01*
X31232703Y-125043444D01*
X31449583Y-125043444D01*
X31555937Y-125064599D01*
X31555937Y-125064599D01*
G37*
G36*
X100375256Y-123391298D02*
X100481579Y-123412447D01*
X100782042Y-123536903D01*
X101048852Y-123715180D01*
X101052454Y-123717587D01*
X101282413Y-123947546D01*
X101282415Y-123947549D01*
X101463097Y-124217958D01*
X101587553Y-124518421D01*
X101589697Y-124529199D01*
X101651000Y-124837389D01*
X101651000Y-125162611D01*
X101649232Y-125171497D01*
X101587553Y-125481579D01*
X101463097Y-125782042D01*
X101433696Y-125826043D01*
X101282413Y-126052454D01*
X101052454Y-126282413D01*
X101052451Y-126282415D01*
X100782042Y-126463097D01*
X100782041Y-126463098D01*
X100782040Y-126463098D01*
X100776014Y-126465594D01*
X100481579Y-126587553D01*
X100375256Y-126608702D01*
X100162611Y-126651000D01*
X99837389Y-126651000D01*
X99624744Y-126608702D01*
X99518421Y-126587553D01*
X99223986Y-126465594D01*
X99217960Y-126463098D01*
X99217959Y-126463098D01*
X99217958Y-126463097D01*
X98947549Y-126282415D01*
X98947546Y-126282413D01*
X98717587Y-126052454D01*
X98566304Y-125826043D01*
X98536903Y-125782042D01*
X98412447Y-125481579D01*
X98350768Y-125171497D01*
X98349000Y-125162611D01*
X98349000Y-124837389D01*
X98410303Y-124529199D01*
X98412447Y-124518421D01*
X98536903Y-124217958D01*
X98717585Y-123947549D01*
X98717587Y-123947546D01*
X98947546Y-123717587D01*
X98951148Y-123715180D01*
X99217958Y-123536903D01*
X99518421Y-123412447D01*
X99624744Y-123391298D01*
X99837389Y-123349000D01*
X100162611Y-123349000D01*
X100375256Y-123391298D01*
X100375256Y-123391298D01*
G37*
G36*
X36385566Y-123770503D02*
X36491922Y-123791659D01*
X36562762Y-123821002D01*
X36692288Y-123874653D01*
X36692291Y-123874655D01*
X36801380Y-123947546D01*
X36872622Y-123995149D01*
X37025971Y-124148498D01*
X37146467Y-124328832D01*
X37229461Y-124529199D01*
X37271772Y-124741908D01*
X37271772Y-124958788D01*
X37229461Y-125171497D01*
X37146467Y-125371864D01*
X37146465Y-125371867D01*
X37073158Y-125481579D01*
X37025971Y-125552198D01*
X36872622Y-125705547D01*
X36692288Y-125826043D01*
X36562762Y-125879694D01*
X36491922Y-125909037D01*
X36385567Y-125930192D01*
X36279212Y-125951348D01*
X36062332Y-125951348D01*
X35955977Y-125930192D01*
X35849622Y-125909037D01*
X35778782Y-125879694D01*
X35649256Y-125826043D01*
X35468922Y-125705547D01*
X35315573Y-125552198D01*
X35268387Y-125481579D01*
X35195079Y-125371867D01*
X35195077Y-125371864D01*
X35112083Y-125171497D01*
X35069772Y-124958788D01*
X35069772Y-124741908D01*
X35112083Y-124529199D01*
X35195077Y-124328832D01*
X35315573Y-124148498D01*
X35468922Y-123995149D01*
X35540165Y-123947546D01*
X35649253Y-123874655D01*
X35649256Y-123874653D01*
X35778782Y-123821002D01*
X35849622Y-123791659D01*
X35955978Y-123770503D01*
X36062332Y-123749348D01*
X36279212Y-123749348D01*
X36385566Y-123770503D01*
X36385566Y-123770503D01*
G37*
G36*
X33323705Y-122002738D02*
X33430060Y-122023893D01*
X33500900Y-122053236D01*
X33630426Y-122106887D01*
X33810760Y-122227383D01*
X33964109Y-122380732D01*
X34084605Y-122561066D01*
X34167599Y-122761433D01*
X34209910Y-122974142D01*
X34209910Y-123191022D01*
X34167599Y-123403731D01*
X34084605Y-123604098D01*
X33964109Y-123784432D01*
X33810760Y-123937781D01*
X33810757Y-123937783D01*
X33810756Y-123937784D01*
X33724908Y-123995146D01*
X33630426Y-124058277D01*
X33500900Y-124111928D01*
X33430060Y-124141271D01*
X33393707Y-124148502D01*
X33217350Y-124183582D01*
X33000470Y-124183582D01*
X32824113Y-124148502D01*
X32787760Y-124141271D01*
X32716920Y-124111928D01*
X32587394Y-124058277D01*
X32492912Y-123995146D01*
X32407064Y-123937784D01*
X32407063Y-123937783D01*
X32407060Y-123937781D01*
X32253711Y-123784432D01*
X32133215Y-123604098D01*
X32050221Y-123403731D01*
X32007910Y-123191022D01*
X32007910Y-122974142D01*
X32050221Y-122761433D01*
X32133215Y-122561066D01*
X32253711Y-122380732D01*
X32407060Y-122227383D01*
X32587394Y-122106887D01*
X32716920Y-122053236D01*
X32787760Y-122023893D01*
X32894115Y-122002738D01*
X33000470Y-121981582D01*
X33217350Y-121981582D01*
X33323705Y-122002738D01*
X33323705Y-122002738D01*
G37*
G36*
X179098211Y-119485050D02*
X179204534Y-119506199D01*
X179504997Y-119630655D01*
X179691390Y-119755199D01*
X179775409Y-119811339D01*
X180005368Y-120041298D01*
X180005370Y-120041301D01*
X180186052Y-120311710D01*
X180310508Y-120612173D01*
X180373955Y-120931143D01*
X180373955Y-121256361D01*
X180310508Y-121575331D01*
X180186052Y-121875794D01*
X180087095Y-122023893D01*
X180005368Y-122146206D01*
X179775409Y-122376165D01*
X179775406Y-122376167D01*
X179504997Y-122556849D01*
X179504996Y-122556850D01*
X179504995Y-122556850D01*
X179416992Y-122593302D01*
X179204534Y-122681305D01*
X179098211Y-122702454D01*
X178885566Y-122744752D01*
X178560344Y-122744752D01*
X178347699Y-122702454D01*
X178241376Y-122681305D01*
X178028918Y-122593302D01*
X177940915Y-122556850D01*
X177940914Y-122556850D01*
X177940913Y-122556849D01*
X177670504Y-122376167D01*
X177670501Y-122376165D01*
X177440542Y-122146206D01*
X177358815Y-122023893D01*
X177259858Y-121875794D01*
X177135402Y-121575331D01*
X177071955Y-121256361D01*
X177071955Y-120931143D01*
X177135402Y-120612173D01*
X177259858Y-120311710D01*
X177440540Y-120041301D01*
X177440542Y-120041298D01*
X177670501Y-119811339D01*
X177754520Y-119755199D01*
X177940913Y-119630655D01*
X178241376Y-119506199D01*
X178347699Y-119485050D01*
X178560344Y-119442752D01*
X178885566Y-119442752D01*
X179098211Y-119485050D01*
X179098211Y-119485050D01*
G37*
G36*
X29614795Y-117820156D02*
X29721150Y-117841311D01*
X29791990Y-117870654D01*
X29921516Y-117924305D01*
X30101850Y-118044801D01*
X30255199Y-118198150D01*
X30375695Y-118378484D01*
X30458689Y-118578851D01*
X30501000Y-118791560D01*
X30501000Y-119008440D01*
X30458689Y-119221149D01*
X30375695Y-119421516D01*
X30375693Y-119421519D01*
X30361506Y-119442752D01*
X30255199Y-119601850D01*
X30101850Y-119755199D01*
X29921516Y-119875695D01*
X29791990Y-119929346D01*
X29721150Y-119958689D01*
X29614795Y-119979844D01*
X29508440Y-120001000D01*
X29291560Y-120001000D01*
X29185205Y-119979844D01*
X29078850Y-119958689D01*
X29008010Y-119929346D01*
X28878484Y-119875695D01*
X28698150Y-119755199D01*
X28544801Y-119601850D01*
X28438495Y-119442752D01*
X28424307Y-119421519D01*
X28424305Y-119421516D01*
X28341311Y-119221149D01*
X28299000Y-119008440D01*
X28299000Y-118791560D01*
X28341311Y-118578851D01*
X28424305Y-118378484D01*
X28544801Y-118198150D01*
X28698150Y-118044801D01*
X28878484Y-117924305D01*
X29008010Y-117870654D01*
X29078850Y-117841311D01*
X29185205Y-117820156D01*
X29291560Y-117799000D01*
X29508440Y-117799000D01*
X29614795Y-117820156D01*
X29614795Y-117820156D01*
G37*
G36*
X18661441Y-115578716D02*
X18767797Y-115599872D01*
X18838637Y-115629215D01*
X18968163Y-115682866D01*
X19148497Y-115803362D01*
X19301846Y-115956711D01*
X19422342Y-116137045D01*
X19505336Y-116337412D01*
X19547647Y-116550121D01*
X19547647Y-116767001D01*
X19505336Y-116979710D01*
X19422342Y-117180077D01*
X19301846Y-117360411D01*
X19148497Y-117513760D01*
X18968163Y-117634256D01*
X18838637Y-117687907D01*
X18767797Y-117717250D01*
X18661442Y-117738405D01*
X18555087Y-117759561D01*
X18338207Y-117759561D01*
X18231852Y-117738405D01*
X18125497Y-117717250D01*
X18054657Y-117687907D01*
X17925131Y-117634256D01*
X17744797Y-117513760D01*
X17591448Y-117360411D01*
X17470952Y-117180077D01*
X17387958Y-116979710D01*
X17345647Y-116767001D01*
X17345647Y-116550121D01*
X17387958Y-116337412D01*
X17470952Y-116137045D01*
X17591448Y-115956711D01*
X17744797Y-115803362D01*
X17925131Y-115682866D01*
X18054657Y-115629215D01*
X18125497Y-115599872D01*
X18231853Y-115578716D01*
X18338207Y-115557561D01*
X18555087Y-115557561D01*
X18661441Y-115578716D01*
X18661441Y-115578716D01*
G37*
G36*
X128088069Y-114391298D02*
X128194392Y-114412447D01*
X128406850Y-114500450D01*
X128464485Y-114524323D01*
X128494855Y-114536903D01*
X128761665Y-114715180D01*
X128765267Y-114717587D01*
X128995226Y-114947546D01*
X129175911Y-115217960D01*
X129300366Y-115518422D01*
X129357045Y-115803362D01*
X129363813Y-115837391D01*
X129363813Y-116162609D01*
X129300366Y-116481579D01*
X129212363Y-116694037D01*
X129175911Y-116782040D01*
X128995226Y-117052454D01*
X128765267Y-117282413D01*
X128765264Y-117282415D01*
X128494855Y-117463097D01*
X128194392Y-117587553D01*
X128088069Y-117608702D01*
X127875424Y-117651000D01*
X127550202Y-117651000D01*
X127337557Y-117608702D01*
X127231234Y-117587553D01*
X126930771Y-117463097D01*
X126660362Y-117282415D01*
X126660359Y-117282413D01*
X126430400Y-117052454D01*
X126249715Y-116782040D01*
X126213263Y-116694037D01*
X126125260Y-116481579D01*
X126061813Y-116162609D01*
X126061813Y-115837391D01*
X126068582Y-115803362D01*
X126125260Y-115518422D01*
X126249715Y-115217960D01*
X126430400Y-114947546D01*
X126660359Y-114717587D01*
X126663961Y-114715180D01*
X126930771Y-114536903D01*
X126961142Y-114524323D01*
X127018776Y-114500450D01*
X127231234Y-114412447D01*
X127337557Y-114391298D01*
X127550202Y-114349000D01*
X127875424Y-114349000D01*
X128088069Y-114391298D01*
X128088069Y-114391298D01*
G37*
G36*
X72662443Y-114391298D02*
X72768766Y-114412447D01*
X72981224Y-114500450D01*
X73038859Y-114524323D01*
X73069229Y-114536903D01*
X73336039Y-114715180D01*
X73339641Y-114717587D01*
X73569600Y-114947546D01*
X73750285Y-115217960D01*
X73874740Y-115518422D01*
X73931419Y-115803362D01*
X73938187Y-115837391D01*
X73938187Y-116162609D01*
X73874740Y-116481579D01*
X73786737Y-116694037D01*
X73750285Y-116782040D01*
X73569600Y-117052454D01*
X73339641Y-117282413D01*
X73339638Y-117282415D01*
X73069229Y-117463097D01*
X72768766Y-117587553D01*
X72662443Y-117608702D01*
X72449798Y-117651000D01*
X72124576Y-117651000D01*
X71911931Y-117608702D01*
X71805608Y-117587553D01*
X71505145Y-117463097D01*
X71234736Y-117282415D01*
X71234733Y-117282413D01*
X71004774Y-117052454D01*
X70824089Y-116782040D01*
X70787637Y-116694037D01*
X70699634Y-116481579D01*
X70636187Y-116162609D01*
X70636187Y-115837391D01*
X70642956Y-115803362D01*
X70699634Y-115518422D01*
X70824089Y-115217960D01*
X71004774Y-114947546D01*
X71234733Y-114717587D01*
X71238335Y-114715180D01*
X71505145Y-114536903D01*
X71535516Y-114524323D01*
X71593150Y-114500450D01*
X71805608Y-114412447D01*
X71911931Y-114391298D01*
X72124576Y-114349000D01*
X72449798Y-114349000D01*
X72662443Y-114391298D01*
X72662443Y-114391298D01*
G37*
G36*
X30735513Y-112343478D02*
X30841869Y-112364634D01*
X30912709Y-112393977D01*
X31042235Y-112447628D01*
X31222569Y-112568124D01*
X31375918Y-112721473D01*
X31496414Y-112901807D01*
X31579408Y-113102174D01*
X31621719Y-113314883D01*
X31621719Y-113531763D01*
X31579408Y-113744472D01*
X31496414Y-113944839D01*
X31375918Y-114125173D01*
X31222569Y-114278522D01*
X31042235Y-114399018D01*
X30912709Y-114452669D01*
X30841869Y-114482012D01*
X30735514Y-114503167D01*
X30629159Y-114524323D01*
X30412279Y-114524323D01*
X30305924Y-114503167D01*
X30199569Y-114482012D01*
X30128729Y-114452669D01*
X29999203Y-114399018D01*
X29818869Y-114278522D01*
X29665520Y-114125173D01*
X29545024Y-113944839D01*
X29462030Y-113744472D01*
X29419719Y-113531763D01*
X29419719Y-113314883D01*
X29462030Y-113102174D01*
X29545024Y-112901807D01*
X29665520Y-112721473D01*
X29818869Y-112568124D01*
X29999203Y-112447628D01*
X30128729Y-112393977D01*
X30199569Y-112364634D01*
X30305925Y-112343478D01*
X30412279Y-112322323D01*
X30629159Y-112322323D01*
X30735513Y-112343478D01*
X30735513Y-112343478D01*
G37*
G36*
X27673651Y-110575711D02*
X27780007Y-110596867D01*
X27850847Y-110626210D01*
X27980373Y-110679861D01*
X28160707Y-110800357D01*
X28314056Y-110953706D01*
X28314058Y-110953709D01*
X28314059Y-110953710D01*
X28387292Y-111063311D01*
X28434552Y-111134040D01*
X28468774Y-111216660D01*
X28517546Y-111334406D01*
X28518093Y-111337156D01*
X28559857Y-111547116D01*
X28559857Y-111763996D01*
X28517546Y-111976705D01*
X28434552Y-112177072D01*
X28314056Y-112357406D01*
X28160707Y-112510755D01*
X27980373Y-112631251D01*
X27850847Y-112684902D01*
X27780007Y-112714245D01*
X27743649Y-112721477D01*
X27567297Y-112756556D01*
X27350417Y-112756556D01*
X27174065Y-112721477D01*
X27137707Y-112714245D01*
X27066867Y-112684902D01*
X26937341Y-112631251D01*
X26757007Y-112510755D01*
X26603658Y-112357406D01*
X26483162Y-112177072D01*
X26400168Y-111976705D01*
X26357857Y-111763996D01*
X26357857Y-111547116D01*
X26399621Y-111337156D01*
X26400168Y-111334406D01*
X26448940Y-111216660D01*
X26483162Y-111134040D01*
X26530422Y-111063311D01*
X26603655Y-110953710D01*
X26603656Y-110953709D01*
X26603658Y-110953706D01*
X26757007Y-110800357D01*
X26937341Y-110679861D01*
X27066867Y-110626210D01*
X27137707Y-110596867D01*
X27244063Y-110575711D01*
X27350417Y-110554556D01*
X27567297Y-110554556D01*
X27673651Y-110575711D01*
X27673651Y-110575711D01*
G37*
G36*
X32503280Y-109281616D02*
X32609636Y-109302772D01*
X32680476Y-109332115D01*
X32810002Y-109385766D01*
X32990336Y-109506262D01*
X33143685Y-109659611D01*
X33264181Y-109839945D01*
X33317832Y-109969471D01*
X33347175Y-110040311D01*
X33389486Y-110253022D01*
X33389486Y-110469900D01*
X33347722Y-110679863D01*
X33347175Y-110682610D01*
X33264181Y-110882977D01*
X33264179Y-110882980D01*
X33216919Y-110953710D01*
X33143685Y-111063311D01*
X32990336Y-111216660D01*
X32810002Y-111337156D01*
X32680476Y-111390807D01*
X32609636Y-111420150D01*
X32503281Y-111441305D01*
X32396926Y-111462461D01*
X32180046Y-111462461D01*
X32073691Y-111441305D01*
X31967336Y-111420150D01*
X31896496Y-111390807D01*
X31766970Y-111337156D01*
X31586636Y-111216660D01*
X31433287Y-111063311D01*
X31360054Y-110953710D01*
X31312793Y-110882980D01*
X31312791Y-110882977D01*
X31229797Y-110682610D01*
X31229251Y-110679863D01*
X31187486Y-110469900D01*
X31187486Y-110253022D01*
X31229797Y-110040311D01*
X31259140Y-109969471D01*
X31312791Y-109839945D01*
X31433287Y-109659611D01*
X31586636Y-109506262D01*
X31766970Y-109385766D01*
X31896496Y-109332115D01*
X31967336Y-109302772D01*
X32073692Y-109281616D01*
X32180046Y-109260461D01*
X32396926Y-109260461D01*
X32503280Y-109281616D01*
X32503280Y-109281616D01*
G37*
G36*
X32151000Y-103251000D02*
X31049000Y-103251000D01*
X31049000Y-101649000D01*
X32151000Y-101649000D01*
X32151000Y-103251000D01*
X32151000Y-103251000D01*
G37*
G36*
X145901000Y-103251000D02*
X144799000Y-103251000D01*
X144799000Y-101649000D01*
X145901000Y-101649000D01*
X145901000Y-103251000D01*
X145901000Y-103251000D01*
G37*
G36*
X142701000Y-103251000D02*
X141599000Y-103251000D01*
X141599000Y-101649000D01*
X142701000Y-101649000D01*
X142701000Y-103251000D01*
X142701000Y-103251000D01*
G37*
G36*
X28951000Y-103251000D02*
X27849000Y-103251000D01*
X27849000Y-101649000D01*
X28951000Y-101649000D01*
X28951000Y-103251000D01*
X28951000Y-103251000D01*
G37*
G36*
X168951000Y-103251000D02*
X167849000Y-103251000D01*
X167849000Y-101649000D01*
X168951000Y-101649000D01*
X168951000Y-103251000D01*
X168951000Y-103251000D01*
G37*
G36*
X172151000Y-103251000D02*
X171049000Y-103251000D01*
X171049000Y-101649000D01*
X172151000Y-101649000D01*
X172151000Y-103251000D01*
X172151000Y-103251000D01*
G37*
G36*
X58401000Y-103251000D02*
X57299000Y-103251000D01*
X57299000Y-101649000D01*
X58401000Y-101649000D01*
X58401000Y-103251000D01*
X58401000Y-103251000D01*
G37*
G36*
X55201000Y-103251000D02*
X54099000Y-103251000D01*
X54099000Y-101649000D01*
X55201000Y-101649000D01*
X55201000Y-103251000D01*
X55201000Y-103251000D01*
G37*
G36*
X45468275Y-97645821D02*
X45700142Y-97691942D01*
X45881081Y-97766890D01*
X46136967Y-97872881D01*
X46530105Y-98135567D01*
X46864433Y-98469895D01*
X47127119Y-98863033D01*
X47233110Y-99118919D01*
X47308058Y-99299858D01*
X47400300Y-99763591D01*
X47400300Y-100236409D01*
X47308058Y-100700142D01*
X47274134Y-100782042D01*
X47127119Y-101136967D01*
X46864433Y-101530105D01*
X46530105Y-101864433D01*
X46136967Y-102127119D01*
X45881081Y-102233110D01*
X45700142Y-102308058D01*
X45236410Y-102400300D01*
X44763590Y-102400300D01*
X44531725Y-102354179D01*
X44299858Y-102308058D01*
X44118919Y-102233110D01*
X43863033Y-102127119D01*
X43469895Y-101864433D01*
X43135567Y-101530105D01*
X42872881Y-101136967D01*
X42725866Y-100782042D01*
X42691942Y-100700142D01*
X42599700Y-100236409D01*
X42599700Y-99763591D01*
X42691942Y-99299858D01*
X42766890Y-99118919D01*
X42872881Y-98863033D01*
X43135567Y-98469895D01*
X43469895Y-98135567D01*
X43863033Y-97872881D01*
X44118919Y-97766890D01*
X44299858Y-97691942D01*
X44531725Y-97645821D01*
X44763590Y-97599700D01*
X45236410Y-97599700D01*
X45468275Y-97645821D01*
X45468275Y-97645821D01*
G37*
G36*
X18875256Y-98391298D02*
X18981579Y-98412447D01*
X19282042Y-98536903D01*
X19548852Y-98715180D01*
X19552454Y-98717587D01*
X19782413Y-98947546D01*
X19963098Y-99217960D01*
X20087553Y-99518422D01*
X20151000Y-99837389D01*
X20151000Y-100162611D01*
X20087553Y-100481578D01*
X19963098Y-100782040D01*
X19782413Y-101052454D01*
X19552454Y-101282413D01*
X19552451Y-101282415D01*
X19282042Y-101463097D01*
X18981579Y-101587553D01*
X18875256Y-101608702D01*
X18662611Y-101651000D01*
X18337389Y-101651000D01*
X18124744Y-101608702D01*
X18018421Y-101587553D01*
X17717958Y-101463097D01*
X17447549Y-101282415D01*
X17447546Y-101282413D01*
X17217587Y-101052454D01*
X17036902Y-100782040D01*
X16912447Y-100481578D01*
X16849000Y-100162611D01*
X16849000Y-99837389D01*
X16912447Y-99518422D01*
X17036902Y-99217960D01*
X17217587Y-98947546D01*
X17447546Y-98717587D01*
X17451148Y-98715180D01*
X17717958Y-98536903D01*
X18018421Y-98412447D01*
X18124744Y-98391298D01*
X18337389Y-98349000D01*
X18662611Y-98349000D01*
X18875256Y-98391298D01*
X18875256Y-98391298D01*
G37*
G36*
X168951000Y-98351000D02*
X167849000Y-98351000D01*
X167849000Y-96749000D01*
X168951000Y-96749000D01*
X168951000Y-98351000D01*
X168951000Y-98351000D01*
G37*
G36*
X58401000Y-98351000D02*
X57299000Y-98351000D01*
X57299000Y-96749000D01*
X58401000Y-96749000D01*
X58401000Y-98351000D01*
X58401000Y-98351000D01*
G37*
G36*
X55201000Y-98351000D02*
X54099000Y-98351000D01*
X54099000Y-96749000D01*
X55201000Y-96749000D01*
X55201000Y-98351000D01*
X55201000Y-98351000D01*
G37*
G36*
X142701000Y-98351000D02*
X141599000Y-98351000D01*
X141599000Y-96749000D01*
X142701000Y-96749000D01*
X142701000Y-98351000D01*
X142701000Y-98351000D01*
G37*
G36*
X145901000Y-98351000D02*
X144799000Y-98351000D01*
X144799000Y-96749000D01*
X145901000Y-96749000D01*
X145901000Y-98351000D01*
X145901000Y-98351000D01*
G37*
G36*
X32151000Y-98351000D02*
X31049000Y-98351000D01*
X31049000Y-96749000D01*
X32151000Y-96749000D01*
X32151000Y-98351000D01*
X32151000Y-98351000D01*
G37*
G36*
X28951000Y-98351000D02*
X27849000Y-98351000D01*
X27849000Y-96749000D01*
X28951000Y-96749000D01*
X28951000Y-98351000D01*
X28951000Y-98351000D01*
G37*
G36*
X172151000Y-98351000D02*
X171049000Y-98351000D01*
X171049000Y-96749000D01*
X172151000Y-96749000D01*
X172151000Y-98351000D01*
X172151000Y-98351000D01*
G37*
G36*
X32471908Y-88552454D02*
X32609636Y-88579850D01*
X32680476Y-88609193D01*
X32810002Y-88662844D01*
X32990336Y-88783340D01*
X33143685Y-88936689D01*
X33143687Y-88936692D01*
X33143688Y-88936693D01*
X33216921Y-89046294D01*
X33264181Y-89117023D01*
X33298403Y-89199643D01*
X33347175Y-89317389D01*
X33347722Y-89320139D01*
X33389486Y-89530099D01*
X33389486Y-89746979D01*
X33347175Y-89959688D01*
X33264181Y-90160055D01*
X33143685Y-90340389D01*
X32990336Y-90493738D01*
X32810002Y-90614234D01*
X32680476Y-90667885D01*
X32609636Y-90697228D01*
X32503280Y-90718384D01*
X32396926Y-90739539D01*
X32180046Y-90739539D01*
X32073692Y-90718384D01*
X31967336Y-90697228D01*
X31896496Y-90667885D01*
X31766970Y-90614234D01*
X31586636Y-90493738D01*
X31433287Y-90340389D01*
X31312791Y-90160055D01*
X31229797Y-89959688D01*
X31187486Y-89746979D01*
X31187486Y-89530099D01*
X31229250Y-89320139D01*
X31229797Y-89317389D01*
X31278569Y-89199643D01*
X31312791Y-89117023D01*
X31360051Y-89046294D01*
X31433284Y-88936693D01*
X31433285Y-88936692D01*
X31433287Y-88936689D01*
X31586636Y-88783340D01*
X31766970Y-88662844D01*
X31896496Y-88609193D01*
X31967336Y-88579850D01*
X32105064Y-88552454D01*
X32180046Y-88537539D01*
X32396926Y-88537539D01*
X32471908Y-88552454D01*
X32471908Y-88552454D01*
G37*
G36*
X27673652Y-87264600D02*
X27780007Y-87285755D01*
X27850847Y-87315098D01*
X27980373Y-87368749D01*
X28160707Y-87489245D01*
X28314056Y-87642594D01*
X28434552Y-87822928D01*
X28488203Y-87952454D01*
X28517546Y-88023294D01*
X28559857Y-88236005D01*
X28559857Y-88452883D01*
X28518093Y-88662846D01*
X28517546Y-88665593D01*
X28434552Y-88865960D01*
X28434550Y-88865963D01*
X28387290Y-88936693D01*
X28314056Y-89046294D01*
X28160707Y-89199643D01*
X27980373Y-89320139D01*
X27850847Y-89373790D01*
X27780007Y-89403133D01*
X27673651Y-89424289D01*
X27567297Y-89445444D01*
X27350417Y-89445444D01*
X27244063Y-89424289D01*
X27137707Y-89403133D01*
X27066867Y-89373790D01*
X26937341Y-89320139D01*
X26757007Y-89199643D01*
X26603658Y-89046294D01*
X26530425Y-88936693D01*
X26483164Y-88865963D01*
X26483162Y-88865960D01*
X26400168Y-88665593D01*
X26399622Y-88662846D01*
X26357857Y-88452883D01*
X26357857Y-88236005D01*
X26400168Y-88023294D01*
X26429511Y-87952454D01*
X26483162Y-87822928D01*
X26603658Y-87642594D01*
X26757007Y-87489245D01*
X26937341Y-87368749D01*
X27066867Y-87315098D01*
X27137707Y-87285755D01*
X27244062Y-87264600D01*
X27350417Y-87243444D01*
X27567297Y-87243444D01*
X27673652Y-87264600D01*
X27673652Y-87264600D01*
G37*
G36*
X78724621Y-85891298D02*
X78830944Y-85912447D01*
X79131407Y-86036903D01*
X79158727Y-86055158D01*
X79401819Y-86217587D01*
X79631778Y-86447546D01*
X79631780Y-86447549D01*
X79790518Y-86685116D01*
X79812463Y-86717960D01*
X79936918Y-87018422D01*
X79988657Y-87278527D01*
X80000365Y-87337391D01*
X80000365Y-87662609D01*
X79936918Y-87981579D01*
X79848915Y-88194037D01*
X79812463Y-88282040D01*
X79631778Y-88552454D01*
X79401819Y-88782413D01*
X79401816Y-88782415D01*
X79131407Y-88963097D01*
X78830944Y-89087553D01*
X78724621Y-89108702D01*
X78511976Y-89151000D01*
X78186754Y-89151000D01*
X77974109Y-89108702D01*
X77867786Y-89087553D01*
X77567323Y-88963097D01*
X77296914Y-88782415D01*
X77296911Y-88782413D01*
X77066952Y-88552454D01*
X76886267Y-88282040D01*
X76849815Y-88194037D01*
X76761812Y-87981579D01*
X76698365Y-87662609D01*
X76698365Y-87337391D01*
X76710074Y-87278527D01*
X76761812Y-87018422D01*
X76886267Y-86717960D01*
X76908213Y-86685116D01*
X77066950Y-86447549D01*
X77066952Y-86447546D01*
X77296911Y-86217587D01*
X77540003Y-86055158D01*
X77567323Y-86036903D01*
X77867786Y-85912447D01*
X77974109Y-85891298D01*
X78186754Y-85849000D01*
X78511976Y-85849000D01*
X78724621Y-85891298D01*
X78724621Y-85891298D01*
G37*
G36*
X122025891Y-85891298D02*
X122132214Y-85912447D01*
X122432677Y-86036903D01*
X122459997Y-86055158D01*
X122703089Y-86217587D01*
X122933048Y-86447546D01*
X122933050Y-86447549D01*
X123091788Y-86685116D01*
X123113733Y-86717960D01*
X123238188Y-87018422D01*
X123289927Y-87278527D01*
X123301635Y-87337391D01*
X123301635Y-87662609D01*
X123238188Y-87981579D01*
X123150185Y-88194037D01*
X123113733Y-88282040D01*
X122933048Y-88552454D01*
X122703089Y-88782413D01*
X122703086Y-88782415D01*
X122432677Y-88963097D01*
X122132214Y-89087553D01*
X122025891Y-89108702D01*
X121813246Y-89151000D01*
X121488024Y-89151000D01*
X121275379Y-89108702D01*
X121169056Y-89087553D01*
X120868593Y-88963097D01*
X120598184Y-88782415D01*
X120598181Y-88782413D01*
X120368222Y-88552454D01*
X120187537Y-88282040D01*
X120151085Y-88194037D01*
X120063082Y-87981579D01*
X119999635Y-87662609D01*
X119999635Y-87337391D01*
X120011344Y-87278527D01*
X120063082Y-87018422D01*
X120187537Y-86717960D01*
X120209483Y-86685116D01*
X120368220Y-86447549D01*
X120368222Y-86447546D01*
X120598181Y-86217587D01*
X120841273Y-86055158D01*
X120868593Y-86036903D01*
X121169056Y-85912447D01*
X121275379Y-85891298D01*
X121488024Y-85849000D01*
X121813246Y-85849000D01*
X122025891Y-85891298D01*
X122025891Y-85891298D01*
G37*
G36*
X30735513Y-85496832D02*
X30841869Y-85517988D01*
X30912709Y-85547331D01*
X31042235Y-85600982D01*
X31222569Y-85721478D01*
X31375918Y-85874827D01*
X31496414Y-86055161D01*
X31550065Y-86184687D01*
X31563693Y-86217587D01*
X31579408Y-86255528D01*
X31621719Y-86468237D01*
X31621719Y-86685117D01*
X31579408Y-86897826D01*
X31496414Y-87098193D01*
X31375918Y-87278527D01*
X31222569Y-87431876D01*
X31042235Y-87552372D01*
X30912709Y-87606023D01*
X30841869Y-87635366D01*
X30805511Y-87642598D01*
X30629159Y-87677677D01*
X30412279Y-87677677D01*
X30235927Y-87642598D01*
X30199569Y-87635366D01*
X30128729Y-87606023D01*
X29999203Y-87552372D01*
X29818869Y-87431876D01*
X29665520Y-87278527D01*
X29545024Y-87098193D01*
X29462030Y-86897826D01*
X29419719Y-86685117D01*
X29419719Y-86468237D01*
X29462030Y-86255528D01*
X29477746Y-86217587D01*
X29491373Y-86184687D01*
X29545024Y-86055161D01*
X29665520Y-85874827D01*
X29818869Y-85721478D01*
X29999203Y-85600982D01*
X30128729Y-85547331D01*
X30199569Y-85517988D01*
X30305925Y-85496832D01*
X30412279Y-85475677D01*
X30629159Y-85475677D01*
X30735513Y-85496832D01*
X30735513Y-85496832D01*
G37*
G36*
X18661441Y-82261594D02*
X18767797Y-82282750D01*
X18838637Y-82312093D01*
X18968163Y-82365744D01*
X19148497Y-82486240D01*
X19301846Y-82639589D01*
X19422342Y-82819923D01*
X19505336Y-83020290D01*
X19547647Y-83232999D01*
X19547647Y-83449879D01*
X19505336Y-83662588D01*
X19422342Y-83862955D01*
X19301846Y-84043289D01*
X19148497Y-84196638D01*
X18968163Y-84317134D01*
X18838637Y-84370785D01*
X18767797Y-84400128D01*
X18661442Y-84421283D01*
X18555087Y-84442439D01*
X18338207Y-84442439D01*
X18231852Y-84421283D01*
X18125497Y-84400128D01*
X18054657Y-84370785D01*
X17925131Y-84317134D01*
X17744797Y-84196638D01*
X17591448Y-84043289D01*
X17470952Y-83862955D01*
X17387958Y-83662588D01*
X17345647Y-83449879D01*
X17345647Y-83232999D01*
X17387958Y-83020290D01*
X17470952Y-82819923D01*
X17591448Y-82639589D01*
X17744797Y-82486240D01*
X17925131Y-82365744D01*
X18054657Y-82312093D01*
X18125497Y-82282750D01*
X18231853Y-82261594D01*
X18338207Y-82240439D01*
X18555087Y-82240439D01*
X18661441Y-82261594D01*
X18661441Y-82261594D01*
G37*
G36*
X29577097Y-80012657D02*
X29721150Y-80041311D01*
X29783468Y-80067124D01*
X29921516Y-80124305D01*
X30101850Y-80244801D01*
X30255199Y-80398150D01*
X30255201Y-80398153D01*
X30255202Y-80398154D01*
X30375693Y-80578481D01*
X30375695Y-80578484D01*
X30407793Y-80655976D01*
X30458689Y-80778850D01*
X30461110Y-80791020D01*
X30501000Y-80991560D01*
X30501000Y-81208440D01*
X30458689Y-81421149D01*
X30375695Y-81621516D01*
X30255199Y-81801850D01*
X30101850Y-81955199D01*
X29921516Y-82075695D01*
X29791990Y-82129346D01*
X29721150Y-82158689D01*
X29614794Y-82179845D01*
X29508440Y-82201000D01*
X29291560Y-82201000D01*
X29185206Y-82179845D01*
X29078850Y-82158689D01*
X29008010Y-82129346D01*
X28878484Y-82075695D01*
X28698150Y-81955199D01*
X28544801Y-81801850D01*
X28424305Y-81621516D01*
X28341311Y-81421149D01*
X28299000Y-81208440D01*
X28299000Y-80991560D01*
X28338890Y-80791020D01*
X28341311Y-80778850D01*
X28392207Y-80655976D01*
X28424305Y-80578484D01*
X28424307Y-80578481D01*
X28544798Y-80398154D01*
X28544799Y-80398153D01*
X28544801Y-80398150D01*
X28698150Y-80244801D01*
X28878484Y-80124305D01*
X29016532Y-80067124D01*
X29078850Y-80041311D01*
X29222903Y-80012657D01*
X29291560Y-79999000D01*
X29508440Y-79999000D01*
X29577097Y-80012657D01*
X29577097Y-80012657D01*
G37*
G36*
X56821962Y-78912210D02*
X56859715Y-78921013D01*
X56900639Y-78939556D01*
X56958464Y-78972941D01*
X56958470Y-78972944D01*
X57482841Y-79275690D01*
X58150357Y-79661080D01*
X58186885Y-79687256D01*
X58213382Y-79715547D01*
X58233849Y-79748460D01*
X58247504Y-79784739D01*
X58253817Y-79822980D01*
X58252549Y-79861721D01*
X58243746Y-79899474D01*
X58225203Y-79940398D01*
X57778679Y-80713802D01*
X57752503Y-80750330D01*
X57724212Y-80776827D01*
X57691299Y-80797294D01*
X57655020Y-80810949D01*
X57616779Y-80817262D01*
X57578038Y-80815994D01*
X57540285Y-80807191D01*
X57499361Y-80788648D01*
X57441536Y-80755263D01*
X57441530Y-80755260D01*
X56773106Y-80369345D01*
X56249643Y-80067124D01*
X56213115Y-80040948D01*
X56186618Y-80012657D01*
X56166151Y-79979744D01*
X56152496Y-79943465D01*
X56146183Y-79905224D01*
X56147451Y-79866483D01*
X56156254Y-79828730D01*
X56174797Y-79787806D01*
X56621321Y-79014402D01*
X56647497Y-78977874D01*
X56675788Y-78951377D01*
X56708701Y-78930910D01*
X56744980Y-78917255D01*
X56783221Y-78910942D01*
X56821962Y-78912210D01*
X56821962Y-78912210D01*
G37*
G36*
X179098211Y-77297546D02*
X179204534Y-77318695D01*
X179310752Y-77362692D01*
X179494817Y-77438934D01*
X179504997Y-77443151D01*
X179553530Y-77475580D01*
X179775409Y-77623835D01*
X180005368Y-77853794D01*
X180005370Y-77853797D01*
X180186052Y-78124206D01*
X180297296Y-78392772D01*
X180310508Y-78424670D01*
X180373955Y-78743637D01*
X180373955Y-79068859D01*
X180331657Y-79281504D01*
X180310508Y-79387827D01*
X180186052Y-79688290D01*
X180044943Y-79899474D01*
X180005368Y-79958702D01*
X179775409Y-80188661D01*
X179775406Y-80188663D01*
X179504997Y-80369345D01*
X179204534Y-80493801D01*
X179098211Y-80514950D01*
X178885566Y-80557248D01*
X178560344Y-80557248D01*
X178347699Y-80514950D01*
X178241376Y-80493801D01*
X177940913Y-80369345D01*
X177670504Y-80188663D01*
X177670501Y-80188661D01*
X177440542Y-79958702D01*
X177400967Y-79899474D01*
X177259858Y-79688290D01*
X177135402Y-79387827D01*
X177114253Y-79281504D01*
X177071955Y-79068859D01*
X177071955Y-78743637D01*
X177135402Y-78424670D01*
X177148615Y-78392772D01*
X177259858Y-78124206D01*
X177440540Y-77853797D01*
X177440542Y-77853794D01*
X177670501Y-77623835D01*
X177892380Y-77475580D01*
X177940913Y-77443151D01*
X177951094Y-77438934D01*
X178135158Y-77362692D01*
X178241376Y-77318695D01*
X178347699Y-77297546D01*
X178560344Y-77255248D01*
X178885566Y-77255248D01*
X179098211Y-77297546D01*
X179098211Y-77297546D01*
G37*
G36*
X57927734Y-77342087D02*
X58047223Y-77345998D01*
X58092214Y-77356489D01*
X58172112Y-77375118D01*
X58259653Y-77414782D01*
X58791346Y-77721755D01*
X58869467Y-77777736D01*
X58913298Y-77824534D01*
X58957128Y-77871330D01*
X59024846Y-77980230D01*
X59070017Y-78100244D01*
X59090905Y-78226765D01*
X59086710Y-78354931D01*
X59086709Y-78354934D01*
X59057590Y-78479820D01*
X59004666Y-78596625D01*
X58929972Y-78700861D01*
X58884300Y-78743637D01*
X58836378Y-78788522D01*
X58727478Y-78856240D01*
X58607463Y-78901410D01*
X58480942Y-78922299D01*
X58480940Y-78922299D01*
X58472266Y-78922015D01*
X58352776Y-78918104D01*
X58307785Y-78907613D01*
X58227887Y-78888984D01*
X58140346Y-78849320D01*
X57608654Y-78542347D01*
X57530533Y-78486366D01*
X57524402Y-78479820D01*
X57442872Y-78392772D01*
X57375154Y-78283872D01*
X57329984Y-78163857D01*
X57309095Y-78037336D01*
X57313290Y-77909171D01*
X57322113Y-77871331D01*
X57342410Y-77784282D01*
X57395334Y-77667477D01*
X57426609Y-77623833D01*
X57470027Y-77563242D01*
X57563622Y-77475580D01*
X57672522Y-77407862D01*
X57792537Y-77362692D01*
X57919058Y-77341803D01*
X57919060Y-77341803D01*
X57927734Y-77342087D01*
X57927734Y-77342087D01*
G37*
G36*
X33291613Y-75831190D02*
X33430060Y-75858729D01*
X33473752Y-75876827D01*
X33630426Y-75941723D01*
X33630429Y-75941725D01*
X33786016Y-76045685D01*
X33810760Y-76062219D01*
X33964109Y-76215568D01*
X33964111Y-76215571D01*
X33964112Y-76215572D01*
X33985899Y-76248179D01*
X34084605Y-76395902D01*
X34125534Y-76494714D01*
X34167599Y-76596268D01*
X34188755Y-76702624D01*
X34209910Y-76808978D01*
X34209910Y-77025858D01*
X34167599Y-77238567D01*
X34084605Y-77438934D01*
X33964109Y-77619268D01*
X33810760Y-77772617D01*
X33810757Y-77772619D01*
X33810756Y-77772620D01*
X33689271Y-77853794D01*
X33630426Y-77893113D01*
X33500900Y-77946764D01*
X33430060Y-77976107D01*
X33409337Y-77980229D01*
X33217350Y-78018418D01*
X33000470Y-78018418D01*
X32808483Y-77980229D01*
X32787760Y-77976107D01*
X32716920Y-77946764D01*
X32587394Y-77893113D01*
X32528549Y-77853794D01*
X32407064Y-77772620D01*
X32407063Y-77772619D01*
X32407060Y-77772617D01*
X32253711Y-77619268D01*
X32133215Y-77438934D01*
X32050221Y-77238567D01*
X32007910Y-77025858D01*
X32007910Y-76808978D01*
X32029065Y-76702624D01*
X32050221Y-76596268D01*
X32092286Y-76494714D01*
X32133215Y-76395902D01*
X32231921Y-76248179D01*
X32253708Y-76215572D01*
X32253709Y-76215571D01*
X32253711Y-76215568D01*
X32407060Y-76062219D01*
X32431805Y-76045685D01*
X32587391Y-75941725D01*
X32587394Y-75941723D01*
X32744068Y-75876827D01*
X32787760Y-75858729D01*
X32926207Y-75831190D01*
X33000470Y-75816418D01*
X33217350Y-75816418D01*
X33291613Y-75831190D01*
X33291613Y-75831190D01*
G37*
G36*
X58927734Y-75610036D02*
X59047223Y-75613947D01*
X59092214Y-75624438D01*
X59172112Y-75643067D01*
X59259653Y-75682731D01*
X59791346Y-75989704D01*
X59869467Y-76045685D01*
X59913297Y-76092482D01*
X59957128Y-76139279D01*
X60024846Y-76248179D01*
X60070017Y-76368193D01*
X60090905Y-76494714D01*
X60086710Y-76622880D01*
X60086709Y-76622883D01*
X60057590Y-76747769D01*
X60004666Y-76864574D01*
X59929972Y-76968810D01*
X59883174Y-77012641D01*
X59836378Y-77056471D01*
X59727478Y-77124189D01*
X59607463Y-77169359D01*
X59480942Y-77190248D01*
X59480940Y-77190248D01*
X59472266Y-77189964D01*
X59352776Y-77186053D01*
X59307785Y-77175562D01*
X59227887Y-77156933D01*
X59140346Y-77117269D01*
X58608654Y-76810296D01*
X58530533Y-76754315D01*
X58524402Y-76747769D01*
X58442872Y-76660721D01*
X58375154Y-76551821D01*
X58329984Y-76431806D01*
X58309095Y-76305285D01*
X58313290Y-76177120D01*
X58322113Y-76139280D01*
X58342410Y-76052231D01*
X58395334Y-75935426D01*
X58409259Y-75915994D01*
X58470027Y-75831191D01*
X58563622Y-75743529D01*
X58672522Y-75675811D01*
X58792537Y-75630641D01*
X58919058Y-75609752D01*
X58919060Y-75609752D01*
X58927734Y-75610036D01*
X58927734Y-75610036D01*
G37*
G36*
X36359266Y-74064576D02*
X36491922Y-74090963D01*
X36511665Y-74099141D01*
X36692288Y-74173957D01*
X36692291Y-74173959D01*
X36736317Y-74203376D01*
X36872622Y-74294453D01*
X37025971Y-74447802D01*
X37025973Y-74447805D01*
X37025974Y-74447806D01*
X37109782Y-74573233D01*
X37146467Y-74628136D01*
X37180690Y-74710758D01*
X37229461Y-74828502D01*
X37271772Y-75041213D01*
X37271772Y-75258091D01*
X37232803Y-75454003D01*
X37229461Y-75470801D01*
X37146467Y-75671168D01*
X37146465Y-75671171D01*
X37039543Y-75831191D01*
X37025971Y-75851502D01*
X36872622Y-76004851D01*
X36872619Y-76004853D01*
X36872618Y-76004854D01*
X36786770Y-76062216D01*
X36692288Y-76125347D01*
X36567303Y-76177117D01*
X36491922Y-76208341D01*
X36455569Y-76215572D01*
X36279212Y-76250652D01*
X36062332Y-76250652D01*
X35885975Y-76215572D01*
X35849622Y-76208341D01*
X35774241Y-76177117D01*
X35649256Y-76125347D01*
X35554774Y-76062216D01*
X35468926Y-76004854D01*
X35468925Y-76004853D01*
X35468922Y-76004851D01*
X35315573Y-75851502D01*
X35302002Y-75831191D01*
X35195079Y-75671171D01*
X35195077Y-75671168D01*
X35112083Y-75470801D01*
X35108742Y-75454003D01*
X35069772Y-75258091D01*
X35069772Y-75041213D01*
X35112083Y-74828502D01*
X35160854Y-74710758D01*
X35195077Y-74628136D01*
X35231762Y-74573233D01*
X35315570Y-74447806D01*
X35315571Y-74447805D01*
X35315573Y-74447802D01*
X35468922Y-74294453D01*
X35605228Y-74203376D01*
X35649253Y-74173959D01*
X35649256Y-74173957D01*
X35829879Y-74099141D01*
X35849622Y-74090963D01*
X35982278Y-74064576D01*
X36062332Y-74048652D01*
X36279212Y-74048652D01*
X36359266Y-74064576D01*
X36359266Y-74064576D01*
G37*
G36*
X48221962Y-74012210D02*
X48259715Y-74021013D01*
X48300639Y-74039556D01*
X48358464Y-74072941D01*
X48358470Y-74072944D01*
X48882841Y-74375690D01*
X49550357Y-74761080D01*
X49586885Y-74787256D01*
X49613382Y-74815547D01*
X49633849Y-74848460D01*
X49647504Y-74884739D01*
X49653817Y-74922980D01*
X49652549Y-74961721D01*
X49643746Y-74999474D01*
X49625203Y-75040398D01*
X49178679Y-75813802D01*
X49152503Y-75850330D01*
X49124212Y-75876827D01*
X49091299Y-75897294D01*
X49055020Y-75910949D01*
X49016779Y-75917262D01*
X48978038Y-75915994D01*
X48940285Y-75907191D01*
X48899361Y-75888648D01*
X48841536Y-75855263D01*
X48841530Y-75855260D01*
X48317159Y-75552514D01*
X47649643Y-75167124D01*
X47613115Y-75140948D01*
X47586618Y-75112657D01*
X47566151Y-75079744D01*
X47552496Y-75043465D01*
X47546183Y-75005224D01*
X47547451Y-74966483D01*
X47556254Y-74928730D01*
X47574797Y-74887806D01*
X48021321Y-74114402D01*
X48047497Y-74077874D01*
X48075788Y-74051377D01*
X48108701Y-74030910D01*
X48144980Y-74017255D01*
X48183221Y-74010942D01*
X48221962Y-74012210D01*
X48221962Y-74012210D01*
G37*
G36*
X59927734Y-73877986D02*
X60047223Y-73881897D01*
X60092214Y-73892388D01*
X60172112Y-73911017D01*
X60259653Y-73950681D01*
X60791346Y-74257654D01*
X60869467Y-74313635D01*
X60913298Y-74360433D01*
X60957128Y-74407229D01*
X61024846Y-74516129D01*
X61070017Y-74636143D01*
X61090905Y-74762664D01*
X61086710Y-74890830D01*
X61086709Y-74890833D01*
X61057590Y-75015719D01*
X61004666Y-75132524D01*
X60929972Y-75236760D01*
X60883175Y-75280590D01*
X60836378Y-75324421D01*
X60727478Y-75392139D01*
X60607463Y-75437309D01*
X60480942Y-75458198D01*
X60480940Y-75458198D01*
X60472266Y-75457914D01*
X60352776Y-75454003D01*
X60307785Y-75443512D01*
X60227887Y-75424883D01*
X60140346Y-75385219D01*
X59608654Y-75078246D01*
X59530533Y-75022265D01*
X59507814Y-74998008D01*
X59442872Y-74928671D01*
X59375154Y-74819771D01*
X59329984Y-74699756D01*
X59309095Y-74573235D01*
X59313290Y-74445070D01*
X59322113Y-74407230D01*
X59342410Y-74320181D01*
X59395334Y-74203376D01*
X59416414Y-74173959D01*
X59470027Y-74099141D01*
X59563622Y-74011479D01*
X59672522Y-73943761D01*
X59792537Y-73898591D01*
X59919058Y-73877702D01*
X59919060Y-73877702D01*
X59927734Y-73877986D01*
X59927734Y-73877986D01*
G37*
G36*
X31514530Y-72767475D02*
X31662293Y-72796867D01*
X31733133Y-72826210D01*
X31862659Y-72879861D01*
X31862662Y-72879863D01*
X31999552Y-72971330D01*
X32042993Y-73000357D01*
X32196342Y-73153706D01*
X32196344Y-73153709D01*
X32196345Y-73153710D01*
X32227438Y-73200244D01*
X32316838Y-73334040D01*
X32344355Y-73400473D01*
X32399832Y-73534406D01*
X32410168Y-73586367D01*
X32442143Y-73747116D01*
X32442143Y-73963996D01*
X32431549Y-74017255D01*
X32399832Y-74176706D01*
X32388785Y-74203376D01*
X32316838Y-74377072D01*
X32316836Y-74377075D01*
X32269578Y-74447802D01*
X32196342Y-74557406D01*
X32042993Y-74710755D01*
X32042990Y-74710757D01*
X32042989Y-74710758D01*
X31971288Y-74758667D01*
X31862659Y-74831251D01*
X31733526Y-74884739D01*
X31662293Y-74914245D01*
X31618379Y-74922980D01*
X31449583Y-74956556D01*
X31232703Y-74956556D01*
X31063907Y-74922980D01*
X31019993Y-74914245D01*
X30948760Y-74884739D01*
X30819627Y-74831251D01*
X30710998Y-74758667D01*
X30639297Y-74710758D01*
X30639296Y-74710757D01*
X30639293Y-74710755D01*
X30485944Y-74557406D01*
X30412709Y-74447802D01*
X30365450Y-74377075D01*
X30365448Y-74377072D01*
X30293501Y-74203376D01*
X30282454Y-74176706D01*
X30250737Y-74017255D01*
X30240143Y-73963996D01*
X30240143Y-73747116D01*
X30272118Y-73586367D01*
X30282454Y-73534406D01*
X30337931Y-73400473D01*
X30365448Y-73334040D01*
X30454848Y-73200244D01*
X30485941Y-73153710D01*
X30485942Y-73153709D01*
X30485944Y-73153706D01*
X30639293Y-73000357D01*
X30682735Y-72971330D01*
X30819624Y-72879863D01*
X30819627Y-72879861D01*
X30949153Y-72826210D01*
X31019993Y-72796867D01*
X31167756Y-72767475D01*
X31232703Y-72754556D01*
X31449583Y-72754556D01*
X31514530Y-72767475D01*
X31514530Y-72767475D01*
G37*
G36*
X21249631Y-72602335D02*
X21355987Y-72623491D01*
X21426827Y-72652834D01*
X21556353Y-72706485D01*
X21556356Y-72706487D01*
X21691619Y-72796867D01*
X21736687Y-72826981D01*
X21890036Y-72980330D01*
X21890038Y-72980333D01*
X21890039Y-72980334D01*
X21961792Y-73087720D01*
X22010532Y-73160664D01*
X22061481Y-73283668D01*
X22093526Y-73361030D01*
X22135837Y-73573741D01*
X22135837Y-73790619D01*
X22093526Y-74003330D01*
X22075915Y-74045846D01*
X22010532Y-74203696D01*
X22010530Y-74203699D01*
X21894684Y-74377075D01*
X21890036Y-74384030D01*
X21736687Y-74537379D01*
X21556353Y-74657875D01*
X21455242Y-74699756D01*
X21355987Y-74740869D01*
X21266511Y-74758667D01*
X21143277Y-74783180D01*
X20926397Y-74783180D01*
X20803163Y-74758667D01*
X20713687Y-74740869D01*
X20614432Y-74699756D01*
X20513321Y-74657875D01*
X20332987Y-74537379D01*
X20179638Y-74384030D01*
X20174991Y-74377075D01*
X20059144Y-74203699D01*
X20059142Y-74203696D01*
X19993759Y-74045846D01*
X19976148Y-74003330D01*
X19933837Y-73790619D01*
X19933837Y-73573741D01*
X19976148Y-73361030D01*
X20008193Y-73283668D01*
X20059142Y-73160664D01*
X20107882Y-73087720D01*
X20179635Y-72980334D01*
X20179636Y-72980333D01*
X20179638Y-72980330D01*
X20332987Y-72826981D01*
X20378056Y-72796867D01*
X20513318Y-72706487D01*
X20513321Y-72706485D01*
X20642847Y-72652834D01*
X20713687Y-72623491D01*
X20820043Y-72602335D01*
X20926397Y-72581180D01*
X21143277Y-72581180D01*
X21249631Y-72602335D01*
X21249631Y-72602335D01*
G37*
G36*
X49327734Y-72442087D02*
X49447223Y-72445998D01*
X49492214Y-72456489D01*
X49572112Y-72475118D01*
X49659653Y-72514782D01*
X50191346Y-72821755D01*
X50269467Y-72877736D01*
X50294152Y-72904092D01*
X50357128Y-72971330D01*
X50424846Y-73080230D01*
X50470017Y-73200244D01*
X50490905Y-73326765D01*
X50486710Y-73454931D01*
X50486709Y-73454934D01*
X50457590Y-73579820D01*
X50404666Y-73696625D01*
X50329972Y-73800861D01*
X50283175Y-73844691D01*
X50236378Y-73888522D01*
X50127478Y-73956240D01*
X50007463Y-74001410D01*
X49880942Y-74022299D01*
X49880940Y-74022299D01*
X49872266Y-74022015D01*
X49752776Y-74018104D01*
X49707785Y-74007613D01*
X49627887Y-73988984D01*
X49540346Y-73949320D01*
X49008654Y-73642347D01*
X48930534Y-73586367D01*
X48842872Y-73492772D01*
X48775154Y-73383872D01*
X48729984Y-73263857D01*
X48709095Y-73137336D01*
X48713290Y-73009171D01*
X48722113Y-72971331D01*
X48742410Y-72884282D01*
X48795334Y-72767477D01*
X48834358Y-72713019D01*
X48870027Y-72663242D01*
X48963622Y-72575580D01*
X49072522Y-72507862D01*
X49192537Y-72462692D01*
X49319058Y-72441803D01*
X49319060Y-72441803D01*
X49327734Y-72442087D01*
X49327734Y-72442087D01*
G37*
G36*
X60927734Y-72145935D02*
X61047223Y-72149846D01*
X61092214Y-72160337D01*
X61172112Y-72178966D01*
X61259653Y-72218630D01*
X61791346Y-72525603D01*
X61869467Y-72581584D01*
X61908717Y-72623491D01*
X61957128Y-72675178D01*
X62024846Y-72784078D01*
X62070017Y-72904092D01*
X62090905Y-73030613D01*
X62086710Y-73158779D01*
X62086709Y-73158782D01*
X62057590Y-73283668D01*
X62004666Y-73400473D01*
X61929972Y-73504709D01*
X61883175Y-73548539D01*
X61836378Y-73592370D01*
X61727478Y-73660088D01*
X61607463Y-73705258D01*
X61480942Y-73726147D01*
X61480940Y-73726147D01*
X61472266Y-73725863D01*
X61352776Y-73721952D01*
X61307785Y-73711461D01*
X61227887Y-73692832D01*
X61140346Y-73653168D01*
X60608654Y-73346195D01*
X60530533Y-73290214D01*
X60505847Y-73263857D01*
X60442872Y-73196620D01*
X60375154Y-73087720D01*
X60329984Y-72967705D01*
X60309095Y-72841184D01*
X60313290Y-72713019D01*
X60322113Y-72675179D01*
X60342410Y-72588130D01*
X60395334Y-72471325D01*
X60470028Y-72367089D01*
X60475961Y-72361532D01*
X60563622Y-72279428D01*
X60672522Y-72211710D01*
X60792537Y-72166540D01*
X60919058Y-72145651D01*
X60919060Y-72145651D01*
X60927734Y-72145935D01*
X60927734Y-72145935D01*
G37*
G36*
X50327734Y-70710036D02*
X50447223Y-70713947D01*
X50492214Y-70724438D01*
X50572112Y-70743067D01*
X50659653Y-70782731D01*
X51191346Y-71089704D01*
X51269467Y-71145685D01*
X51313298Y-71192483D01*
X51357128Y-71239279D01*
X51424846Y-71348179D01*
X51470017Y-71468193D01*
X51490905Y-71594714D01*
X51486710Y-71722880D01*
X51486709Y-71722883D01*
X51457590Y-71847769D01*
X51404666Y-71964574D01*
X51329972Y-72068810D01*
X51283175Y-72112640D01*
X51236378Y-72156471D01*
X51127478Y-72224189D01*
X51007463Y-72269359D01*
X50880942Y-72290248D01*
X50880940Y-72290248D01*
X50872266Y-72289964D01*
X50752776Y-72286053D01*
X50707785Y-72275562D01*
X50627887Y-72256933D01*
X50540346Y-72217269D01*
X50008654Y-71910296D01*
X49930533Y-71854315D01*
X49924402Y-71847769D01*
X49842872Y-71760721D01*
X49775154Y-71651821D01*
X49729984Y-71531806D01*
X49709095Y-71405285D01*
X49713290Y-71277120D01*
X49722113Y-71239280D01*
X49742410Y-71152231D01*
X49795334Y-71035426D01*
X49870028Y-70931190D01*
X49875961Y-70925633D01*
X49963622Y-70843529D01*
X50072522Y-70775811D01*
X50192537Y-70730641D01*
X50319058Y-70709752D01*
X50319060Y-70709752D01*
X50327734Y-70710036D01*
X50327734Y-70710036D01*
G37*
G36*
X51327734Y-68977986D02*
X51447223Y-68981897D01*
X51492214Y-68992388D01*
X51572112Y-69011017D01*
X51659653Y-69050681D01*
X52191346Y-69357654D01*
X52269467Y-69413635D01*
X52313297Y-69460432D01*
X52357128Y-69507229D01*
X52424846Y-69616129D01*
X52470017Y-69736143D01*
X52490905Y-69862664D01*
X52486710Y-69990830D01*
X52486709Y-69990833D01*
X52457590Y-70115719D01*
X52404666Y-70232524D01*
X52329972Y-70336760D01*
X52283175Y-70380590D01*
X52236378Y-70424421D01*
X52127478Y-70492139D01*
X52007463Y-70537309D01*
X51880942Y-70558198D01*
X51880940Y-70558198D01*
X51872266Y-70557914D01*
X51752776Y-70554003D01*
X51707785Y-70543512D01*
X51627887Y-70524883D01*
X51540346Y-70485219D01*
X51008654Y-70178246D01*
X50930533Y-70122265D01*
X50924402Y-70115719D01*
X50842872Y-70028671D01*
X50775154Y-69919771D01*
X50729984Y-69799756D01*
X50709095Y-69673235D01*
X50713290Y-69545070D01*
X50722113Y-69507230D01*
X50742410Y-69420181D01*
X50795334Y-69303376D01*
X50810356Y-69282413D01*
X50870027Y-69199141D01*
X50963622Y-69111479D01*
X51072522Y-69043761D01*
X51192537Y-68998591D01*
X51319058Y-68977702D01*
X51319060Y-68977702D01*
X51327734Y-68977986D01*
X51327734Y-68977986D01*
G37*
G36*
X100375256Y-66391298D02*
X100481579Y-66412447D01*
X100782042Y-66536903D01*
X101048852Y-66715180D01*
X101052454Y-66717587D01*
X101282413Y-66947546D01*
X101463098Y-67217960D01*
X101493331Y-67290949D01*
X101581404Y-67503575D01*
X101587553Y-67518422D01*
X101638626Y-67775179D01*
X101651000Y-67837391D01*
X101651000Y-68162609D01*
X101587553Y-68481579D01*
X101463097Y-68782042D01*
X101436430Y-68821952D01*
X101282413Y-69052454D01*
X101052454Y-69282413D01*
X101052451Y-69282415D01*
X100782042Y-69463097D01*
X100481579Y-69587553D01*
X100375256Y-69608702D01*
X100162611Y-69651000D01*
X99837389Y-69651000D01*
X99624744Y-69608702D01*
X99518421Y-69587553D01*
X99217958Y-69463097D01*
X98947549Y-69282415D01*
X98947546Y-69282413D01*
X98717587Y-69052454D01*
X98563570Y-68821952D01*
X98536903Y-68782042D01*
X98412447Y-68481579D01*
X98349000Y-68162609D01*
X98349000Y-67837391D01*
X98361375Y-67775179D01*
X98412447Y-67518422D01*
X98418597Y-67503575D01*
X98506669Y-67290949D01*
X98536902Y-67217960D01*
X98717587Y-66947546D01*
X98947546Y-66717587D01*
X98951148Y-66715180D01*
X99217958Y-66536903D01*
X99518421Y-66412447D01*
X99624744Y-66391298D01*
X99837389Y-66349000D01*
X100162611Y-66349000D01*
X100375256Y-66391298D01*
X100375256Y-66391298D01*
G37*
G36*
X40388321Y-67503575D02*
X40388321Y-67503576D01*
X39987821Y-68197262D01*
X39587321Y-68890949D01*
X38632961Y-68339949D01*
X38632961Y-68339948D01*
X39136906Y-67467090D01*
X39433961Y-66952575D01*
X40388321Y-67503575D01*
X40388321Y-67503575D01*
G37*
G36*
X160813094Y-67467090D02*
X161317039Y-68339948D01*
X161317039Y-68339949D01*
X160362679Y-68890949D01*
X159962179Y-68197262D01*
X159561679Y-67503576D01*
X159561679Y-67503575D01*
X160516039Y-66952575D01*
X160813094Y-67467090D01*
X160813094Y-67467090D01*
G37*
G36*
X52327734Y-67245935D02*
X52447223Y-67249846D01*
X52492214Y-67260337D01*
X52572112Y-67278966D01*
X52659653Y-67318630D01*
X53191346Y-67625603D01*
X53269467Y-67681584D01*
X53313298Y-67728382D01*
X53357128Y-67775178D01*
X53424846Y-67884078D01*
X53470017Y-68004092D01*
X53490905Y-68130613D01*
X53486710Y-68258779D01*
X53486709Y-68258782D01*
X53457590Y-68383668D01*
X53404666Y-68500473D01*
X53329972Y-68604709D01*
X53283174Y-68648540D01*
X53236378Y-68692370D01*
X53127478Y-68760088D01*
X53007463Y-68805258D01*
X52880942Y-68826147D01*
X52880940Y-68826147D01*
X52872266Y-68825863D01*
X52752776Y-68821952D01*
X52707785Y-68811461D01*
X52627887Y-68792832D01*
X52540346Y-68753168D01*
X52008654Y-68446195D01*
X51930533Y-68390214D01*
X51924402Y-68383668D01*
X51842872Y-68296620D01*
X51775154Y-68187720D01*
X51729984Y-68067705D01*
X51709095Y-67941184D01*
X51713290Y-67813019D01*
X51722113Y-67775179D01*
X51742410Y-67688130D01*
X51795334Y-67571325D01*
X51833244Y-67518422D01*
X51870027Y-67467090D01*
X51963622Y-67379428D01*
X52072522Y-67311710D01*
X52192537Y-67266540D01*
X52319058Y-67245651D01*
X52319060Y-67245651D01*
X52327734Y-67245935D01*
X52327734Y-67245935D01*
G37*
G36*
X37617039Y-65903575D02*
X37617039Y-65903576D01*
X37359873Y-66349000D01*
X36816039Y-67290949D01*
X35861679Y-66739949D01*
X35861679Y-66739948D01*
X36344559Y-65903575D01*
X36662679Y-65352575D01*
X37617039Y-65903575D01*
X37617039Y-65903575D01*
G37*
G36*
X163605441Y-65903575D02*
X164088321Y-66739948D01*
X164088321Y-66739949D01*
X163133961Y-67290949D01*
X162590127Y-66349000D01*
X162332961Y-65903576D01*
X162332961Y-65903575D01*
X163287321Y-65352575D01*
X163605441Y-65903575D01*
X163605441Y-65903575D01*
G37*
G36*
X158261399Y-63047425D02*
X158867039Y-64096424D01*
X158867039Y-64096425D01*
X157912679Y-64647425D01*
X157512179Y-63953738D01*
X157111679Y-63260052D01*
X157111679Y-63260051D01*
X158066039Y-62709051D01*
X158261399Y-63047425D01*
X158261399Y-63047425D01*
G37*
G36*
X42838321Y-63260051D02*
X42838321Y-63260052D01*
X42437821Y-63953738D01*
X42037321Y-64647425D01*
X41082961Y-64096425D01*
X41082961Y-64096424D01*
X41688601Y-63047425D01*
X41883961Y-62709051D01*
X42838321Y-63260051D01*
X42838321Y-63260051D01*
G37*
G36*
X161155441Y-61660051D02*
X161638321Y-62496424D01*
X161638321Y-62496425D01*
X160683961Y-63047425D01*
X160283461Y-62353738D01*
X159882961Y-61660052D01*
X159882961Y-61660051D01*
X160837321Y-61109051D01*
X161155441Y-61660051D01*
X161155441Y-61660051D01*
G37*
G36*
X40067039Y-61660051D02*
X40067039Y-61660052D01*
X39666539Y-62353738D01*
X39266039Y-63047425D01*
X38311679Y-62496425D01*
X38311679Y-62496424D01*
X38794559Y-61660051D01*
X39112679Y-61109051D01*
X40067039Y-61660051D01*
X40067039Y-61660051D01*
G37*
G36*
X74847312Y-59152496D02*
X74883591Y-59166151D01*
X74916504Y-59186618D01*
X74944795Y-59213115D01*
X74970971Y-59249643D01*
X75309722Y-59836378D01*
X75659107Y-60441530D01*
X75659110Y-60441536D01*
X75692495Y-60499361D01*
X75711038Y-60540285D01*
X75719841Y-60578038D01*
X75721109Y-60616779D01*
X75714796Y-60655020D01*
X75701141Y-60691299D01*
X75680674Y-60724212D01*
X75654177Y-60752503D01*
X75617649Y-60778679D01*
X74844245Y-61225203D01*
X74803321Y-61243746D01*
X74765568Y-61252549D01*
X74726827Y-61253817D01*
X74688586Y-61247504D01*
X74652307Y-61233849D01*
X74619394Y-61213382D01*
X74591103Y-61186885D01*
X74564927Y-61150357D01*
X74155686Y-60441530D01*
X73876791Y-59958470D01*
X73876788Y-59958464D01*
X73843403Y-59900639D01*
X73824860Y-59859715D01*
X73816057Y-59821962D01*
X73814789Y-59783221D01*
X73821102Y-59744980D01*
X73834757Y-59708701D01*
X73855224Y-59675788D01*
X73881721Y-59647497D01*
X73918249Y-59621321D01*
X74691653Y-59174797D01*
X74732577Y-59156254D01*
X74770330Y-59147451D01*
X74809071Y-59146183D01*
X74847312Y-59152496D01*
X74847312Y-59152496D01*
G37*
G36*
X76531806Y-58329984D02*
X76651821Y-58375154D01*
X76760721Y-58442872D01*
X76848382Y-58524976D01*
X76854315Y-58530533D01*
X76910296Y-58608654D01*
X77217269Y-59140346D01*
X77256933Y-59227887D01*
X77265411Y-59264247D01*
X77286053Y-59352776D01*
X77290248Y-59480942D01*
X77269359Y-59607463D01*
X77224189Y-59727478D01*
X77156471Y-59836378D01*
X77135985Y-59858250D01*
X77068810Y-59929972D01*
X76964574Y-60004666D01*
X76847769Y-60057590D01*
X76751738Y-60079981D01*
X76722880Y-60086710D01*
X76603390Y-60090621D01*
X76594716Y-60090905D01*
X76594714Y-60090905D01*
X76468193Y-60070017D01*
X76348179Y-60024846D01*
X76239279Y-59957128D01*
X76178967Y-59900639D01*
X76145685Y-59869467D01*
X76089704Y-59791346D01*
X75782731Y-59259653D01*
X75743067Y-59172112D01*
X75719262Y-59070016D01*
X75713947Y-59047223D01*
X75709752Y-58919058D01*
X75730641Y-58792537D01*
X75775811Y-58672522D01*
X75843529Y-58563622D01*
X75931191Y-58470027D01*
X76035424Y-58395335D01*
X76035426Y-58395334D01*
X76152231Y-58342410D01*
X76248262Y-58320019D01*
X76277120Y-58313290D01*
X76396609Y-58309379D01*
X76405283Y-58309095D01*
X76405285Y-58309095D01*
X76531806Y-58329984D01*
X76531806Y-58329984D01*
G37*
G36*
X78263857Y-57329984D02*
X78383872Y-57375154D01*
X78492772Y-57442872D01*
X78580433Y-57524976D01*
X78586366Y-57530533D01*
X78642347Y-57608654D01*
X78949320Y-58140346D01*
X78988984Y-58227887D01*
X79004916Y-58296218D01*
X79018104Y-58352776D01*
X79022299Y-58480942D01*
X79001410Y-58607463D01*
X78956240Y-58727478D01*
X78888522Y-58836378D01*
X78857530Y-58869467D01*
X78800861Y-58929972D01*
X78696625Y-59004666D01*
X78579820Y-59057590D01*
X78483789Y-59079981D01*
X78454931Y-59086710D01*
X78335441Y-59090621D01*
X78326767Y-59090905D01*
X78326765Y-59090905D01*
X78200244Y-59070017D01*
X78080230Y-59024846D01*
X77971330Y-58957128D01*
X77924534Y-58913298D01*
X77877736Y-58869467D01*
X77821755Y-58791346D01*
X77514782Y-58259653D01*
X77475118Y-58172112D01*
X77445999Y-58047226D01*
X77445998Y-58047223D01*
X77441803Y-57919058D01*
X77462692Y-57792537D01*
X77507862Y-57672522D01*
X77575580Y-57563622D01*
X77663242Y-57470027D01*
X77767475Y-57395335D01*
X77767477Y-57395334D01*
X77884282Y-57342410D01*
X77980313Y-57320019D01*
X78009171Y-57313290D01*
X78128660Y-57309379D01*
X78137334Y-57309095D01*
X78137336Y-57309095D01*
X78263857Y-57329984D01*
X78263857Y-57329984D01*
G37*
G36*
X103251000Y-58401000D02*
X101649000Y-58401000D01*
X101649000Y-57299000D01*
X103251000Y-57299000D01*
X103251000Y-58401000D01*
X103251000Y-58401000D01*
G37*
G36*
X98351000Y-58401000D02*
X96749000Y-58401000D01*
X96749000Y-57299000D01*
X98351000Y-57299000D01*
X98351000Y-58401000D01*
X98351000Y-58401000D01*
G37*
G36*
X128752067Y-57000938D02*
X128879644Y-57053782D01*
X128994460Y-57130500D01*
X129092095Y-57228135D01*
X129168813Y-57342951D01*
X129221657Y-57470528D01*
X129248595Y-57605956D01*
X129248595Y-57744044D01*
X129221657Y-57879472D01*
X129168813Y-58007049D01*
X129092095Y-58121865D01*
X128994460Y-58219500D01*
X128879644Y-58296218D01*
X128752067Y-58349062D01*
X128616639Y-58376000D01*
X128478551Y-58376000D01*
X128343123Y-58349062D01*
X128215546Y-58296218D01*
X128100730Y-58219500D01*
X128003095Y-58121865D01*
X127926377Y-58007049D01*
X127873533Y-57879472D01*
X127846595Y-57744044D01*
X127846595Y-57605956D01*
X127873533Y-57470528D01*
X127926377Y-57342951D01*
X128003095Y-57228135D01*
X128100730Y-57130500D01*
X128215546Y-57053782D01*
X128343123Y-57000938D01*
X128478551Y-56974000D01*
X128616639Y-56974000D01*
X128752067Y-57000938D01*
X128752067Y-57000938D01*
G37*
G36*
X103251000Y-55201000D02*
X101649000Y-55201000D01*
X101649000Y-54099000D01*
X103251000Y-54099000D01*
X103251000Y-55201000D01*
X103251000Y-55201000D01*
G37*
G36*
X98351000Y-55201000D02*
X96749000Y-55201000D01*
X96749000Y-54099000D01*
X98351000Y-54099000D01*
X98351000Y-55201000D01*
X98351000Y-55201000D01*
G37*
G36*
X122213126Y-53395174D02*
X122313400Y-53436709D01*
X122403650Y-53497012D01*
X122480393Y-53573755D01*
X122540696Y-53664005D01*
X122582231Y-53764279D01*
X122603405Y-53870730D01*
X122603405Y-53979270D01*
X122582231Y-54085721D01*
X122540696Y-54185995D01*
X122480393Y-54276245D01*
X122403650Y-54352988D01*
X122313400Y-54413291D01*
X122213126Y-54454826D01*
X122106675Y-54476000D01*
X121998135Y-54476000D01*
X121891684Y-54454826D01*
X121791410Y-54413291D01*
X121701160Y-54352988D01*
X121624417Y-54276245D01*
X121564114Y-54185995D01*
X121522579Y-54085721D01*
X121501405Y-53979270D01*
X121501405Y-53870730D01*
X121522579Y-53764279D01*
X121564114Y-53664005D01*
X121624417Y-53573755D01*
X121701160Y-53497012D01*
X121791410Y-53436709D01*
X121891684Y-53395174D01*
X121998135Y-53374000D01*
X122106675Y-53374000D01*
X122213126Y-53395174D01*
X122213126Y-53395174D01*
G37*
G36*
X69847312Y-50552496D02*
X69883591Y-50566151D01*
X69916504Y-50586618D01*
X69944795Y-50613115D01*
X69970971Y-50649643D01*
X70309722Y-51236378D01*
X70659107Y-51841530D01*
X70659110Y-51841536D01*
X70692495Y-51899361D01*
X70711038Y-51940285D01*
X70719841Y-51978038D01*
X70721109Y-52016779D01*
X70714796Y-52055020D01*
X70701141Y-52091299D01*
X70680674Y-52124212D01*
X70654177Y-52152503D01*
X70617649Y-52178679D01*
X69844245Y-52625203D01*
X69803321Y-52643746D01*
X69765568Y-52652549D01*
X69726827Y-52653817D01*
X69688586Y-52647504D01*
X69652307Y-52633849D01*
X69619394Y-52613382D01*
X69591103Y-52586885D01*
X69564927Y-52550357D01*
X68956464Y-51496467D01*
X68876791Y-51358470D01*
X68876788Y-51358464D01*
X68843403Y-51300639D01*
X68824860Y-51259715D01*
X68816057Y-51221962D01*
X68814789Y-51183221D01*
X68821102Y-51144980D01*
X68834757Y-51108701D01*
X68855224Y-51075788D01*
X68881721Y-51047497D01*
X68918249Y-51021321D01*
X69691653Y-50574797D01*
X69732577Y-50556254D01*
X69770330Y-50547451D01*
X69809071Y-50546183D01*
X69847312Y-50552496D01*
X69847312Y-50552496D01*
G37*
G36*
X101350443Y-50255519D02*
X101416627Y-50262037D01*
X101529853Y-50296384D01*
X101586467Y-50313557D01*
X101667981Y-50357128D01*
X101742991Y-50397222D01*
X101752061Y-50404666D01*
X101880186Y-50509814D01*
X101933515Y-50574797D01*
X101992778Y-50647009D01*
X101992779Y-50647011D01*
X102076443Y-50803533D01*
X102076443Y-50803534D01*
X102127963Y-50973373D01*
X102145359Y-51150000D01*
X102127963Y-51326627D01*
X102104290Y-51404666D01*
X102076443Y-51496467D01*
X102002348Y-51635087D01*
X101992778Y-51652991D01*
X101963448Y-51688729D01*
X101880186Y-51790186D01*
X101778729Y-51873448D01*
X101742991Y-51902778D01*
X101742989Y-51902779D01*
X101586467Y-51986443D01*
X101529853Y-52003616D01*
X101416627Y-52037963D01*
X101350443Y-52044481D01*
X101284260Y-52051000D01*
X101195740Y-52051000D01*
X101129557Y-52044481D01*
X101063373Y-52037963D01*
X100950147Y-52003616D01*
X100893533Y-51986443D01*
X100737011Y-51902779D01*
X100737009Y-51902778D01*
X100701271Y-51873448D01*
X100599814Y-51790186D01*
X100516552Y-51688729D01*
X100487222Y-51652991D01*
X100477652Y-51635087D01*
X100403557Y-51496467D01*
X100375710Y-51404666D01*
X100352037Y-51326627D01*
X100334641Y-51150000D01*
X100352037Y-50973373D01*
X100403557Y-50803534D01*
X100403557Y-50803533D01*
X100487221Y-50647011D01*
X100487222Y-50647009D01*
X100546485Y-50574797D01*
X100599814Y-50509814D01*
X100727939Y-50404666D01*
X100737009Y-50397222D01*
X100812019Y-50357128D01*
X100893533Y-50313557D01*
X100950147Y-50296384D01*
X101063373Y-50262037D01*
X101129557Y-50255519D01*
X101195740Y-50249000D01*
X101284260Y-50249000D01*
X101350443Y-50255519D01*
X101350443Y-50255519D01*
G37*
G36*
X99601000Y-52051000D02*
X97799000Y-52051000D01*
X97799000Y-50249000D01*
X99601000Y-50249000D01*
X99601000Y-52051000D01*
X99601000Y-52051000D01*
G37*
G36*
X71531806Y-49729984D02*
X71651821Y-49775154D01*
X71760721Y-49842872D01*
X71848382Y-49924976D01*
X71854315Y-49930533D01*
X71910296Y-50008654D01*
X72217269Y-50540346D01*
X72256933Y-50627887D01*
X72265411Y-50664247D01*
X72286053Y-50752776D01*
X72290248Y-50880942D01*
X72269359Y-51007463D01*
X72224189Y-51127478D01*
X72156471Y-51236378D01*
X72135985Y-51258250D01*
X72068810Y-51329972D01*
X71964574Y-51404666D01*
X71847769Y-51457590D01*
X71751738Y-51479981D01*
X71722880Y-51486710D01*
X71603390Y-51490621D01*
X71594716Y-51490905D01*
X71594714Y-51490905D01*
X71468193Y-51470017D01*
X71348179Y-51424846D01*
X71239279Y-51357128D01*
X71178967Y-51300639D01*
X71145685Y-51269467D01*
X71089704Y-51191346D01*
X70782731Y-50659653D01*
X70743067Y-50572112D01*
X70719262Y-50470016D01*
X70713947Y-50447223D01*
X70709752Y-50319058D01*
X70730641Y-50192537D01*
X70775811Y-50072522D01*
X70843529Y-49963622D01*
X70931191Y-49870027D01*
X71035424Y-49795335D01*
X71035426Y-49795334D01*
X71152231Y-49742410D01*
X71248262Y-49720019D01*
X71277120Y-49713290D01*
X71396609Y-49709379D01*
X71405283Y-49709095D01*
X71405285Y-49709095D01*
X71531806Y-49729984D01*
X71531806Y-49729984D01*
G37*
G36*
X73263857Y-48729984D02*
X73383872Y-48775154D01*
X73492772Y-48842872D01*
X73580433Y-48924976D01*
X73586366Y-48930533D01*
X73642347Y-49008654D01*
X73949320Y-49540346D01*
X73988984Y-49627887D01*
X74007613Y-49707785D01*
X74018104Y-49752776D01*
X74022299Y-49880942D01*
X74001410Y-50007463D01*
X73956240Y-50127478D01*
X73888522Y-50236378D01*
X73864489Y-50262037D01*
X73800861Y-50329972D01*
X73696625Y-50404666D01*
X73579820Y-50457590D01*
X73483789Y-50479981D01*
X73454931Y-50486710D01*
X73335441Y-50490621D01*
X73326767Y-50490905D01*
X73326765Y-50490905D01*
X73200244Y-50470017D01*
X73080230Y-50424846D01*
X72971330Y-50357128D01*
X72924533Y-50313297D01*
X72877736Y-50269467D01*
X72821755Y-50191346D01*
X72514782Y-49659653D01*
X72475118Y-49572112D01*
X72445999Y-49447226D01*
X72445998Y-49447223D01*
X72441803Y-49319058D01*
X72462692Y-49192537D01*
X72507862Y-49072522D01*
X72575580Y-48963622D01*
X72663242Y-48870027D01*
X72767475Y-48795335D01*
X72767477Y-48795334D01*
X72884282Y-48742410D01*
X72980313Y-48720019D01*
X73009171Y-48713290D01*
X73128660Y-48709379D01*
X73137334Y-48709095D01*
X73137336Y-48709095D01*
X73263857Y-48729984D01*
X73263857Y-48729984D01*
G37*
G36*
X158004459Y-40762095D02*
X158110782Y-40783244D01*
X158411245Y-40907700D01*
X158678055Y-41085977D01*
X158681657Y-41088384D01*
X158911616Y-41318343D01*
X159092301Y-41588757D01*
X159216756Y-41889219D01*
X159280203Y-42208186D01*
X159280203Y-42533408D01*
X159216756Y-42852375D01*
X159092301Y-43152837D01*
X158911616Y-43423251D01*
X158681657Y-43653210D01*
X158681654Y-43653212D01*
X158411245Y-43833894D01*
X158110782Y-43958350D01*
X158004459Y-43979499D01*
X157791814Y-44021797D01*
X157466592Y-44021797D01*
X157253947Y-43979499D01*
X157147624Y-43958350D01*
X156847161Y-43833894D01*
X156576752Y-43653212D01*
X156576749Y-43653210D01*
X156346790Y-43423251D01*
X156166105Y-43152837D01*
X156041650Y-42852375D01*
X155978203Y-42533408D01*
X155978203Y-42208186D01*
X156041650Y-41889219D01*
X156166105Y-41588757D01*
X156346790Y-41318343D01*
X156576749Y-41088384D01*
X156580351Y-41085977D01*
X156847161Y-40907700D01*
X157147624Y-40783244D01*
X157253947Y-40762095D01*
X157466592Y-40719797D01*
X157791814Y-40719797D01*
X158004459Y-40762095D01*
X158004459Y-40762095D01*
G37*
G36*
X42746053Y-40762095D02*
X42852376Y-40783244D01*
X43152839Y-40907700D01*
X43419649Y-41085977D01*
X43423251Y-41088384D01*
X43653210Y-41318343D01*
X43833895Y-41588757D01*
X43958350Y-41889219D01*
X44021797Y-42208186D01*
X44021797Y-42533408D01*
X43958350Y-42852375D01*
X43833895Y-43152837D01*
X43653210Y-43423251D01*
X43423251Y-43653210D01*
X43423248Y-43653212D01*
X43152839Y-43833894D01*
X42852376Y-43958350D01*
X42746053Y-43979499D01*
X42533408Y-44021797D01*
X42208186Y-44021797D01*
X41995541Y-43979499D01*
X41889218Y-43958350D01*
X41588755Y-43833894D01*
X41318346Y-43653212D01*
X41318343Y-43653210D01*
X41088384Y-43423251D01*
X40907699Y-43152837D01*
X40783244Y-42852375D01*
X40719797Y-42533408D01*
X40719797Y-42208186D01*
X40783244Y-41889219D01*
X40907699Y-41588757D01*
X41088384Y-41318343D01*
X41318343Y-41088384D01*
X41321945Y-41085977D01*
X41588755Y-40907700D01*
X41889218Y-40783244D01*
X41995541Y-40762095D01*
X42208186Y-40719797D01*
X42533408Y-40719797D01*
X42746053Y-40762095D01*
X42746053Y-40762095D01*
G37*
G36*
X64647425Y-42087321D02*
X63953738Y-42487821D01*
X63260052Y-42888321D01*
X63260051Y-42888321D01*
X62709051Y-41933961D01*
X63775328Y-41318346D01*
X64096424Y-41132961D01*
X64096425Y-41132961D01*
X64647425Y-42087321D01*
X64647425Y-42087321D01*
G37*
G36*
X136224672Y-41318346D02*
X137290949Y-41933961D01*
X136739949Y-42888321D01*
X136739948Y-42888321D01*
X136046262Y-42487821D01*
X135352575Y-42087321D01*
X135903575Y-41132961D01*
X135903576Y-41132961D01*
X136224672Y-41318346D01*
X136224672Y-41318346D01*
G37*
G36*
X68890949Y-39637321D02*
X68197262Y-40037821D01*
X67503576Y-40438321D01*
X67503575Y-40438321D01*
X66952575Y-39483961D01*
X67646262Y-39083461D01*
X68339948Y-38682961D01*
X68339949Y-38682961D01*
X68890949Y-39637321D01*
X68890949Y-39637321D01*
G37*
G36*
X132353738Y-39083461D02*
X133047425Y-39483961D01*
X132496425Y-40438321D01*
X132496424Y-40438321D01*
X131802738Y-40037821D01*
X131109051Y-39637321D01*
X131660051Y-38682961D01*
X131660052Y-38682961D01*
X132353738Y-39083461D01*
X132353738Y-39083461D01*
G37*
G36*
X63047425Y-39316039D02*
X62756575Y-39483961D01*
X61660052Y-40117039D01*
X61660051Y-40117039D01*
X61109051Y-39162679D01*
X61939948Y-38682961D01*
X62496424Y-38361679D01*
X62496425Y-38361679D01*
X63047425Y-39316039D01*
X63047425Y-39316039D01*
G37*
G36*
X138060052Y-38682961D02*
X138890949Y-39162679D01*
X138339949Y-40117039D01*
X138339948Y-40117039D01*
X137243425Y-39483961D01*
X136952575Y-39316039D01*
X137503575Y-38361679D01*
X137503576Y-38361679D01*
X138060052Y-38682961D01*
X138060052Y-38682961D01*
G37*
G36*
X67290949Y-36866039D02*
X66597262Y-37266539D01*
X65903576Y-37667039D01*
X65903575Y-37667039D01*
X65352575Y-36712679D01*
X66046262Y-36312179D01*
X66739948Y-35911679D01*
X66739949Y-35911679D01*
X67290949Y-36866039D01*
X67290949Y-36866039D01*
G37*
G36*
X133953738Y-36312179D02*
X134647425Y-36712679D01*
X134096425Y-37667039D01*
X134096424Y-37667039D01*
X133402738Y-37266539D01*
X132709051Y-36866039D01*
X133260051Y-35911679D01*
X133260052Y-35911679D01*
X133953738Y-36312179D01*
X133953738Y-36312179D01*
G37*
G36*
X103251000Y-32151000D02*
X101649000Y-32151000D01*
X101649000Y-31049000D01*
X103251000Y-31049000D01*
X103251000Y-32151000D01*
X103251000Y-32151000D01*
G37*
G36*
X98351000Y-32151000D02*
X96749000Y-32151000D01*
X96749000Y-31049000D01*
X98351000Y-31049000D01*
X98351000Y-32151000D01*
X98351000Y-32151000D01*
G37*
G36*
X103251000Y-28951000D02*
X101649000Y-28951000D01*
X101649000Y-27849000D01*
X103251000Y-27849000D01*
X103251000Y-28951000D01*
X103251000Y-28951000D01*
G37*
G36*
X98351000Y-28951000D02*
X96749000Y-28951000D01*
X96749000Y-27849000D01*
X98351000Y-27849000D01*
X98351000Y-28951000D01*
X98351000Y-28951000D01*
G37*
G36*
X121469008Y-19668343D02*
X121575331Y-19689492D01*
X121875794Y-19813948D01*
X122142604Y-19992225D01*
X122146206Y-19994632D01*
X122376165Y-20224591D01*
X122556850Y-20495005D01*
X122681305Y-20795467D01*
X122744752Y-21114434D01*
X122744752Y-21439656D01*
X122681305Y-21758623D01*
X122556850Y-22059085D01*
X122376165Y-22329499D01*
X122146206Y-22559458D01*
X122146203Y-22559460D01*
X121875794Y-22740142D01*
X121575331Y-22864598D01*
X121469008Y-22885747D01*
X121256363Y-22928045D01*
X120931141Y-22928045D01*
X120718496Y-22885747D01*
X120612173Y-22864598D01*
X120311710Y-22740142D01*
X120041301Y-22559460D01*
X120041298Y-22559458D01*
X119811339Y-22329499D01*
X119630654Y-22059085D01*
X119506199Y-21758623D01*
X119442752Y-21439656D01*
X119442752Y-21114434D01*
X119506199Y-20795467D01*
X119630654Y-20495005D01*
X119811339Y-20224591D01*
X120041298Y-19994632D01*
X120044900Y-19992225D01*
X120311710Y-19813948D01*
X120612173Y-19689492D01*
X120718496Y-19668343D01*
X120931141Y-19626045D01*
X121256363Y-19626045D01*
X121469008Y-19668343D01*
X121469008Y-19668343D01*
G37*
G36*
X79281504Y-19668343D02*
X79387827Y-19689492D01*
X79688290Y-19813948D01*
X79955100Y-19992225D01*
X79958702Y-19994632D01*
X80188661Y-20224591D01*
X80369346Y-20495005D01*
X80493801Y-20795467D01*
X80557248Y-21114434D01*
X80557248Y-21439656D01*
X80493801Y-21758623D01*
X80369346Y-22059085D01*
X80188661Y-22329499D01*
X79958702Y-22559458D01*
X79958699Y-22559460D01*
X79688290Y-22740142D01*
X79387827Y-22864598D01*
X79281504Y-22885747D01*
X79068859Y-22928045D01*
X78743637Y-22928045D01*
X78530992Y-22885747D01*
X78424669Y-22864598D01*
X78124206Y-22740142D01*
X77853797Y-22559460D01*
X77853794Y-22559458D01*
X77623835Y-22329499D01*
X77443150Y-22059085D01*
X77318695Y-21758623D01*
X77255248Y-21439656D01*
X77255248Y-21114434D01*
X77318695Y-20795467D01*
X77443150Y-20495005D01*
X77623835Y-20224591D01*
X77853794Y-19994632D01*
X77857396Y-19992225D01*
X78124206Y-19813948D01*
X78424669Y-19689492D01*
X78530992Y-19668343D01*
X78743637Y-19626045D01*
X79068859Y-19626045D01*
X79281504Y-19668343D01*
X79281504Y-19668343D01*
G37*
M02*
