M48
;DRILL file {KiCad (5.0.1-3-g963ef8bb5)} date 2019 September 11, Wednesday 13:55:15
;FORMAT={-:-/ absolute / metric / decimal}
FMAT,2
METRIC,TZ
T1C0.400
T2C0.750
T3C1.000
T4C1.400
T5C1.000
T6C1.300
T7C3.200
%
G90
G05
M71
T1
X26.Y-100.
X35.914Y-63.
X35.914Y-137.
X49.7Y-47.5
X52.5Y-100.
X60.Y-38.3
X61.3Y-37.9
X61.9Y-55.2
X63.Y-164.086
X63.5Y-36.7
X65.1Y-39.55
X67.15Y-43.65
X77.4Y-40.1
X79.5Y-28.6
X80.3Y-49.1
X82.6Y-25.5
X84.7Y-39.3
X87.4Y-24.4
X89.8Y-27.1
X90.3Y-59.6
X92.5Y-37.5
X97.2Y-24.1
X100.Y-147.6
X100.Y-174.
X100.5Y-26.6
X102.4Y-35.05
X104.1Y-38.
X106.6Y-49.8
X109.Y-122.2
X110.1Y-34.7
X110.7Y-27.9
X113.7Y-24.
X117.1Y-35.7
X117.3Y-25.2
X120.Y-50.
X121.7Y-45.2
X122.8Y-40.3
X123.2Y-43.95
X129.4Y-55.5
X132.Y-32.
X132.6Y-45.
X137.Y-35.914
X137.Y-164.086
X147.Y-100.
X151.Y-65.5
X151.1Y-50.2
X151.2Y-59.6
X164.086Y-63.
X164.086Y-137.
X174.Y-100.
T2
X48.6Y-74.964
X49.6Y-73.232
X50.6Y-71.5
X51.6Y-69.768
X52.6Y-68.036
X57.2Y-79.864
X58.2Y-78.132
X59.2Y-76.4
X60.2Y-74.668
X61.2Y-72.936
X69.768Y-51.6
X71.5Y-50.6
X73.232Y-49.6
X74.768Y-60.2
X76.5Y-59.2
X78.232Y-58.2
T3
X98.7Y-51.15
X101.24Y-51.15
T4
X18.447Y-83.341
X21.035Y-73.682
X27.459Y-88.344
X29.4Y-81.1
X30.521Y-86.577
X31.341Y-73.856
X32.288Y-89.639
X33.109Y-76.917
X36.171Y-75.15
X18.447Y-116.659
X21.035Y-126.318
X27.459Y-111.656
X29.4Y-118.9
X30.521Y-113.423
X31.341Y-126.144
X32.288Y-110.361
X33.109Y-123.083
X36.171Y-124.85
T5
X122.052Y-53.925
T6
X128.548Y-57.675
T7
X157.629Y-42.371
X121.094Y-178.723
X178.723Y-78.906
X72.287Y-116.
X100.Y-125.
X78.906Y-21.277
X127.713Y-116.
X78.349Y-87.5
X157.629Y-157.629
X42.371Y-42.371
X100.Y-68.
X18.5Y-100.
X121.651Y-87.5
X42.371Y-157.629
X121.094Y-21.277
X78.906Y-178.723
X178.723Y-121.094
T0
M30
