G04 #@! TF.GenerationSoftware,KiCad,Pcbnew,(5.0.1-3-g963ef8bb5)*
G04 #@! TF.CreationDate,2019-08-29T11:39:49+02:00*
G04 #@! TF.ProjectId,crecol_encoder,637265636F6C5F656E636F6465722E6B,rev?*
G04 #@! TF.SameCoordinates,Original*
G04 #@! TF.FileFunction,Paste,Bot*
G04 #@! TF.FilePolarity,Positive*
%FSLAX46Y46*%
G04 Gerber Fmt 4.6, Leading zero omitted, Abs format (unit mm)*
G04 Created by KiCad (PCBNEW (5.0.1-3-g963ef8bb5)) date 2019 August 29, Thursday 11:39:49*
%MOMM*%
%LPD*%
G01*
G04 APERTURE LIST*
%ADD10C,0.100000*%
%ADD11C,0.950000*%
%ADD12C,0.550000*%
%ADD13R,1.600000X0.550000*%
G04 APERTURE END LIST*
D10*
G04 #@! TO.C,C0*
G36*
X94260779Y-121401144D02*
X94283834Y-121404563D01*
X94306443Y-121410227D01*
X94328387Y-121418079D01*
X94349457Y-121428044D01*
X94369448Y-121440026D01*
X94388168Y-121453910D01*
X94405438Y-121469562D01*
X94421090Y-121486832D01*
X94434974Y-121505552D01*
X94446956Y-121525543D01*
X94456921Y-121546613D01*
X94464773Y-121568557D01*
X94470437Y-121591166D01*
X94473856Y-121614221D01*
X94475000Y-121637500D01*
X94475000Y-122212500D01*
X94473856Y-122235779D01*
X94470437Y-122258834D01*
X94464773Y-122281443D01*
X94456921Y-122303387D01*
X94446956Y-122324457D01*
X94434974Y-122344448D01*
X94421090Y-122363168D01*
X94405438Y-122380438D01*
X94388168Y-122396090D01*
X94369448Y-122409974D01*
X94349457Y-122421956D01*
X94328387Y-122431921D01*
X94306443Y-122439773D01*
X94283834Y-122445437D01*
X94260779Y-122448856D01*
X94237500Y-122450000D01*
X93762500Y-122450000D01*
X93739221Y-122448856D01*
X93716166Y-122445437D01*
X93693557Y-122439773D01*
X93671613Y-122431921D01*
X93650543Y-122421956D01*
X93630552Y-122409974D01*
X93611832Y-122396090D01*
X93594562Y-122380438D01*
X93578910Y-122363168D01*
X93565026Y-122344448D01*
X93553044Y-122324457D01*
X93543079Y-122303387D01*
X93535227Y-122281443D01*
X93529563Y-122258834D01*
X93526144Y-122235779D01*
X93525000Y-122212500D01*
X93525000Y-121637500D01*
X93526144Y-121614221D01*
X93529563Y-121591166D01*
X93535227Y-121568557D01*
X93543079Y-121546613D01*
X93553044Y-121525543D01*
X93565026Y-121505552D01*
X93578910Y-121486832D01*
X93594562Y-121469562D01*
X93611832Y-121453910D01*
X93630552Y-121440026D01*
X93650543Y-121428044D01*
X93671613Y-121418079D01*
X93693557Y-121410227D01*
X93716166Y-121404563D01*
X93739221Y-121401144D01*
X93762500Y-121400000D01*
X94237500Y-121400000D01*
X94260779Y-121401144D01*
X94260779Y-121401144D01*
G37*
D11*
X94000000Y-121925000D03*
D10*
G36*
X94260779Y-123151144D02*
X94283834Y-123154563D01*
X94306443Y-123160227D01*
X94328387Y-123168079D01*
X94349457Y-123178044D01*
X94369448Y-123190026D01*
X94388168Y-123203910D01*
X94405438Y-123219562D01*
X94421090Y-123236832D01*
X94434974Y-123255552D01*
X94446956Y-123275543D01*
X94456921Y-123296613D01*
X94464773Y-123318557D01*
X94470437Y-123341166D01*
X94473856Y-123364221D01*
X94475000Y-123387500D01*
X94475000Y-123962500D01*
X94473856Y-123985779D01*
X94470437Y-124008834D01*
X94464773Y-124031443D01*
X94456921Y-124053387D01*
X94446956Y-124074457D01*
X94434974Y-124094448D01*
X94421090Y-124113168D01*
X94405438Y-124130438D01*
X94388168Y-124146090D01*
X94369448Y-124159974D01*
X94349457Y-124171956D01*
X94328387Y-124181921D01*
X94306443Y-124189773D01*
X94283834Y-124195437D01*
X94260779Y-124198856D01*
X94237500Y-124200000D01*
X93762500Y-124200000D01*
X93739221Y-124198856D01*
X93716166Y-124195437D01*
X93693557Y-124189773D01*
X93671613Y-124181921D01*
X93650543Y-124171956D01*
X93630552Y-124159974D01*
X93611832Y-124146090D01*
X93594562Y-124130438D01*
X93578910Y-124113168D01*
X93565026Y-124094448D01*
X93553044Y-124074457D01*
X93543079Y-124053387D01*
X93535227Y-124031443D01*
X93529563Y-124008834D01*
X93526144Y-123985779D01*
X93525000Y-123962500D01*
X93525000Y-123387500D01*
X93526144Y-123364221D01*
X93529563Y-123341166D01*
X93535227Y-123318557D01*
X93543079Y-123296613D01*
X93553044Y-123275543D01*
X93565026Y-123255552D01*
X93578910Y-123236832D01*
X93594562Y-123219562D01*
X93611832Y-123203910D01*
X93630552Y-123190026D01*
X93650543Y-123178044D01*
X93671613Y-123168079D01*
X93693557Y-123160227D01*
X93716166Y-123154563D01*
X93739221Y-123151144D01*
X93762500Y-123150000D01*
X94237500Y-123150000D01*
X94260779Y-123151144D01*
X94260779Y-123151144D01*
G37*
D11*
X94000000Y-123675000D03*
G04 #@! TD*
D10*
G04 #@! TO.C,R0*
G36*
X106260779Y-123151144D02*
X106283834Y-123154563D01*
X106306443Y-123160227D01*
X106328387Y-123168079D01*
X106349457Y-123178044D01*
X106369448Y-123190026D01*
X106388168Y-123203910D01*
X106405438Y-123219562D01*
X106421090Y-123236832D01*
X106434974Y-123255552D01*
X106446956Y-123275543D01*
X106456921Y-123296613D01*
X106464773Y-123318557D01*
X106470437Y-123341166D01*
X106473856Y-123364221D01*
X106475000Y-123387500D01*
X106475000Y-123962500D01*
X106473856Y-123985779D01*
X106470437Y-124008834D01*
X106464773Y-124031443D01*
X106456921Y-124053387D01*
X106446956Y-124074457D01*
X106434974Y-124094448D01*
X106421090Y-124113168D01*
X106405438Y-124130438D01*
X106388168Y-124146090D01*
X106369448Y-124159974D01*
X106349457Y-124171956D01*
X106328387Y-124181921D01*
X106306443Y-124189773D01*
X106283834Y-124195437D01*
X106260779Y-124198856D01*
X106237500Y-124200000D01*
X105762500Y-124200000D01*
X105739221Y-124198856D01*
X105716166Y-124195437D01*
X105693557Y-124189773D01*
X105671613Y-124181921D01*
X105650543Y-124171956D01*
X105630552Y-124159974D01*
X105611832Y-124146090D01*
X105594562Y-124130438D01*
X105578910Y-124113168D01*
X105565026Y-124094448D01*
X105553044Y-124074457D01*
X105543079Y-124053387D01*
X105535227Y-124031443D01*
X105529563Y-124008834D01*
X105526144Y-123985779D01*
X105525000Y-123962500D01*
X105525000Y-123387500D01*
X105526144Y-123364221D01*
X105529563Y-123341166D01*
X105535227Y-123318557D01*
X105543079Y-123296613D01*
X105553044Y-123275543D01*
X105565026Y-123255552D01*
X105578910Y-123236832D01*
X105594562Y-123219562D01*
X105611832Y-123203910D01*
X105630552Y-123190026D01*
X105650543Y-123178044D01*
X105671613Y-123168079D01*
X105693557Y-123160227D01*
X105716166Y-123154563D01*
X105739221Y-123151144D01*
X105762500Y-123150000D01*
X106237500Y-123150000D01*
X106260779Y-123151144D01*
X106260779Y-123151144D01*
G37*
D11*
X106000000Y-123675000D03*
D10*
G36*
X106260779Y-121401144D02*
X106283834Y-121404563D01*
X106306443Y-121410227D01*
X106328387Y-121418079D01*
X106349457Y-121428044D01*
X106369448Y-121440026D01*
X106388168Y-121453910D01*
X106405438Y-121469562D01*
X106421090Y-121486832D01*
X106434974Y-121505552D01*
X106446956Y-121525543D01*
X106456921Y-121546613D01*
X106464773Y-121568557D01*
X106470437Y-121591166D01*
X106473856Y-121614221D01*
X106475000Y-121637500D01*
X106475000Y-122212500D01*
X106473856Y-122235779D01*
X106470437Y-122258834D01*
X106464773Y-122281443D01*
X106456921Y-122303387D01*
X106446956Y-122324457D01*
X106434974Y-122344448D01*
X106421090Y-122363168D01*
X106405438Y-122380438D01*
X106388168Y-122396090D01*
X106369448Y-122409974D01*
X106349457Y-122421956D01*
X106328387Y-122431921D01*
X106306443Y-122439773D01*
X106283834Y-122445437D01*
X106260779Y-122448856D01*
X106237500Y-122450000D01*
X105762500Y-122450000D01*
X105739221Y-122448856D01*
X105716166Y-122445437D01*
X105693557Y-122439773D01*
X105671613Y-122431921D01*
X105650543Y-122421956D01*
X105630552Y-122409974D01*
X105611832Y-122396090D01*
X105594562Y-122380438D01*
X105578910Y-122363168D01*
X105565026Y-122344448D01*
X105553044Y-122324457D01*
X105543079Y-122303387D01*
X105535227Y-122281443D01*
X105529563Y-122258834D01*
X105526144Y-122235779D01*
X105525000Y-122212500D01*
X105525000Y-121637500D01*
X105526144Y-121614221D01*
X105529563Y-121591166D01*
X105535227Y-121568557D01*
X105543079Y-121546613D01*
X105553044Y-121525543D01*
X105565026Y-121505552D01*
X105578910Y-121486832D01*
X105594562Y-121469562D01*
X105611832Y-121453910D01*
X105630552Y-121440026D01*
X105650543Y-121428044D01*
X105671613Y-121418079D01*
X105693557Y-121410227D01*
X105716166Y-121404563D01*
X105739221Y-121401144D01*
X105762500Y-121400000D01*
X106237500Y-121400000D01*
X106260779Y-121401144D01*
X106260779Y-121401144D01*
G37*
D11*
X106000000Y-121925000D03*
G04 #@! TD*
D12*
G04 #@! TO.C,SW0*
X80600000Y-114511474D03*
D10*
G36*
X79961843Y-113956154D02*
X80438157Y-113681154D01*
X81238157Y-115066794D01*
X80761843Y-115341794D01*
X79961843Y-113956154D01*
X79961843Y-113956154D01*
G37*
D12*
X77700000Y-109488526D03*
D10*
G36*
X77061843Y-108933206D02*
X77538157Y-108658206D01*
X78338157Y-110043846D01*
X77861843Y-110318846D01*
X77061843Y-108933206D01*
X77061843Y-108933206D01*
G37*
D12*
X76600148Y-110123526D03*
D10*
G36*
X75961991Y-109568206D02*
X76438305Y-109293206D01*
X77238305Y-110678846D01*
X76761991Y-110953846D01*
X75961991Y-109568206D01*
X75961991Y-109568206D01*
G37*
D12*
X78799852Y-108853526D03*
D10*
G36*
X78161695Y-108298206D02*
X78638009Y-108023206D01*
X79438009Y-109408846D01*
X78961695Y-109683846D01*
X78161695Y-108298206D01*
X78161695Y-108298206D01*
G37*
D12*
X81699852Y-113876474D03*
D10*
G36*
X81061695Y-113321154D02*
X81538009Y-113046154D01*
X82338009Y-114431794D01*
X81861695Y-114706794D01*
X81061695Y-113321154D01*
X81061695Y-113321154D01*
G37*
D12*
X79500148Y-115146474D03*
D10*
G36*
X78861991Y-114591154D02*
X79338305Y-114316154D01*
X80138305Y-115701794D01*
X79661991Y-115976794D01*
X78861991Y-114591154D01*
X78861991Y-114591154D01*
G37*
G04 #@! TD*
D13*
G04 #@! TO.C,SW1*
X102900000Y-76000000D03*
X97100000Y-76000000D03*
X97100000Y-77270000D03*
X97100000Y-74730000D03*
X102900000Y-74730000D03*
X102900000Y-77270000D03*
G04 #@! TD*
D12*
G04 #@! TO.C,SW2*
X123349852Y-110123526D03*
D10*
G36*
X123188009Y-110953846D02*
X122711695Y-110678846D01*
X123511695Y-109293206D01*
X123988009Y-109568206D01*
X123188009Y-110953846D01*
X123188009Y-110953846D01*
G37*
D12*
X121150148Y-108853526D03*
D10*
G36*
X120988305Y-109683846D02*
X120511991Y-109408846D01*
X121311991Y-108023206D01*
X121788305Y-108298206D01*
X120988305Y-109683846D01*
X120988305Y-109683846D01*
G37*
D12*
X118250148Y-113876474D03*
D10*
G36*
X118088305Y-114706794D02*
X117611991Y-114431794D01*
X118411991Y-113046154D01*
X118888305Y-113321154D01*
X118088305Y-114706794D01*
X118088305Y-114706794D01*
G37*
D12*
X120449852Y-115146474D03*
D10*
G36*
X120288009Y-115976794D02*
X119811695Y-115701794D01*
X120611695Y-114316154D01*
X121088009Y-114591154D01*
X120288009Y-115976794D01*
X120288009Y-115976794D01*
G37*
D12*
X119350000Y-114511474D03*
D10*
G36*
X119188157Y-115341794D02*
X118711843Y-115066794D01*
X119511843Y-113681154D01*
X119988157Y-113956154D01*
X119188157Y-115341794D01*
X119188157Y-115341794D01*
G37*
D12*
X122250000Y-109488526D03*
D10*
G36*
X122088157Y-110318846D02*
X121611843Y-110043846D01*
X122411843Y-108658206D01*
X122888157Y-108933206D01*
X122088157Y-110318846D01*
X122088157Y-110318846D01*
G37*
G04 #@! TD*
M02*
