G04 #@! TF.GenerationSoftware,KiCad,Pcbnew,(5.0.1-3-g963ef8bb5)*
G04 #@! TF.CreationDate,2019-08-29T11:39:49+02:00*
G04 #@! TF.ProjectId,crecol_encoder,637265636F6C5F656E636F6465722E6B,rev?*
G04 #@! TF.SameCoordinates,Original*
G04 #@! TF.FileFunction,Copper,L2,Bot,Signal*
G04 #@! TF.FilePolarity,Positive*
%FSLAX46Y46*%
G04 Gerber Fmt 4.6, Leading zero omitted, Abs format (unit mm)*
G04 Created by KiCad (PCBNEW (5.0.1-3-g963ef8bb5)) date 2019 August 29, Thursday 11:39:49*
%MOMM*%
%LPD*%
G01*
G04 APERTURE LIST*
G04 #@! TA.AperFunction,Conductor*
%ADD10C,0.100000*%
G04 #@! TD*
G04 #@! TA.AperFunction,SMDPad,CuDef*
%ADD11C,0.950000*%
G04 #@! TD*
G04 #@! TA.AperFunction,ComponentPad*
%ADD12C,1.200000*%
G04 #@! TD*
G04 #@! TA.AperFunction,ComponentPad*
%ADD13O,1.200000X1.750000*%
G04 #@! TD*
G04 #@! TA.AperFunction,SMDPad,CuDef*
%ADD14C,0.550000*%
G04 #@! TD*
G04 #@! TA.AperFunction,SMDPad,CuDef*
%ADD15R,1.600000X0.550000*%
G04 #@! TD*
G04 #@! TA.AperFunction,ViaPad*
%ADD16C,0.800000*%
G04 #@! TD*
G04 #@! TA.AperFunction,Conductor*
%ADD17C,0.500000*%
G04 #@! TD*
G04 #@! TA.AperFunction,Conductor*
%ADD18C,0.254000*%
G04 #@! TD*
G04 APERTURE END LIST*
D10*
G04 #@! TO.N,Net-(C0-Pad1)*
G04 #@! TO.C,C0*
G36*
X94260779Y-121401144D02*
X94283834Y-121404563D01*
X94306443Y-121410227D01*
X94328387Y-121418079D01*
X94349457Y-121428044D01*
X94369448Y-121440026D01*
X94388168Y-121453910D01*
X94405438Y-121469562D01*
X94421090Y-121486832D01*
X94434974Y-121505552D01*
X94446956Y-121525543D01*
X94456921Y-121546613D01*
X94464773Y-121568557D01*
X94470437Y-121591166D01*
X94473856Y-121614221D01*
X94475000Y-121637500D01*
X94475000Y-122212500D01*
X94473856Y-122235779D01*
X94470437Y-122258834D01*
X94464773Y-122281443D01*
X94456921Y-122303387D01*
X94446956Y-122324457D01*
X94434974Y-122344448D01*
X94421090Y-122363168D01*
X94405438Y-122380438D01*
X94388168Y-122396090D01*
X94369448Y-122409974D01*
X94349457Y-122421956D01*
X94328387Y-122431921D01*
X94306443Y-122439773D01*
X94283834Y-122445437D01*
X94260779Y-122448856D01*
X94237500Y-122450000D01*
X93762500Y-122450000D01*
X93739221Y-122448856D01*
X93716166Y-122445437D01*
X93693557Y-122439773D01*
X93671613Y-122431921D01*
X93650543Y-122421956D01*
X93630552Y-122409974D01*
X93611832Y-122396090D01*
X93594562Y-122380438D01*
X93578910Y-122363168D01*
X93565026Y-122344448D01*
X93553044Y-122324457D01*
X93543079Y-122303387D01*
X93535227Y-122281443D01*
X93529563Y-122258834D01*
X93526144Y-122235779D01*
X93525000Y-122212500D01*
X93525000Y-121637500D01*
X93526144Y-121614221D01*
X93529563Y-121591166D01*
X93535227Y-121568557D01*
X93543079Y-121546613D01*
X93553044Y-121525543D01*
X93565026Y-121505552D01*
X93578910Y-121486832D01*
X93594562Y-121469562D01*
X93611832Y-121453910D01*
X93630552Y-121440026D01*
X93650543Y-121428044D01*
X93671613Y-121418079D01*
X93693557Y-121410227D01*
X93716166Y-121404563D01*
X93739221Y-121401144D01*
X93762500Y-121400000D01*
X94237500Y-121400000D01*
X94260779Y-121401144D01*
X94260779Y-121401144D01*
G37*
D11*
G04 #@! TD*
G04 #@! TO.P,C0,1*
G04 #@! TO.N,Net-(C0-Pad1)*
X94000000Y-121925000D03*
D10*
G04 #@! TO.N,GND*
G04 #@! TO.C,C0*
G36*
X94260779Y-123151144D02*
X94283834Y-123154563D01*
X94306443Y-123160227D01*
X94328387Y-123168079D01*
X94349457Y-123178044D01*
X94369448Y-123190026D01*
X94388168Y-123203910D01*
X94405438Y-123219562D01*
X94421090Y-123236832D01*
X94434974Y-123255552D01*
X94446956Y-123275543D01*
X94456921Y-123296613D01*
X94464773Y-123318557D01*
X94470437Y-123341166D01*
X94473856Y-123364221D01*
X94475000Y-123387500D01*
X94475000Y-123962500D01*
X94473856Y-123985779D01*
X94470437Y-124008834D01*
X94464773Y-124031443D01*
X94456921Y-124053387D01*
X94446956Y-124074457D01*
X94434974Y-124094448D01*
X94421090Y-124113168D01*
X94405438Y-124130438D01*
X94388168Y-124146090D01*
X94369448Y-124159974D01*
X94349457Y-124171956D01*
X94328387Y-124181921D01*
X94306443Y-124189773D01*
X94283834Y-124195437D01*
X94260779Y-124198856D01*
X94237500Y-124200000D01*
X93762500Y-124200000D01*
X93739221Y-124198856D01*
X93716166Y-124195437D01*
X93693557Y-124189773D01*
X93671613Y-124181921D01*
X93650543Y-124171956D01*
X93630552Y-124159974D01*
X93611832Y-124146090D01*
X93594562Y-124130438D01*
X93578910Y-124113168D01*
X93565026Y-124094448D01*
X93553044Y-124074457D01*
X93543079Y-124053387D01*
X93535227Y-124031443D01*
X93529563Y-124008834D01*
X93526144Y-123985779D01*
X93525000Y-123962500D01*
X93525000Y-123387500D01*
X93526144Y-123364221D01*
X93529563Y-123341166D01*
X93535227Y-123318557D01*
X93543079Y-123296613D01*
X93553044Y-123275543D01*
X93565026Y-123255552D01*
X93578910Y-123236832D01*
X93594562Y-123219562D01*
X93611832Y-123203910D01*
X93630552Y-123190026D01*
X93650543Y-123178044D01*
X93671613Y-123168079D01*
X93693557Y-123160227D01*
X93716166Y-123154563D01*
X93739221Y-123151144D01*
X93762500Y-123150000D01*
X94237500Y-123150000D01*
X94260779Y-123151144D01*
X94260779Y-123151144D01*
G37*
D11*
G04 #@! TD*
G04 #@! TO.P,C0,2*
G04 #@! TO.N,GND*
X94000000Y-123675000D03*
D10*
G04 #@! TO.N,+3V3*
G04 #@! TO.C,J0*
G36*
X102374505Y-121726204D02*
X102398773Y-121729804D01*
X102422572Y-121735765D01*
X102445671Y-121744030D01*
X102467850Y-121754520D01*
X102488893Y-121767132D01*
X102508599Y-121781747D01*
X102526777Y-121798223D01*
X102543253Y-121816401D01*
X102557868Y-121836107D01*
X102570480Y-121857150D01*
X102580970Y-121879329D01*
X102589235Y-121902428D01*
X102595196Y-121926227D01*
X102598796Y-121950495D01*
X102600000Y-121974999D01*
X102600000Y-123225001D01*
X102598796Y-123249505D01*
X102595196Y-123273773D01*
X102589235Y-123297572D01*
X102580970Y-123320671D01*
X102570480Y-123342850D01*
X102557868Y-123363893D01*
X102543253Y-123383599D01*
X102526777Y-123401777D01*
X102508599Y-123418253D01*
X102488893Y-123432868D01*
X102467850Y-123445480D01*
X102445671Y-123455970D01*
X102422572Y-123464235D01*
X102398773Y-123470196D01*
X102374505Y-123473796D01*
X102350001Y-123475000D01*
X101649999Y-123475000D01*
X101625495Y-123473796D01*
X101601227Y-123470196D01*
X101577428Y-123464235D01*
X101554329Y-123455970D01*
X101532150Y-123445480D01*
X101511107Y-123432868D01*
X101491401Y-123418253D01*
X101473223Y-123401777D01*
X101456747Y-123383599D01*
X101442132Y-123363893D01*
X101429520Y-123342850D01*
X101419030Y-123320671D01*
X101410765Y-123297572D01*
X101404804Y-123273773D01*
X101401204Y-123249505D01*
X101400000Y-123225001D01*
X101400000Y-121974999D01*
X101401204Y-121950495D01*
X101404804Y-121926227D01*
X101410765Y-121902428D01*
X101419030Y-121879329D01*
X101429520Y-121857150D01*
X101442132Y-121836107D01*
X101456747Y-121816401D01*
X101473223Y-121798223D01*
X101491401Y-121781747D01*
X101511107Y-121767132D01*
X101532150Y-121754520D01*
X101554329Y-121744030D01*
X101577428Y-121735765D01*
X101601227Y-121729804D01*
X101625495Y-121726204D01*
X101649999Y-121725000D01*
X102350001Y-121725000D01*
X102374505Y-121726204D01*
X102374505Y-121726204D01*
G37*
D12*
G04 #@! TD*
G04 #@! TO.P,J0,1*
G04 #@! TO.N,+3V3*
X102000000Y-122600000D03*
D13*
G04 #@! TO.P,J0,2*
G04 #@! TO.N,Net-(C0-Pad1)*
X100000000Y-122600000D03*
G04 #@! TO.P,J0,3*
G04 #@! TO.N,GND*
X98000000Y-122600000D03*
G04 #@! TD*
D10*
G04 #@! TO.N,+3V3*
G04 #@! TO.C,R0*
G36*
X106260779Y-123151144D02*
X106283834Y-123154563D01*
X106306443Y-123160227D01*
X106328387Y-123168079D01*
X106349457Y-123178044D01*
X106369448Y-123190026D01*
X106388168Y-123203910D01*
X106405438Y-123219562D01*
X106421090Y-123236832D01*
X106434974Y-123255552D01*
X106446956Y-123275543D01*
X106456921Y-123296613D01*
X106464773Y-123318557D01*
X106470437Y-123341166D01*
X106473856Y-123364221D01*
X106475000Y-123387500D01*
X106475000Y-123962500D01*
X106473856Y-123985779D01*
X106470437Y-124008834D01*
X106464773Y-124031443D01*
X106456921Y-124053387D01*
X106446956Y-124074457D01*
X106434974Y-124094448D01*
X106421090Y-124113168D01*
X106405438Y-124130438D01*
X106388168Y-124146090D01*
X106369448Y-124159974D01*
X106349457Y-124171956D01*
X106328387Y-124181921D01*
X106306443Y-124189773D01*
X106283834Y-124195437D01*
X106260779Y-124198856D01*
X106237500Y-124200000D01*
X105762500Y-124200000D01*
X105739221Y-124198856D01*
X105716166Y-124195437D01*
X105693557Y-124189773D01*
X105671613Y-124181921D01*
X105650543Y-124171956D01*
X105630552Y-124159974D01*
X105611832Y-124146090D01*
X105594562Y-124130438D01*
X105578910Y-124113168D01*
X105565026Y-124094448D01*
X105553044Y-124074457D01*
X105543079Y-124053387D01*
X105535227Y-124031443D01*
X105529563Y-124008834D01*
X105526144Y-123985779D01*
X105525000Y-123962500D01*
X105525000Y-123387500D01*
X105526144Y-123364221D01*
X105529563Y-123341166D01*
X105535227Y-123318557D01*
X105543079Y-123296613D01*
X105553044Y-123275543D01*
X105565026Y-123255552D01*
X105578910Y-123236832D01*
X105594562Y-123219562D01*
X105611832Y-123203910D01*
X105630552Y-123190026D01*
X105650543Y-123178044D01*
X105671613Y-123168079D01*
X105693557Y-123160227D01*
X105716166Y-123154563D01*
X105739221Y-123151144D01*
X105762500Y-123150000D01*
X106237500Y-123150000D01*
X106260779Y-123151144D01*
X106260779Y-123151144D01*
G37*
D11*
G04 #@! TD*
G04 #@! TO.P,R0,1*
G04 #@! TO.N,+3V3*
X106000000Y-123675000D03*
D10*
G04 #@! TO.N,Net-(C0-Pad1)*
G04 #@! TO.C,R0*
G36*
X106260779Y-121401144D02*
X106283834Y-121404563D01*
X106306443Y-121410227D01*
X106328387Y-121418079D01*
X106349457Y-121428044D01*
X106369448Y-121440026D01*
X106388168Y-121453910D01*
X106405438Y-121469562D01*
X106421090Y-121486832D01*
X106434974Y-121505552D01*
X106446956Y-121525543D01*
X106456921Y-121546613D01*
X106464773Y-121568557D01*
X106470437Y-121591166D01*
X106473856Y-121614221D01*
X106475000Y-121637500D01*
X106475000Y-122212500D01*
X106473856Y-122235779D01*
X106470437Y-122258834D01*
X106464773Y-122281443D01*
X106456921Y-122303387D01*
X106446956Y-122324457D01*
X106434974Y-122344448D01*
X106421090Y-122363168D01*
X106405438Y-122380438D01*
X106388168Y-122396090D01*
X106369448Y-122409974D01*
X106349457Y-122421956D01*
X106328387Y-122431921D01*
X106306443Y-122439773D01*
X106283834Y-122445437D01*
X106260779Y-122448856D01*
X106237500Y-122450000D01*
X105762500Y-122450000D01*
X105739221Y-122448856D01*
X105716166Y-122445437D01*
X105693557Y-122439773D01*
X105671613Y-122431921D01*
X105650543Y-122421956D01*
X105630552Y-122409974D01*
X105611832Y-122396090D01*
X105594562Y-122380438D01*
X105578910Y-122363168D01*
X105565026Y-122344448D01*
X105553044Y-122324457D01*
X105543079Y-122303387D01*
X105535227Y-122281443D01*
X105529563Y-122258834D01*
X105526144Y-122235779D01*
X105525000Y-122212500D01*
X105525000Y-121637500D01*
X105526144Y-121614221D01*
X105529563Y-121591166D01*
X105535227Y-121568557D01*
X105543079Y-121546613D01*
X105553044Y-121525543D01*
X105565026Y-121505552D01*
X105578910Y-121486832D01*
X105594562Y-121469562D01*
X105611832Y-121453910D01*
X105630552Y-121440026D01*
X105650543Y-121428044D01*
X105671613Y-121418079D01*
X105693557Y-121410227D01*
X105716166Y-121404563D01*
X105739221Y-121401144D01*
X105762500Y-121400000D01*
X106237500Y-121400000D01*
X106260779Y-121401144D01*
X106260779Y-121401144D01*
G37*
D11*
G04 #@! TD*
G04 #@! TO.P,R0,2*
G04 #@! TO.N,Net-(C0-Pad1)*
X106000000Y-121925000D03*
D14*
G04 #@! TO.P,SW0,1*
G04 #@! TO.N,Net-(C0-Pad1)*
X80600000Y-114511474D03*
D10*
G04 #@! TD*
G04 #@! TO.N,Net-(C0-Pad1)*
G04 #@! TO.C,SW0*
G36*
X79961843Y-113956154D02*
X80438157Y-113681154D01*
X81238157Y-115066794D01*
X80761843Y-115341794D01*
X79961843Y-113956154D01*
X79961843Y-113956154D01*
G37*
D14*
G04 #@! TO.P,SW0,1*
G04 #@! TO.N,Net-(C0-Pad1)*
X77700000Y-109488526D03*
D10*
G04 #@! TD*
G04 #@! TO.N,Net-(C0-Pad1)*
G04 #@! TO.C,SW0*
G36*
X77061843Y-108933206D02*
X77538157Y-108658206D01*
X78338157Y-110043846D01*
X77861843Y-110318846D01*
X77061843Y-108933206D01*
X77061843Y-108933206D01*
G37*
D14*
G04 #@! TO.P,SW0,2*
G04 #@! TO.N,GND*
X76600148Y-110123526D03*
D10*
G04 #@! TD*
G04 #@! TO.N,GND*
G04 #@! TO.C,SW0*
G36*
X75961991Y-109568206D02*
X76438305Y-109293206D01*
X77238305Y-110678846D01*
X76761991Y-110953846D01*
X75961991Y-109568206D01*
X75961991Y-109568206D01*
G37*
D14*
G04 #@! TO.P,SW0,2*
G04 #@! TO.N,GND*
X78799852Y-108853526D03*
D10*
G04 #@! TD*
G04 #@! TO.N,GND*
G04 #@! TO.C,SW0*
G36*
X78161695Y-108298206D02*
X78638009Y-108023206D01*
X79438009Y-109408846D01*
X78961695Y-109683846D01*
X78161695Y-108298206D01*
X78161695Y-108298206D01*
G37*
D14*
G04 #@! TO.P,SW0,2*
G04 #@! TO.N,GND*
X81699852Y-113876474D03*
D10*
G04 #@! TD*
G04 #@! TO.N,GND*
G04 #@! TO.C,SW0*
G36*
X81061695Y-113321154D02*
X81538009Y-113046154D01*
X82338009Y-114431794D01*
X81861695Y-114706794D01*
X81061695Y-113321154D01*
X81061695Y-113321154D01*
G37*
D14*
G04 #@! TO.P,SW0,2*
G04 #@! TO.N,GND*
X79500148Y-115146474D03*
D10*
G04 #@! TD*
G04 #@! TO.N,GND*
G04 #@! TO.C,SW0*
G36*
X78861991Y-114591154D02*
X79338305Y-114316154D01*
X80138305Y-115701794D01*
X79661991Y-115976794D01*
X78861991Y-114591154D01*
X78861991Y-114591154D01*
G37*
D15*
G04 #@! TO.P,SW1,1*
G04 #@! TO.N,Net-(C0-Pad1)*
X102900000Y-76000000D03*
X97100000Y-76000000D03*
G04 #@! TO.P,SW1,2*
G04 #@! TO.N,GND*
X97100000Y-77270000D03*
X97100000Y-74730000D03*
X102900000Y-74730000D03*
X102900000Y-77270000D03*
G04 #@! TD*
D14*
G04 #@! TO.P,SW2,2*
G04 #@! TO.N,GND*
X123349852Y-110123526D03*
D10*
G04 #@! TD*
G04 #@! TO.N,GND*
G04 #@! TO.C,SW2*
G36*
X123188009Y-110953846D02*
X122711695Y-110678846D01*
X123511695Y-109293206D01*
X123988009Y-109568206D01*
X123188009Y-110953846D01*
X123188009Y-110953846D01*
G37*
D14*
G04 #@! TO.P,SW2,2*
G04 #@! TO.N,GND*
X121150148Y-108853526D03*
D10*
G04 #@! TD*
G04 #@! TO.N,GND*
G04 #@! TO.C,SW2*
G36*
X120988305Y-109683846D02*
X120511991Y-109408846D01*
X121311991Y-108023206D01*
X121788305Y-108298206D01*
X120988305Y-109683846D01*
X120988305Y-109683846D01*
G37*
D14*
G04 #@! TO.P,SW2,2*
G04 #@! TO.N,GND*
X118250148Y-113876474D03*
D10*
G04 #@! TD*
G04 #@! TO.N,GND*
G04 #@! TO.C,SW2*
G36*
X118088305Y-114706794D02*
X117611991Y-114431794D01*
X118411991Y-113046154D01*
X118888305Y-113321154D01*
X118088305Y-114706794D01*
X118088305Y-114706794D01*
G37*
D14*
G04 #@! TO.P,SW2,2*
G04 #@! TO.N,GND*
X120449852Y-115146474D03*
D10*
G04 #@! TD*
G04 #@! TO.N,GND*
G04 #@! TO.C,SW2*
G36*
X120288009Y-115976794D02*
X119811695Y-115701794D01*
X120611695Y-114316154D01*
X121088009Y-114591154D01*
X120288009Y-115976794D01*
X120288009Y-115976794D01*
G37*
D14*
G04 #@! TO.P,SW2,1*
G04 #@! TO.N,Net-(C0-Pad1)*
X119350000Y-114511474D03*
D10*
G04 #@! TD*
G04 #@! TO.N,Net-(C0-Pad1)*
G04 #@! TO.C,SW2*
G36*
X119188157Y-115341794D02*
X118711843Y-115066794D01*
X119511843Y-113681154D01*
X119988157Y-113956154D01*
X119188157Y-115341794D01*
X119188157Y-115341794D01*
G37*
D14*
G04 #@! TO.P,SW2,1*
G04 #@! TO.N,Net-(C0-Pad1)*
X122250000Y-109488526D03*
D10*
G04 #@! TD*
G04 #@! TO.N,Net-(C0-Pad1)*
G04 #@! TO.C,SW2*
G36*
X122088157Y-110318846D02*
X121611843Y-110043846D01*
X122411843Y-108658206D01*
X122888157Y-108933206D01*
X122088157Y-110318846D01*
X122088157Y-110318846D01*
G37*
D16*
G04 #@! TO.N,Net-(C0-Pad1)*
X100000000Y-76000000D03*
X100000000Y-74500000D03*
X100000000Y-77500000D03*
X77916352Y-112750000D03*
X122083648Y-112750000D03*
X79215390Y-112000000D03*
X120784610Y-112000000D03*
X80514428Y-111250000D03*
X119485572Y-111250000D03*
X106000000Y-120000000D03*
X94000000Y-120000000D03*
G04 #@! TD*
D17*
G04 #@! TO.N,+3V3*
X103075000Y-123675000D02*
X102000000Y-122600000D01*
X106000000Y-123675000D02*
X103075000Y-123675000D01*
G04 #@! TO.N,Net-(C0-Pad1)*
X102900000Y-76000000D02*
X100000000Y-76000000D01*
X100000000Y-76000000D02*
X97100000Y-76000000D01*
X100000000Y-76000000D02*
X100000000Y-74500000D01*
X100000000Y-76000000D02*
X100000000Y-76565685D01*
X100000000Y-76565685D02*
X100000000Y-77500000D01*
X122250000Y-109488526D02*
X120784610Y-112000000D01*
X119350000Y-114511474D02*
X120784610Y-112000000D01*
X79215390Y-112000000D02*
X80600000Y-114511474D01*
X77700000Y-109488526D02*
X79215390Y-112000000D01*
X79215390Y-112000000D02*
X80514428Y-111250000D01*
X77916352Y-112750000D02*
X79215390Y-112000000D01*
X119485572Y-111250000D02*
X120784610Y-112000000D01*
X120784610Y-112000000D02*
X122083648Y-112750000D01*
X106000000Y-121925000D02*
X106000000Y-120000000D01*
X94000000Y-121925000D02*
X94000000Y-120000000D01*
G04 #@! TD*
D18*
G04 #@! TO.N,GND*
G36*
X102187905Y-73238765D02*
X104190425Y-73478399D01*
X105290000Y-73687636D01*
X105290001Y-80979926D01*
X105331196Y-81187028D01*
X105488120Y-81421881D01*
X105722973Y-81578805D01*
X105802046Y-81594534D01*
X107424037Y-82187314D01*
X108978093Y-82917788D01*
X110461060Y-83783517D01*
X111861194Y-84777642D01*
X113167420Y-85892302D01*
X114369380Y-87118657D01*
X115457579Y-88447019D01*
X116423370Y-89866835D01*
X117259137Y-91366905D01*
X117958240Y-92935318D01*
X118515156Y-94559677D01*
X118925468Y-96227099D01*
X119185933Y-97924405D01*
X119294485Y-99638136D01*
X119250266Y-101354753D01*
X119053035Y-103065761D01*
X118839267Y-104182013D01*
X118814709Y-104254359D01*
X118820233Y-104338642D01*
X118820043Y-104342055D01*
X118822148Y-104405198D01*
X118827391Y-104447846D01*
X118833183Y-104536209D01*
X118872103Y-104615131D01*
X118885784Y-104648473D01*
X118914867Y-104704559D01*
X118920778Y-104713835D01*
X118958110Y-104789536D01*
X119022818Y-104846283D01*
X119030226Y-104854309D01*
X119077035Y-104896739D01*
X119101087Y-104914924D01*
X119116868Y-104928763D01*
X119127873Y-104935117D01*
X119181013Y-104968312D01*
X119216829Y-104986476D01*
X125429336Y-108573269D01*
X124934867Y-109960066D01*
X124117887Y-111801615D01*
X123165134Y-113576712D01*
X122081954Y-115275400D01*
X120873162Y-116889821D01*
X120142176Y-117737456D01*
X117935735Y-116463566D01*
X119861122Y-116463566D01*
X120079897Y-116589875D01*
X120330354Y-116622849D01*
X120574365Y-116557465D01*
X120774781Y-116403681D01*
X121095060Y-115848941D01*
X121036954Y-115632084D01*
X120496337Y-115319959D01*
X119921712Y-116315239D01*
X119979819Y-116532095D01*
X119861122Y-116463566D01*
X117935735Y-116463566D01*
X115736030Y-115193566D01*
X117661418Y-115193566D01*
X117880193Y-115319875D01*
X118130650Y-115352849D01*
X118143232Y-115349478D01*
X118198194Y-115460931D01*
X118388123Y-115627493D01*
X118864437Y-115902493D01*
X119103649Y-115983695D01*
X119227652Y-115975567D01*
X119231023Y-115988150D01*
X119384807Y-116188565D01*
X119484885Y-116246345D01*
X119701742Y-116188239D01*
X120276367Y-115192959D01*
X120259046Y-115182959D01*
X120306948Y-115099989D01*
X120623337Y-115099989D01*
X121163954Y-115412114D01*
X121380810Y-115354007D01*
X121701090Y-114799267D01*
X121734063Y-114548810D01*
X121668681Y-114304798D01*
X121514897Y-114104383D01*
X121414819Y-114046603D01*
X121197962Y-114104709D01*
X120623337Y-115099989D01*
X120306948Y-115099989D01*
X120386046Y-114962989D01*
X120403367Y-114972989D01*
X120977992Y-113977709D01*
X120919885Y-113760853D01*
X121038582Y-113829382D01*
X120828213Y-113707926D01*
X121112082Y-113210976D01*
X121167589Y-113243022D01*
X121206217Y-113336280D01*
X121497368Y-113627431D01*
X121877774Y-113785000D01*
X122289522Y-113785000D01*
X122669928Y-113627431D01*
X122961079Y-113336280D01*
X123118648Y-112955874D01*
X123118648Y-112544126D01*
X122961079Y-112163720D01*
X122669928Y-111872569D01*
X122289522Y-111715000D01*
X122060974Y-111715000D01*
X121997063Y-111678101D01*
X122222174Y-111292291D01*
X122821712Y-111292291D01*
X122879819Y-111509147D01*
X122839451Y-111485841D01*
X122979897Y-111566927D01*
X123230354Y-111599901D01*
X123474365Y-111534517D01*
X123674781Y-111380733D01*
X123995060Y-110825993D01*
X123936954Y-110609136D01*
X123396337Y-110297011D01*
X122821712Y-111292291D01*
X122222174Y-111292291D01*
X122293244Y-111170488D01*
X122384885Y-111223397D01*
X122601742Y-111165291D01*
X123176367Y-110170011D01*
X123159046Y-110160011D01*
X123206948Y-110077041D01*
X123523337Y-110077041D01*
X124063954Y-110389166D01*
X124280810Y-110331059D01*
X124601090Y-109776319D01*
X124634063Y-109525862D01*
X124568681Y-109281850D01*
X124414897Y-109081435D01*
X124314819Y-109023655D01*
X124097962Y-109081761D01*
X123523337Y-110077041D01*
X123206948Y-110077041D01*
X123286046Y-109940041D01*
X123303367Y-109950041D01*
X123877992Y-108954761D01*
X123819885Y-108737905D01*
X123938582Y-108806434D01*
X123719807Y-108680125D01*
X123469350Y-108647151D01*
X123456768Y-108650522D01*
X123401806Y-108539069D01*
X123211877Y-108372507D01*
X122735563Y-108097507D01*
X122496351Y-108016305D01*
X122372348Y-108024433D01*
X122368977Y-108011850D01*
X122215193Y-107811435D01*
X122115115Y-107753655D01*
X121898258Y-107811761D01*
X121323633Y-108807041D01*
X121340954Y-108817041D01*
X121213954Y-109037011D01*
X121196633Y-109027011D01*
X120622008Y-110022291D01*
X120680115Y-110239147D01*
X120760363Y-110285478D01*
X120464182Y-110793092D01*
X120401632Y-110756978D01*
X120363003Y-110663720D01*
X120071852Y-110372569D01*
X119691446Y-110215000D01*
X119279698Y-110215000D01*
X118899292Y-110372569D01*
X118608141Y-110663720D01*
X118450572Y-111044126D01*
X118450572Y-111455874D01*
X118608141Y-111836280D01*
X118899292Y-112127431D01*
X119279698Y-112285000D01*
X119508246Y-112285000D01*
X119579202Y-112325966D01*
X119295333Y-112822917D01*
X119215115Y-112776603D01*
X118998258Y-112834709D01*
X118423633Y-113829989D01*
X118440954Y-113839989D01*
X118313954Y-114059959D01*
X118296633Y-114049959D01*
X117722008Y-115045239D01*
X117780115Y-115262095D01*
X117661418Y-115193566D01*
X115736030Y-115193566D01*
X114489944Y-114474138D01*
X116965937Y-114474138D01*
X117031319Y-114718150D01*
X117185103Y-114918565D01*
X117285181Y-114976345D01*
X117502038Y-114918239D01*
X118076663Y-113922959D01*
X117536046Y-113610834D01*
X117319190Y-113668941D01*
X116998910Y-114223681D01*
X116965937Y-114474138D01*
X114489944Y-114474138D01*
X114005338Y-114194351D01*
X113998564Y-114187429D01*
X113950538Y-114146383D01*
X113899052Y-114109767D01*
X113844515Y-114077874D01*
X113787360Y-114050955D01*
X113728038Y-114029223D01*
X113667018Y-114012851D01*
X113604786Y-114001968D01*
X113541832Y-113996660D01*
X113478654Y-113996969D01*
X113415755Y-114002893D01*
X113353632Y-114014385D01*
X113292776Y-114031354D01*
X113233670Y-114053665D01*
X113176780Y-114081143D01*
X113122558Y-114113569D01*
X113071434Y-114150686D01*
X113057047Y-114162454D01*
X111720463Y-115285193D01*
X110315306Y-116266557D01*
X108824604Y-117121343D01*
X107774761Y-117620894D01*
X107722972Y-117631195D01*
X107488119Y-117788120D01*
X107331195Y-118022973D01*
X107290000Y-118230075D01*
X107290001Y-124590000D01*
X106860623Y-124590000D01*
X106863247Y-124588247D01*
X107055078Y-124301152D01*
X107122440Y-123962500D01*
X107122440Y-123387500D01*
X107055078Y-123048848D01*
X106888803Y-122800000D01*
X107055078Y-122551152D01*
X107122440Y-122212500D01*
X107122440Y-121637500D01*
X107055078Y-121298848D01*
X106885000Y-121044309D01*
X106885000Y-120568007D01*
X107035000Y-120205874D01*
X107035000Y-119794126D01*
X106877431Y-119413720D01*
X106586280Y-119122569D01*
X106205874Y-118965000D01*
X105794126Y-118965000D01*
X105413720Y-119122569D01*
X105122569Y-119413720D01*
X104965000Y-119794126D01*
X104965000Y-120205874D01*
X105115001Y-120568008D01*
X105115000Y-121044308D01*
X104944922Y-121298848D01*
X104877560Y-121637500D01*
X104877560Y-122212500D01*
X104944922Y-122551152D01*
X105104515Y-122790000D01*
X103441579Y-122790000D01*
X103247440Y-122595861D01*
X103247440Y-121974999D01*
X103179127Y-121631564D01*
X102984586Y-121340414D01*
X102693436Y-121145873D01*
X102350001Y-121077560D01*
X101649999Y-121077560D01*
X101306564Y-121145873D01*
X101015414Y-121340414D01*
X100921428Y-121481074D01*
X100890385Y-121434615D01*
X100481873Y-121161656D01*
X100000000Y-121065805D01*
X99518128Y-121161656D01*
X99109616Y-121434615D01*
X98990833Y-121612385D01*
X98783474Y-121361920D01*
X98355281Y-121135408D01*
X98317609Y-121131538D01*
X98127000Y-121256269D01*
X98127000Y-122473000D01*
X98147000Y-122473000D01*
X98147000Y-122727000D01*
X98127000Y-122727000D01*
X98127000Y-123943731D01*
X98317609Y-124068462D01*
X98355281Y-124064592D01*
X98783474Y-123838080D01*
X98990833Y-123587615D01*
X99109615Y-123765385D01*
X99518127Y-124038344D01*
X100000000Y-124134195D01*
X100481872Y-124038344D01*
X100890385Y-123765385D01*
X100921428Y-123718926D01*
X101015414Y-123859586D01*
X101306564Y-124054127D01*
X101649999Y-124122440D01*
X102270861Y-124122440D01*
X102387577Y-124239156D01*
X102436951Y-124313049D01*
X102510844Y-124362423D01*
X102510845Y-124362424D01*
X102729690Y-124508652D01*
X102987835Y-124560000D01*
X102987839Y-124560000D01*
X103075000Y-124577337D01*
X103162161Y-124560000D01*
X105117879Y-124560000D01*
X105136753Y-124588247D01*
X105139377Y-124590000D01*
X94983025Y-124590000D01*
X95013327Y-124559698D01*
X95110000Y-124326309D01*
X95110000Y-123960750D01*
X94951250Y-123802000D01*
X94127000Y-123802000D01*
X94127000Y-123822000D01*
X93873000Y-123822000D01*
X93873000Y-123802000D01*
X93048750Y-123802000D01*
X92890000Y-123960750D01*
X92890000Y-124326309D01*
X92986673Y-124559698D01*
X93016975Y-124590000D01*
X92710000Y-124590000D01*
X92710000Y-121637500D01*
X92877560Y-121637500D01*
X92877560Y-122212500D01*
X92944922Y-122551152D01*
X93057435Y-122719540D01*
X92986673Y-122790302D01*
X92890000Y-123023691D01*
X92890000Y-123389250D01*
X93048750Y-123548000D01*
X93873000Y-123548000D01*
X93873000Y-123528000D01*
X94127000Y-123528000D01*
X94127000Y-123548000D01*
X94951250Y-123548000D01*
X95110000Y-123389250D01*
X95110000Y-123023691D01*
X95013327Y-122790302D01*
X94950025Y-122727000D01*
X96765000Y-122727000D01*
X96765000Y-123002000D01*
X96907610Y-123464947D01*
X97216526Y-123838080D01*
X97644719Y-124064592D01*
X97682391Y-124068462D01*
X97873000Y-123943731D01*
X97873000Y-122727000D01*
X96765000Y-122727000D01*
X94950025Y-122727000D01*
X94942565Y-122719540D01*
X95055078Y-122551152D01*
X95122440Y-122212500D01*
X95122440Y-122198000D01*
X96765000Y-122198000D01*
X96765000Y-122473000D01*
X97873000Y-122473000D01*
X97873000Y-121256269D01*
X97682391Y-121131538D01*
X97644719Y-121135408D01*
X97216526Y-121361920D01*
X96907610Y-121735053D01*
X96765000Y-122198000D01*
X95122440Y-122198000D01*
X95122440Y-121637500D01*
X95055078Y-121298848D01*
X94885000Y-121044309D01*
X94885000Y-120568007D01*
X95035000Y-120205874D01*
X95035000Y-119794126D01*
X94877431Y-119413720D01*
X94586280Y-119122569D01*
X94205874Y-118965000D01*
X93794126Y-118965000D01*
X93413720Y-119122569D01*
X93122569Y-119413720D01*
X92965000Y-119794126D01*
X92965000Y-120205874D01*
X93115001Y-120568008D01*
X93115000Y-121044308D01*
X92944922Y-121298848D01*
X92877560Y-121637500D01*
X92710000Y-121637500D01*
X92710000Y-118270074D01*
X92668805Y-118062972D01*
X92511880Y-117828119D01*
X92277027Y-117671195D01*
X92138072Y-117643555D01*
X90717529Y-116945701D01*
X89247891Y-116053451D01*
X87859296Y-115031074D01*
X87078200Y-114360613D01*
X86908263Y-114166837D01*
X86654936Y-114041910D01*
X86373086Y-114023436D01*
X86173132Y-114091311D01*
X79860663Y-117735817D01*
X78906892Y-116614192D01*
X78349351Y-115848941D01*
X78854940Y-115848941D01*
X79175219Y-116403681D01*
X79375635Y-116557465D01*
X79619646Y-116622849D01*
X79870103Y-116589875D01*
X80088878Y-116463566D01*
X79970181Y-116532095D01*
X80028288Y-116315239D01*
X79453663Y-115319959D01*
X78913046Y-115632084D01*
X78854940Y-115848941D01*
X78349351Y-115848941D01*
X77720563Y-114985902D01*
X77449807Y-114548810D01*
X78215937Y-114548810D01*
X78248910Y-114799267D01*
X78569190Y-115354007D01*
X78786046Y-115412114D01*
X79326663Y-115099989D01*
X78752038Y-114104709D01*
X78535181Y-114046603D01*
X78435103Y-114104383D01*
X78281319Y-114304798D01*
X78215937Y-114548810D01*
X77449807Y-114548810D01*
X76659646Y-113273224D01*
X75730141Y-111485841D01*
X75447657Y-110825993D01*
X75954940Y-110825993D01*
X76275219Y-111380733D01*
X76475635Y-111534517D01*
X76719646Y-111599901D01*
X76970103Y-111566927D01*
X77110549Y-111485841D01*
X77070181Y-111509147D01*
X77128288Y-111292291D01*
X76553663Y-110297011D01*
X76013046Y-110609136D01*
X75954940Y-110825993D01*
X75447657Y-110825993D01*
X74936410Y-109631789D01*
X74899469Y-109525862D01*
X75315937Y-109525862D01*
X75348910Y-109776319D01*
X75669190Y-110331059D01*
X75886046Y-110389166D01*
X76426663Y-110077041D01*
X75852038Y-109081761D01*
X75635181Y-109023655D01*
X75535103Y-109081435D01*
X75381319Y-109281850D01*
X75315937Y-109525862D01*
X74899469Y-109525862D01*
X74648570Y-108806434D01*
X76011418Y-108806434D01*
X76130115Y-108737905D01*
X76072008Y-108954761D01*
X76646633Y-109950041D01*
X76663954Y-109940041D01*
X76790954Y-110160011D01*
X76773633Y-110170011D01*
X77348258Y-111165291D01*
X77565115Y-111223397D01*
X77665193Y-111165617D01*
X77672537Y-111156047D01*
X77991516Y-111684695D01*
X77939026Y-111715000D01*
X77710478Y-111715000D01*
X77330072Y-111872569D01*
X77038921Y-112163720D01*
X76881352Y-112544126D01*
X76881352Y-112955874D01*
X77038921Y-113336280D01*
X77330072Y-113627431D01*
X77710478Y-113785000D01*
X78122226Y-113785000D01*
X78502632Y-113627431D01*
X78793783Y-113336280D01*
X78832412Y-113243022D01*
X78876171Y-113217757D01*
X79142816Y-113701411D01*
X79130193Y-113703073D01*
X78911418Y-113829382D01*
X79030115Y-113760853D01*
X78972008Y-113977709D01*
X79546633Y-114972989D01*
X79563954Y-114962989D01*
X79690954Y-115182959D01*
X79673633Y-115192959D01*
X80248258Y-116188239D01*
X80465115Y-116246345D01*
X80565193Y-116188565D01*
X80718977Y-115988150D01*
X80722348Y-115975567D01*
X80846351Y-115983695D01*
X81085563Y-115902493D01*
X81561877Y-115627493D01*
X81751806Y-115460930D01*
X81806768Y-115349478D01*
X81819350Y-115352849D01*
X82069807Y-115319875D01*
X82288582Y-115193566D01*
X82169885Y-115262095D01*
X82227992Y-115045239D01*
X81653367Y-114049959D01*
X81636046Y-114059959D01*
X81556949Y-113922959D01*
X81873337Y-113922959D01*
X82447962Y-114918239D01*
X82664819Y-114976345D01*
X82764897Y-114918565D01*
X82918681Y-114718150D01*
X82984063Y-114474138D01*
X82951090Y-114223681D01*
X82630810Y-113668941D01*
X82413954Y-113610834D01*
X81873337Y-113922959D01*
X81556949Y-113922959D01*
X81509046Y-113839989D01*
X81526367Y-113829989D01*
X80951742Y-112834709D01*
X80734885Y-112776603D01*
X80673626Y-112811971D01*
X80525960Y-112544126D01*
X81137546Y-112544126D01*
X81229819Y-112490853D01*
X81171712Y-112707709D01*
X81746337Y-113702989D01*
X82286954Y-113390864D01*
X82345060Y-113174007D01*
X117604940Y-113174007D01*
X117663046Y-113390864D01*
X118203663Y-113702989D01*
X118778288Y-112707709D01*
X118720181Y-112490853D01*
X118812454Y-112544126D01*
X118620103Y-112433073D01*
X118369646Y-112400099D01*
X118125635Y-112465483D01*
X117925219Y-112619267D01*
X117604940Y-113174007D01*
X82345060Y-113174007D01*
X82024781Y-112619267D01*
X81824365Y-112465483D01*
X81580354Y-112400099D01*
X81329897Y-112433073D01*
X81137546Y-112544126D01*
X80525960Y-112544126D01*
X80409334Y-112332585D01*
X80491754Y-112285000D01*
X80720302Y-112285000D01*
X81100708Y-112127431D01*
X81391859Y-111836280D01*
X81549428Y-111455874D01*
X81549428Y-111044126D01*
X81391859Y-110663720D01*
X81100708Y-110372569D01*
X80720302Y-110215000D01*
X80308554Y-110215000D01*
X79928148Y-110372569D01*
X79636997Y-110663720D01*
X79598369Y-110756978D01*
X79524666Y-110799530D01*
X79208071Y-110274835D01*
X79269885Y-110239147D01*
X79327992Y-110022291D01*
X78753367Y-109027011D01*
X78736046Y-109037011D01*
X78656949Y-108900011D01*
X78973337Y-108900011D01*
X79547962Y-109895291D01*
X79764819Y-109953397D01*
X79864897Y-109895617D01*
X80018681Y-109695202D01*
X80084063Y-109451190D01*
X80051090Y-109200733D01*
X79730810Y-108645993D01*
X79513954Y-108587886D01*
X78973337Y-108900011D01*
X78656949Y-108900011D01*
X78609046Y-108817041D01*
X78626367Y-108807041D01*
X78051742Y-107811761D01*
X77834885Y-107753655D01*
X77734807Y-107811435D01*
X77581023Y-108011850D01*
X77577652Y-108024433D01*
X77453649Y-108016305D01*
X77214437Y-108097507D01*
X76738123Y-108372507D01*
X76548194Y-108539070D01*
X76493232Y-108650522D01*
X76480650Y-108647151D01*
X76230193Y-108680125D01*
X76011418Y-108806434D01*
X74648570Y-108806434D01*
X74567825Y-108574908D01*
X76366514Y-107536434D01*
X78211122Y-107536434D01*
X78329819Y-107467905D01*
X78271712Y-107684761D01*
X78846337Y-108680041D01*
X79386954Y-108367916D01*
X79445060Y-108151059D01*
X79124781Y-107596319D01*
X78924365Y-107442535D01*
X78680354Y-107377151D01*
X78429897Y-107410125D01*
X78211122Y-107536434D01*
X76366514Y-107536434D01*
X77679216Y-106778545D01*
X83382619Y-106778545D01*
X83382619Y-108221455D01*
X83934797Y-109554530D01*
X84955089Y-110574822D01*
X86288164Y-111127000D01*
X87731074Y-111127000D01*
X89064149Y-110574822D01*
X90084441Y-109554530D01*
X90636619Y-108221455D01*
X90636619Y-106778545D01*
X90084441Y-105445470D01*
X89064149Y-104425178D01*
X87731074Y-103873000D01*
X86288164Y-103873000D01*
X84955089Y-104425178D01*
X83934797Y-105445470D01*
X83382619Y-106778545D01*
X77679216Y-106778545D01*
X80883133Y-104928763D01*
X81041891Y-104789536D01*
X81166817Y-104536210D01*
X81185291Y-104254359D01*
X81159378Y-104178022D01*
X80861745Y-102476941D01*
X80717325Y-100765850D01*
X80721008Y-100000000D01*
X89245000Y-100000000D01*
X89329806Y-101347959D01*
X89582888Y-102674660D01*
X90000254Y-103959180D01*
X90575322Y-105181261D01*
X91299022Y-106321630D01*
X92159942Y-107362304D01*
X93144505Y-108286870D01*
X94237183Y-109080747D01*
X95420744Y-109731415D01*
X96676522Y-110228613D01*
X97984714Y-110564499D01*
X99324688Y-110733777D01*
X100675312Y-110733777D01*
X102015286Y-110564499D01*
X103323478Y-110228613D01*
X104579256Y-109731415D01*
X105762817Y-109080747D01*
X106855495Y-108286870D01*
X107840058Y-107362304D01*
X108322985Y-106778545D01*
X109363381Y-106778545D01*
X109363381Y-108221455D01*
X109915559Y-109554530D01*
X110935851Y-110574822D01*
X112268926Y-111127000D01*
X113711836Y-111127000D01*
X115044911Y-110574822D01*
X116065203Y-109554530D01*
X116108007Y-109451190D01*
X119865937Y-109451190D01*
X119931319Y-109695202D01*
X120085103Y-109895617D01*
X120185181Y-109953397D01*
X120402038Y-109895291D01*
X120976663Y-108900011D01*
X120436046Y-108587886D01*
X120219190Y-108645993D01*
X119898910Y-109200733D01*
X119865937Y-109451190D01*
X116108007Y-109451190D01*
X116617381Y-108221455D01*
X116617381Y-108151059D01*
X120504940Y-108151059D01*
X120563046Y-108367916D01*
X121103663Y-108680041D01*
X121678288Y-107684761D01*
X121620181Y-107467905D01*
X121738878Y-107536434D01*
X121520103Y-107410125D01*
X121269646Y-107377151D01*
X121025635Y-107442535D01*
X120825219Y-107596319D01*
X120504940Y-108151059D01*
X116617381Y-108151059D01*
X116617381Y-106778545D01*
X116065203Y-105445470D01*
X115044911Y-104425178D01*
X113711836Y-103873000D01*
X112268926Y-103873000D01*
X110935851Y-104425178D01*
X109915559Y-105445470D01*
X109363381Y-106778545D01*
X108322985Y-106778545D01*
X108700978Y-106321630D01*
X109424678Y-105181261D01*
X109999746Y-103959180D01*
X110417112Y-102674660D01*
X110670194Y-101347959D01*
X110755000Y-100000000D01*
X110670194Y-98652041D01*
X110417112Y-97325340D01*
X109999746Y-96040820D01*
X109424678Y-94818739D01*
X108700978Y-93678370D01*
X107840058Y-92637696D01*
X106855495Y-91713130D01*
X105762817Y-90919253D01*
X104579256Y-90268585D01*
X103323478Y-89771387D01*
X102015286Y-89435501D01*
X100675312Y-89266223D01*
X99324688Y-89266223D01*
X97984714Y-89435501D01*
X96676522Y-89771387D01*
X95420744Y-90268585D01*
X94237183Y-90919253D01*
X93144505Y-91713130D01*
X92159942Y-92637696D01*
X91299022Y-93678370D01*
X90575322Y-94818739D01*
X90000254Y-96040820D01*
X89582888Y-97325340D01*
X89329806Y-98652041D01*
X89245000Y-100000000D01*
X80721008Y-100000000D01*
X80725584Y-99048695D01*
X80886454Y-97339087D01*
X81198665Y-95650533D01*
X81659741Y-93996416D01*
X82266031Y-92389846D01*
X83012740Y-90843522D01*
X83893949Y-89369702D01*
X84902689Y-87980046D01*
X86030960Y-86685570D01*
X87269843Y-85496512D01*
X88609514Y-84422294D01*
X88825673Y-84278545D01*
X96373000Y-84278545D01*
X96373000Y-85721455D01*
X96925178Y-87054530D01*
X97945470Y-88074822D01*
X99278545Y-88627000D01*
X100721455Y-88627000D01*
X102054530Y-88074822D01*
X103074822Y-87054530D01*
X103627000Y-85721455D01*
X103627000Y-84278545D01*
X103074822Y-82945470D01*
X102054530Y-81925178D01*
X100721455Y-81373000D01*
X99278545Y-81373000D01*
X97945470Y-81925178D01*
X96925178Y-82945470D01*
X96373000Y-84278545D01*
X88825673Y-84278545D01*
X90039377Y-83471417D01*
X91548116Y-82651405D01*
X93128514Y-81966706D01*
X94202098Y-81593709D01*
X94277028Y-81578805D01*
X94347261Y-81531877D01*
X94350308Y-81530337D01*
X94403939Y-81496943D01*
X94438247Y-81471082D01*
X94511881Y-81421881D01*
X94560767Y-81348717D01*
X94582804Y-81320196D01*
X94616834Y-81266966D01*
X94621911Y-81257210D01*
X94668805Y-81187028D01*
X94685596Y-81102613D01*
X94688842Y-81092186D01*
X94702183Y-81030433D01*
X94705905Y-81000512D01*
X94710000Y-80979926D01*
X94710000Y-80967222D01*
X94712178Y-80904600D01*
X94710000Y-80864507D01*
X94710000Y-77555750D01*
X95665000Y-77555750D01*
X95665000Y-77671310D01*
X95761673Y-77904699D01*
X95940302Y-78083327D01*
X96173691Y-78180000D01*
X96814250Y-78180000D01*
X96973000Y-78021250D01*
X96973000Y-77397000D01*
X97227000Y-77397000D01*
X97227000Y-78021250D01*
X97385750Y-78180000D01*
X98026309Y-78180000D01*
X98259698Y-78083327D01*
X98438327Y-77904699D01*
X98535000Y-77671310D01*
X98535000Y-77555750D01*
X98376250Y-77397000D01*
X97227000Y-77397000D01*
X96973000Y-77397000D01*
X95823750Y-77397000D01*
X95665000Y-77555750D01*
X94710000Y-77555750D01*
X94710000Y-75725000D01*
X95652560Y-75725000D01*
X95652560Y-76275000D01*
X95701843Y-76522765D01*
X95770883Y-76626091D01*
X95761673Y-76635301D01*
X95665000Y-76868690D01*
X95665000Y-76984250D01*
X95823750Y-77143000D01*
X96973000Y-77143000D01*
X96973000Y-77123000D01*
X97227000Y-77123000D01*
X97227000Y-77143000D01*
X98376250Y-77143000D01*
X98535000Y-76984250D01*
X98535000Y-76885000D01*
X99115000Y-76885000D01*
X99115000Y-76931992D01*
X98965000Y-77294126D01*
X98965000Y-77705874D01*
X99122569Y-78086280D01*
X99413720Y-78377431D01*
X99794126Y-78535000D01*
X100205874Y-78535000D01*
X100586280Y-78377431D01*
X100877431Y-78086280D01*
X101035000Y-77705874D01*
X101035000Y-77555750D01*
X101465000Y-77555750D01*
X101465000Y-77671310D01*
X101561673Y-77904699D01*
X101740302Y-78083327D01*
X101973691Y-78180000D01*
X102614250Y-78180000D01*
X102773000Y-78021250D01*
X102773000Y-77397000D01*
X103027000Y-77397000D01*
X103027000Y-78021250D01*
X103185750Y-78180000D01*
X103826309Y-78180000D01*
X104059698Y-78083327D01*
X104238327Y-77904699D01*
X104335000Y-77671310D01*
X104335000Y-77555750D01*
X104176250Y-77397000D01*
X103027000Y-77397000D01*
X102773000Y-77397000D01*
X101623750Y-77397000D01*
X101465000Y-77555750D01*
X101035000Y-77555750D01*
X101035000Y-77294126D01*
X100885000Y-76931993D01*
X100885000Y-76885000D01*
X101465000Y-76885000D01*
X101465000Y-76984250D01*
X101623750Y-77143000D01*
X102773000Y-77143000D01*
X102773000Y-77123000D01*
X103027000Y-77123000D01*
X103027000Y-77143000D01*
X104176250Y-77143000D01*
X104335000Y-76984250D01*
X104335000Y-76868690D01*
X104238327Y-76635301D01*
X104229117Y-76626091D01*
X104298157Y-76522765D01*
X104347440Y-76275000D01*
X104347440Y-75725000D01*
X104298157Y-75477235D01*
X104229117Y-75373909D01*
X104238327Y-75364699D01*
X104335000Y-75131310D01*
X104335000Y-75015750D01*
X104176250Y-74857000D01*
X103027000Y-74857000D01*
X103027000Y-74877000D01*
X102773000Y-74877000D01*
X102773000Y-74857000D01*
X101623750Y-74857000D01*
X101465000Y-75015750D01*
X101465000Y-75115000D01*
X100885000Y-75115000D01*
X100885000Y-75068007D01*
X101035000Y-74705874D01*
X101035000Y-74328690D01*
X101465000Y-74328690D01*
X101465000Y-74444250D01*
X101623750Y-74603000D01*
X102773000Y-74603000D01*
X102773000Y-73978750D01*
X103027000Y-73978750D01*
X103027000Y-74603000D01*
X104176250Y-74603000D01*
X104335000Y-74444250D01*
X104335000Y-74328690D01*
X104238327Y-74095301D01*
X104059698Y-73916673D01*
X103826309Y-73820000D01*
X103185750Y-73820000D01*
X103027000Y-73978750D01*
X102773000Y-73978750D01*
X102614250Y-73820000D01*
X101973691Y-73820000D01*
X101740302Y-73916673D01*
X101561673Y-74095301D01*
X101465000Y-74328690D01*
X101035000Y-74328690D01*
X101035000Y-74294126D01*
X100877431Y-73913720D01*
X100586280Y-73622569D01*
X100205874Y-73465000D01*
X99794126Y-73465000D01*
X99413720Y-73622569D01*
X99122569Y-73913720D01*
X98965000Y-74294126D01*
X98965000Y-74705874D01*
X99115001Y-75068008D01*
X99115001Y-75115000D01*
X98535000Y-75115000D01*
X98535000Y-75015750D01*
X98376250Y-74857000D01*
X97227000Y-74857000D01*
X97227000Y-74877000D01*
X96973000Y-74877000D01*
X96973000Y-74857000D01*
X95823750Y-74857000D01*
X95665000Y-75015750D01*
X95665000Y-75131310D01*
X95761673Y-75364699D01*
X95770883Y-75373909D01*
X95701843Y-75477235D01*
X95652560Y-75725000D01*
X94710000Y-75725000D01*
X94710000Y-74328690D01*
X95665000Y-74328690D01*
X95665000Y-74444250D01*
X95823750Y-74603000D01*
X96973000Y-74603000D01*
X96973000Y-73978750D01*
X97227000Y-73978750D01*
X97227000Y-74603000D01*
X98376250Y-74603000D01*
X98535000Y-74444250D01*
X98535000Y-74328690D01*
X98438327Y-74095301D01*
X98259698Y-73916673D01*
X98026309Y-73820000D01*
X97385750Y-73820000D01*
X97227000Y-73978750D01*
X96973000Y-73978750D01*
X96814250Y-73820000D01*
X96173691Y-73820000D01*
X95940302Y-73916673D01*
X95761673Y-74095301D01*
X95665000Y-74328690D01*
X94710000Y-74328690D01*
X94710000Y-73690914D01*
X96158236Y-73425737D01*
X98161547Y-73212490D01*
X100175226Y-73150049D01*
X102187905Y-73238765D01*
X102187905Y-73238765D01*
G37*
X102187905Y-73238765D02*
X104190425Y-73478399D01*
X105290000Y-73687636D01*
X105290001Y-80979926D01*
X105331196Y-81187028D01*
X105488120Y-81421881D01*
X105722973Y-81578805D01*
X105802046Y-81594534D01*
X107424037Y-82187314D01*
X108978093Y-82917788D01*
X110461060Y-83783517D01*
X111861194Y-84777642D01*
X113167420Y-85892302D01*
X114369380Y-87118657D01*
X115457579Y-88447019D01*
X116423370Y-89866835D01*
X117259137Y-91366905D01*
X117958240Y-92935318D01*
X118515156Y-94559677D01*
X118925468Y-96227099D01*
X119185933Y-97924405D01*
X119294485Y-99638136D01*
X119250266Y-101354753D01*
X119053035Y-103065761D01*
X118839267Y-104182013D01*
X118814709Y-104254359D01*
X118820233Y-104338642D01*
X118820043Y-104342055D01*
X118822148Y-104405198D01*
X118827391Y-104447846D01*
X118833183Y-104536209D01*
X118872103Y-104615131D01*
X118885784Y-104648473D01*
X118914867Y-104704559D01*
X118920778Y-104713835D01*
X118958110Y-104789536D01*
X119022818Y-104846283D01*
X119030226Y-104854309D01*
X119077035Y-104896739D01*
X119101087Y-104914924D01*
X119116868Y-104928763D01*
X119127873Y-104935117D01*
X119181013Y-104968312D01*
X119216829Y-104986476D01*
X125429336Y-108573269D01*
X124934867Y-109960066D01*
X124117887Y-111801615D01*
X123165134Y-113576712D01*
X122081954Y-115275400D01*
X120873162Y-116889821D01*
X120142176Y-117737456D01*
X117935735Y-116463566D01*
X119861122Y-116463566D01*
X120079897Y-116589875D01*
X120330354Y-116622849D01*
X120574365Y-116557465D01*
X120774781Y-116403681D01*
X121095060Y-115848941D01*
X121036954Y-115632084D01*
X120496337Y-115319959D01*
X119921712Y-116315239D01*
X119979819Y-116532095D01*
X119861122Y-116463566D01*
X117935735Y-116463566D01*
X115736030Y-115193566D01*
X117661418Y-115193566D01*
X117880193Y-115319875D01*
X118130650Y-115352849D01*
X118143232Y-115349478D01*
X118198194Y-115460931D01*
X118388123Y-115627493D01*
X118864437Y-115902493D01*
X119103649Y-115983695D01*
X119227652Y-115975567D01*
X119231023Y-115988150D01*
X119384807Y-116188565D01*
X119484885Y-116246345D01*
X119701742Y-116188239D01*
X120276367Y-115192959D01*
X120259046Y-115182959D01*
X120306948Y-115099989D01*
X120623337Y-115099989D01*
X121163954Y-115412114D01*
X121380810Y-115354007D01*
X121701090Y-114799267D01*
X121734063Y-114548810D01*
X121668681Y-114304798D01*
X121514897Y-114104383D01*
X121414819Y-114046603D01*
X121197962Y-114104709D01*
X120623337Y-115099989D01*
X120306948Y-115099989D01*
X120386046Y-114962989D01*
X120403367Y-114972989D01*
X120977992Y-113977709D01*
X120919885Y-113760853D01*
X121038582Y-113829382D01*
X120828213Y-113707926D01*
X121112082Y-113210976D01*
X121167589Y-113243022D01*
X121206217Y-113336280D01*
X121497368Y-113627431D01*
X121877774Y-113785000D01*
X122289522Y-113785000D01*
X122669928Y-113627431D01*
X122961079Y-113336280D01*
X123118648Y-112955874D01*
X123118648Y-112544126D01*
X122961079Y-112163720D01*
X122669928Y-111872569D01*
X122289522Y-111715000D01*
X122060974Y-111715000D01*
X121997063Y-111678101D01*
X122222174Y-111292291D01*
X122821712Y-111292291D01*
X122879819Y-111509147D01*
X122839451Y-111485841D01*
X122979897Y-111566927D01*
X123230354Y-111599901D01*
X123474365Y-111534517D01*
X123674781Y-111380733D01*
X123995060Y-110825993D01*
X123936954Y-110609136D01*
X123396337Y-110297011D01*
X122821712Y-111292291D01*
X122222174Y-111292291D01*
X122293244Y-111170488D01*
X122384885Y-111223397D01*
X122601742Y-111165291D01*
X123176367Y-110170011D01*
X123159046Y-110160011D01*
X123206948Y-110077041D01*
X123523337Y-110077041D01*
X124063954Y-110389166D01*
X124280810Y-110331059D01*
X124601090Y-109776319D01*
X124634063Y-109525862D01*
X124568681Y-109281850D01*
X124414897Y-109081435D01*
X124314819Y-109023655D01*
X124097962Y-109081761D01*
X123523337Y-110077041D01*
X123206948Y-110077041D01*
X123286046Y-109940041D01*
X123303367Y-109950041D01*
X123877992Y-108954761D01*
X123819885Y-108737905D01*
X123938582Y-108806434D01*
X123719807Y-108680125D01*
X123469350Y-108647151D01*
X123456768Y-108650522D01*
X123401806Y-108539069D01*
X123211877Y-108372507D01*
X122735563Y-108097507D01*
X122496351Y-108016305D01*
X122372348Y-108024433D01*
X122368977Y-108011850D01*
X122215193Y-107811435D01*
X122115115Y-107753655D01*
X121898258Y-107811761D01*
X121323633Y-108807041D01*
X121340954Y-108817041D01*
X121213954Y-109037011D01*
X121196633Y-109027011D01*
X120622008Y-110022291D01*
X120680115Y-110239147D01*
X120760363Y-110285478D01*
X120464182Y-110793092D01*
X120401632Y-110756978D01*
X120363003Y-110663720D01*
X120071852Y-110372569D01*
X119691446Y-110215000D01*
X119279698Y-110215000D01*
X118899292Y-110372569D01*
X118608141Y-110663720D01*
X118450572Y-111044126D01*
X118450572Y-111455874D01*
X118608141Y-111836280D01*
X118899292Y-112127431D01*
X119279698Y-112285000D01*
X119508246Y-112285000D01*
X119579202Y-112325966D01*
X119295333Y-112822917D01*
X119215115Y-112776603D01*
X118998258Y-112834709D01*
X118423633Y-113829989D01*
X118440954Y-113839989D01*
X118313954Y-114059959D01*
X118296633Y-114049959D01*
X117722008Y-115045239D01*
X117780115Y-115262095D01*
X117661418Y-115193566D01*
X115736030Y-115193566D01*
X114489944Y-114474138D01*
X116965937Y-114474138D01*
X117031319Y-114718150D01*
X117185103Y-114918565D01*
X117285181Y-114976345D01*
X117502038Y-114918239D01*
X118076663Y-113922959D01*
X117536046Y-113610834D01*
X117319190Y-113668941D01*
X116998910Y-114223681D01*
X116965937Y-114474138D01*
X114489944Y-114474138D01*
X114005338Y-114194351D01*
X113998564Y-114187429D01*
X113950538Y-114146383D01*
X113899052Y-114109767D01*
X113844515Y-114077874D01*
X113787360Y-114050955D01*
X113728038Y-114029223D01*
X113667018Y-114012851D01*
X113604786Y-114001968D01*
X113541832Y-113996660D01*
X113478654Y-113996969D01*
X113415755Y-114002893D01*
X113353632Y-114014385D01*
X113292776Y-114031354D01*
X113233670Y-114053665D01*
X113176780Y-114081143D01*
X113122558Y-114113569D01*
X113071434Y-114150686D01*
X113057047Y-114162454D01*
X111720463Y-115285193D01*
X110315306Y-116266557D01*
X108824604Y-117121343D01*
X107774761Y-117620894D01*
X107722972Y-117631195D01*
X107488119Y-117788120D01*
X107331195Y-118022973D01*
X107290000Y-118230075D01*
X107290001Y-124590000D01*
X106860623Y-124590000D01*
X106863247Y-124588247D01*
X107055078Y-124301152D01*
X107122440Y-123962500D01*
X107122440Y-123387500D01*
X107055078Y-123048848D01*
X106888803Y-122800000D01*
X107055078Y-122551152D01*
X107122440Y-122212500D01*
X107122440Y-121637500D01*
X107055078Y-121298848D01*
X106885000Y-121044309D01*
X106885000Y-120568007D01*
X107035000Y-120205874D01*
X107035000Y-119794126D01*
X106877431Y-119413720D01*
X106586280Y-119122569D01*
X106205874Y-118965000D01*
X105794126Y-118965000D01*
X105413720Y-119122569D01*
X105122569Y-119413720D01*
X104965000Y-119794126D01*
X104965000Y-120205874D01*
X105115001Y-120568008D01*
X105115000Y-121044308D01*
X104944922Y-121298848D01*
X104877560Y-121637500D01*
X104877560Y-122212500D01*
X104944922Y-122551152D01*
X105104515Y-122790000D01*
X103441579Y-122790000D01*
X103247440Y-122595861D01*
X103247440Y-121974999D01*
X103179127Y-121631564D01*
X102984586Y-121340414D01*
X102693436Y-121145873D01*
X102350001Y-121077560D01*
X101649999Y-121077560D01*
X101306564Y-121145873D01*
X101015414Y-121340414D01*
X100921428Y-121481074D01*
X100890385Y-121434615D01*
X100481873Y-121161656D01*
X100000000Y-121065805D01*
X99518128Y-121161656D01*
X99109616Y-121434615D01*
X98990833Y-121612385D01*
X98783474Y-121361920D01*
X98355281Y-121135408D01*
X98317609Y-121131538D01*
X98127000Y-121256269D01*
X98127000Y-122473000D01*
X98147000Y-122473000D01*
X98147000Y-122727000D01*
X98127000Y-122727000D01*
X98127000Y-123943731D01*
X98317609Y-124068462D01*
X98355281Y-124064592D01*
X98783474Y-123838080D01*
X98990833Y-123587615D01*
X99109615Y-123765385D01*
X99518127Y-124038344D01*
X100000000Y-124134195D01*
X100481872Y-124038344D01*
X100890385Y-123765385D01*
X100921428Y-123718926D01*
X101015414Y-123859586D01*
X101306564Y-124054127D01*
X101649999Y-124122440D01*
X102270861Y-124122440D01*
X102387577Y-124239156D01*
X102436951Y-124313049D01*
X102510844Y-124362423D01*
X102510845Y-124362424D01*
X102729690Y-124508652D01*
X102987835Y-124560000D01*
X102987839Y-124560000D01*
X103075000Y-124577337D01*
X103162161Y-124560000D01*
X105117879Y-124560000D01*
X105136753Y-124588247D01*
X105139377Y-124590000D01*
X94983025Y-124590000D01*
X95013327Y-124559698D01*
X95110000Y-124326309D01*
X95110000Y-123960750D01*
X94951250Y-123802000D01*
X94127000Y-123802000D01*
X94127000Y-123822000D01*
X93873000Y-123822000D01*
X93873000Y-123802000D01*
X93048750Y-123802000D01*
X92890000Y-123960750D01*
X92890000Y-124326309D01*
X92986673Y-124559698D01*
X93016975Y-124590000D01*
X92710000Y-124590000D01*
X92710000Y-121637500D01*
X92877560Y-121637500D01*
X92877560Y-122212500D01*
X92944922Y-122551152D01*
X93057435Y-122719540D01*
X92986673Y-122790302D01*
X92890000Y-123023691D01*
X92890000Y-123389250D01*
X93048750Y-123548000D01*
X93873000Y-123548000D01*
X93873000Y-123528000D01*
X94127000Y-123528000D01*
X94127000Y-123548000D01*
X94951250Y-123548000D01*
X95110000Y-123389250D01*
X95110000Y-123023691D01*
X95013327Y-122790302D01*
X94950025Y-122727000D01*
X96765000Y-122727000D01*
X96765000Y-123002000D01*
X96907610Y-123464947D01*
X97216526Y-123838080D01*
X97644719Y-124064592D01*
X97682391Y-124068462D01*
X97873000Y-123943731D01*
X97873000Y-122727000D01*
X96765000Y-122727000D01*
X94950025Y-122727000D01*
X94942565Y-122719540D01*
X95055078Y-122551152D01*
X95122440Y-122212500D01*
X95122440Y-122198000D01*
X96765000Y-122198000D01*
X96765000Y-122473000D01*
X97873000Y-122473000D01*
X97873000Y-121256269D01*
X97682391Y-121131538D01*
X97644719Y-121135408D01*
X97216526Y-121361920D01*
X96907610Y-121735053D01*
X96765000Y-122198000D01*
X95122440Y-122198000D01*
X95122440Y-121637500D01*
X95055078Y-121298848D01*
X94885000Y-121044309D01*
X94885000Y-120568007D01*
X95035000Y-120205874D01*
X95035000Y-119794126D01*
X94877431Y-119413720D01*
X94586280Y-119122569D01*
X94205874Y-118965000D01*
X93794126Y-118965000D01*
X93413720Y-119122569D01*
X93122569Y-119413720D01*
X92965000Y-119794126D01*
X92965000Y-120205874D01*
X93115001Y-120568008D01*
X93115000Y-121044308D01*
X92944922Y-121298848D01*
X92877560Y-121637500D01*
X92710000Y-121637500D01*
X92710000Y-118270074D01*
X92668805Y-118062972D01*
X92511880Y-117828119D01*
X92277027Y-117671195D01*
X92138072Y-117643555D01*
X90717529Y-116945701D01*
X89247891Y-116053451D01*
X87859296Y-115031074D01*
X87078200Y-114360613D01*
X86908263Y-114166837D01*
X86654936Y-114041910D01*
X86373086Y-114023436D01*
X86173132Y-114091311D01*
X79860663Y-117735817D01*
X78906892Y-116614192D01*
X78349351Y-115848941D01*
X78854940Y-115848941D01*
X79175219Y-116403681D01*
X79375635Y-116557465D01*
X79619646Y-116622849D01*
X79870103Y-116589875D01*
X80088878Y-116463566D01*
X79970181Y-116532095D01*
X80028288Y-116315239D01*
X79453663Y-115319959D01*
X78913046Y-115632084D01*
X78854940Y-115848941D01*
X78349351Y-115848941D01*
X77720563Y-114985902D01*
X77449807Y-114548810D01*
X78215937Y-114548810D01*
X78248910Y-114799267D01*
X78569190Y-115354007D01*
X78786046Y-115412114D01*
X79326663Y-115099989D01*
X78752038Y-114104709D01*
X78535181Y-114046603D01*
X78435103Y-114104383D01*
X78281319Y-114304798D01*
X78215937Y-114548810D01*
X77449807Y-114548810D01*
X76659646Y-113273224D01*
X75730141Y-111485841D01*
X75447657Y-110825993D01*
X75954940Y-110825993D01*
X76275219Y-111380733D01*
X76475635Y-111534517D01*
X76719646Y-111599901D01*
X76970103Y-111566927D01*
X77110549Y-111485841D01*
X77070181Y-111509147D01*
X77128288Y-111292291D01*
X76553663Y-110297011D01*
X76013046Y-110609136D01*
X75954940Y-110825993D01*
X75447657Y-110825993D01*
X74936410Y-109631789D01*
X74899469Y-109525862D01*
X75315937Y-109525862D01*
X75348910Y-109776319D01*
X75669190Y-110331059D01*
X75886046Y-110389166D01*
X76426663Y-110077041D01*
X75852038Y-109081761D01*
X75635181Y-109023655D01*
X75535103Y-109081435D01*
X75381319Y-109281850D01*
X75315937Y-109525862D01*
X74899469Y-109525862D01*
X74648570Y-108806434D01*
X76011418Y-108806434D01*
X76130115Y-108737905D01*
X76072008Y-108954761D01*
X76646633Y-109950041D01*
X76663954Y-109940041D01*
X76790954Y-110160011D01*
X76773633Y-110170011D01*
X77348258Y-111165291D01*
X77565115Y-111223397D01*
X77665193Y-111165617D01*
X77672537Y-111156047D01*
X77991516Y-111684695D01*
X77939026Y-111715000D01*
X77710478Y-111715000D01*
X77330072Y-111872569D01*
X77038921Y-112163720D01*
X76881352Y-112544126D01*
X76881352Y-112955874D01*
X77038921Y-113336280D01*
X77330072Y-113627431D01*
X77710478Y-113785000D01*
X78122226Y-113785000D01*
X78502632Y-113627431D01*
X78793783Y-113336280D01*
X78832412Y-113243022D01*
X78876171Y-113217757D01*
X79142816Y-113701411D01*
X79130193Y-113703073D01*
X78911418Y-113829382D01*
X79030115Y-113760853D01*
X78972008Y-113977709D01*
X79546633Y-114972989D01*
X79563954Y-114962989D01*
X79690954Y-115182959D01*
X79673633Y-115192959D01*
X80248258Y-116188239D01*
X80465115Y-116246345D01*
X80565193Y-116188565D01*
X80718977Y-115988150D01*
X80722348Y-115975567D01*
X80846351Y-115983695D01*
X81085563Y-115902493D01*
X81561877Y-115627493D01*
X81751806Y-115460930D01*
X81806768Y-115349478D01*
X81819350Y-115352849D01*
X82069807Y-115319875D01*
X82288582Y-115193566D01*
X82169885Y-115262095D01*
X82227992Y-115045239D01*
X81653367Y-114049959D01*
X81636046Y-114059959D01*
X81556949Y-113922959D01*
X81873337Y-113922959D01*
X82447962Y-114918239D01*
X82664819Y-114976345D01*
X82764897Y-114918565D01*
X82918681Y-114718150D01*
X82984063Y-114474138D01*
X82951090Y-114223681D01*
X82630810Y-113668941D01*
X82413954Y-113610834D01*
X81873337Y-113922959D01*
X81556949Y-113922959D01*
X81509046Y-113839989D01*
X81526367Y-113829989D01*
X80951742Y-112834709D01*
X80734885Y-112776603D01*
X80673626Y-112811971D01*
X80525960Y-112544126D01*
X81137546Y-112544126D01*
X81229819Y-112490853D01*
X81171712Y-112707709D01*
X81746337Y-113702989D01*
X82286954Y-113390864D01*
X82345060Y-113174007D01*
X117604940Y-113174007D01*
X117663046Y-113390864D01*
X118203663Y-113702989D01*
X118778288Y-112707709D01*
X118720181Y-112490853D01*
X118812454Y-112544126D01*
X118620103Y-112433073D01*
X118369646Y-112400099D01*
X118125635Y-112465483D01*
X117925219Y-112619267D01*
X117604940Y-113174007D01*
X82345060Y-113174007D01*
X82024781Y-112619267D01*
X81824365Y-112465483D01*
X81580354Y-112400099D01*
X81329897Y-112433073D01*
X81137546Y-112544126D01*
X80525960Y-112544126D01*
X80409334Y-112332585D01*
X80491754Y-112285000D01*
X80720302Y-112285000D01*
X81100708Y-112127431D01*
X81391859Y-111836280D01*
X81549428Y-111455874D01*
X81549428Y-111044126D01*
X81391859Y-110663720D01*
X81100708Y-110372569D01*
X80720302Y-110215000D01*
X80308554Y-110215000D01*
X79928148Y-110372569D01*
X79636997Y-110663720D01*
X79598369Y-110756978D01*
X79524666Y-110799530D01*
X79208071Y-110274835D01*
X79269885Y-110239147D01*
X79327992Y-110022291D01*
X78753367Y-109027011D01*
X78736046Y-109037011D01*
X78656949Y-108900011D01*
X78973337Y-108900011D01*
X79547962Y-109895291D01*
X79764819Y-109953397D01*
X79864897Y-109895617D01*
X80018681Y-109695202D01*
X80084063Y-109451190D01*
X80051090Y-109200733D01*
X79730810Y-108645993D01*
X79513954Y-108587886D01*
X78973337Y-108900011D01*
X78656949Y-108900011D01*
X78609046Y-108817041D01*
X78626367Y-108807041D01*
X78051742Y-107811761D01*
X77834885Y-107753655D01*
X77734807Y-107811435D01*
X77581023Y-108011850D01*
X77577652Y-108024433D01*
X77453649Y-108016305D01*
X77214437Y-108097507D01*
X76738123Y-108372507D01*
X76548194Y-108539070D01*
X76493232Y-108650522D01*
X76480650Y-108647151D01*
X76230193Y-108680125D01*
X76011418Y-108806434D01*
X74648570Y-108806434D01*
X74567825Y-108574908D01*
X76366514Y-107536434D01*
X78211122Y-107536434D01*
X78329819Y-107467905D01*
X78271712Y-107684761D01*
X78846337Y-108680041D01*
X79386954Y-108367916D01*
X79445060Y-108151059D01*
X79124781Y-107596319D01*
X78924365Y-107442535D01*
X78680354Y-107377151D01*
X78429897Y-107410125D01*
X78211122Y-107536434D01*
X76366514Y-107536434D01*
X77679216Y-106778545D01*
X83382619Y-106778545D01*
X83382619Y-108221455D01*
X83934797Y-109554530D01*
X84955089Y-110574822D01*
X86288164Y-111127000D01*
X87731074Y-111127000D01*
X89064149Y-110574822D01*
X90084441Y-109554530D01*
X90636619Y-108221455D01*
X90636619Y-106778545D01*
X90084441Y-105445470D01*
X89064149Y-104425178D01*
X87731074Y-103873000D01*
X86288164Y-103873000D01*
X84955089Y-104425178D01*
X83934797Y-105445470D01*
X83382619Y-106778545D01*
X77679216Y-106778545D01*
X80883133Y-104928763D01*
X81041891Y-104789536D01*
X81166817Y-104536210D01*
X81185291Y-104254359D01*
X81159378Y-104178022D01*
X80861745Y-102476941D01*
X80717325Y-100765850D01*
X80721008Y-100000000D01*
X89245000Y-100000000D01*
X89329806Y-101347959D01*
X89582888Y-102674660D01*
X90000254Y-103959180D01*
X90575322Y-105181261D01*
X91299022Y-106321630D01*
X92159942Y-107362304D01*
X93144505Y-108286870D01*
X94237183Y-109080747D01*
X95420744Y-109731415D01*
X96676522Y-110228613D01*
X97984714Y-110564499D01*
X99324688Y-110733777D01*
X100675312Y-110733777D01*
X102015286Y-110564499D01*
X103323478Y-110228613D01*
X104579256Y-109731415D01*
X105762817Y-109080747D01*
X106855495Y-108286870D01*
X107840058Y-107362304D01*
X108322985Y-106778545D01*
X109363381Y-106778545D01*
X109363381Y-108221455D01*
X109915559Y-109554530D01*
X110935851Y-110574822D01*
X112268926Y-111127000D01*
X113711836Y-111127000D01*
X115044911Y-110574822D01*
X116065203Y-109554530D01*
X116108007Y-109451190D01*
X119865937Y-109451190D01*
X119931319Y-109695202D01*
X120085103Y-109895617D01*
X120185181Y-109953397D01*
X120402038Y-109895291D01*
X120976663Y-108900011D01*
X120436046Y-108587886D01*
X120219190Y-108645993D01*
X119898910Y-109200733D01*
X119865937Y-109451190D01*
X116108007Y-109451190D01*
X116617381Y-108221455D01*
X116617381Y-108151059D01*
X120504940Y-108151059D01*
X120563046Y-108367916D01*
X121103663Y-108680041D01*
X121678288Y-107684761D01*
X121620181Y-107467905D01*
X121738878Y-107536434D01*
X121520103Y-107410125D01*
X121269646Y-107377151D01*
X121025635Y-107442535D01*
X120825219Y-107596319D01*
X120504940Y-108151059D01*
X116617381Y-108151059D01*
X116617381Y-106778545D01*
X116065203Y-105445470D01*
X115044911Y-104425178D01*
X113711836Y-103873000D01*
X112268926Y-103873000D01*
X110935851Y-104425178D01*
X109915559Y-105445470D01*
X109363381Y-106778545D01*
X108322985Y-106778545D01*
X108700978Y-106321630D01*
X109424678Y-105181261D01*
X109999746Y-103959180D01*
X110417112Y-102674660D01*
X110670194Y-101347959D01*
X110755000Y-100000000D01*
X110670194Y-98652041D01*
X110417112Y-97325340D01*
X109999746Y-96040820D01*
X109424678Y-94818739D01*
X108700978Y-93678370D01*
X107840058Y-92637696D01*
X106855495Y-91713130D01*
X105762817Y-90919253D01*
X104579256Y-90268585D01*
X103323478Y-89771387D01*
X102015286Y-89435501D01*
X100675312Y-89266223D01*
X99324688Y-89266223D01*
X97984714Y-89435501D01*
X96676522Y-89771387D01*
X95420744Y-90268585D01*
X94237183Y-90919253D01*
X93144505Y-91713130D01*
X92159942Y-92637696D01*
X91299022Y-93678370D01*
X90575322Y-94818739D01*
X90000254Y-96040820D01*
X89582888Y-97325340D01*
X89329806Y-98652041D01*
X89245000Y-100000000D01*
X80721008Y-100000000D01*
X80725584Y-99048695D01*
X80886454Y-97339087D01*
X81198665Y-95650533D01*
X81659741Y-93996416D01*
X82266031Y-92389846D01*
X83012740Y-90843522D01*
X83893949Y-89369702D01*
X84902689Y-87980046D01*
X86030960Y-86685570D01*
X87269843Y-85496512D01*
X88609514Y-84422294D01*
X88825673Y-84278545D01*
X96373000Y-84278545D01*
X96373000Y-85721455D01*
X96925178Y-87054530D01*
X97945470Y-88074822D01*
X99278545Y-88627000D01*
X100721455Y-88627000D01*
X102054530Y-88074822D01*
X103074822Y-87054530D01*
X103627000Y-85721455D01*
X103627000Y-84278545D01*
X103074822Y-82945470D01*
X102054530Y-81925178D01*
X100721455Y-81373000D01*
X99278545Y-81373000D01*
X97945470Y-81925178D01*
X96925178Y-82945470D01*
X96373000Y-84278545D01*
X88825673Y-84278545D01*
X90039377Y-83471417D01*
X91548116Y-82651405D01*
X93128514Y-81966706D01*
X94202098Y-81593709D01*
X94277028Y-81578805D01*
X94347261Y-81531877D01*
X94350308Y-81530337D01*
X94403939Y-81496943D01*
X94438247Y-81471082D01*
X94511881Y-81421881D01*
X94560767Y-81348717D01*
X94582804Y-81320196D01*
X94616834Y-81266966D01*
X94621911Y-81257210D01*
X94668805Y-81187028D01*
X94685596Y-81102613D01*
X94688842Y-81092186D01*
X94702183Y-81030433D01*
X94705905Y-81000512D01*
X94710000Y-80979926D01*
X94710000Y-80967222D01*
X94712178Y-80904600D01*
X94710000Y-80864507D01*
X94710000Y-77555750D01*
X95665000Y-77555750D01*
X95665000Y-77671310D01*
X95761673Y-77904699D01*
X95940302Y-78083327D01*
X96173691Y-78180000D01*
X96814250Y-78180000D01*
X96973000Y-78021250D01*
X96973000Y-77397000D01*
X97227000Y-77397000D01*
X97227000Y-78021250D01*
X97385750Y-78180000D01*
X98026309Y-78180000D01*
X98259698Y-78083327D01*
X98438327Y-77904699D01*
X98535000Y-77671310D01*
X98535000Y-77555750D01*
X98376250Y-77397000D01*
X97227000Y-77397000D01*
X96973000Y-77397000D01*
X95823750Y-77397000D01*
X95665000Y-77555750D01*
X94710000Y-77555750D01*
X94710000Y-75725000D01*
X95652560Y-75725000D01*
X95652560Y-76275000D01*
X95701843Y-76522765D01*
X95770883Y-76626091D01*
X95761673Y-76635301D01*
X95665000Y-76868690D01*
X95665000Y-76984250D01*
X95823750Y-77143000D01*
X96973000Y-77143000D01*
X96973000Y-77123000D01*
X97227000Y-77123000D01*
X97227000Y-77143000D01*
X98376250Y-77143000D01*
X98535000Y-76984250D01*
X98535000Y-76885000D01*
X99115000Y-76885000D01*
X99115000Y-76931992D01*
X98965000Y-77294126D01*
X98965000Y-77705874D01*
X99122569Y-78086280D01*
X99413720Y-78377431D01*
X99794126Y-78535000D01*
X100205874Y-78535000D01*
X100586280Y-78377431D01*
X100877431Y-78086280D01*
X101035000Y-77705874D01*
X101035000Y-77555750D01*
X101465000Y-77555750D01*
X101465000Y-77671310D01*
X101561673Y-77904699D01*
X101740302Y-78083327D01*
X101973691Y-78180000D01*
X102614250Y-78180000D01*
X102773000Y-78021250D01*
X102773000Y-77397000D01*
X103027000Y-77397000D01*
X103027000Y-78021250D01*
X103185750Y-78180000D01*
X103826309Y-78180000D01*
X104059698Y-78083327D01*
X104238327Y-77904699D01*
X104335000Y-77671310D01*
X104335000Y-77555750D01*
X104176250Y-77397000D01*
X103027000Y-77397000D01*
X102773000Y-77397000D01*
X101623750Y-77397000D01*
X101465000Y-77555750D01*
X101035000Y-77555750D01*
X101035000Y-77294126D01*
X100885000Y-76931993D01*
X100885000Y-76885000D01*
X101465000Y-76885000D01*
X101465000Y-76984250D01*
X101623750Y-77143000D01*
X102773000Y-77143000D01*
X102773000Y-77123000D01*
X103027000Y-77123000D01*
X103027000Y-77143000D01*
X104176250Y-77143000D01*
X104335000Y-76984250D01*
X104335000Y-76868690D01*
X104238327Y-76635301D01*
X104229117Y-76626091D01*
X104298157Y-76522765D01*
X104347440Y-76275000D01*
X104347440Y-75725000D01*
X104298157Y-75477235D01*
X104229117Y-75373909D01*
X104238327Y-75364699D01*
X104335000Y-75131310D01*
X104335000Y-75015750D01*
X104176250Y-74857000D01*
X103027000Y-74857000D01*
X103027000Y-74877000D01*
X102773000Y-74877000D01*
X102773000Y-74857000D01*
X101623750Y-74857000D01*
X101465000Y-75015750D01*
X101465000Y-75115000D01*
X100885000Y-75115000D01*
X100885000Y-75068007D01*
X101035000Y-74705874D01*
X101035000Y-74328690D01*
X101465000Y-74328690D01*
X101465000Y-74444250D01*
X101623750Y-74603000D01*
X102773000Y-74603000D01*
X102773000Y-73978750D01*
X103027000Y-73978750D01*
X103027000Y-74603000D01*
X104176250Y-74603000D01*
X104335000Y-74444250D01*
X104335000Y-74328690D01*
X104238327Y-74095301D01*
X104059698Y-73916673D01*
X103826309Y-73820000D01*
X103185750Y-73820000D01*
X103027000Y-73978750D01*
X102773000Y-73978750D01*
X102614250Y-73820000D01*
X101973691Y-73820000D01*
X101740302Y-73916673D01*
X101561673Y-74095301D01*
X101465000Y-74328690D01*
X101035000Y-74328690D01*
X101035000Y-74294126D01*
X100877431Y-73913720D01*
X100586280Y-73622569D01*
X100205874Y-73465000D01*
X99794126Y-73465000D01*
X99413720Y-73622569D01*
X99122569Y-73913720D01*
X98965000Y-74294126D01*
X98965000Y-74705874D01*
X99115001Y-75068008D01*
X99115001Y-75115000D01*
X98535000Y-75115000D01*
X98535000Y-75015750D01*
X98376250Y-74857000D01*
X97227000Y-74857000D01*
X97227000Y-74877000D01*
X96973000Y-74877000D01*
X96973000Y-74857000D01*
X95823750Y-74857000D01*
X95665000Y-75015750D01*
X95665000Y-75131310D01*
X95761673Y-75364699D01*
X95770883Y-75373909D01*
X95701843Y-75477235D01*
X95652560Y-75725000D01*
X94710000Y-75725000D01*
X94710000Y-74328690D01*
X95665000Y-74328690D01*
X95665000Y-74444250D01*
X95823750Y-74603000D01*
X96973000Y-74603000D01*
X96973000Y-73978750D01*
X97227000Y-73978750D01*
X97227000Y-74603000D01*
X98376250Y-74603000D01*
X98535000Y-74444250D01*
X98535000Y-74328690D01*
X98438327Y-74095301D01*
X98259698Y-73916673D01*
X98026309Y-73820000D01*
X97385750Y-73820000D01*
X97227000Y-73978750D01*
X96973000Y-73978750D01*
X96814250Y-73820000D01*
X96173691Y-73820000D01*
X95940302Y-73916673D01*
X95761673Y-74095301D01*
X95665000Y-74328690D01*
X94710000Y-74328690D01*
X94710000Y-73690914D01*
X96158236Y-73425737D01*
X98161547Y-73212490D01*
X100175226Y-73150049D01*
X102187905Y-73238765D01*
G04 #@! TD*
M02*
