G04 #@! TF.GenerationSoftware,KiCad,Pcbnew,(5.0.1-3-g963ef8bb5)*
G04 #@! TF.CreationDate,2019-08-29T11:39:49+02:00*
G04 #@! TF.ProjectId,crecol_encoder,637265636F6C5F656E636F6465722E6B,rev?*
G04 #@! TF.SameCoordinates,Original*
G04 #@! TF.FileFunction,Copper,L1,Top,Signal*
G04 #@! TF.FilePolarity,Positive*
%FSLAX46Y46*%
G04 Gerber Fmt 4.6, Leading zero omitted, Abs format (unit mm)*
G04 Created by KiCad (PCBNEW (5.0.1-3-g963ef8bb5)) date 2019 August 29, Thursday 11:39:49*
%MOMM*%
%LPD*%
G01*
G04 APERTURE LIST*
G04 #@! TA.AperFunction,Conductor*
%ADD10C,0.100000*%
G04 #@! TD*
G04 #@! TA.AperFunction,ComponentPad*
%ADD11C,1.200000*%
G04 #@! TD*
G04 #@! TA.AperFunction,ComponentPad*
%ADD12O,1.200000X1.750000*%
G04 #@! TD*
G04 #@! TA.AperFunction,ViaPad*
%ADD13C,0.800000*%
G04 #@! TD*
G04 #@! TA.AperFunction,Conductor*
%ADD14C,0.254000*%
G04 #@! TD*
G04 APERTURE END LIST*
D10*
G04 #@! TO.N,+3V3*
G04 #@! TO.C,J0*
G36*
X102374505Y-121726204D02*
X102398773Y-121729804D01*
X102422572Y-121735765D01*
X102445671Y-121744030D01*
X102467850Y-121754520D01*
X102488893Y-121767132D01*
X102508599Y-121781747D01*
X102526777Y-121798223D01*
X102543253Y-121816401D01*
X102557868Y-121836107D01*
X102570480Y-121857150D01*
X102580970Y-121879329D01*
X102589235Y-121902428D01*
X102595196Y-121926227D01*
X102598796Y-121950495D01*
X102600000Y-121974999D01*
X102600000Y-123225001D01*
X102598796Y-123249505D01*
X102595196Y-123273773D01*
X102589235Y-123297572D01*
X102580970Y-123320671D01*
X102570480Y-123342850D01*
X102557868Y-123363893D01*
X102543253Y-123383599D01*
X102526777Y-123401777D01*
X102508599Y-123418253D01*
X102488893Y-123432868D01*
X102467850Y-123445480D01*
X102445671Y-123455970D01*
X102422572Y-123464235D01*
X102398773Y-123470196D01*
X102374505Y-123473796D01*
X102350001Y-123475000D01*
X101649999Y-123475000D01*
X101625495Y-123473796D01*
X101601227Y-123470196D01*
X101577428Y-123464235D01*
X101554329Y-123455970D01*
X101532150Y-123445480D01*
X101511107Y-123432868D01*
X101491401Y-123418253D01*
X101473223Y-123401777D01*
X101456747Y-123383599D01*
X101442132Y-123363893D01*
X101429520Y-123342850D01*
X101419030Y-123320671D01*
X101410765Y-123297572D01*
X101404804Y-123273773D01*
X101401204Y-123249505D01*
X101400000Y-123225001D01*
X101400000Y-121974999D01*
X101401204Y-121950495D01*
X101404804Y-121926227D01*
X101410765Y-121902428D01*
X101419030Y-121879329D01*
X101429520Y-121857150D01*
X101442132Y-121836107D01*
X101456747Y-121816401D01*
X101473223Y-121798223D01*
X101491401Y-121781747D01*
X101511107Y-121767132D01*
X101532150Y-121754520D01*
X101554329Y-121744030D01*
X101577428Y-121735765D01*
X101601227Y-121729804D01*
X101625495Y-121726204D01*
X101649999Y-121725000D01*
X102350001Y-121725000D01*
X102374505Y-121726204D01*
X102374505Y-121726204D01*
G37*
D11*
G04 #@! TD*
G04 #@! TO.P,J0,1*
G04 #@! TO.N,+3V3*
X102000000Y-122600000D03*
D12*
G04 #@! TO.P,J0,2*
G04 #@! TO.N,Net-(C0-Pad1)*
X100000000Y-122600000D03*
G04 #@! TO.P,J0,3*
G04 #@! TO.N,GND*
X98000000Y-122600000D03*
G04 #@! TD*
D13*
G04 #@! TO.N,Net-(C0-Pad1)*
X100000000Y-76000000D03*
X100000000Y-74500000D03*
X100000000Y-77500000D03*
X77916352Y-112750000D03*
X122083648Y-112750000D03*
X79215390Y-112000000D03*
X120784610Y-112000000D03*
X80514428Y-111250000D03*
X119485572Y-111250000D03*
X106000000Y-120000000D03*
X94000000Y-120000000D03*
G04 #@! TD*
D14*
G04 #@! TO.N,Net-(C0-Pad1)*
G36*
X102187905Y-73238765D02*
X104190425Y-73478399D01*
X105290000Y-73687636D01*
X105290001Y-80979926D01*
X105331196Y-81187028D01*
X105488120Y-81421881D01*
X105722973Y-81578805D01*
X105802046Y-81594534D01*
X107424037Y-82187314D01*
X108978093Y-82917788D01*
X110461060Y-83783517D01*
X111861194Y-84777642D01*
X113167420Y-85892302D01*
X114369380Y-87118657D01*
X115457579Y-88447019D01*
X116423370Y-89866835D01*
X117259137Y-91366905D01*
X117958240Y-92935318D01*
X118515156Y-94559677D01*
X118925468Y-96227099D01*
X119185933Y-97924405D01*
X119294485Y-99638136D01*
X119250266Y-101354753D01*
X119053035Y-103065761D01*
X118839267Y-104182013D01*
X118814709Y-104254359D01*
X118820233Y-104338642D01*
X118820043Y-104342055D01*
X118822148Y-104405198D01*
X118827391Y-104447846D01*
X118833183Y-104536209D01*
X118872103Y-104615131D01*
X118885784Y-104648473D01*
X118914867Y-104704559D01*
X118920778Y-104713835D01*
X118958110Y-104789536D01*
X119022818Y-104846283D01*
X119030226Y-104854309D01*
X119077035Y-104896739D01*
X119101087Y-104914924D01*
X119116868Y-104928763D01*
X119127873Y-104935117D01*
X119181013Y-104968312D01*
X119216829Y-104986476D01*
X125429336Y-108573269D01*
X124934867Y-109960066D01*
X124117887Y-111801615D01*
X123165134Y-113576712D01*
X122081954Y-115275400D01*
X120873162Y-116889821D01*
X120142176Y-117737456D01*
X114005338Y-114194351D01*
X113998564Y-114187429D01*
X113950538Y-114146383D01*
X113899052Y-114109767D01*
X113844515Y-114077874D01*
X113787360Y-114050955D01*
X113728038Y-114029223D01*
X113667018Y-114012851D01*
X113604786Y-114001968D01*
X113541832Y-113996660D01*
X113478654Y-113996969D01*
X113415755Y-114002893D01*
X113353632Y-114014385D01*
X113292776Y-114031354D01*
X113233670Y-114053665D01*
X113176780Y-114081143D01*
X113122558Y-114113569D01*
X113071434Y-114150686D01*
X113057047Y-114162454D01*
X111720463Y-115285193D01*
X110315306Y-116266557D01*
X108824604Y-117121343D01*
X107774761Y-117620894D01*
X107722972Y-117631195D01*
X107488119Y-117788120D01*
X107331195Y-118022973D01*
X107290000Y-118230075D01*
X107290001Y-124590000D01*
X92710000Y-124590000D01*
X92710000Y-122203364D01*
X96765000Y-122203364D01*
X96765000Y-122996635D01*
X96836656Y-123356872D01*
X97109615Y-123765385D01*
X97518127Y-124038344D01*
X98000000Y-124134195D01*
X98481872Y-124038344D01*
X98890385Y-123765385D01*
X99009167Y-123587615D01*
X99216526Y-123838080D01*
X99644719Y-124064592D01*
X99682391Y-124068462D01*
X99873000Y-123943731D01*
X99873000Y-122727000D01*
X99853000Y-122727000D01*
X99853000Y-122473000D01*
X99873000Y-122473000D01*
X99873000Y-121256269D01*
X100127000Y-121256269D01*
X100127000Y-122473000D01*
X100147000Y-122473000D01*
X100147000Y-122727000D01*
X100127000Y-122727000D01*
X100127000Y-123943731D01*
X100317609Y-124068462D01*
X100355281Y-124064592D01*
X100783474Y-123838080D01*
X100903873Y-123692653D01*
X101015414Y-123859586D01*
X101306564Y-124054127D01*
X101649999Y-124122440D01*
X102350001Y-124122440D01*
X102693436Y-124054127D01*
X102984586Y-123859586D01*
X103179127Y-123568436D01*
X103247440Y-123225001D01*
X103247440Y-121974999D01*
X103179127Y-121631564D01*
X102984586Y-121340414D01*
X102693436Y-121145873D01*
X102350001Y-121077560D01*
X101649999Y-121077560D01*
X101306564Y-121145873D01*
X101015414Y-121340414D01*
X100903873Y-121507347D01*
X100783474Y-121361920D01*
X100355281Y-121135408D01*
X100317609Y-121131538D01*
X100127000Y-121256269D01*
X99873000Y-121256269D01*
X99682391Y-121131538D01*
X99644719Y-121135408D01*
X99216526Y-121361920D01*
X99009167Y-121612385D01*
X98890385Y-121434615D01*
X98481873Y-121161656D01*
X98000000Y-121065805D01*
X97518128Y-121161656D01*
X97109616Y-121434615D01*
X96836656Y-121843127D01*
X96765000Y-122203364D01*
X92710000Y-122203364D01*
X92710000Y-118270074D01*
X92668805Y-118062972D01*
X92511880Y-117828119D01*
X92277027Y-117671195D01*
X92138072Y-117643555D01*
X90717529Y-116945701D01*
X89247891Y-116053451D01*
X87859296Y-115031074D01*
X87078200Y-114360613D01*
X86908263Y-114166837D01*
X86654936Y-114041910D01*
X86373086Y-114023436D01*
X86173132Y-114091311D01*
X79860663Y-117735817D01*
X78906892Y-116614192D01*
X77720563Y-114985902D01*
X76659646Y-113273224D01*
X75730141Y-111485841D01*
X74936410Y-109631789D01*
X74567825Y-108574908D01*
X77679216Y-106778545D01*
X83382619Y-106778545D01*
X83382619Y-108221455D01*
X83934797Y-109554530D01*
X84955089Y-110574822D01*
X86288164Y-111127000D01*
X87731074Y-111127000D01*
X89064149Y-110574822D01*
X90084441Y-109554530D01*
X90636619Y-108221455D01*
X90636619Y-106778545D01*
X90084441Y-105445470D01*
X89064149Y-104425178D01*
X87731074Y-103873000D01*
X86288164Y-103873000D01*
X84955089Y-104425178D01*
X83934797Y-105445470D01*
X83382619Y-106778545D01*
X77679216Y-106778545D01*
X80883133Y-104928763D01*
X81041891Y-104789536D01*
X81166817Y-104536210D01*
X81185291Y-104254359D01*
X81159378Y-104178022D01*
X80861745Y-102476941D01*
X80717325Y-100765850D01*
X80721008Y-100000000D01*
X89245000Y-100000000D01*
X89329806Y-101347959D01*
X89582888Y-102674660D01*
X90000254Y-103959180D01*
X90575322Y-105181261D01*
X91299022Y-106321630D01*
X92159942Y-107362304D01*
X93144505Y-108286870D01*
X94237183Y-109080747D01*
X95420744Y-109731415D01*
X96676522Y-110228613D01*
X97984714Y-110564499D01*
X99324688Y-110733777D01*
X100675312Y-110733777D01*
X102015286Y-110564499D01*
X103323478Y-110228613D01*
X104579256Y-109731415D01*
X105762817Y-109080747D01*
X106855495Y-108286870D01*
X107840058Y-107362304D01*
X108322985Y-106778545D01*
X109363381Y-106778545D01*
X109363381Y-108221455D01*
X109915559Y-109554530D01*
X110935851Y-110574822D01*
X112268926Y-111127000D01*
X113711836Y-111127000D01*
X115044911Y-110574822D01*
X116065203Y-109554530D01*
X116617381Y-108221455D01*
X116617381Y-106778545D01*
X116065203Y-105445470D01*
X115044911Y-104425178D01*
X113711836Y-103873000D01*
X112268926Y-103873000D01*
X110935851Y-104425178D01*
X109915559Y-105445470D01*
X109363381Y-106778545D01*
X108322985Y-106778545D01*
X108700978Y-106321630D01*
X109424678Y-105181261D01*
X109999746Y-103959180D01*
X110417112Y-102674660D01*
X110670194Y-101347959D01*
X110755000Y-100000000D01*
X110670194Y-98652041D01*
X110417112Y-97325340D01*
X109999746Y-96040820D01*
X109424678Y-94818739D01*
X108700978Y-93678370D01*
X107840058Y-92637696D01*
X106855495Y-91713130D01*
X105762817Y-90919253D01*
X104579256Y-90268585D01*
X103323478Y-89771387D01*
X102015286Y-89435501D01*
X100675312Y-89266223D01*
X99324688Y-89266223D01*
X97984714Y-89435501D01*
X96676522Y-89771387D01*
X95420744Y-90268585D01*
X94237183Y-90919253D01*
X93144505Y-91713130D01*
X92159942Y-92637696D01*
X91299022Y-93678370D01*
X90575322Y-94818739D01*
X90000254Y-96040820D01*
X89582888Y-97325340D01*
X89329806Y-98652041D01*
X89245000Y-100000000D01*
X80721008Y-100000000D01*
X80725584Y-99048695D01*
X80886454Y-97339087D01*
X81198665Y-95650533D01*
X81659741Y-93996416D01*
X82266031Y-92389846D01*
X83012740Y-90843522D01*
X83893949Y-89369702D01*
X84902689Y-87980046D01*
X86030960Y-86685570D01*
X87269843Y-85496512D01*
X88609514Y-84422294D01*
X88825673Y-84278545D01*
X96373000Y-84278545D01*
X96373000Y-85721455D01*
X96925178Y-87054530D01*
X97945470Y-88074822D01*
X99278545Y-88627000D01*
X100721455Y-88627000D01*
X102054530Y-88074822D01*
X103074822Y-87054530D01*
X103627000Y-85721455D01*
X103627000Y-84278545D01*
X103074822Y-82945470D01*
X102054530Y-81925178D01*
X100721455Y-81373000D01*
X99278545Y-81373000D01*
X97945470Y-81925178D01*
X96925178Y-82945470D01*
X96373000Y-84278545D01*
X88825673Y-84278545D01*
X90039377Y-83471417D01*
X91548116Y-82651405D01*
X93128514Y-81966706D01*
X94202098Y-81593709D01*
X94277028Y-81578805D01*
X94347261Y-81531877D01*
X94350308Y-81530337D01*
X94403939Y-81496943D01*
X94438247Y-81471082D01*
X94511881Y-81421881D01*
X94560767Y-81348717D01*
X94582804Y-81320196D01*
X94616834Y-81266966D01*
X94621911Y-81257210D01*
X94668805Y-81187028D01*
X94685596Y-81102613D01*
X94688842Y-81092186D01*
X94702183Y-81030433D01*
X94705905Y-81000512D01*
X94710000Y-80979926D01*
X94710000Y-80967222D01*
X94712178Y-80904600D01*
X94710000Y-80864507D01*
X94710000Y-73690914D01*
X96158236Y-73425737D01*
X98161547Y-73212490D01*
X100175226Y-73150049D01*
X102187905Y-73238765D01*
X102187905Y-73238765D01*
G37*
X102187905Y-73238765D02*
X104190425Y-73478399D01*
X105290000Y-73687636D01*
X105290001Y-80979926D01*
X105331196Y-81187028D01*
X105488120Y-81421881D01*
X105722973Y-81578805D01*
X105802046Y-81594534D01*
X107424037Y-82187314D01*
X108978093Y-82917788D01*
X110461060Y-83783517D01*
X111861194Y-84777642D01*
X113167420Y-85892302D01*
X114369380Y-87118657D01*
X115457579Y-88447019D01*
X116423370Y-89866835D01*
X117259137Y-91366905D01*
X117958240Y-92935318D01*
X118515156Y-94559677D01*
X118925468Y-96227099D01*
X119185933Y-97924405D01*
X119294485Y-99638136D01*
X119250266Y-101354753D01*
X119053035Y-103065761D01*
X118839267Y-104182013D01*
X118814709Y-104254359D01*
X118820233Y-104338642D01*
X118820043Y-104342055D01*
X118822148Y-104405198D01*
X118827391Y-104447846D01*
X118833183Y-104536209D01*
X118872103Y-104615131D01*
X118885784Y-104648473D01*
X118914867Y-104704559D01*
X118920778Y-104713835D01*
X118958110Y-104789536D01*
X119022818Y-104846283D01*
X119030226Y-104854309D01*
X119077035Y-104896739D01*
X119101087Y-104914924D01*
X119116868Y-104928763D01*
X119127873Y-104935117D01*
X119181013Y-104968312D01*
X119216829Y-104986476D01*
X125429336Y-108573269D01*
X124934867Y-109960066D01*
X124117887Y-111801615D01*
X123165134Y-113576712D01*
X122081954Y-115275400D01*
X120873162Y-116889821D01*
X120142176Y-117737456D01*
X114005338Y-114194351D01*
X113998564Y-114187429D01*
X113950538Y-114146383D01*
X113899052Y-114109767D01*
X113844515Y-114077874D01*
X113787360Y-114050955D01*
X113728038Y-114029223D01*
X113667018Y-114012851D01*
X113604786Y-114001968D01*
X113541832Y-113996660D01*
X113478654Y-113996969D01*
X113415755Y-114002893D01*
X113353632Y-114014385D01*
X113292776Y-114031354D01*
X113233670Y-114053665D01*
X113176780Y-114081143D01*
X113122558Y-114113569D01*
X113071434Y-114150686D01*
X113057047Y-114162454D01*
X111720463Y-115285193D01*
X110315306Y-116266557D01*
X108824604Y-117121343D01*
X107774761Y-117620894D01*
X107722972Y-117631195D01*
X107488119Y-117788120D01*
X107331195Y-118022973D01*
X107290000Y-118230075D01*
X107290001Y-124590000D01*
X92710000Y-124590000D01*
X92710000Y-122203364D01*
X96765000Y-122203364D01*
X96765000Y-122996635D01*
X96836656Y-123356872D01*
X97109615Y-123765385D01*
X97518127Y-124038344D01*
X98000000Y-124134195D01*
X98481872Y-124038344D01*
X98890385Y-123765385D01*
X99009167Y-123587615D01*
X99216526Y-123838080D01*
X99644719Y-124064592D01*
X99682391Y-124068462D01*
X99873000Y-123943731D01*
X99873000Y-122727000D01*
X99853000Y-122727000D01*
X99853000Y-122473000D01*
X99873000Y-122473000D01*
X99873000Y-121256269D01*
X100127000Y-121256269D01*
X100127000Y-122473000D01*
X100147000Y-122473000D01*
X100147000Y-122727000D01*
X100127000Y-122727000D01*
X100127000Y-123943731D01*
X100317609Y-124068462D01*
X100355281Y-124064592D01*
X100783474Y-123838080D01*
X100903873Y-123692653D01*
X101015414Y-123859586D01*
X101306564Y-124054127D01*
X101649999Y-124122440D01*
X102350001Y-124122440D01*
X102693436Y-124054127D01*
X102984586Y-123859586D01*
X103179127Y-123568436D01*
X103247440Y-123225001D01*
X103247440Y-121974999D01*
X103179127Y-121631564D01*
X102984586Y-121340414D01*
X102693436Y-121145873D01*
X102350001Y-121077560D01*
X101649999Y-121077560D01*
X101306564Y-121145873D01*
X101015414Y-121340414D01*
X100903873Y-121507347D01*
X100783474Y-121361920D01*
X100355281Y-121135408D01*
X100317609Y-121131538D01*
X100127000Y-121256269D01*
X99873000Y-121256269D01*
X99682391Y-121131538D01*
X99644719Y-121135408D01*
X99216526Y-121361920D01*
X99009167Y-121612385D01*
X98890385Y-121434615D01*
X98481873Y-121161656D01*
X98000000Y-121065805D01*
X97518128Y-121161656D01*
X97109616Y-121434615D01*
X96836656Y-121843127D01*
X96765000Y-122203364D01*
X92710000Y-122203364D01*
X92710000Y-118270074D01*
X92668805Y-118062972D01*
X92511880Y-117828119D01*
X92277027Y-117671195D01*
X92138072Y-117643555D01*
X90717529Y-116945701D01*
X89247891Y-116053451D01*
X87859296Y-115031074D01*
X87078200Y-114360613D01*
X86908263Y-114166837D01*
X86654936Y-114041910D01*
X86373086Y-114023436D01*
X86173132Y-114091311D01*
X79860663Y-117735817D01*
X78906892Y-116614192D01*
X77720563Y-114985902D01*
X76659646Y-113273224D01*
X75730141Y-111485841D01*
X74936410Y-109631789D01*
X74567825Y-108574908D01*
X77679216Y-106778545D01*
X83382619Y-106778545D01*
X83382619Y-108221455D01*
X83934797Y-109554530D01*
X84955089Y-110574822D01*
X86288164Y-111127000D01*
X87731074Y-111127000D01*
X89064149Y-110574822D01*
X90084441Y-109554530D01*
X90636619Y-108221455D01*
X90636619Y-106778545D01*
X90084441Y-105445470D01*
X89064149Y-104425178D01*
X87731074Y-103873000D01*
X86288164Y-103873000D01*
X84955089Y-104425178D01*
X83934797Y-105445470D01*
X83382619Y-106778545D01*
X77679216Y-106778545D01*
X80883133Y-104928763D01*
X81041891Y-104789536D01*
X81166817Y-104536210D01*
X81185291Y-104254359D01*
X81159378Y-104178022D01*
X80861745Y-102476941D01*
X80717325Y-100765850D01*
X80721008Y-100000000D01*
X89245000Y-100000000D01*
X89329806Y-101347959D01*
X89582888Y-102674660D01*
X90000254Y-103959180D01*
X90575322Y-105181261D01*
X91299022Y-106321630D01*
X92159942Y-107362304D01*
X93144505Y-108286870D01*
X94237183Y-109080747D01*
X95420744Y-109731415D01*
X96676522Y-110228613D01*
X97984714Y-110564499D01*
X99324688Y-110733777D01*
X100675312Y-110733777D01*
X102015286Y-110564499D01*
X103323478Y-110228613D01*
X104579256Y-109731415D01*
X105762817Y-109080747D01*
X106855495Y-108286870D01*
X107840058Y-107362304D01*
X108322985Y-106778545D01*
X109363381Y-106778545D01*
X109363381Y-108221455D01*
X109915559Y-109554530D01*
X110935851Y-110574822D01*
X112268926Y-111127000D01*
X113711836Y-111127000D01*
X115044911Y-110574822D01*
X116065203Y-109554530D01*
X116617381Y-108221455D01*
X116617381Y-106778545D01*
X116065203Y-105445470D01*
X115044911Y-104425178D01*
X113711836Y-103873000D01*
X112268926Y-103873000D01*
X110935851Y-104425178D01*
X109915559Y-105445470D01*
X109363381Y-106778545D01*
X108322985Y-106778545D01*
X108700978Y-106321630D01*
X109424678Y-105181261D01*
X109999746Y-103959180D01*
X110417112Y-102674660D01*
X110670194Y-101347959D01*
X110755000Y-100000000D01*
X110670194Y-98652041D01*
X110417112Y-97325340D01*
X109999746Y-96040820D01*
X109424678Y-94818739D01*
X108700978Y-93678370D01*
X107840058Y-92637696D01*
X106855495Y-91713130D01*
X105762817Y-90919253D01*
X104579256Y-90268585D01*
X103323478Y-89771387D01*
X102015286Y-89435501D01*
X100675312Y-89266223D01*
X99324688Y-89266223D01*
X97984714Y-89435501D01*
X96676522Y-89771387D01*
X95420744Y-90268585D01*
X94237183Y-90919253D01*
X93144505Y-91713130D01*
X92159942Y-92637696D01*
X91299022Y-93678370D01*
X90575322Y-94818739D01*
X90000254Y-96040820D01*
X89582888Y-97325340D01*
X89329806Y-98652041D01*
X89245000Y-100000000D01*
X80721008Y-100000000D01*
X80725584Y-99048695D01*
X80886454Y-97339087D01*
X81198665Y-95650533D01*
X81659741Y-93996416D01*
X82266031Y-92389846D01*
X83012740Y-90843522D01*
X83893949Y-89369702D01*
X84902689Y-87980046D01*
X86030960Y-86685570D01*
X87269843Y-85496512D01*
X88609514Y-84422294D01*
X88825673Y-84278545D01*
X96373000Y-84278545D01*
X96373000Y-85721455D01*
X96925178Y-87054530D01*
X97945470Y-88074822D01*
X99278545Y-88627000D01*
X100721455Y-88627000D01*
X102054530Y-88074822D01*
X103074822Y-87054530D01*
X103627000Y-85721455D01*
X103627000Y-84278545D01*
X103074822Y-82945470D01*
X102054530Y-81925178D01*
X100721455Y-81373000D01*
X99278545Y-81373000D01*
X97945470Y-81925178D01*
X96925178Y-82945470D01*
X96373000Y-84278545D01*
X88825673Y-84278545D01*
X90039377Y-83471417D01*
X91548116Y-82651405D01*
X93128514Y-81966706D01*
X94202098Y-81593709D01*
X94277028Y-81578805D01*
X94347261Y-81531877D01*
X94350308Y-81530337D01*
X94403939Y-81496943D01*
X94438247Y-81471082D01*
X94511881Y-81421881D01*
X94560767Y-81348717D01*
X94582804Y-81320196D01*
X94616834Y-81266966D01*
X94621911Y-81257210D01*
X94668805Y-81187028D01*
X94685596Y-81102613D01*
X94688842Y-81092186D01*
X94702183Y-81030433D01*
X94705905Y-81000512D01*
X94710000Y-80979926D01*
X94710000Y-80967222D01*
X94712178Y-80904600D01*
X94710000Y-80864507D01*
X94710000Y-73690914D01*
X96158236Y-73425737D01*
X98161547Y-73212490D01*
X100175226Y-73150049D01*
X102187905Y-73238765D01*
G04 #@! TD*
M02*
