G04 #@! TF.GenerationSoftware,KiCad,Pcbnew,(5.0.1-3-g963ef8bb5)*
G04 #@! TF.CreationDate,2019-08-29T11:39:49+02:00*
G04 #@! TF.ProjectId,crecol_encoder,637265636F6C5F656E636F6465722E6B,rev?*
G04 #@! TF.SameCoordinates,Original*
G04 #@! TF.FileFunction,Soldermask,Bot*
G04 #@! TF.FilePolarity,Negative*
%FSLAX46Y46*%
G04 Gerber Fmt 4.6, Leading zero omitted, Abs format (unit mm)*
G04 Created by KiCad (PCBNEW (5.0.1-3-g963ef8bb5)) date 2019 August 29, Thursday 11:39:49*
%MOMM*%
%LPD*%
G01*
G04 APERTURE LIST*
%ADD10C,0.100000*%
G04 APERTURE END LIST*
D10*
G36*
X106364499Y-123103445D02*
X106401993Y-123114819D01*
X106436557Y-123133294D01*
X106466847Y-123158153D01*
X106491706Y-123188443D01*
X106510181Y-123223007D01*
X106521555Y-123260501D01*
X106526000Y-123305638D01*
X106526000Y-124044362D01*
X106521555Y-124089499D01*
X106510181Y-124126993D01*
X106491706Y-124161557D01*
X106466847Y-124191847D01*
X106436557Y-124216706D01*
X106401993Y-124235181D01*
X106364499Y-124246555D01*
X106319362Y-124251000D01*
X105680638Y-124251000D01*
X105635501Y-124246555D01*
X105598007Y-124235181D01*
X105563443Y-124216706D01*
X105533153Y-124191847D01*
X105508294Y-124161557D01*
X105489819Y-124126993D01*
X105478445Y-124089499D01*
X105474000Y-124044362D01*
X105474000Y-123305638D01*
X105478445Y-123260501D01*
X105489819Y-123223007D01*
X105508294Y-123188443D01*
X105533153Y-123158153D01*
X105563443Y-123133294D01*
X105598007Y-123114819D01*
X105635501Y-123103445D01*
X105680638Y-123099000D01*
X106319362Y-123099000D01*
X106364499Y-123103445D01*
X106364499Y-123103445D01*
G37*
G36*
X94364499Y-123103445D02*
X94401993Y-123114819D01*
X94436557Y-123133294D01*
X94466847Y-123158153D01*
X94491706Y-123188443D01*
X94510181Y-123223007D01*
X94521555Y-123260501D01*
X94526000Y-123305638D01*
X94526000Y-124044362D01*
X94521555Y-124089499D01*
X94510181Y-124126993D01*
X94491706Y-124161557D01*
X94466847Y-124191847D01*
X94436557Y-124216706D01*
X94401993Y-124235181D01*
X94364499Y-124246555D01*
X94319362Y-124251000D01*
X93680638Y-124251000D01*
X93635501Y-124246555D01*
X93598007Y-124235181D01*
X93563443Y-124216706D01*
X93533153Y-124191847D01*
X93508294Y-124161557D01*
X93489819Y-124126993D01*
X93478445Y-124089499D01*
X93474000Y-124044362D01*
X93474000Y-123305638D01*
X93478445Y-123260501D01*
X93489819Y-123223007D01*
X93508294Y-123188443D01*
X93533153Y-123158153D01*
X93563443Y-123133294D01*
X93598007Y-123114819D01*
X93635501Y-123103445D01*
X93680638Y-123099000D01*
X94319362Y-123099000D01*
X94364499Y-123103445D01*
X94364499Y-123103445D01*
G37*
G36*
X98127618Y-121683420D02*
X98209427Y-121708237D01*
X98250333Y-121720645D01*
X98328600Y-121762480D01*
X98363426Y-121781095D01*
X98462553Y-121862447D01*
X98543905Y-121961574D01*
X98543906Y-121961576D01*
X98604355Y-122074667D01*
X98604355Y-122074668D01*
X98641580Y-122197382D01*
X98651000Y-122293027D01*
X98651000Y-122906973D01*
X98641580Y-123002618D01*
X98616763Y-123084427D01*
X98604355Y-123125333D01*
X98555953Y-123215885D01*
X98543905Y-123238426D01*
X98462553Y-123337553D01*
X98462551Y-123337555D01*
X98432764Y-123362000D01*
X98363425Y-123418905D01*
X98311699Y-123446553D01*
X98250332Y-123479355D01*
X98209426Y-123491763D01*
X98127617Y-123516580D01*
X98000000Y-123529149D01*
X97872382Y-123516580D01*
X97790573Y-123491763D01*
X97749667Y-123479355D01*
X97636576Y-123418906D01*
X97636574Y-123418905D01*
X97537447Y-123337553D01*
X97456095Y-123238425D01*
X97422745Y-123176031D01*
X97395645Y-123125332D01*
X97383237Y-123084426D01*
X97358420Y-123002617D01*
X97349000Y-122906972D01*
X97349000Y-122293027D01*
X97358420Y-122197382D01*
X97395645Y-122074668D01*
X97395645Y-122074667D01*
X97415795Y-122036970D01*
X97456095Y-121961574D01*
X97537448Y-121862447D01*
X97636575Y-121781095D01*
X97671401Y-121762480D01*
X97749668Y-121720645D01*
X97790574Y-121708237D01*
X97872383Y-121683420D01*
X98000000Y-121670851D01*
X98127618Y-121683420D01*
X98127618Y-121683420D01*
G37*
G36*
X100127618Y-121683420D02*
X100209427Y-121708237D01*
X100250333Y-121720645D01*
X100328600Y-121762480D01*
X100363426Y-121781095D01*
X100462553Y-121862447D01*
X100543905Y-121961574D01*
X100543906Y-121961576D01*
X100604355Y-122074667D01*
X100604355Y-122074668D01*
X100641580Y-122197382D01*
X100651000Y-122293027D01*
X100651000Y-122906973D01*
X100641580Y-123002618D01*
X100616763Y-123084427D01*
X100604355Y-123125333D01*
X100555953Y-123215885D01*
X100543905Y-123238426D01*
X100462553Y-123337553D01*
X100462551Y-123337555D01*
X100432764Y-123362000D01*
X100363425Y-123418905D01*
X100311699Y-123446553D01*
X100250332Y-123479355D01*
X100209426Y-123491763D01*
X100127617Y-123516580D01*
X100000000Y-123529149D01*
X99872382Y-123516580D01*
X99790573Y-123491763D01*
X99749667Y-123479355D01*
X99636576Y-123418906D01*
X99636574Y-123418905D01*
X99537447Y-123337553D01*
X99456095Y-123238425D01*
X99422745Y-123176031D01*
X99395645Y-123125332D01*
X99383237Y-123084426D01*
X99358420Y-123002617D01*
X99349000Y-122906972D01*
X99349000Y-122293027D01*
X99358420Y-122197382D01*
X99395645Y-122074668D01*
X99395645Y-122074667D01*
X99415795Y-122036970D01*
X99456095Y-121961574D01*
X99537448Y-121862447D01*
X99636575Y-121781095D01*
X99671401Y-121762480D01*
X99749668Y-121720645D01*
X99790574Y-121708237D01*
X99872383Y-121683420D01*
X100000000Y-121670851D01*
X100127618Y-121683420D01*
X100127618Y-121683420D01*
G37*
G36*
X102491242Y-121678404D02*
X102528339Y-121689657D01*
X102562520Y-121707927D01*
X102592482Y-121732518D01*
X102617073Y-121762480D01*
X102635343Y-121796661D01*
X102646596Y-121833758D01*
X102651000Y-121878473D01*
X102651000Y-123321527D01*
X102646596Y-123366242D01*
X102635343Y-123403339D01*
X102617073Y-123437520D01*
X102592482Y-123467482D01*
X102562520Y-123492073D01*
X102528339Y-123510343D01*
X102491242Y-123521596D01*
X102446527Y-123526000D01*
X101553473Y-123526000D01*
X101508758Y-123521596D01*
X101471661Y-123510343D01*
X101437480Y-123492073D01*
X101407518Y-123467482D01*
X101382927Y-123437520D01*
X101364657Y-123403339D01*
X101353404Y-123366242D01*
X101349000Y-123321527D01*
X101349000Y-121878473D01*
X101353404Y-121833758D01*
X101364657Y-121796661D01*
X101382927Y-121762480D01*
X101407518Y-121732518D01*
X101437480Y-121707927D01*
X101471661Y-121689657D01*
X101508758Y-121678404D01*
X101553473Y-121674000D01*
X102446527Y-121674000D01*
X102491242Y-121678404D01*
X102491242Y-121678404D01*
G37*
G36*
X106364499Y-121353445D02*
X106401993Y-121364819D01*
X106436557Y-121383294D01*
X106466847Y-121408153D01*
X106491706Y-121438443D01*
X106510181Y-121473007D01*
X106521555Y-121510501D01*
X106526000Y-121555638D01*
X106526000Y-122294362D01*
X106521555Y-122339499D01*
X106510181Y-122376993D01*
X106491706Y-122411557D01*
X106466847Y-122441847D01*
X106436557Y-122466706D01*
X106401993Y-122485181D01*
X106364499Y-122496555D01*
X106319362Y-122501000D01*
X105680638Y-122501000D01*
X105635501Y-122496555D01*
X105598007Y-122485181D01*
X105563443Y-122466706D01*
X105533153Y-122441847D01*
X105508294Y-122411557D01*
X105489819Y-122376993D01*
X105478445Y-122339499D01*
X105474000Y-122294362D01*
X105474000Y-121555638D01*
X105478445Y-121510501D01*
X105489819Y-121473007D01*
X105508294Y-121438443D01*
X105533153Y-121408153D01*
X105563443Y-121383294D01*
X105598007Y-121364819D01*
X105635501Y-121353445D01*
X105680638Y-121349000D01*
X106319362Y-121349000D01*
X106364499Y-121353445D01*
X106364499Y-121353445D01*
G37*
G36*
X94364499Y-121353445D02*
X94401993Y-121364819D01*
X94436557Y-121383294D01*
X94466847Y-121408153D01*
X94491706Y-121438443D01*
X94510181Y-121473007D01*
X94521555Y-121510501D01*
X94526000Y-121555638D01*
X94526000Y-122294362D01*
X94521555Y-122339499D01*
X94510181Y-122376993D01*
X94491706Y-122411557D01*
X94466847Y-122441847D01*
X94436557Y-122466706D01*
X94401993Y-122485181D01*
X94364499Y-122496555D01*
X94319362Y-122501000D01*
X93680638Y-122501000D01*
X93635501Y-122496555D01*
X93598007Y-122485181D01*
X93563443Y-122466706D01*
X93533153Y-122441847D01*
X93508294Y-122411557D01*
X93489819Y-122376993D01*
X93478445Y-122339499D01*
X93474000Y-122294362D01*
X93474000Y-121555638D01*
X93478445Y-121510501D01*
X93489819Y-121473007D01*
X93508294Y-121438443D01*
X93533153Y-121408153D01*
X93563443Y-121383294D01*
X93598007Y-121364819D01*
X93635501Y-121353445D01*
X93680638Y-121349000D01*
X94319362Y-121349000D01*
X94364499Y-121353445D01*
X94364499Y-121353445D01*
G37*
G36*
X80207972Y-115720462D02*
X79643324Y-116046462D01*
X78792324Y-114572486D01*
X79356972Y-114246486D01*
X80207972Y-115720462D01*
X80207972Y-115720462D01*
G37*
G36*
X121157676Y-114572486D02*
X120306676Y-116046462D01*
X119742028Y-115720462D01*
X120593028Y-114246486D01*
X121157676Y-114572486D01*
X121157676Y-114572486D01*
G37*
G36*
X81307824Y-115085462D02*
X80743176Y-115411462D01*
X79892176Y-113937486D01*
X80456824Y-113611486D01*
X81307824Y-115085462D01*
X81307824Y-115085462D01*
G37*
G36*
X120057824Y-113937486D02*
X119206824Y-115411462D01*
X118642176Y-115085462D01*
X119493176Y-113611486D01*
X120057824Y-113937486D01*
X120057824Y-113937486D01*
G37*
G36*
X118957972Y-113302486D02*
X118106972Y-114776462D01*
X117542324Y-114450462D01*
X118393324Y-112976486D01*
X118957972Y-113302486D01*
X118957972Y-113302486D01*
G37*
G36*
X82407676Y-114450462D02*
X81843028Y-114776462D01*
X80992028Y-113302486D01*
X81556676Y-112976486D01*
X82407676Y-114450462D01*
X82407676Y-114450462D01*
G37*
G36*
X124057676Y-109549538D02*
X123206676Y-111023514D01*
X122642028Y-110697514D01*
X123493028Y-109223538D01*
X124057676Y-109549538D01*
X124057676Y-109549538D01*
G37*
G36*
X77307972Y-110697514D02*
X76743324Y-111023514D01*
X75892324Y-109549538D01*
X76456972Y-109223538D01*
X77307972Y-110697514D01*
X77307972Y-110697514D01*
G37*
G36*
X122957824Y-108914538D02*
X122106824Y-110388514D01*
X121542176Y-110062514D01*
X122393176Y-108588538D01*
X122957824Y-108914538D01*
X122957824Y-108914538D01*
G37*
G36*
X78407824Y-110062514D02*
X77843176Y-110388514D01*
X76992176Y-108914538D01*
X77556824Y-108588538D01*
X78407824Y-110062514D01*
X78407824Y-110062514D01*
G37*
G36*
X121857972Y-108279538D02*
X121006972Y-109753514D01*
X120442324Y-109427514D01*
X121293324Y-107953538D01*
X121857972Y-108279538D01*
X121857972Y-108279538D01*
G37*
G36*
X79507676Y-109427514D02*
X78943028Y-109753514D01*
X78092028Y-108279538D01*
X78656676Y-107953538D01*
X79507676Y-109427514D01*
X79507676Y-109427514D01*
G37*
G36*
X87384875Y-105891298D02*
X87491198Y-105912447D01*
X87791661Y-106036903D01*
X88058471Y-106215180D01*
X88062073Y-106217587D01*
X88292032Y-106447546D01*
X88472717Y-106717960D01*
X88597172Y-107018422D01*
X88660619Y-107337389D01*
X88660619Y-107662611D01*
X88597172Y-107981578D01*
X88472717Y-108282040D01*
X88292032Y-108552454D01*
X88062073Y-108782413D01*
X88062070Y-108782415D01*
X87791661Y-108963097D01*
X87491198Y-109087553D01*
X87384875Y-109108702D01*
X87172230Y-109151000D01*
X86847008Y-109151000D01*
X86634363Y-109108702D01*
X86528040Y-109087553D01*
X86227577Y-108963097D01*
X85957168Y-108782415D01*
X85957165Y-108782413D01*
X85727206Y-108552454D01*
X85546521Y-108282040D01*
X85422066Y-107981578D01*
X85358619Y-107662611D01*
X85358619Y-107337389D01*
X85422066Y-107018422D01*
X85546521Y-106717960D01*
X85727206Y-106447546D01*
X85957165Y-106217587D01*
X85960767Y-106215180D01*
X86227577Y-106036903D01*
X86528040Y-105912447D01*
X86634363Y-105891298D01*
X86847008Y-105849000D01*
X87172230Y-105849000D01*
X87384875Y-105891298D01*
X87384875Y-105891298D01*
G37*
G36*
X113365637Y-105891298D02*
X113471960Y-105912447D01*
X113772423Y-106036903D01*
X114039233Y-106215180D01*
X114042835Y-106217587D01*
X114272794Y-106447546D01*
X114453479Y-106717960D01*
X114577934Y-107018422D01*
X114641381Y-107337389D01*
X114641381Y-107662611D01*
X114577934Y-107981578D01*
X114453479Y-108282040D01*
X114272794Y-108552454D01*
X114042835Y-108782413D01*
X114042832Y-108782415D01*
X113772423Y-108963097D01*
X113471960Y-109087553D01*
X113365637Y-109108702D01*
X113152992Y-109151000D01*
X112827770Y-109151000D01*
X112615125Y-109108702D01*
X112508802Y-109087553D01*
X112208339Y-108963097D01*
X111937930Y-108782415D01*
X111937927Y-108782413D01*
X111707968Y-108552454D01*
X111527283Y-108282040D01*
X111402828Y-107981578D01*
X111339381Y-107662611D01*
X111339381Y-107337389D01*
X111402828Y-107018422D01*
X111527283Y-106717960D01*
X111707968Y-106447546D01*
X111937927Y-106217587D01*
X111941529Y-106215180D01*
X112208339Y-106036903D01*
X112508802Y-105912447D01*
X112615125Y-105891298D01*
X112827770Y-105849000D01*
X113152992Y-105849000D01*
X113365637Y-105891298D01*
X113365637Y-105891298D01*
G37*
G36*
X100375256Y-83391298D02*
X100481579Y-83412447D01*
X100782042Y-83536903D01*
X101048852Y-83715180D01*
X101052454Y-83717587D01*
X101282413Y-83947546D01*
X101463098Y-84217960D01*
X101587553Y-84518422D01*
X101651000Y-84837389D01*
X101651000Y-85162611D01*
X101587553Y-85481578D01*
X101463098Y-85782040D01*
X101282413Y-86052454D01*
X101052454Y-86282413D01*
X101052451Y-86282415D01*
X100782042Y-86463097D01*
X100481579Y-86587553D01*
X100375256Y-86608702D01*
X100162611Y-86651000D01*
X99837389Y-86651000D01*
X99624744Y-86608702D01*
X99518421Y-86587553D01*
X99217958Y-86463097D01*
X98947549Y-86282415D01*
X98947546Y-86282413D01*
X98717587Y-86052454D01*
X98536902Y-85782040D01*
X98412447Y-85481578D01*
X98349000Y-85162611D01*
X98349000Y-84837389D01*
X98412447Y-84518422D01*
X98536902Y-84217960D01*
X98717587Y-83947546D01*
X98947546Y-83717587D01*
X98951148Y-83715180D01*
X99217958Y-83536903D01*
X99518421Y-83412447D01*
X99624744Y-83391298D01*
X99837389Y-83349000D01*
X100162611Y-83349000D01*
X100375256Y-83391298D01*
X100375256Y-83391298D01*
G37*
G36*
X97951000Y-77596000D02*
X96249000Y-77596000D01*
X96249000Y-76944000D01*
X97951000Y-76944000D01*
X97951000Y-77596000D01*
X97951000Y-77596000D01*
G37*
G36*
X103751000Y-77596000D02*
X102049000Y-77596000D01*
X102049000Y-76944000D01*
X103751000Y-76944000D01*
X103751000Y-77596000D01*
X103751000Y-77596000D01*
G37*
G36*
X97951000Y-76326000D02*
X96249000Y-76326000D01*
X96249000Y-75674000D01*
X97951000Y-75674000D01*
X97951000Y-76326000D01*
X97951000Y-76326000D01*
G37*
G36*
X103751000Y-76326000D02*
X102049000Y-76326000D01*
X102049000Y-75674000D01*
X103751000Y-75674000D01*
X103751000Y-76326000D01*
X103751000Y-76326000D01*
G37*
G36*
X97951000Y-75056000D02*
X96249000Y-75056000D01*
X96249000Y-74404000D01*
X97951000Y-74404000D01*
X97951000Y-75056000D01*
X97951000Y-75056000D01*
G37*
G36*
X103751000Y-75056000D02*
X102049000Y-75056000D01*
X102049000Y-74404000D01*
X103751000Y-74404000D01*
X103751000Y-75056000D01*
X103751000Y-75056000D01*
G37*
M02*
