G04 #@! TF.GenerationSoftware,KiCad,Pcbnew,(5.0.1-3-g963ef8bb5)*
G04 #@! TF.CreationDate,2019-08-14T18:08:12+02:00*
G04 #@! TF.ProjectId,crecol_led_pcb_v20,637265636F6C5F6C65645F7063625F76,rev?*
G04 #@! TF.SameCoordinates,Original*
G04 #@! TF.FileFunction,Legend,Bot*
G04 #@! TF.FilePolarity,Positive*
%FSLAX46Y46*%
G04 Gerber Fmt 4.6, Leading zero omitted, Abs format (unit mm)*
G04 Created by KiCad (PCBNEW (5.0.1-3-g963ef8bb5)) date 2019 August 14, Wednesday 18:08:12*
%MOMM*%
%LPD*%
G01*
G04 APERTURE LIST*
%ADD10C,0.300000*%
%ADD11C,0.700000*%
%ADD12C,0.120000*%
%ADD13C,0.150000*%
%ADD14C,0.010000*%
G04 APERTURE END LIST*
D10*
X72735714Y-126178571D02*
X72735714Y-124678571D01*
X72235714Y-125750000D01*
X71735714Y-124678571D01*
X71735714Y-126178571D01*
X70164285Y-126035714D02*
X70235714Y-126107142D01*
X70450000Y-126178571D01*
X70592857Y-126178571D01*
X70807142Y-126107142D01*
X70950000Y-125964285D01*
X71021428Y-125821428D01*
X71092857Y-125535714D01*
X71092857Y-125321428D01*
X71021428Y-125035714D01*
X70950000Y-124892857D01*
X70807142Y-124750000D01*
X70592857Y-124678571D01*
X70450000Y-124678571D01*
X70235714Y-124750000D01*
X70164285Y-124821428D01*
X69521428Y-126178571D02*
X69521428Y-124678571D01*
X69521428Y-125392857D02*
X68664285Y-125392857D01*
X68664285Y-126178571D02*
X68664285Y-124678571D01*
X67164285Y-126178571D02*
X68021428Y-126178571D01*
X67592857Y-126178571D02*
X67592857Y-124678571D01*
X67735714Y-124892857D01*
X67878571Y-125035714D01*
X68021428Y-125107142D01*
X66450000Y-126178571D02*
X66164285Y-126178571D01*
X66021428Y-126107142D01*
X65950000Y-126035714D01*
X65807142Y-125821428D01*
X65735714Y-125535714D01*
X65735714Y-124964285D01*
X65807142Y-124821428D01*
X65878571Y-124750000D01*
X66021428Y-124678571D01*
X66307142Y-124678571D01*
X66450000Y-124750000D01*
X66521428Y-124821428D01*
X66592857Y-124964285D01*
X66592857Y-125321428D01*
X66521428Y-125464285D01*
X66450000Y-125535714D01*
X66307142Y-125607142D01*
X66021428Y-125607142D01*
X65878571Y-125535714D01*
X65807142Y-125464285D01*
X65735714Y-125321428D01*
X64807142Y-124678571D02*
X64664285Y-124678571D01*
X64521428Y-124750000D01*
X64450000Y-124821428D01*
X64378571Y-124964285D01*
X64307142Y-125250000D01*
X64307142Y-125607142D01*
X64378571Y-125892857D01*
X64450000Y-126035714D01*
X64521428Y-126107142D01*
X64664285Y-126178571D01*
X64807142Y-126178571D01*
X64950000Y-126107142D01*
X65021428Y-126035714D01*
X65092857Y-125892857D01*
X65164285Y-125607142D01*
X65164285Y-125250000D01*
X65092857Y-124964285D01*
X65021428Y-124821428D01*
X64950000Y-124750000D01*
X64807142Y-124678571D01*
X63450000Y-125321428D02*
X63592857Y-125250000D01*
X63664285Y-125178571D01*
X63735714Y-125035714D01*
X63735714Y-124964285D01*
X63664285Y-124821428D01*
X63592857Y-124750000D01*
X63450000Y-124678571D01*
X63164285Y-124678571D01*
X63021428Y-124750000D01*
X62950000Y-124821428D01*
X62878571Y-124964285D01*
X62878571Y-125035714D01*
X62950000Y-125178571D01*
X63021428Y-125250000D01*
X63164285Y-125321428D01*
X63450000Y-125321428D01*
X63592857Y-125392857D01*
X63664285Y-125464285D01*
X63735714Y-125607142D01*
X63735714Y-125892857D01*
X63664285Y-126035714D01*
X63592857Y-126107142D01*
X63450000Y-126178571D01*
X63164285Y-126178571D01*
X63021428Y-126107142D01*
X62950000Y-126035714D01*
X62878571Y-125892857D01*
X62878571Y-125607142D01*
X62950000Y-125464285D01*
X63021428Y-125392857D01*
X63164285Y-125321428D01*
X61450000Y-126178571D02*
X62307142Y-126178571D01*
X61878571Y-126178571D02*
X61878571Y-124678571D01*
X62021428Y-124892857D01*
X62164285Y-125035714D01*
X62307142Y-125107142D01*
X60164285Y-125178571D02*
X60164285Y-126178571D01*
X60521428Y-124607142D02*
X60878571Y-125678571D01*
X59950000Y-125678571D01*
X59378571Y-126178571D02*
X59378571Y-124678571D01*
X59378571Y-125392857D02*
X58521428Y-125392857D01*
X58521428Y-126178571D02*
X58521428Y-124678571D01*
X58021428Y-124678571D02*
X57521428Y-126178571D01*
X57021428Y-124678571D01*
X56592857Y-124821428D02*
X56521428Y-124750000D01*
X56378571Y-124678571D01*
X56021428Y-124678571D01*
X55878571Y-124750000D01*
X55807142Y-124821428D01*
X55735714Y-124964285D01*
X55735714Y-125107142D01*
X55807142Y-125321428D01*
X56664285Y-126178571D01*
X55735714Y-126178571D01*
X55092857Y-126035714D02*
X55021428Y-126107142D01*
X55092857Y-126178571D01*
X55164285Y-126107142D01*
X55092857Y-126035714D01*
X55092857Y-126178571D01*
X54450000Y-124821428D02*
X54378571Y-124750000D01*
X54235714Y-124678571D01*
X53878571Y-124678571D01*
X53735714Y-124750000D01*
X53664285Y-124821428D01*
X53592857Y-124964285D01*
X53592857Y-125107142D01*
X53664285Y-125321428D01*
X54521428Y-126178571D01*
X53592857Y-126178571D01*
D11*
X70650000Y-122750000D02*
X70816666Y-122916666D01*
X71316666Y-123083333D01*
X71650000Y-123083333D01*
X72150000Y-122916666D01*
X72483333Y-122583333D01*
X72650000Y-122250000D01*
X72816666Y-121583333D01*
X72816666Y-121083333D01*
X72650000Y-120416666D01*
X72483333Y-120083333D01*
X72150000Y-119750000D01*
X71650000Y-119583333D01*
X71316666Y-119583333D01*
X70816666Y-119750000D01*
X70650000Y-119916666D01*
X67150000Y-123083333D02*
X68316666Y-121416666D01*
X69150000Y-123083333D02*
X69150000Y-119583333D01*
X67816666Y-119583333D01*
X67483333Y-119750000D01*
X67316666Y-119916666D01*
X67150000Y-120250000D01*
X67150000Y-120750000D01*
X67316666Y-121083333D01*
X67483333Y-121250000D01*
X67816666Y-121416666D01*
X69150000Y-121416666D01*
X65650000Y-121250000D02*
X64483333Y-121250000D01*
X63983333Y-123083333D02*
X65650000Y-123083333D01*
X65650000Y-119583333D01*
X63983333Y-119583333D01*
X60483333Y-122750000D02*
X60650000Y-122916666D01*
X61150000Y-123083333D01*
X61483333Y-123083333D01*
X61983333Y-122916666D01*
X62316666Y-122583333D01*
X62483333Y-122250000D01*
X62650000Y-121583333D01*
X62650000Y-121083333D01*
X62483333Y-120416666D01*
X62316666Y-120083333D01*
X61983333Y-119750000D01*
X61483333Y-119583333D01*
X61150000Y-119583333D01*
X60650000Y-119750000D01*
X60483333Y-119916666D01*
X58316666Y-119583333D02*
X57650000Y-119583333D01*
X57316666Y-119750000D01*
X56983333Y-120083333D01*
X56816666Y-120750000D01*
X56816666Y-121916666D01*
X56983333Y-122583333D01*
X57316666Y-122916666D01*
X57650000Y-123083333D01*
X58316666Y-123083333D01*
X58650000Y-122916666D01*
X58983333Y-122583333D01*
X59150000Y-121916666D01*
X59150000Y-120750000D01*
X58983333Y-120083333D01*
X58650000Y-119750000D01*
X58316666Y-119583333D01*
X53650000Y-123083333D02*
X55316666Y-123083333D01*
X55316666Y-119583333D01*
D10*
X102214285Y-55778571D02*
X102928571Y-55778571D01*
X103000000Y-56492857D01*
X102928571Y-56421428D01*
X102785714Y-56350000D01*
X102428571Y-56350000D01*
X102285714Y-56421428D01*
X102214285Y-56492857D01*
X102142857Y-56635714D01*
X102142857Y-56992857D01*
X102214285Y-57135714D01*
X102285714Y-57207142D01*
X102428571Y-57278571D01*
X102785714Y-57278571D01*
X102928571Y-57207142D01*
X103000000Y-57135714D01*
X101714285Y-55778571D02*
X101214285Y-57278571D01*
X100714285Y-55778571D01*
X99142857Y-55921428D02*
X99071428Y-55850000D01*
X98928571Y-55778571D01*
X98571428Y-55778571D01*
X98428571Y-55850000D01*
X98357142Y-55921428D01*
X98285714Y-56064285D01*
X98285714Y-56207142D01*
X98357142Y-56421428D01*
X99214285Y-57278571D01*
X98285714Y-57278571D01*
X97714285Y-56850000D02*
X97000000Y-56850000D01*
X97857142Y-57278571D02*
X97357142Y-55778571D01*
X96857142Y-57278571D01*
X76634660Y-52275801D02*
X76794092Y-52266231D01*
X77041528Y-52123374D01*
X77129532Y-51990086D01*
X77119962Y-51830654D01*
X76834248Y-51335782D01*
X76700960Y-51247779D01*
X76541528Y-51257348D01*
X76294092Y-51400206D01*
X76206088Y-51533493D01*
X76215658Y-51692925D01*
X76287087Y-51816643D01*
X76977105Y-51583218D01*
X75551785Y-51828777D02*
X76051785Y-52694802D01*
X75623213Y-51952495D02*
X75525640Y-51926350D01*
X75366208Y-51935920D01*
X75180631Y-52043063D01*
X75092627Y-52176350D01*
X75102197Y-52335782D01*
X75495054Y-53016231D01*
X74284019Y-53632943D02*
X74443452Y-53623374D01*
X74690887Y-53480517D01*
X74778891Y-53347229D01*
X74805036Y-53249656D01*
X74795466Y-53090224D01*
X74581180Y-52719070D01*
X74447893Y-52631066D01*
X74350320Y-52604922D01*
X74190887Y-52614491D01*
X73943452Y-52757348D01*
X73855448Y-52890636D01*
X73577426Y-54123374D02*
X73665430Y-53990086D01*
X73691575Y-53892513D01*
X73682005Y-53733081D01*
X73467719Y-53361927D01*
X73334432Y-53273924D01*
X73236858Y-53247779D01*
X73077426Y-53257348D01*
X72891849Y-53364491D01*
X72803846Y-53497779D01*
X72777701Y-53595352D01*
X72787271Y-53754784D01*
X73001556Y-54125938D01*
X73134844Y-54213942D01*
X73232417Y-54240086D01*
X73391849Y-54230517D01*
X73577426Y-54123374D01*
X72030952Y-55016231D02*
X71280952Y-53717193D01*
X71995238Y-54954372D02*
X72154670Y-54944802D01*
X72402106Y-54801945D01*
X72490110Y-54668658D01*
X72516254Y-54571085D01*
X72506685Y-54411652D01*
X72292399Y-54040499D01*
X72159112Y-53952495D01*
X72061538Y-53926350D01*
X71902106Y-53935920D01*
X71654670Y-54078777D01*
X71566667Y-54212065D01*
X70881777Y-55597229D02*
X71041209Y-55587660D01*
X71288645Y-55444802D01*
X71376648Y-55311515D01*
X71367079Y-55152083D01*
X71081365Y-54657211D01*
X70948077Y-54569207D01*
X70788645Y-54578777D01*
X70541209Y-54721634D01*
X70453205Y-54854922D01*
X70462775Y-55014354D01*
X70534204Y-55138072D01*
X71224222Y-54904647D01*
X70298902Y-56016231D02*
X69798902Y-55150206D01*
X69941759Y-55397641D02*
X69808471Y-55309638D01*
X69710898Y-55283493D01*
X69551466Y-55293063D01*
X69427748Y-55364491D01*
X84525524Y-59422229D02*
X84437521Y-59555517D01*
X84190085Y-59698374D01*
X84030653Y-59707943D01*
X83897365Y-59619940D01*
X83861651Y-59558081D01*
X83852081Y-59398649D01*
X83940085Y-59265361D01*
X84125662Y-59158218D01*
X84213666Y-59024931D01*
X84204096Y-58865499D01*
X84168382Y-58803640D01*
X84035094Y-58715636D01*
X83875662Y-58725206D01*
X83690085Y-58832348D01*
X83602081Y-58965636D01*
X83071495Y-59189491D02*
X83324060Y-60198374D01*
X82719481Y-59722641D01*
X82829188Y-60484088D01*
X82081752Y-59760920D01*
X82086880Y-60912660D02*
X81586880Y-60046634D01*
X81336880Y-59613621D02*
X81434454Y-59639766D01*
X81408309Y-59737339D01*
X81310736Y-59711195D01*
X81336880Y-59613621D01*
X81408309Y-59737339D01*
X81153868Y-60296634D02*
X80658996Y-60582348D01*
X80718291Y-59970764D02*
X81361148Y-61084226D01*
X81370718Y-61243658D01*
X81282714Y-61376945D01*
X81158996Y-61448374D01*
X80133539Y-61957943D02*
X80292971Y-61948374D01*
X80540407Y-61805517D01*
X80628410Y-61672229D01*
X80654555Y-61574656D01*
X80644985Y-61415224D01*
X80430700Y-61044070D01*
X80297412Y-60956066D01*
X80199839Y-60929922D01*
X80040407Y-60939491D01*
X79792971Y-61082348D01*
X79704967Y-61215636D01*
X79612522Y-62341231D02*
X78862522Y-61042193D01*
X79055792Y-62662660D02*
X78662934Y-61982211D01*
X78653365Y-61822779D01*
X78741368Y-61689491D01*
X78926945Y-61582348D01*
X79086378Y-61572779D01*
X79183951Y-61598924D01*
X76947459Y-62725206D02*
X77697459Y-64024244D01*
X76983173Y-62787065D02*
X76823741Y-62796634D01*
X76576305Y-62939491D01*
X76488301Y-63072779D01*
X76462157Y-63170352D01*
X76471726Y-63329784D01*
X76686012Y-63700938D01*
X76819299Y-63788942D01*
X76916873Y-63815086D01*
X77076305Y-63805517D01*
X77323741Y-63662660D01*
X77411744Y-63529372D01*
X76086562Y-64376945D02*
X76174565Y-64243658D01*
X76164996Y-64084226D01*
X75522138Y-62970764D01*
X75034959Y-64984088D02*
X74642102Y-64303640D01*
X74632533Y-64144207D01*
X74720536Y-64010920D01*
X74967972Y-63868063D01*
X75127404Y-63858493D01*
X74999245Y-64922229D02*
X75158677Y-64912660D01*
X75467972Y-64734088D01*
X75555976Y-64600801D01*
X75546406Y-64441368D01*
X75474977Y-64317651D01*
X75341690Y-64229647D01*
X75182258Y-64239217D01*
X74872963Y-64417788D01*
X74713531Y-64427358D01*
X74101947Y-64368063D02*
X73607075Y-64653777D01*
X73666370Y-64042193D02*
X74309227Y-65155654D01*
X74318797Y-65315086D01*
X74230793Y-65448374D01*
X74107075Y-65519802D01*
X73143476Y-65993658D02*
X73302909Y-65984088D01*
X73550344Y-65841231D01*
X73638348Y-65707943D01*
X73628778Y-65548511D01*
X73343064Y-65053640D01*
X73209777Y-64965636D01*
X73050344Y-64975206D01*
X72802909Y-65118063D01*
X72714905Y-65251350D01*
X72724475Y-65410782D01*
X72795903Y-65534500D01*
X73485921Y-65301075D01*
X67351945Y-70806916D02*
X66485920Y-70306916D01*
X66609638Y-70378344D02*
X66512065Y-70404489D01*
X66378777Y-70492492D01*
X66271634Y-70678069D01*
X66262065Y-70837501D01*
X66350068Y-70970789D01*
X67030517Y-71363646D01*
X66350068Y-70970789D02*
X66190636Y-70961219D01*
X66057348Y-71049223D01*
X65950206Y-71234800D01*
X65940636Y-71394232D01*
X66028640Y-71527520D01*
X66709088Y-71920377D01*
X66244802Y-72724543D02*
X66254372Y-72565111D01*
X66228227Y-72467538D01*
X66140224Y-72334250D01*
X65769070Y-72119965D01*
X65609638Y-72110395D01*
X65512065Y-72136540D01*
X65378777Y-72224543D01*
X65271634Y-72410120D01*
X65262065Y-72569552D01*
X65288209Y-72667126D01*
X65376213Y-72800413D01*
X65747367Y-73014699D01*
X65906799Y-73024268D01*
X66004372Y-72998124D01*
X66137660Y-72910120D01*
X66244802Y-72724543D01*
X64914491Y-73028710D02*
X64628777Y-73523581D01*
X64374336Y-72964287D02*
X65487797Y-73607144D01*
X65575801Y-73740431D01*
X65566231Y-73899863D01*
X65494802Y-74023581D01*
X65137660Y-74642171D02*
X65147229Y-74482739D01*
X65121085Y-74385165D01*
X65033081Y-74251878D01*
X64661927Y-74037592D01*
X64502495Y-74028023D01*
X64404922Y-74054167D01*
X64271634Y-74142171D01*
X64164491Y-74327748D01*
X64154922Y-74487180D01*
X64181066Y-74584753D01*
X64269070Y-74718041D01*
X64640224Y-74932326D01*
X64799656Y-74941896D01*
X64897229Y-74915751D01*
X65030517Y-74827748D01*
X65137660Y-74642171D01*
X64566231Y-75631914D02*
X63700206Y-75131914D01*
X63947641Y-75274771D02*
X63788209Y-75265202D01*
X63690636Y-75291346D01*
X63557348Y-75379350D01*
X63485920Y-75503068D01*
X63147229Y-77946840D02*
X63280517Y-77858837D01*
X63423374Y-77611401D01*
X63432943Y-77451969D01*
X63406799Y-77354395D01*
X63318795Y-77221108D01*
X62947641Y-77006822D01*
X62788209Y-76997253D01*
X62690636Y-77023397D01*
X62557348Y-77111401D01*
X62414491Y-77358837D01*
X62404922Y-77518269D01*
X62780517Y-78724862D02*
X62790086Y-78565430D01*
X62763942Y-78467857D01*
X62675938Y-78334569D01*
X62304784Y-78120283D01*
X62145352Y-78110714D01*
X62047779Y-78136858D01*
X61914491Y-78224862D01*
X61807348Y-78410439D01*
X61797779Y-78569871D01*
X61823924Y-78667444D01*
X61911927Y-78800732D01*
X62283081Y-79015018D01*
X62442513Y-79024587D01*
X62540086Y-78998443D01*
X62673374Y-78910439D01*
X62780517Y-78724862D01*
X61343063Y-79214605D02*
X62209088Y-79714605D01*
X61466781Y-79286034D02*
X61369207Y-79312179D01*
X61235920Y-79400182D01*
X61128777Y-79585759D01*
X61119207Y-79745191D01*
X61207211Y-79878479D01*
X61887660Y-80271336D01*
X60771634Y-80204349D02*
X60485920Y-80699220D01*
X60231479Y-80139926D02*
X61344940Y-80782783D01*
X61432943Y-80916070D01*
X61423374Y-81075502D01*
X61351945Y-81199220D01*
X61101945Y-81632233D02*
X60235920Y-81132233D01*
X60483356Y-81275090D02*
X60323924Y-81265521D01*
X60226350Y-81291665D01*
X60093063Y-81379669D01*
X60021634Y-81503387D01*
X60530517Y-82621976D02*
X60540086Y-82462544D01*
X60513942Y-82364971D01*
X60425938Y-82231683D01*
X60054784Y-82017398D01*
X59895352Y-82007828D01*
X59797779Y-82033973D01*
X59664491Y-82121976D01*
X59557348Y-82307553D01*
X59547779Y-82466985D01*
X59573924Y-82564559D01*
X59661927Y-82697846D01*
X60033081Y-82912132D01*
X60192513Y-82921702D01*
X60290086Y-82895557D01*
X60423374Y-82807553D01*
X60530517Y-82621976D01*
X59851945Y-83797297D02*
X59861515Y-83637864D01*
X59773511Y-83504577D01*
X58660050Y-82861720D01*
X59459088Y-84477745D02*
X59468658Y-84318313D01*
X59380654Y-84185025D01*
X58267193Y-83542168D01*
X58825801Y-85431774D02*
X58959088Y-85343771D01*
X59101945Y-85096335D01*
X59111515Y-84936902D01*
X59023511Y-84803615D01*
X58528640Y-84517901D01*
X58369207Y-84508331D01*
X58235920Y-84596335D01*
X58093063Y-84843771D01*
X58083493Y-85003203D01*
X58171497Y-85136490D01*
X58295215Y-85207919D01*
X58776075Y-84660758D01*
X58530517Y-86086078D02*
X57664491Y-85586078D01*
X57911927Y-85728935D02*
X57752495Y-85719366D01*
X57654922Y-85745510D01*
X57521634Y-85833514D01*
X57450206Y-85957232D01*
D12*
G04 #@! TO.C,J33*
X104150000Y-47950000D02*
X104150000Y-49200000D01*
X102900000Y-47950000D02*
X104150000Y-47950000D01*
X97000000Y-53450000D02*
X100050000Y-53450000D01*
X97000000Y-50500000D02*
X97000000Y-53450000D01*
X96250000Y-50500000D02*
X97000000Y-50500000D01*
X103100000Y-53450000D02*
X100050000Y-53450000D01*
X103100000Y-50500000D02*
X103100000Y-53450000D01*
X103850000Y-50500000D02*
X103100000Y-50500000D01*
X96250000Y-48250000D02*
X98050000Y-48250000D01*
X96250000Y-49000000D02*
X96250000Y-48250000D01*
X98050000Y-49000000D02*
X96250000Y-49000000D01*
X98050000Y-48250000D02*
X98050000Y-49000000D01*
X102050000Y-48250000D02*
X103850000Y-48250000D01*
X102050000Y-49000000D02*
X102050000Y-48250000D01*
X103850000Y-49000000D02*
X102050000Y-49000000D01*
X103850000Y-48250000D02*
X103850000Y-49000000D01*
X99550000Y-48250000D02*
X100550000Y-48250000D01*
X99550000Y-49000000D02*
X99550000Y-48250000D01*
X100550000Y-49000000D02*
X99550000Y-49000000D01*
X100550000Y-48250000D02*
X100550000Y-49000000D01*
X96240000Y-48240000D02*
X103860000Y-48240000D01*
X96240000Y-54210000D02*
X96240000Y-48240000D01*
X103860000Y-54210000D02*
X96240000Y-54210000D01*
X103860000Y-48240000D02*
X103860000Y-54210000D01*
G04 #@! TO.C,C31*
X66803322Y-56856039D02*
X66506678Y-57027306D01*
X66293322Y-55972694D02*
X65996678Y-56143961D01*
G04 #@! TO.C,C30*
X63893322Y-51772694D02*
X63596678Y-51943961D01*
X64403322Y-52656039D02*
X64106678Y-52827306D01*
G04 #@! TO.C,R32*
X64396678Y-53343961D02*
X64693322Y-53172694D01*
X64906678Y-54227306D02*
X65203322Y-54056039D01*
G04 #@! TO.C,R33*
X65706678Y-55627306D02*
X66003322Y-55456039D01*
X65196678Y-54743961D02*
X65493322Y-54572694D01*
G04 #@! TO.C,C0*
X93490000Y-122628733D02*
X93490000Y-122971267D01*
X94510000Y-122628733D02*
X94510000Y-122971267D01*
G04 #@! TO.C,J0*
X104060000Y-120790000D02*
X104060000Y-125510000D01*
X104060000Y-125510000D02*
X95940000Y-125510000D01*
X95940000Y-125510000D02*
X95940000Y-120790000D01*
X95940000Y-120790000D02*
X104060000Y-120790000D01*
X102300000Y-120790000D02*
X102300000Y-120590000D01*
X102300000Y-120590000D02*
X102600000Y-120590000D01*
X102600000Y-120590000D02*
X102600000Y-120790000D01*
X102300000Y-120690000D02*
X102600000Y-120690000D01*
X101500000Y-120790000D02*
X101500000Y-121400000D01*
X101500000Y-121400000D02*
X103450000Y-121400000D01*
X103450000Y-121400000D02*
X103450000Y-124900000D01*
X103450000Y-124900000D02*
X96550000Y-124900000D01*
X96550000Y-124900000D02*
X96550000Y-121400000D01*
X96550000Y-121400000D02*
X98500000Y-121400000D01*
X98500000Y-121400000D02*
X98500000Y-120790000D01*
X104060000Y-122100000D02*
X103450000Y-122100000D01*
X104060000Y-123400000D02*
X103450000Y-123400000D01*
X95940000Y-122100000D02*
X96550000Y-122100000D01*
X95940000Y-123400000D02*
X96550000Y-123400000D01*
X101100000Y-124900000D02*
X101100000Y-124400000D01*
X101100000Y-124400000D02*
X100900000Y-124400000D01*
X100900000Y-124400000D02*
X100900000Y-124900000D01*
X101000000Y-124900000D02*
X101000000Y-124400000D01*
X99100000Y-124900000D02*
X99100000Y-124400000D01*
X99100000Y-124400000D02*
X98900000Y-124400000D01*
X98900000Y-124400000D02*
X98900000Y-124900000D01*
X99000000Y-124900000D02*
X99000000Y-124400000D01*
X103110000Y-120490000D02*
X104360000Y-120490000D01*
X104360000Y-120490000D02*
X104360000Y-121740000D01*
G04 #@! TO.C,R0*
X106510000Y-122971267D02*
X106510000Y-122628733D01*
X105490000Y-122971267D02*
X105490000Y-122628733D01*
D13*
G04 #@! TO.C,SW0*
X75817949Y-110228719D02*
X75298334Y-110528719D01*
X75298334Y-110528719D02*
X78498334Y-116071281D01*
X78498334Y-116071281D02*
X79017949Y-115771281D01*
X82482051Y-113771281D02*
X83001666Y-113471281D01*
X83001666Y-113471281D02*
X79801666Y-107928719D01*
X79801666Y-107928719D02*
X79282051Y-108228719D01*
G04 #@! TO.C,SW1*
X96800000Y-78000000D02*
X96800000Y-78600000D01*
X96800000Y-78600000D02*
X103200000Y-78600000D01*
X103200000Y-78600000D02*
X103200000Y-78000000D01*
X103200000Y-74000000D02*
X103200000Y-73400000D01*
X103200000Y-73400000D02*
X96800000Y-73400000D01*
X96800000Y-73400000D02*
X96800000Y-74000000D01*
G04 #@! TO.C,SW2*
X116948334Y-113471281D02*
X117467949Y-113771281D01*
X120148334Y-107928719D02*
X116948334Y-113471281D01*
X120667949Y-108228719D02*
X120148334Y-107928719D01*
X124651666Y-110528719D02*
X124132051Y-110228719D01*
X121451666Y-116071281D02*
X124651666Y-110528719D01*
X120932051Y-115771281D02*
X121451666Y-116071281D01*
D12*
G04 #@! TO.C,C10*
X67903322Y-36056039D02*
X67606678Y-36227306D01*
X67393322Y-35172694D02*
X67096678Y-35343961D01*
G04 #@! TO.C,C11*
X60593322Y-38872694D02*
X60296678Y-39043961D01*
X61103322Y-39756039D02*
X60806678Y-39927306D01*
G04 #@! TO.C,C20*
X124096678Y-53656039D02*
X124393322Y-53827306D01*
X124606678Y-52772694D02*
X124903322Y-52943961D01*
G04 #@! TO.C,C21*
X128306678Y-54872694D02*
X128603322Y-55043961D01*
X127796678Y-55756039D02*
X128093322Y-55927306D01*
G04 #@! TO.C,J10*
X158231408Y-73982089D02*
X158714421Y-73818691D01*
X156955575Y-74372281D02*
X158231408Y-73982089D01*
X155556536Y-74949077D02*
X156955575Y-74372281D01*
X154380704Y-75512474D02*
X155556536Y-74949077D01*
X152821858Y-76412474D02*
X154380704Y-75512474D01*
X151746026Y-77149076D02*
X152821858Y-76412474D01*
X151103205Y-77635679D02*
X151746026Y-77149076D01*
X149780962Y-78745486D02*
X151103205Y-77635679D01*
X149188141Y-79318691D02*
X149780962Y-78745486D01*
X149921155Y-79588306D02*
X158581407Y-74588307D01*
X148738141Y-78539269D02*
X149238141Y-79405294D01*
X158264421Y-73039269D02*
X158764421Y-73905294D01*
X147517046Y-79244268D02*
X159485516Y-72334269D01*
X152525517Y-60279195D02*
X140557045Y-67189195D01*
X153875517Y-62617464D02*
X152525517Y-60279195D01*
X159485516Y-72334269D02*
X159285517Y-71987858D01*
X158025516Y-69805475D02*
X155135516Y-64799848D01*
X141907045Y-69527464D02*
X140557045Y-67189195D01*
X146057046Y-76715474D02*
X143167046Y-71709847D01*
X147517046Y-79244268D02*
X147317045Y-78897858D01*
X158764421Y-73905295D02*
G75*
G02X158581407Y-74588307I-433013J-249999D01*
G01*
X149921154Y-79588307D02*
G75*
G02X149238141Y-79405294I-250000J433013D01*
G01*
D13*
G04 #@! TO.C,J20*
X114763657Y-63133716D02*
G75*
G03X119363656Y-55166285I7236343J1133716D01*
G01*
D12*
G04 #@! TO.C,R10*
X72364450Y-44689806D02*
X72661094Y-44518539D01*
X71854450Y-43806461D02*
X72151094Y-43635194D01*
G04 #@! TO.C,R20*
X134527306Y-53606678D02*
X134356039Y-53903322D01*
X133643961Y-53096678D02*
X133472694Y-53393322D01*
D13*
G04 #@! TO.C,U10*
X70151907Y-43775288D02*
X66298093Y-46000288D01*
X68022595Y-37037212D02*
X62848093Y-40024712D01*
G04 #@! TO.C,U20*
X131684503Y-49207485D02*
X131659503Y-49250786D01*
X128090497Y-47132485D02*
X128017997Y-47258058D01*
X125515497Y-51592515D02*
X125587997Y-51466942D01*
X129109503Y-53667515D02*
X129182003Y-53541942D01*
X131684503Y-49207485D02*
X128090497Y-47132485D01*
X129109503Y-53667515D02*
X125515497Y-51592515D01*
X131659503Y-49250786D02*
X132871938Y-49950786D01*
D12*
G04 #@! TO.C,J30*
X57737506Y-82553114D02*
X53649866Y-80193114D01*
X53649866Y-80193114D02*
X59709866Y-69696886D01*
X59709866Y-69696886D02*
X63797506Y-72056886D01*
X63797506Y-72056886D02*
X57737506Y-82553114D01*
X58617506Y-81028910D02*
X58790711Y-81128910D01*
X58790711Y-81128910D02*
X58640711Y-81388717D01*
X58640711Y-81388717D02*
X58467506Y-81288717D01*
X58704109Y-81078910D02*
X58554109Y-81338717D01*
X59017506Y-80336089D02*
X58489230Y-80031089D01*
X58489230Y-80031089D02*
X57514230Y-81719839D01*
X57514230Y-81719839D02*
X54483142Y-79969839D01*
X54483142Y-79969839D02*
X59933142Y-70530162D01*
X59933142Y-70530162D02*
X62964230Y-72280162D01*
X62964230Y-72280162D02*
X61989230Y-73968911D01*
X61989230Y-73968911D02*
X62517506Y-74273911D01*
X56603013Y-81898114D02*
X56908013Y-81369839D01*
X55477180Y-81248114D02*
X55782180Y-80719839D01*
X62663013Y-71401886D02*
X62358013Y-71930162D01*
X61537180Y-70751886D02*
X61232180Y-71280162D01*
X55658142Y-77934679D02*
X56091154Y-78184679D01*
X56091154Y-78184679D02*
X56191154Y-78011474D01*
X56191154Y-78011474D02*
X55758142Y-77761474D01*
X55708142Y-77848077D02*
X56141154Y-78098077D01*
X56658142Y-76202628D02*
X57091154Y-76452628D01*
X57091154Y-76452628D02*
X57191154Y-76279423D01*
X57191154Y-76279423D02*
X56758142Y-76029423D01*
X56708142Y-76116026D02*
X57141154Y-76366026D01*
X57658142Y-74470578D02*
X58091154Y-74720578D01*
X58091154Y-74720578D02*
X58191154Y-74547372D01*
X58191154Y-74547372D02*
X57758142Y-74297372D01*
X57708142Y-74383975D02*
X58141154Y-74633975D01*
X58658142Y-72738527D02*
X59091154Y-72988527D01*
X59091154Y-72988527D02*
X59191154Y-72815322D01*
X59191154Y-72815322D02*
X58758142Y-72565322D01*
X58708142Y-72651924D02*
X59141154Y-72901924D01*
X58472314Y-81880390D02*
X57847314Y-82962922D01*
X57847314Y-82962922D02*
X56764782Y-82337922D01*
G04 #@! TO.C,J31*
X68779129Y-54607314D02*
X68154129Y-53524782D01*
X69861661Y-53982314D02*
X68779129Y-54607314D01*
X71216025Y-48108142D02*
X71466025Y-48541154D01*
X71552628Y-48491154D02*
X71302628Y-48058142D01*
X71379423Y-48591154D02*
X71552628Y-48491154D01*
X71129423Y-48158142D02*
X71379423Y-48591154D01*
X69483975Y-49108142D02*
X69733974Y-49541154D01*
X69820577Y-49491154D02*
X69570577Y-49058142D01*
X69647372Y-49591154D02*
X69820577Y-49491154D01*
X69397372Y-49158142D02*
X69647372Y-49591154D01*
X74616063Y-47877180D02*
X74087788Y-48182181D01*
X75266063Y-49003013D02*
X74737787Y-49308013D01*
X67583937Y-51937180D02*
X68112212Y-51632180D01*
X68233937Y-53063013D02*
X68762212Y-52758013D01*
X73399038Y-50889230D02*
X73704038Y-51417506D01*
X75087787Y-49914231D02*
X73399038Y-50889230D01*
X73337788Y-46883142D02*
X75087787Y-49914231D01*
X67362212Y-50333142D02*
X73337788Y-46883142D01*
X69112212Y-53364230D02*
X67362212Y-50333142D01*
X70800961Y-52389230D02*
X69112212Y-53364230D01*
X71105962Y-52917506D02*
X70800961Y-52389230D01*
X70463142Y-53404109D02*
X70203334Y-53554109D01*
X70253334Y-53640711D02*
X70153334Y-53467506D01*
X70513141Y-53490711D02*
X70253334Y-53640711D01*
X70413141Y-53317506D02*
X70513141Y-53490711D01*
X75921063Y-50137506D02*
X68888937Y-54197506D01*
X73561063Y-46049866D02*
X75921063Y-50137506D01*
X66528937Y-50109866D02*
X73561063Y-46049866D01*
X68888937Y-54197506D02*
X66528937Y-50109866D01*
G04 #@! TO.C,J32*
X73888937Y-62797506D02*
X71528937Y-58709866D01*
X71528937Y-58709866D02*
X78561063Y-54649866D01*
X78561063Y-54649866D02*
X80921063Y-58737506D01*
X80921063Y-58737506D02*
X73888937Y-62797506D01*
X75413141Y-61917506D02*
X75513141Y-62090711D01*
X75513141Y-62090711D02*
X75253334Y-62240711D01*
X75253334Y-62240711D02*
X75153334Y-62067506D01*
X75463141Y-62004109D02*
X75203334Y-62154109D01*
X76105962Y-61517506D02*
X75800962Y-60989230D01*
X75800962Y-60989230D02*
X74112212Y-61964230D01*
X74112212Y-61964230D02*
X72362212Y-58933142D01*
X72362212Y-58933142D02*
X78337787Y-55483142D01*
X78337787Y-55483142D02*
X80087787Y-58514230D01*
X80087787Y-58514230D02*
X78399038Y-59489230D01*
X78399038Y-59489230D02*
X78704038Y-60017506D01*
X73233937Y-61663013D02*
X73762212Y-61358013D01*
X72583937Y-60537180D02*
X73112212Y-60232180D01*
X80266063Y-57603013D02*
X79737787Y-57908013D01*
X79616063Y-56477180D02*
X79087787Y-56782180D01*
X74397372Y-57758142D02*
X74647372Y-58191154D01*
X74647372Y-58191154D02*
X74820577Y-58091154D01*
X74820577Y-58091154D02*
X74570577Y-57658142D01*
X74483974Y-57708142D02*
X74733974Y-58141154D01*
X76129423Y-56758142D02*
X76379423Y-57191154D01*
X76379423Y-57191154D02*
X76552628Y-57091154D01*
X76552628Y-57091154D02*
X76302628Y-56658142D01*
X76216025Y-56708142D02*
X76466025Y-57141154D01*
X74861661Y-62582314D02*
X73779129Y-63207314D01*
X73779129Y-63207314D02*
X73154129Y-62124782D01*
G04 #@! TO.C,R30*
X113210000Y-20628733D02*
X113210000Y-20971267D01*
X112190000Y-20628733D02*
X112190000Y-20971267D01*
G04 #@! TO.C,R31*
X109690000Y-20628733D02*
X109690000Y-20971267D01*
X110710000Y-20628733D02*
X110710000Y-20971267D01*
D13*
G04 #@! TO.C,U30*
X119050000Y-43890000D02*
X121590000Y-43890000D01*
X121590000Y-43890000D02*
X121590000Y-41350000D01*
X121590000Y-28650000D02*
X121590000Y-26110000D01*
X121590000Y-26110000D02*
X119050000Y-26110000D01*
X80315000Y-43890000D02*
X77775000Y-43890000D01*
X77775000Y-43890000D02*
X77775000Y-41350000D01*
X77775000Y-28650000D02*
X77775000Y-26110000D01*
X77775000Y-26110000D02*
X80315000Y-26110000D01*
D12*
G04 #@! TO.C,J34*
X49137506Y-77653114D02*
X45049866Y-75293114D01*
X45049866Y-75293114D02*
X51109866Y-64796886D01*
X51109866Y-64796886D02*
X55197506Y-67156886D01*
X55197506Y-67156886D02*
X49137506Y-77653114D01*
X50017506Y-76128910D02*
X50190711Y-76228910D01*
X50190711Y-76228910D02*
X50040711Y-76488717D01*
X50040711Y-76488717D02*
X49867506Y-76388717D01*
X50104109Y-76178910D02*
X49954109Y-76438717D01*
X50417506Y-75436089D02*
X49889230Y-75131089D01*
X49889230Y-75131089D02*
X48914230Y-76819839D01*
X48914230Y-76819839D02*
X45883142Y-75069839D01*
X45883142Y-75069839D02*
X51333142Y-65630162D01*
X51333142Y-65630162D02*
X54364230Y-67380162D01*
X54364230Y-67380162D02*
X53389230Y-69068911D01*
X53389230Y-69068911D02*
X53917506Y-69373911D01*
X48003013Y-76998114D02*
X48308013Y-76469839D01*
X46877180Y-76348114D02*
X47182180Y-75819839D01*
X54063013Y-66501886D02*
X53758013Y-67030162D01*
X52937180Y-65851886D02*
X52632180Y-66380162D01*
X47058142Y-73034679D02*
X47491154Y-73284679D01*
X47491154Y-73284679D02*
X47591154Y-73111474D01*
X47591154Y-73111474D02*
X47158142Y-72861474D01*
X47108142Y-72948077D02*
X47541154Y-73198077D01*
X48058142Y-71302628D02*
X48491154Y-71552628D01*
X48491154Y-71552628D02*
X48591154Y-71379423D01*
X48591154Y-71379423D02*
X48158142Y-71129423D01*
X48108142Y-71216026D02*
X48541154Y-71466026D01*
X49058142Y-69570578D02*
X49491154Y-69820578D01*
X49491154Y-69820578D02*
X49591154Y-69647372D01*
X49591154Y-69647372D02*
X49158142Y-69397372D01*
X49108142Y-69483975D02*
X49541154Y-69733975D01*
X50058142Y-67838527D02*
X50491154Y-68088527D01*
X50491154Y-68088527D02*
X50591154Y-67915322D01*
X50591154Y-67915322D02*
X50158142Y-67665322D01*
X50108142Y-67751924D02*
X50541154Y-68001924D01*
X49872314Y-76980390D02*
X49247314Y-78062922D01*
X49247314Y-78062922D02*
X48164782Y-77437922D01*
D14*
G04 #@! TO.C,G\002A\002A\002A*
G36*
X61857892Y-136469735D02*
X61538215Y-136579598D01*
X61201451Y-136768420D01*
X60913176Y-136987856D01*
X60738961Y-137189562D01*
X60725231Y-137304800D01*
X60702371Y-137457304D01*
X60662072Y-137491219D01*
X60604428Y-137647419D01*
X60560533Y-138000908D01*
X60536118Y-138495099D01*
X60533000Y-138765761D01*
X60533000Y-139960533D01*
X60981734Y-140409266D01*
X61280197Y-140678078D01*
X61549193Y-140811374D01*
X61904885Y-140855197D01*
X62113831Y-140858000D01*
X62547141Y-140837392D01*
X62844418Y-140745942D01*
X63122254Y-140539210D01*
X63238698Y-140429242D01*
X63570601Y-139985965D01*
X63800698Y-139442567D01*
X63902178Y-138889468D01*
X63848230Y-138417085D01*
X63841118Y-138397590D01*
X63776112Y-138144383D01*
X63790805Y-138023528D01*
X63769964Y-137886472D01*
X63644516Y-137607048D01*
X63523728Y-137387582D01*
X63103601Y-136862227D01*
X62596484Y-136542181D01*
X62040448Y-136448424D01*
X61857892Y-136469735D01*
X61857892Y-136469735D01*
G37*
X61857892Y-136469735D02*
X61538215Y-136579598D01*
X61201451Y-136768420D01*
X60913176Y-136987856D01*
X60738961Y-137189562D01*
X60725231Y-137304800D01*
X60702371Y-137457304D01*
X60662072Y-137491219D01*
X60604428Y-137647419D01*
X60560533Y-138000908D01*
X60536118Y-138495099D01*
X60533000Y-138765761D01*
X60533000Y-139960533D01*
X60981734Y-140409266D01*
X61280197Y-140678078D01*
X61549193Y-140811374D01*
X61904885Y-140855197D01*
X62113831Y-140858000D01*
X62547141Y-140837392D01*
X62844418Y-140745942D01*
X63122254Y-140539210D01*
X63238698Y-140429242D01*
X63570601Y-139985965D01*
X63800698Y-139442567D01*
X63902178Y-138889468D01*
X63848230Y-138417085D01*
X63841118Y-138397590D01*
X63776112Y-138144383D01*
X63790805Y-138023528D01*
X63769964Y-137886472D01*
X63644516Y-137607048D01*
X63523728Y-137387582D01*
X63103601Y-136862227D01*
X62596484Y-136542181D01*
X62040448Y-136448424D01*
X61857892Y-136469735D01*
G36*
X71212660Y-127643759D02*
X71000384Y-127720005D01*
X70921639Y-127709305D01*
X70782308Y-127719301D01*
X70466514Y-127798932D01*
X70036828Y-127931936D01*
X69939988Y-127964443D01*
X69351084Y-128146863D01*
X68723916Y-128313514D01*
X68237588Y-128419690D01*
X67806594Y-128506536D01*
X67473342Y-128589555D01*
X67329290Y-128641700D01*
X67104062Y-128738640D01*
X67073500Y-128745588D01*
X66865724Y-128785974D01*
X66565500Y-128846290D01*
X66191656Y-128911121D01*
X65733718Y-128976420D01*
X65613000Y-128991337D01*
X65214114Y-129046719D01*
X64897687Y-129104741D01*
X64827077Y-129122530D01*
X64489306Y-129173879D01*
X63959829Y-129197802D01*
X63299209Y-129196474D01*
X62568011Y-129172068D01*
X61826796Y-129126756D01*
X61136130Y-129062712D01*
X60556575Y-128982110D01*
X60469500Y-128966159D01*
X59916067Y-128859463D01*
X59554410Y-128786950D01*
X59326880Y-128734823D01*
X59175827Y-128689281D01*
X59043602Y-128636527D01*
X58983332Y-128610428D01*
X58738780Y-128567194D01*
X58642858Y-128593317D01*
X58474886Y-128584308D01*
X58443775Y-128549152D01*
X58266457Y-128444502D01*
X58149250Y-128429630D01*
X58051797Y-128426988D01*
X57934291Y-128410744D01*
X57757765Y-128370436D01*
X57483250Y-128295601D01*
X57071776Y-128175777D01*
X56484377Y-128000501D01*
X55926653Y-127832895D01*
X55356143Y-127679124D01*
X54905261Y-127592767D01*
X54627096Y-127583371D01*
X54593153Y-127593091D01*
X54315918Y-127693915D01*
X54208125Y-127722417D01*
X53796331Y-127915954D01*
X53422305Y-128277290D01*
X53206473Y-128640416D01*
X53098523Y-129083666D01*
X53084128Y-129594031D01*
X53157210Y-130067933D01*
X53309717Y-130399437D01*
X53395517Y-130542984D01*
X53378685Y-130571000D01*
X53370443Y-130676446D01*
X53437902Y-130940693D01*
X53477482Y-131059106D01*
X53640167Y-131593589D01*
X53823796Y-132315762D01*
X54015530Y-133161570D01*
X54202527Y-134066958D01*
X54371948Y-134967873D01*
X54510953Y-135800259D01*
X54606701Y-136500064D01*
X54639971Y-136858330D01*
X54665620Y-137886318D01*
X54607912Y-138957280D01*
X54460901Y-140112051D01*
X54218638Y-141391463D01*
X53875176Y-142836350D01*
X53641220Y-143715500D01*
X53510543Y-144194856D01*
X53407784Y-144577871D01*
X53350116Y-144800324D01*
X53344058Y-144826750D01*
X53290532Y-145017250D01*
X53233928Y-145226040D01*
X53231292Y-145239500D01*
X53181924Y-145446691D01*
X53106981Y-145727255D01*
X53082537Y-146240552D01*
X53247114Y-146791536D01*
X53570268Y-147290022D01*
X53669356Y-147393092D01*
X54168179Y-147695376D01*
X54834020Y-147806835D01*
X55666209Y-147727419D01*
X56278500Y-147578521D01*
X56743804Y-147440924D01*
X57127875Y-147322506D01*
X57351517Y-147247722D01*
X57358000Y-147245197D01*
X57643514Y-147153294D01*
X57726000Y-147133803D01*
X57947447Y-147075204D01*
X58303904Y-146968078D01*
X58488000Y-146909804D01*
X58907873Y-146797304D01*
X59464859Y-146677669D01*
X60044048Y-146575397D01*
X60088500Y-146568608D01*
X60589940Y-146488612D01*
X61007307Y-146413898D01*
X61265643Y-146358093D01*
X61295000Y-146349256D01*
X61602861Y-146291040D01*
X62098390Y-146250634D01*
X62715829Y-146228748D01*
X63389423Y-146226092D01*
X64053416Y-146243377D01*
X64642050Y-146281312D01*
X64902874Y-146310287D01*
X65465059Y-146384739D01*
X65999300Y-146452978D01*
X66400734Y-146501645D01*
X66438500Y-146505928D01*
X66792133Y-146568256D01*
X67298886Y-146685704D01*
X67869645Y-146836985D01*
X68089500Y-146900308D01*
X69187418Y-147217380D01*
X70075454Y-147453411D01*
X70783830Y-147610223D01*
X71342766Y-147689642D01*
X71782484Y-147693491D01*
X72133204Y-147623594D01*
X72425148Y-147481776D01*
X72688537Y-147269860D01*
X72775971Y-147183177D01*
X73033767Y-146886305D01*
X73160849Y-146614096D01*
X73200747Y-146251115D01*
X73202039Y-146053371D01*
X73085104Y-145234944D01*
X72915305Y-144795000D01*
X72705084Y-144330334D01*
X72518486Y-143853884D01*
X72471661Y-143715500D01*
X72353319Y-143366798D01*
X72255419Y-143119439D01*
X72235645Y-143080500D01*
X72139278Y-142852458D01*
X72132746Y-142826500D01*
X72084483Y-142612572D01*
X72031625Y-142382000D01*
X71865339Y-141481984D01*
X71734084Y-140407199D01*
X71708941Y-140076689D01*
X67243456Y-140076689D01*
X67238332Y-140666049D01*
X67227510Y-141091934D01*
X67211400Y-141313570D01*
X67207206Y-141330820D01*
X67050846Y-141438928D01*
X66748770Y-141491914D01*
X66696486Y-141493000D01*
X66248000Y-141493000D01*
X66248000Y-138521048D01*
X64825044Y-138521048D01*
X64775021Y-139312423D01*
X64584232Y-140073657D01*
X64269233Y-140724501D01*
X64052979Y-141002161D01*
X63496519Y-141417302D01*
X62824808Y-141639287D01*
X62101638Y-141655130D01*
X61538084Y-141514193D01*
X61239643Y-141343597D01*
X60899387Y-141073343D01*
X60807834Y-140986294D01*
X60406000Y-140584461D01*
X60406000Y-141038730D01*
X60387500Y-141340957D01*
X60281667Y-141466617D01*
X60013003Y-141492865D01*
X59961500Y-141493000D01*
X59517000Y-141493000D01*
X59517000Y-133111000D01*
X60533000Y-133111000D01*
X60533000Y-134844932D01*
X60534562Y-135534413D01*
X60542594Y-136003392D01*
X60562120Y-136285361D01*
X60598162Y-136413812D01*
X60655745Y-136422239D01*
X60739891Y-136344134D01*
X60755250Y-136326871D01*
X61152517Y-136039978D01*
X61718806Y-135848611D01*
X62379057Y-135778011D01*
X62387476Y-135778000D01*
X62888311Y-135813756D01*
X63305317Y-135944261D01*
X63698743Y-136204364D01*
X64128835Y-136628916D01*
X64400693Y-136942578D01*
X64565353Y-137159264D01*
X64617953Y-137271091D01*
X64617396Y-137271781D01*
X64627763Y-137402573D01*
X64692602Y-137686418D01*
X64717746Y-137779781D01*
X64825044Y-138521048D01*
X66248000Y-138521048D01*
X66248000Y-135817984D01*
X66724250Y-135895310D01*
X67200500Y-135972637D01*
X67234970Y-138570639D01*
X67242472Y-139364627D01*
X67243456Y-140076689D01*
X71708941Y-140076689D01*
X71644934Y-139235334D01*
X71604965Y-138044078D01*
X71603667Y-137683000D01*
X71688091Y-135706299D01*
X71875353Y-134277980D01*
X67259118Y-134277980D01*
X67217124Y-134556575D01*
X67105250Y-134680656D01*
X66767373Y-134731978D01*
X66423944Y-134657359D01*
X66210359Y-134495906D01*
X66116194Y-134167397D01*
X66203485Y-133867714D01*
X66416500Y-133650040D01*
X66699506Y-133567562D01*
X66996770Y-133673462D01*
X67037067Y-133706995D01*
X67196674Y-133960161D01*
X67259118Y-134277980D01*
X71875353Y-134277980D01*
X71923298Y-133912290D01*
X72307763Y-132308811D01*
X72839962Y-130903699D01*
X72977048Y-130621327D01*
X73277187Y-129884816D01*
X73364836Y-129256212D01*
X73239571Y-128703618D01*
X72945361Y-128245997D01*
X72540938Y-127892390D01*
X72065085Y-127656682D01*
X71595018Y-127565710D01*
X71212660Y-127643759D01*
X71212660Y-127643759D01*
G37*
X71212660Y-127643759D02*
X71000384Y-127720005D01*
X70921639Y-127709305D01*
X70782308Y-127719301D01*
X70466514Y-127798932D01*
X70036828Y-127931936D01*
X69939988Y-127964443D01*
X69351084Y-128146863D01*
X68723916Y-128313514D01*
X68237588Y-128419690D01*
X67806594Y-128506536D01*
X67473342Y-128589555D01*
X67329290Y-128641700D01*
X67104062Y-128738640D01*
X67073500Y-128745588D01*
X66865724Y-128785974D01*
X66565500Y-128846290D01*
X66191656Y-128911121D01*
X65733718Y-128976420D01*
X65613000Y-128991337D01*
X65214114Y-129046719D01*
X64897687Y-129104741D01*
X64827077Y-129122530D01*
X64489306Y-129173879D01*
X63959829Y-129197802D01*
X63299209Y-129196474D01*
X62568011Y-129172068D01*
X61826796Y-129126756D01*
X61136130Y-129062712D01*
X60556575Y-128982110D01*
X60469500Y-128966159D01*
X59916067Y-128859463D01*
X59554410Y-128786950D01*
X59326880Y-128734823D01*
X59175827Y-128689281D01*
X59043602Y-128636527D01*
X58983332Y-128610428D01*
X58738780Y-128567194D01*
X58642858Y-128593317D01*
X58474886Y-128584308D01*
X58443775Y-128549152D01*
X58266457Y-128444502D01*
X58149250Y-128429630D01*
X58051797Y-128426988D01*
X57934291Y-128410744D01*
X57757765Y-128370436D01*
X57483250Y-128295601D01*
X57071776Y-128175777D01*
X56484377Y-128000501D01*
X55926653Y-127832895D01*
X55356143Y-127679124D01*
X54905261Y-127592767D01*
X54627096Y-127583371D01*
X54593153Y-127593091D01*
X54315918Y-127693915D01*
X54208125Y-127722417D01*
X53796331Y-127915954D01*
X53422305Y-128277290D01*
X53206473Y-128640416D01*
X53098523Y-129083666D01*
X53084128Y-129594031D01*
X53157210Y-130067933D01*
X53309717Y-130399437D01*
X53395517Y-130542984D01*
X53378685Y-130571000D01*
X53370443Y-130676446D01*
X53437902Y-130940693D01*
X53477482Y-131059106D01*
X53640167Y-131593589D01*
X53823796Y-132315762D01*
X54015530Y-133161570D01*
X54202527Y-134066958D01*
X54371948Y-134967873D01*
X54510953Y-135800259D01*
X54606701Y-136500064D01*
X54639971Y-136858330D01*
X54665620Y-137886318D01*
X54607912Y-138957280D01*
X54460901Y-140112051D01*
X54218638Y-141391463D01*
X53875176Y-142836350D01*
X53641220Y-143715500D01*
X53510543Y-144194856D01*
X53407784Y-144577871D01*
X53350116Y-144800324D01*
X53344058Y-144826750D01*
X53290532Y-145017250D01*
X53233928Y-145226040D01*
X53231292Y-145239500D01*
X53181924Y-145446691D01*
X53106981Y-145727255D01*
X53082537Y-146240552D01*
X53247114Y-146791536D01*
X53570268Y-147290022D01*
X53669356Y-147393092D01*
X54168179Y-147695376D01*
X54834020Y-147806835D01*
X55666209Y-147727419D01*
X56278500Y-147578521D01*
X56743804Y-147440924D01*
X57127875Y-147322506D01*
X57351517Y-147247722D01*
X57358000Y-147245197D01*
X57643514Y-147153294D01*
X57726000Y-147133803D01*
X57947447Y-147075204D01*
X58303904Y-146968078D01*
X58488000Y-146909804D01*
X58907873Y-146797304D01*
X59464859Y-146677669D01*
X60044048Y-146575397D01*
X60088500Y-146568608D01*
X60589940Y-146488612D01*
X61007307Y-146413898D01*
X61265643Y-146358093D01*
X61295000Y-146349256D01*
X61602861Y-146291040D01*
X62098390Y-146250634D01*
X62715829Y-146228748D01*
X63389423Y-146226092D01*
X64053416Y-146243377D01*
X64642050Y-146281312D01*
X64902874Y-146310287D01*
X65465059Y-146384739D01*
X65999300Y-146452978D01*
X66400734Y-146501645D01*
X66438500Y-146505928D01*
X66792133Y-146568256D01*
X67298886Y-146685704D01*
X67869645Y-146836985D01*
X68089500Y-146900308D01*
X69187418Y-147217380D01*
X70075454Y-147453411D01*
X70783830Y-147610223D01*
X71342766Y-147689642D01*
X71782484Y-147693491D01*
X72133204Y-147623594D01*
X72425148Y-147481776D01*
X72688537Y-147269860D01*
X72775971Y-147183177D01*
X73033767Y-146886305D01*
X73160849Y-146614096D01*
X73200747Y-146251115D01*
X73202039Y-146053371D01*
X73085104Y-145234944D01*
X72915305Y-144795000D01*
X72705084Y-144330334D01*
X72518486Y-143853884D01*
X72471661Y-143715500D01*
X72353319Y-143366798D01*
X72255419Y-143119439D01*
X72235645Y-143080500D01*
X72139278Y-142852458D01*
X72132746Y-142826500D01*
X72084483Y-142612572D01*
X72031625Y-142382000D01*
X71865339Y-141481984D01*
X71734084Y-140407199D01*
X71708941Y-140076689D01*
X67243456Y-140076689D01*
X67238332Y-140666049D01*
X67227510Y-141091934D01*
X67211400Y-141313570D01*
X67207206Y-141330820D01*
X67050846Y-141438928D01*
X66748770Y-141491914D01*
X66696486Y-141493000D01*
X66248000Y-141493000D01*
X66248000Y-138521048D01*
X64825044Y-138521048D01*
X64775021Y-139312423D01*
X64584232Y-140073657D01*
X64269233Y-140724501D01*
X64052979Y-141002161D01*
X63496519Y-141417302D01*
X62824808Y-141639287D01*
X62101638Y-141655130D01*
X61538084Y-141514193D01*
X61239643Y-141343597D01*
X60899387Y-141073343D01*
X60807834Y-140986294D01*
X60406000Y-140584461D01*
X60406000Y-141038730D01*
X60387500Y-141340957D01*
X60281667Y-141466617D01*
X60013003Y-141492865D01*
X59961500Y-141493000D01*
X59517000Y-141493000D01*
X59517000Y-133111000D01*
X60533000Y-133111000D01*
X60533000Y-134844932D01*
X60534562Y-135534413D01*
X60542594Y-136003392D01*
X60562120Y-136285361D01*
X60598162Y-136413812D01*
X60655745Y-136422239D01*
X60739891Y-136344134D01*
X60755250Y-136326871D01*
X61152517Y-136039978D01*
X61718806Y-135848611D01*
X62379057Y-135778011D01*
X62387476Y-135778000D01*
X62888311Y-135813756D01*
X63305317Y-135944261D01*
X63698743Y-136204364D01*
X64128835Y-136628916D01*
X64400693Y-136942578D01*
X64565353Y-137159264D01*
X64617953Y-137271091D01*
X64617396Y-137271781D01*
X64627763Y-137402573D01*
X64692602Y-137686418D01*
X64717746Y-137779781D01*
X64825044Y-138521048D01*
X66248000Y-138521048D01*
X66248000Y-135817984D01*
X66724250Y-135895310D01*
X67200500Y-135972637D01*
X67234970Y-138570639D01*
X67242472Y-139364627D01*
X67243456Y-140076689D01*
X71708941Y-140076689D01*
X71644934Y-139235334D01*
X71604965Y-138044078D01*
X71603667Y-137683000D01*
X71688091Y-135706299D01*
X71875353Y-134277980D01*
X67259118Y-134277980D01*
X67217124Y-134556575D01*
X67105250Y-134680656D01*
X66767373Y-134731978D01*
X66423944Y-134657359D01*
X66210359Y-134495906D01*
X66116194Y-134167397D01*
X66203485Y-133867714D01*
X66416500Y-133650040D01*
X66699506Y-133567562D01*
X66996770Y-133673462D01*
X67037067Y-133706995D01*
X67196674Y-133960161D01*
X67259118Y-134277980D01*
X71875353Y-134277980D01*
X71923298Y-133912290D01*
X72307763Y-132308811D01*
X72839962Y-130903699D01*
X72977048Y-130621327D01*
X73277187Y-129884816D01*
X73364836Y-129256212D01*
X73239571Y-128703618D01*
X72945361Y-128245997D01*
X72540938Y-127892390D01*
X72065085Y-127656682D01*
X71595018Y-127565710D01*
X71212660Y-127643759D01*
G36*
X57134351Y-150673356D02*
X57076492Y-150822548D01*
X57073411Y-151143414D01*
X57082605Y-151311183D01*
X57084239Y-151773227D01*
X57009860Y-152050001D01*
X56925472Y-152151064D01*
X56657574Y-152287001D01*
X56471317Y-152182483D01*
X56366774Y-151837602D01*
X56342000Y-151402985D01*
X56335360Y-150979306D01*
X56298997Y-150750082D01*
X56208253Y-150655820D01*
X56038467Y-150637026D01*
X56024500Y-150637000D01*
X55867990Y-150647587D01*
X55773810Y-150713632D01*
X55726134Y-150886564D01*
X55709141Y-151217808D01*
X55707000Y-151668875D01*
X55707000Y-152700750D01*
X56083076Y-152625534D01*
X56371883Y-152608594D01*
X56535071Y-152673159D01*
X56737242Y-152789338D01*
X57055614Y-152690960D01*
X57202742Y-152598298D01*
X57354789Y-152459223D01*
X57440433Y-152263840D01*
X57477757Y-151942981D01*
X57485000Y-151518798D01*
X57476346Y-151049280D01*
X57441557Y-150780890D01*
X57367391Y-150661085D01*
X57262750Y-150636826D01*
X57134351Y-150673356D01*
X57134351Y-150673356D01*
G37*
X57134351Y-150673356D02*
X57076492Y-150822548D01*
X57073411Y-151143414D01*
X57082605Y-151311183D01*
X57084239Y-151773227D01*
X57009860Y-152050001D01*
X56925472Y-152151064D01*
X56657574Y-152287001D01*
X56471317Y-152182483D01*
X56366774Y-151837602D01*
X56342000Y-151402985D01*
X56335360Y-150979306D01*
X56298997Y-150750082D01*
X56208253Y-150655820D01*
X56038467Y-150637026D01*
X56024500Y-150637000D01*
X55867990Y-150647587D01*
X55773810Y-150713632D01*
X55726134Y-150886564D01*
X55709141Y-151217808D01*
X55707000Y-151668875D01*
X55707000Y-152700750D01*
X56083076Y-152625534D01*
X56371883Y-152608594D01*
X56535071Y-152673159D01*
X56737242Y-152789338D01*
X57055614Y-152690960D01*
X57202742Y-152598298D01*
X57354789Y-152459223D01*
X57440433Y-152263840D01*
X57477757Y-151942981D01*
X57485000Y-151518798D01*
X57476346Y-151049280D01*
X57441557Y-150780890D01*
X57367391Y-150661085D01*
X57262750Y-150636826D01*
X57134351Y-150673356D01*
G36*
X63233263Y-150266888D02*
X63223315Y-150322828D01*
X63126435Y-150567493D01*
X62876620Y-150636939D01*
X62864753Y-150637000D01*
X62628851Y-150685143D01*
X62589341Y-150852859D01*
X62590569Y-150859250D01*
X62729158Y-151031396D01*
X62917381Y-151041767D01*
X63090364Y-151042536D01*
X63173437Y-151150372D01*
X63198798Y-151427121D01*
X63200000Y-151584660D01*
X63182014Y-151954095D01*
X63100258Y-152155963D01*
X62913040Y-152275736D01*
X62850750Y-152300630D01*
X62616760Y-152403549D01*
X62599365Y-152491766D01*
X62748024Y-152614987D01*
X62993283Y-152768026D01*
X63176308Y-152759667D01*
X63375104Y-152632462D01*
X63540406Y-152386991D01*
X63616663Y-151939703D01*
X63621627Y-151838712D01*
X63677545Y-151388132D01*
X63795164Y-151093080D01*
X63835000Y-151049750D01*
X63961196Y-150901477D01*
X63872205Y-150763662D01*
X63835000Y-150731790D01*
X63651120Y-150503100D01*
X63602568Y-150383742D01*
X63488280Y-150146955D01*
X63340751Y-150104080D01*
X63233263Y-150266888D01*
X63233263Y-150266888D01*
G37*
X63233263Y-150266888D02*
X63223315Y-150322828D01*
X63126435Y-150567493D01*
X62876620Y-150636939D01*
X62864753Y-150637000D01*
X62628851Y-150685143D01*
X62589341Y-150852859D01*
X62590569Y-150859250D01*
X62729158Y-151031396D01*
X62917381Y-151041767D01*
X63090364Y-151042536D01*
X63173437Y-151150372D01*
X63198798Y-151427121D01*
X63200000Y-151584660D01*
X63182014Y-151954095D01*
X63100258Y-152155963D01*
X62913040Y-152275736D01*
X62850750Y-152300630D01*
X62616760Y-152403549D01*
X62599365Y-152491766D01*
X62748024Y-152614987D01*
X62993283Y-152768026D01*
X63176308Y-152759667D01*
X63375104Y-152632462D01*
X63540406Y-152386991D01*
X63616663Y-151939703D01*
X63621627Y-151838712D01*
X63677545Y-151388132D01*
X63795164Y-151093080D01*
X63835000Y-151049750D01*
X63961196Y-150901477D01*
X63872205Y-150763662D01*
X63835000Y-150731790D01*
X63651120Y-150503100D01*
X63602568Y-150383742D01*
X63488280Y-150146955D01*
X63340751Y-150104080D01*
X63233263Y-150266888D01*
G36*
X69430997Y-150661407D02*
X69247191Y-150748965D01*
X69238995Y-150921178D01*
X69254492Y-150966012D01*
X69422438Y-151086771D01*
X69612886Y-151070305D01*
X69889169Y-151050724D01*
X69970211Y-151151659D01*
X69855972Y-151331104D01*
X69613312Y-151509283D01*
X69288151Y-151797666D01*
X69181477Y-152109450D01*
X69267402Y-152398777D01*
X69520036Y-152619790D01*
X69913492Y-152726631D01*
X70287674Y-152703832D01*
X70514246Y-152585571D01*
X70537070Y-152436944D01*
X70397088Y-152274702D01*
X70243897Y-152268001D01*
X69972811Y-152314272D01*
X69867500Y-152331501D01*
X69736330Y-152288025D01*
X69754851Y-152136677D01*
X69892220Y-151948257D01*
X70097893Y-151802628D01*
X70440633Y-151561651D01*
X70544606Y-151263795D01*
X70458419Y-150946401D01*
X70306845Y-150733724D01*
X70054897Y-150647362D01*
X69827890Y-150637000D01*
X69430997Y-150661407D01*
X69430997Y-150661407D01*
G37*
X69430997Y-150661407D02*
X69247191Y-150748965D01*
X69238995Y-150921178D01*
X69254492Y-150966012D01*
X69422438Y-151086771D01*
X69612886Y-151070305D01*
X69889169Y-151050724D01*
X69970211Y-151151659D01*
X69855972Y-151331104D01*
X69613312Y-151509283D01*
X69288151Y-151797666D01*
X69181477Y-152109450D01*
X69267402Y-152398777D01*
X69520036Y-152619790D01*
X69913492Y-152726631D01*
X70287674Y-152703832D01*
X70514246Y-152585571D01*
X70537070Y-152436944D01*
X70397088Y-152274702D01*
X70243897Y-152268001D01*
X69972811Y-152314272D01*
X69867500Y-152331501D01*
X69736330Y-152288025D01*
X69754851Y-152136677D01*
X69892220Y-151948257D01*
X70097893Y-151802628D01*
X70440633Y-151561651D01*
X70544606Y-151263795D01*
X70458419Y-150946401D01*
X70306845Y-150733724D01*
X70054897Y-150647362D01*
X69827890Y-150637000D01*
X69430997Y-150661407D01*
G36*
X63054843Y-156457939D02*
X62965188Y-156657580D01*
X62969823Y-156699407D01*
X63100894Y-156901992D01*
X63316110Y-156960935D01*
X63503265Y-156856783D01*
X63534748Y-156797349D01*
X63536212Y-156549185D01*
X63479400Y-156453600D01*
X63263249Y-156372097D01*
X63054843Y-156457939D01*
X63054843Y-156457939D01*
G37*
X63054843Y-156457939D02*
X62965188Y-156657580D01*
X62969823Y-156699407D01*
X63100894Y-156901992D01*
X63316110Y-156960935D01*
X63503265Y-156856783D01*
X63534748Y-156797349D01*
X63536212Y-156549185D01*
X63479400Y-156453600D01*
X63263249Y-156372097D01*
X63054843Y-156457939D01*
G36*
X63295250Y-157136917D02*
X63150287Y-157177295D01*
X63061304Y-157284036D01*
X63011120Y-157511681D01*
X62982555Y-157914770D01*
X62972408Y-158161750D01*
X62959344Y-158658696D01*
X62973524Y-158953697D01*
X63025473Y-159098256D01*
X63125711Y-159143875D01*
X63173492Y-159146000D01*
X63417126Y-159105437D01*
X63496334Y-159061333D01*
X63537409Y-158901424D01*
X63567500Y-158557762D01*
X63580806Y-158100542D01*
X63581000Y-158036500D01*
X63576601Y-157556507D01*
X63552543Y-157279216D01*
X63492539Y-157153351D01*
X63380302Y-157127638D01*
X63295250Y-157136917D01*
X63295250Y-157136917D01*
G37*
X63295250Y-157136917D02*
X63150287Y-157177295D01*
X63061304Y-157284036D01*
X63011120Y-157511681D01*
X62982555Y-157914770D01*
X62972408Y-158161750D01*
X62959344Y-158658696D01*
X62973524Y-158953697D01*
X63025473Y-159098256D01*
X63125711Y-159143875D01*
X63173492Y-159146000D01*
X63417126Y-159105437D01*
X63496334Y-159061333D01*
X63537409Y-158901424D01*
X63567500Y-158557762D01*
X63580806Y-158100542D01*
X63581000Y-158036500D01*
X63576601Y-157556507D01*
X63552543Y-157279216D01*
X63492539Y-157153351D01*
X63380302Y-157127638D01*
X63295250Y-157136917D01*
G36*
X56170456Y-157172336D02*
X55861639Y-157435899D01*
X55686396Y-157804690D01*
X55648528Y-158221040D01*
X55751836Y-158627283D01*
X56000121Y-158965750D01*
X56397185Y-159178776D01*
X56469000Y-159196177D01*
X56831501Y-159203488D01*
X57063948Y-159147848D01*
X57404428Y-158892054D01*
X57577878Y-158519905D01*
X57593692Y-158183615D01*
X57105442Y-158183615D01*
X56998792Y-158508991D01*
X56822356Y-158693868D01*
X56531506Y-158797063D01*
X56316587Y-158665396D01*
X56201026Y-158320500D01*
X56216788Y-157946800D01*
X56342993Y-157645032D01*
X56541489Y-157498485D01*
X56579159Y-157495000D01*
X56879634Y-157597789D01*
X57060392Y-157853604D01*
X57105442Y-158183615D01*
X57593692Y-158183615D01*
X57597926Y-158093595D01*
X57478197Y-157675315D01*
X57232318Y-157327259D01*
X56873918Y-157111619D01*
X56609044Y-157071666D01*
X56170456Y-157172336D01*
X56170456Y-157172336D01*
G37*
X56170456Y-157172336D02*
X55861639Y-157435899D01*
X55686396Y-157804690D01*
X55648528Y-158221040D01*
X55751836Y-158627283D01*
X56000121Y-158965750D01*
X56397185Y-159178776D01*
X56469000Y-159196177D01*
X56831501Y-159203488D01*
X57063948Y-159147848D01*
X57404428Y-158892054D01*
X57577878Y-158519905D01*
X57593692Y-158183615D01*
X57105442Y-158183615D01*
X56998792Y-158508991D01*
X56822356Y-158693868D01*
X56531506Y-158797063D01*
X56316587Y-158665396D01*
X56201026Y-158320500D01*
X56216788Y-157946800D01*
X56342993Y-157645032D01*
X56541489Y-157498485D01*
X56579159Y-157495000D01*
X56879634Y-157597789D01*
X57060392Y-157853604D01*
X57105442Y-158183615D01*
X57593692Y-158183615D01*
X57597926Y-158093595D01*
X57478197Y-157675315D01*
X57232318Y-157327259D01*
X56873918Y-157111619D01*
X56609044Y-157071666D01*
X56170456Y-157172336D01*
G36*
X69165114Y-156252571D02*
X69100585Y-156338221D01*
X69063400Y-156547935D01*
X69046295Y-156924216D01*
X69042009Y-157509572D01*
X69042000Y-157549187D01*
X69041951Y-158111229D01*
X69041817Y-158576879D01*
X69041622Y-158888786D01*
X69041448Y-158987250D01*
X69149096Y-159070522D01*
X69327198Y-159105979D01*
X69684956Y-159156488D01*
X69867500Y-159196251D01*
X70193197Y-159203099D01*
X70387053Y-159152585D01*
X70662111Y-158916834D01*
X70849641Y-158528621D01*
X70895574Y-158196281D01*
X70402679Y-158196281D01*
X70376230Y-158362806D01*
X70212498Y-158731412D01*
X69972532Y-158867368D01*
X69700512Y-158782218D01*
X69588523Y-158568088D01*
X69571682Y-158144656D01*
X69573512Y-158117413D01*
X69621312Y-157756742D01*
X69721329Y-157579715D01*
X69890658Y-157519043D01*
X70166425Y-157587934D01*
X70350292Y-157836604D01*
X70402679Y-158196281D01*
X70895574Y-158196281D01*
X70910992Y-158084736D01*
X70888235Y-157897557D01*
X70682496Y-157444968D01*
X70327741Y-157161926D01*
X69938780Y-157085957D01*
X69674649Y-157060708D01*
X69560219Y-156912849D01*
X69525648Y-156693585D01*
X69425122Y-156359583D01*
X69264250Y-156248477D01*
X69165114Y-156252571D01*
X69165114Y-156252571D01*
G37*
X69165114Y-156252571D02*
X69100585Y-156338221D01*
X69063400Y-156547935D01*
X69046295Y-156924216D01*
X69042009Y-157509572D01*
X69042000Y-157549187D01*
X69041951Y-158111229D01*
X69041817Y-158576879D01*
X69041622Y-158888786D01*
X69041448Y-158987250D01*
X69149096Y-159070522D01*
X69327198Y-159105979D01*
X69684956Y-159156488D01*
X69867500Y-159196251D01*
X70193197Y-159203099D01*
X70387053Y-159152585D01*
X70662111Y-158916834D01*
X70849641Y-158528621D01*
X70895574Y-158196281D01*
X70402679Y-158196281D01*
X70376230Y-158362806D01*
X70212498Y-158731412D01*
X69972532Y-158867368D01*
X69700512Y-158782218D01*
X69588523Y-158568088D01*
X69571682Y-158144656D01*
X69573512Y-158117413D01*
X69621312Y-157756742D01*
X69721329Y-157579715D01*
X69890658Y-157519043D01*
X70166425Y-157587934D01*
X70350292Y-157836604D01*
X70402679Y-158196281D01*
X70895574Y-158196281D01*
X70910992Y-158084736D01*
X70888235Y-157897557D01*
X70682496Y-157444968D01*
X70327741Y-157161926D01*
X69938780Y-157085957D01*
X69674649Y-157060708D01*
X69560219Y-156912849D01*
X69525648Y-156693585D01*
X69425122Y-156359583D01*
X69264250Y-156248477D01*
X69165114Y-156252571D01*
G36*
X57055447Y-162752146D02*
X56985000Y-162947517D01*
X56977000Y-163143325D01*
X56960426Y-163435680D01*
X56867868Y-163538560D01*
X56635073Y-163516215D01*
X56609230Y-163511095D01*
X56214413Y-163538199D01*
X55903877Y-163754498D01*
X55695806Y-164103938D01*
X55608385Y-164530464D01*
X55659801Y-164978021D01*
X55868239Y-165390556D01*
X55964231Y-165499230D01*
X56251270Y-165679893D01*
X56578472Y-165747307D01*
X56844163Y-165688811D01*
X56916693Y-165617833D01*
X57087906Y-165542628D01*
X57241688Y-165562892D01*
X57345812Y-165581165D01*
X57415072Y-165530368D01*
X57456538Y-165370062D01*
X57477278Y-165059808D01*
X57484363Y-164559166D01*
X57484768Y-164312297D01*
X57002227Y-164312297D01*
X56999553Y-164711653D01*
X56907186Y-165083250D01*
X56755762Y-165219269D01*
X56501869Y-165221457D01*
X56255840Y-165094660D01*
X56216156Y-165052892D01*
X56125641Y-164808915D01*
X56129264Y-164487112D01*
X56208942Y-164183552D01*
X56346592Y-163994306D01*
X56419604Y-163972000D01*
X56692188Y-164030086D01*
X56841598Y-164094503D01*
X57002227Y-164312297D01*
X57484768Y-164312297D01*
X57485000Y-164171058D01*
X57482335Y-163541390D01*
X57469401Y-163122856D01*
X57438788Y-162872606D01*
X57383088Y-162747788D01*
X57294892Y-162705553D01*
X57231000Y-162702000D01*
X57055447Y-162752146D01*
X57055447Y-162752146D01*
G37*
X57055447Y-162752146D02*
X56985000Y-162947517D01*
X56977000Y-163143325D01*
X56960426Y-163435680D01*
X56867868Y-163538560D01*
X56635073Y-163516215D01*
X56609230Y-163511095D01*
X56214413Y-163538199D01*
X55903877Y-163754498D01*
X55695806Y-164103938D01*
X55608385Y-164530464D01*
X55659801Y-164978021D01*
X55868239Y-165390556D01*
X55964231Y-165499230D01*
X56251270Y-165679893D01*
X56578472Y-165747307D01*
X56844163Y-165688811D01*
X56916693Y-165617833D01*
X57087906Y-165542628D01*
X57241688Y-165562892D01*
X57345812Y-165581165D01*
X57415072Y-165530368D01*
X57456538Y-165370062D01*
X57477278Y-165059808D01*
X57484363Y-164559166D01*
X57484768Y-164312297D01*
X57002227Y-164312297D01*
X56999553Y-164711653D01*
X56907186Y-165083250D01*
X56755762Y-165219269D01*
X56501869Y-165221457D01*
X56255840Y-165094660D01*
X56216156Y-165052892D01*
X56125641Y-164808915D01*
X56129264Y-164487112D01*
X56208942Y-164183552D01*
X56346592Y-163994306D01*
X56419604Y-163972000D01*
X56692188Y-164030086D01*
X56841598Y-164094503D01*
X57002227Y-164312297D01*
X57484768Y-164312297D01*
X57485000Y-164171058D01*
X57482335Y-163541390D01*
X57469401Y-163122856D01*
X57438788Y-162872606D01*
X57383088Y-162747788D01*
X57294892Y-162705553D01*
X57231000Y-162702000D01*
X57055447Y-162752146D01*
G36*
X63014756Y-163605957D02*
X62667775Y-163872931D01*
X62514452Y-164159397D01*
X62445415Y-164598973D01*
X62438000Y-164880432D01*
X62448694Y-165301424D01*
X62493094Y-165526505D01*
X62589682Y-165613305D01*
X62676125Y-165623000D01*
X62980046Y-165645196D01*
X63279375Y-165687867D01*
X63624229Y-165691330D01*
X63866750Y-165618056D01*
X64038971Y-165383443D01*
X64081732Y-165039630D01*
X64081439Y-165038502D01*
X63559877Y-165038502D01*
X63509815Y-165231540D01*
X63347887Y-165299325D01*
X63242580Y-165263304D01*
X63046650Y-165067816D01*
X62999818Y-164947553D01*
X63058321Y-164743408D01*
X63243009Y-164681593D01*
X63451163Y-164794354D01*
X63458923Y-164803431D01*
X63559877Y-165038502D01*
X64081439Y-165038502D01*
X63992677Y-164697329D01*
X63889429Y-164552571D01*
X63608879Y-164395651D01*
X63367841Y-164353000D01*
X63138997Y-164313485D01*
X63115340Y-164173358D01*
X63122913Y-164152112D01*
X63190092Y-163951508D01*
X63200000Y-163901256D01*
X63301255Y-163903035D01*
X63513004Y-163970290D01*
X63797910Y-164012902D01*
X63931032Y-163914668D01*
X63871326Y-163732404D01*
X63759153Y-163629570D01*
X63408139Y-163515875D01*
X63014756Y-163605957D01*
X63014756Y-163605957D01*
G37*
X63014756Y-163605957D02*
X62667775Y-163872931D01*
X62514452Y-164159397D01*
X62445415Y-164598973D01*
X62438000Y-164880432D01*
X62448694Y-165301424D01*
X62493094Y-165526505D01*
X62589682Y-165613305D01*
X62676125Y-165623000D01*
X62980046Y-165645196D01*
X63279375Y-165687867D01*
X63624229Y-165691330D01*
X63866750Y-165618056D01*
X64038971Y-165383443D01*
X64081732Y-165039630D01*
X64081439Y-165038502D01*
X63559877Y-165038502D01*
X63509815Y-165231540D01*
X63347887Y-165299325D01*
X63242580Y-165263304D01*
X63046650Y-165067816D01*
X62999818Y-164947553D01*
X63058321Y-164743408D01*
X63243009Y-164681593D01*
X63451163Y-164794354D01*
X63458923Y-164803431D01*
X63559877Y-165038502D01*
X64081439Y-165038502D01*
X63992677Y-164697329D01*
X63889429Y-164552571D01*
X63608879Y-164395651D01*
X63367841Y-164353000D01*
X63138997Y-164313485D01*
X63115340Y-164173358D01*
X63122913Y-164152112D01*
X63190092Y-163951508D01*
X63200000Y-163901256D01*
X63301255Y-163903035D01*
X63513004Y-163970290D01*
X63797910Y-164012902D01*
X63931032Y-163914668D01*
X63871326Y-163732404D01*
X63759153Y-163629570D01*
X63408139Y-163515875D01*
X63014756Y-163605957D01*
G36*
X69804348Y-162725585D02*
X69740850Y-162824126D01*
X69702603Y-163039199D01*
X69683456Y-163412407D01*
X69677256Y-163985351D01*
X69677000Y-164204833D01*
X69681877Y-164856690D01*
X69699810Y-165293759D01*
X69735753Y-165555122D01*
X69794660Y-165679862D01*
X69867500Y-165707666D01*
X70039606Y-165701871D01*
X70062285Y-165697083D01*
X70066145Y-165574059D01*
X70073466Y-165247135D01*
X70083192Y-164766372D01*
X70094035Y-164194225D01*
X70102458Y-163555965D01*
X70096176Y-163129670D01*
X70069721Y-162873470D01*
X70017631Y-162745500D01*
X69934440Y-162703890D01*
X69899250Y-162701975D01*
X69804348Y-162725585D01*
X69804348Y-162725585D01*
G37*
X69804348Y-162725585D02*
X69740850Y-162824126D01*
X69702603Y-163039199D01*
X69683456Y-163412407D01*
X69677256Y-163985351D01*
X69677000Y-164204833D01*
X69681877Y-164856690D01*
X69699810Y-165293759D01*
X69735753Y-165555122D01*
X69794660Y-165679862D01*
X69867500Y-165707666D01*
X70039606Y-165701871D01*
X70062285Y-165697083D01*
X70066145Y-165574059D01*
X70073466Y-165247135D01*
X70083192Y-164766372D01*
X70094035Y-164194225D01*
X70102458Y-163555965D01*
X70096176Y-163129670D01*
X70069721Y-162873470D01*
X70017631Y-162745500D01*
X69934440Y-162703890D01*
X69899250Y-162701975D01*
X69804348Y-162725585D01*
G04 #@! TO.C,J33*
D13*
X100859523Y-46602380D02*
X100859523Y-47316666D01*
X100907142Y-47459523D01*
X101002380Y-47554761D01*
X101145238Y-47602380D01*
X101240476Y-47602380D01*
X100478571Y-46602380D02*
X99859523Y-46602380D01*
X100192857Y-46983333D01*
X100050000Y-46983333D01*
X99954761Y-47030952D01*
X99907142Y-47078571D01*
X99859523Y-47173809D01*
X99859523Y-47411904D01*
X99907142Y-47507142D01*
X99954761Y-47554761D01*
X100050000Y-47602380D01*
X100335714Y-47602380D01*
X100430952Y-47554761D01*
X100478571Y-47507142D01*
X99526190Y-46602380D02*
X98907142Y-46602380D01*
X99240476Y-46983333D01*
X99097619Y-46983333D01*
X99002380Y-47030952D01*
X98954761Y-47078571D01*
X98907142Y-47173809D01*
X98907142Y-47411904D01*
X98954761Y-47507142D01*
X99002380Y-47554761D01*
X99097619Y-47602380D01*
X99383333Y-47602380D01*
X99478571Y-47554761D01*
X99526190Y-47507142D01*
G04 #@! TO.C,C31*
X63435302Y-56787866D02*
X63500350Y-56805295D01*
X63647878Y-56775106D01*
X63730356Y-56727487D01*
X63830265Y-56614819D01*
X63865124Y-56484722D01*
X63858745Y-56378434D01*
X63804746Y-56189667D01*
X63733317Y-56065949D01*
X63596840Y-55924801D01*
X63507982Y-55866132D01*
X63377884Y-55831273D01*
X63230356Y-55861462D01*
X63147878Y-55909081D01*
X63047969Y-56021749D01*
X63030540Y-56086798D01*
X62694245Y-56170986D02*
X62158134Y-56480509D01*
X62637286Y-56643757D01*
X62513568Y-56715186D01*
X62454899Y-56804044D01*
X62437469Y-56869093D01*
X62443849Y-56975381D01*
X62562896Y-57181578D01*
X62651755Y-57240247D01*
X62716804Y-57257676D01*
X62823092Y-57251297D01*
X63070528Y-57108440D01*
X63129197Y-57019581D01*
X63146626Y-56954532D01*
X61833348Y-57822725D02*
X62328220Y-57537011D01*
X62080784Y-57679868D02*
X61580784Y-56813843D01*
X61734691Y-56889942D01*
X61864789Y-56924801D01*
X61971077Y-56918421D01*
G04 #@! TO.C,C30*
X61835302Y-54087866D02*
X61900350Y-54105295D01*
X62047878Y-54075106D01*
X62130356Y-54027487D01*
X62230265Y-53914819D01*
X62265124Y-53784722D01*
X62258745Y-53678434D01*
X62204746Y-53489667D01*
X62133317Y-53365949D01*
X61996840Y-53224801D01*
X61907982Y-53166132D01*
X61777884Y-53131273D01*
X61630356Y-53161462D01*
X61547878Y-53209081D01*
X61447969Y-53321749D01*
X61430540Y-53386798D01*
X61094245Y-53470986D02*
X60558134Y-53780509D01*
X61037286Y-53943757D01*
X60913568Y-54015186D01*
X60854899Y-54104044D01*
X60837469Y-54169093D01*
X60843849Y-54275381D01*
X60962896Y-54481578D01*
X61051755Y-54540247D01*
X61116804Y-54557676D01*
X61223092Y-54551297D01*
X61470528Y-54408440D01*
X61529197Y-54319581D01*
X61546626Y-54254532D01*
X60022024Y-54090033D02*
X59939545Y-54137652D01*
X59880876Y-54226511D01*
X59863446Y-54291559D01*
X59869826Y-54397848D01*
X59923825Y-54586614D01*
X60042872Y-54792811D01*
X60179350Y-54933959D01*
X60268208Y-54992628D01*
X60333257Y-55010057D01*
X60439545Y-55003678D01*
X60522024Y-54956059D01*
X60580693Y-54867200D01*
X60598122Y-54802151D01*
X60591743Y-54695863D01*
X60537744Y-54507097D01*
X60418696Y-54300900D01*
X60282219Y-54159752D01*
X60193360Y-54101083D01*
X60128312Y-54083653D01*
X60022024Y-54090033D01*
G04 #@! TO.C,R32*
X62682921Y-55570344D02*
X62733500Y-54991285D01*
X63177792Y-55284630D02*
X62677792Y-54418605D01*
X62347878Y-54609081D01*
X62289209Y-54697939D01*
X62271779Y-54762988D01*
X62278159Y-54869276D01*
X62349587Y-54992994D01*
X62438446Y-55051663D01*
X62503494Y-55069093D01*
X62609783Y-55062713D01*
X62939697Y-54872237D01*
X61894245Y-54870986D02*
X61358134Y-55180509D01*
X61837286Y-55343757D01*
X61713568Y-55415186D01*
X61654899Y-55504044D01*
X61637469Y-55569093D01*
X61643849Y-55675381D01*
X61762896Y-55881578D01*
X61851755Y-55940247D01*
X61916804Y-55957676D01*
X62023092Y-55951297D01*
X62270528Y-55808440D01*
X62329197Y-55719581D01*
X62346626Y-55654532D01*
X61075839Y-55453464D02*
X61010790Y-55436034D01*
X60904502Y-55442414D01*
X60698306Y-55561462D01*
X60639637Y-55650320D01*
X60622207Y-55715369D01*
X60628586Y-55821657D01*
X60676206Y-55904136D01*
X60788873Y-56004044D01*
X61569459Y-56213201D01*
X61033348Y-56522725D01*
G04 #@! TO.C,R33*
X64182921Y-58370344D02*
X64233500Y-57791285D01*
X64677792Y-58084630D02*
X64177792Y-57218605D01*
X63847878Y-57409081D01*
X63789209Y-57497939D01*
X63771779Y-57562988D01*
X63778159Y-57669276D01*
X63849587Y-57792994D01*
X63938446Y-57851663D01*
X64003494Y-57869093D01*
X64109783Y-57862713D01*
X64439697Y-57672237D01*
X63394245Y-57670986D02*
X62858134Y-57980509D01*
X63337286Y-58143757D01*
X63213568Y-58215186D01*
X63154899Y-58304044D01*
X63137469Y-58369093D01*
X63143849Y-58475381D01*
X63262896Y-58681578D01*
X63351755Y-58740247D01*
X63416804Y-58757676D01*
X63523092Y-58751297D01*
X63770528Y-58608440D01*
X63829197Y-58519581D01*
X63846626Y-58454532D01*
X62569459Y-58147176D02*
X62033348Y-58456700D01*
X62512500Y-58619948D01*
X62388782Y-58691376D01*
X62330113Y-58780235D01*
X62312683Y-58845283D01*
X62319063Y-58951572D01*
X62438110Y-59157768D01*
X62526969Y-59216437D01*
X62592017Y-59233867D01*
X62698306Y-59227487D01*
X62945741Y-59084630D01*
X63004411Y-58995772D01*
X63021840Y-58930723D01*
G04 #@! TO.C,C0*
X94457142Y-119633333D02*
X94504761Y-119585714D01*
X94552380Y-119442857D01*
X94552380Y-119347619D01*
X94504761Y-119204761D01*
X94409523Y-119109523D01*
X94314285Y-119061904D01*
X94123809Y-119014285D01*
X93980952Y-119014285D01*
X93790476Y-119061904D01*
X93695238Y-119109523D01*
X93600000Y-119204761D01*
X93552380Y-119347619D01*
X93552380Y-119442857D01*
X93600000Y-119585714D01*
X93647619Y-119633333D01*
X93552380Y-120252380D02*
X93552380Y-120347619D01*
X93600000Y-120442857D01*
X93647619Y-120490476D01*
X93742857Y-120538095D01*
X93933333Y-120585714D01*
X94171428Y-120585714D01*
X94361904Y-120538095D01*
X94457142Y-120490476D01*
X94504761Y-120442857D01*
X94552380Y-120347619D01*
X94552380Y-120252380D01*
X94504761Y-120157142D01*
X94457142Y-120109523D01*
X94361904Y-120061904D01*
X94171428Y-120014285D01*
X93933333Y-120014285D01*
X93742857Y-120061904D01*
X93647619Y-120109523D01*
X93600000Y-120157142D01*
X93552380Y-120252380D01*
G04 #@! TO.C,J0*
X100333333Y-119152380D02*
X100333333Y-119866666D01*
X100380952Y-120009523D01*
X100476190Y-120104761D01*
X100619047Y-120152380D01*
X100714285Y-120152380D01*
X99666666Y-119152380D02*
X99571428Y-119152380D01*
X99476190Y-119200000D01*
X99428571Y-119247619D01*
X99380952Y-119342857D01*
X99333333Y-119533333D01*
X99333333Y-119771428D01*
X99380952Y-119961904D01*
X99428571Y-120057142D01*
X99476190Y-120104761D01*
X99571428Y-120152380D01*
X99666666Y-120152380D01*
X99761904Y-120104761D01*
X99809523Y-120057142D01*
X99857142Y-119961904D01*
X99904761Y-119771428D01*
X99904761Y-119533333D01*
X99857142Y-119342857D01*
X99809523Y-119247619D01*
X99761904Y-119200000D01*
X99666666Y-119152380D01*
G04 #@! TO.C,R0*
X106552380Y-119633333D02*
X106076190Y-119300000D01*
X106552380Y-119061904D02*
X105552380Y-119061904D01*
X105552380Y-119442857D01*
X105600000Y-119538095D01*
X105647619Y-119585714D01*
X105742857Y-119633333D01*
X105885714Y-119633333D01*
X105980952Y-119585714D01*
X106028571Y-119538095D01*
X106076190Y-119442857D01*
X106076190Y-119061904D01*
X105552380Y-120252380D02*
X105552380Y-120347619D01*
X105600000Y-120442857D01*
X105647619Y-120490476D01*
X105742857Y-120538095D01*
X105933333Y-120585714D01*
X106171428Y-120585714D01*
X106361904Y-120538095D01*
X106457142Y-120490476D01*
X106504761Y-120442857D01*
X106552380Y-120347619D01*
X106552380Y-120252380D01*
X106504761Y-120157142D01*
X106457142Y-120109523D01*
X106361904Y-120061904D01*
X106171428Y-120014285D01*
X105933333Y-120014285D01*
X105742857Y-120061904D01*
X105647619Y-120109523D01*
X105600000Y-120157142D01*
X105552380Y-120252380D01*
G04 #@! TO.C,SW0*
X83216132Y-111257081D02*
X83103464Y-111157173D01*
X82984417Y-110950976D01*
X82978037Y-110844688D01*
X82995467Y-110779639D01*
X83054136Y-110690781D01*
X83136614Y-110643162D01*
X83242902Y-110636782D01*
X83307951Y-110654212D01*
X83396810Y-110712881D01*
X83533287Y-110854029D01*
X83622145Y-110912698D01*
X83687194Y-110930127D01*
X83793482Y-110923748D01*
X83875961Y-110876129D01*
X83934630Y-110787270D01*
X83952060Y-110722221D01*
X83945680Y-110615933D01*
X83826632Y-110409737D01*
X83713965Y-110309828D01*
X83588537Y-109997344D02*
X82603464Y-110291147D01*
X83126816Y-109769047D01*
X82412988Y-109961233D01*
X83159966Y-109255036D01*
X82874252Y-108760165D02*
X82826632Y-108677686D01*
X82737774Y-108619017D01*
X82672725Y-108601587D01*
X82566437Y-108607967D01*
X82377670Y-108661966D01*
X82171474Y-108781013D01*
X82030326Y-108917491D01*
X81971657Y-109006349D01*
X81954227Y-109071398D01*
X81960607Y-109177686D01*
X82008226Y-109260165D01*
X82097084Y-109318834D01*
X82162133Y-109336263D01*
X82268421Y-109329884D01*
X82457188Y-109275885D01*
X82663385Y-109156837D01*
X82804532Y-109020360D01*
X82863201Y-108931502D01*
X82880631Y-108866453D01*
X82874252Y-108760165D01*
G04 #@! TO.C,SW1*
X101333333Y-80604761D02*
X101190476Y-80652380D01*
X100952380Y-80652380D01*
X100857142Y-80604761D01*
X100809523Y-80557142D01*
X100761904Y-80461904D01*
X100761904Y-80366666D01*
X100809523Y-80271428D01*
X100857142Y-80223809D01*
X100952380Y-80176190D01*
X101142857Y-80128571D01*
X101238095Y-80080952D01*
X101285714Y-80033333D01*
X101333333Y-79938095D01*
X101333333Y-79842857D01*
X101285714Y-79747619D01*
X101238095Y-79700000D01*
X101142857Y-79652380D01*
X100904761Y-79652380D01*
X100761904Y-79700000D01*
X100428571Y-79652380D02*
X100190476Y-80652380D01*
X100000000Y-79938095D01*
X99809523Y-80652380D01*
X99571428Y-79652380D01*
X98666666Y-80652380D02*
X99238095Y-80652380D01*
X98952380Y-80652380D02*
X98952380Y-79652380D01*
X99047619Y-79795238D01*
X99142857Y-79890476D01*
X99238095Y-79938095D01*
G04 #@! TO.C,SW2*
X118217200Y-108947680D02*
X118187011Y-109095207D01*
X118067963Y-109301404D01*
X117979105Y-109360073D01*
X117914056Y-109377503D01*
X117807768Y-109371123D01*
X117725289Y-109323504D01*
X117666620Y-109234646D01*
X117649191Y-109169597D01*
X117655570Y-109063309D01*
X117709569Y-108874542D01*
X117715949Y-108768254D01*
X117698519Y-108703205D01*
X117639850Y-108614347D01*
X117557371Y-108566728D01*
X117451083Y-108560348D01*
X117386034Y-108577778D01*
X117297176Y-108636447D01*
X117178128Y-108842643D01*
X117147939Y-108990171D01*
X116940033Y-109255036D02*
X117687011Y-109961233D01*
X116973183Y-109769047D01*
X117496535Y-110291147D01*
X116511462Y-109997344D01*
X116427274Y-110333638D02*
X116362225Y-110351068D01*
X116273367Y-110409737D01*
X116154319Y-110615933D01*
X116147939Y-110722221D01*
X116165369Y-110787270D01*
X116224038Y-110876129D01*
X116306517Y-110923748D01*
X116454044Y-110953937D01*
X117234630Y-110744780D01*
X116925106Y-111280891D01*
G04 #@! TO.C,C10*
X67520302Y-34449450D02*
X67585350Y-34466879D01*
X67732878Y-34436690D01*
X67815356Y-34389071D01*
X67915265Y-34276403D01*
X67950124Y-34146306D01*
X67943745Y-34040018D01*
X67889746Y-33851251D01*
X67818317Y-33727533D01*
X67681840Y-33586385D01*
X67592982Y-33527716D01*
X67462884Y-33492857D01*
X67315356Y-33523046D01*
X67232878Y-33570665D01*
X67132969Y-33683333D01*
X67115540Y-33748382D01*
X66743134Y-35008119D02*
X67238006Y-34722405D01*
X66990570Y-34865262D02*
X66490570Y-33999236D01*
X66644478Y-34075335D01*
X66774575Y-34110195D01*
X66880863Y-34103815D01*
X65707024Y-34451617D02*
X65624545Y-34499236D01*
X65565876Y-34588095D01*
X65548446Y-34653143D01*
X65554826Y-34759432D01*
X65608825Y-34948198D01*
X65727872Y-35154395D01*
X65864350Y-35295543D01*
X65953208Y-35354212D01*
X66018257Y-35371641D01*
X66124545Y-35365262D01*
X66207024Y-35317643D01*
X66265693Y-35228784D01*
X66283122Y-35163735D01*
X66276743Y-35057447D01*
X66222744Y-34868681D01*
X66103696Y-34662484D01*
X65967219Y-34521336D01*
X65878360Y-34462667D01*
X65813312Y-34445237D01*
X65707024Y-34451617D01*
G04 #@! TO.C,C11*
X60720302Y-38149450D02*
X60785350Y-38166879D01*
X60932878Y-38136690D01*
X61015356Y-38089071D01*
X61115265Y-37976403D01*
X61150124Y-37846306D01*
X61143745Y-37740018D01*
X61089746Y-37551251D01*
X61018317Y-37427533D01*
X60881840Y-37286385D01*
X60792982Y-37227716D01*
X60662884Y-37192857D01*
X60515356Y-37223046D01*
X60432878Y-37270665D01*
X60332969Y-37383333D01*
X60315540Y-37448382D01*
X59943134Y-38708119D02*
X60438006Y-38422405D01*
X60190570Y-38565262D02*
X59690570Y-37699236D01*
X59844478Y-37775335D01*
X59974575Y-37810195D01*
X60080863Y-37803815D01*
X59118348Y-39184309D02*
X59613220Y-38898595D01*
X59365784Y-39041452D02*
X58865784Y-38175427D01*
X59019691Y-38251526D01*
X59149789Y-38286385D01*
X59256077Y-38280005D01*
G04 #@! TO.C,C20*
X121878159Y-52130723D02*
X121895588Y-52195772D01*
X121995497Y-52308440D01*
X122077975Y-52356059D01*
X122225503Y-52386248D01*
X122355601Y-52351388D01*
X122444459Y-52292719D01*
X122580936Y-52151572D01*
X122652365Y-52027854D01*
X122706364Y-51839087D01*
X122712743Y-51732799D01*
X122677884Y-51602701D01*
X122577975Y-51490033D01*
X122495497Y-51442414D01*
X122347969Y-51412225D01*
X122282921Y-51429655D01*
X121953006Y-51239178D02*
X121935576Y-51174130D01*
X121876907Y-51085271D01*
X121670711Y-50966224D01*
X121564423Y-50959844D01*
X121499374Y-50977274D01*
X121410515Y-51035943D01*
X121362896Y-51118421D01*
X121332707Y-51265949D01*
X121541865Y-52046535D01*
X121005754Y-51737011D01*
X120969643Y-50561462D02*
X120887164Y-50513843D01*
X120780876Y-50507463D01*
X120715827Y-50524893D01*
X120626969Y-50583562D01*
X120490491Y-50724710D01*
X120371444Y-50930906D01*
X120317445Y-51119673D01*
X120311065Y-51225961D01*
X120328495Y-51291010D01*
X120387164Y-51379868D01*
X120469643Y-51427487D01*
X120575931Y-51433867D01*
X120640980Y-51416437D01*
X120729838Y-51357768D01*
X120866315Y-51216620D01*
X120985363Y-51010424D01*
X121039362Y-50821657D01*
X121045741Y-50715369D01*
X121028312Y-50650320D01*
X120969643Y-50561462D01*
G04 #@! TO.C,C21*
X131578159Y-57730723D02*
X131595588Y-57795772D01*
X131695497Y-57908440D01*
X131777975Y-57956059D01*
X131925503Y-57986248D01*
X132055601Y-57951388D01*
X132144459Y-57892719D01*
X132280936Y-57751572D01*
X132352365Y-57627854D01*
X132406364Y-57439087D01*
X132412743Y-57332799D01*
X132377884Y-57202701D01*
X132277975Y-57090033D01*
X132195497Y-57042414D01*
X132047969Y-57012225D01*
X131982921Y-57029655D01*
X131653006Y-56839178D02*
X131635576Y-56774130D01*
X131576907Y-56685271D01*
X131370711Y-56566224D01*
X131264423Y-56559844D01*
X131199374Y-56577274D01*
X131110515Y-56635943D01*
X131062896Y-56718421D01*
X131032707Y-56865949D01*
X131241865Y-57646535D01*
X130705754Y-57337011D01*
X129880967Y-56860821D02*
X130375839Y-57146535D01*
X130128403Y-57003678D02*
X130628403Y-56137652D01*
X130639453Y-56308989D01*
X130674313Y-56439087D01*
X130732982Y-56527945D01*
G04 #@! TO.C,J10*
X155018539Y-76798190D02*
X155375682Y-77416779D01*
X155488350Y-77516688D01*
X155618448Y-77551547D01*
X155765975Y-77521358D01*
X155848454Y-77473739D01*
X154652514Y-78164215D02*
X155147385Y-77878501D01*
X154899950Y-78021358D02*
X154399950Y-77155332D01*
X154553857Y-77231431D01*
X154683954Y-77266291D01*
X154790243Y-77259911D01*
X153616403Y-77607713D02*
X153533924Y-77655332D01*
X153475255Y-77744191D01*
X153457825Y-77809240D01*
X153464205Y-77915528D01*
X153518204Y-78104295D01*
X153637251Y-78310491D01*
X153773729Y-78451639D01*
X153862587Y-78510308D01*
X153927636Y-78527738D01*
X154033924Y-78521358D01*
X154116403Y-78473739D01*
X154175072Y-78384880D01*
X154192502Y-78319832D01*
X154186122Y-78213543D01*
X154132123Y-78024777D01*
X154013076Y-77818580D01*
X153876598Y-77677433D01*
X153787740Y-77618763D01*
X153722691Y-77601334D01*
X153616403Y-77607713D01*
G04 #@! TO.C,J20*
X117502306Y-52694995D02*
X118120896Y-53052138D01*
X118268423Y-53082327D01*
X118398521Y-53047467D01*
X118511189Y-52947559D01*
X118558808Y-52865080D01*
X117370499Y-53113768D02*
X117305450Y-53131197D01*
X117216592Y-53189866D01*
X117097544Y-53396063D01*
X117091165Y-53502351D01*
X117108595Y-53567400D01*
X117167264Y-53656258D01*
X117249742Y-53703877D01*
X117397270Y-53734067D01*
X118177856Y-53524909D01*
X117868332Y-54061020D01*
X116692783Y-54097131D02*
X116645164Y-54179610D01*
X116638784Y-54285898D01*
X116656214Y-54350947D01*
X116714883Y-54439805D01*
X116856030Y-54576282D01*
X117062227Y-54695330D01*
X117250994Y-54749329D01*
X117357282Y-54755709D01*
X117422331Y-54738279D01*
X117511189Y-54679610D01*
X117558808Y-54597131D01*
X117565188Y-54490843D01*
X117547758Y-54425794D01*
X117489089Y-54336936D01*
X117347941Y-54200458D01*
X117141745Y-54081411D01*
X116952978Y-54027412D01*
X116846690Y-54021032D01*
X116781641Y-54038462D01*
X116692783Y-54097131D01*
G04 #@! TO.C,R10*
X73755693Y-45471260D02*
X73806272Y-44892201D01*
X74250564Y-45185546D02*
X73750564Y-44319521D01*
X73420650Y-44509997D01*
X73361981Y-44598855D01*
X73344551Y-44663904D01*
X73350931Y-44770192D01*
X73422359Y-44893910D01*
X73511218Y-44952579D01*
X73576266Y-44970009D01*
X73682555Y-44963629D01*
X74012469Y-44773153D01*
X72930906Y-45947451D02*
X73425778Y-45661737D01*
X73178342Y-45804594D02*
X72678342Y-44938568D01*
X72832250Y-45014667D01*
X72962347Y-45049527D01*
X73068635Y-45043147D01*
X71894796Y-45390949D02*
X71812317Y-45438568D01*
X71753648Y-45527427D01*
X71736218Y-45592475D01*
X71742598Y-45698764D01*
X71796597Y-45887530D01*
X71915644Y-46093727D01*
X72052122Y-46234875D01*
X72140980Y-46293544D01*
X72206029Y-46310973D01*
X72312317Y-46304594D01*
X72394796Y-46256975D01*
X72453465Y-46168116D01*
X72470894Y-46103067D01*
X72464515Y-45996779D01*
X72410516Y-45808013D01*
X72291468Y-45601816D01*
X72154991Y-45460668D01*
X72066132Y-45401999D01*
X72001084Y-45384569D01*
X71894796Y-45390949D01*
G04 #@! TO.C,R20*
X136113201Y-54169459D02*
X135867475Y-53642689D01*
X136398916Y-53674588D02*
X135532890Y-53174588D01*
X135342414Y-53504502D01*
X135336034Y-53610790D01*
X135353464Y-53675839D01*
X135412133Y-53764697D01*
X135535851Y-53836126D01*
X135642139Y-53842506D01*
X135707188Y-53825076D01*
X135796047Y-53766407D01*
X135986523Y-53436492D01*
X135139178Y-54046993D02*
X135074130Y-54064423D01*
X134985271Y-54123092D01*
X134866224Y-54329288D01*
X134859844Y-54435576D01*
X134877274Y-54500625D01*
X134935943Y-54589484D01*
X135018421Y-54637103D01*
X135165949Y-54667292D01*
X135946535Y-54458134D01*
X135637011Y-54994245D01*
X134461462Y-55030356D02*
X134413843Y-55112835D01*
X134407463Y-55219123D01*
X134424893Y-55284172D01*
X134483562Y-55373030D01*
X134624710Y-55509508D01*
X134830906Y-55628555D01*
X135019673Y-55682554D01*
X135125961Y-55688934D01*
X135191010Y-55671504D01*
X135279868Y-55612835D01*
X135327487Y-55530356D01*
X135333867Y-55424068D01*
X135316437Y-55359019D01*
X135257768Y-55270161D01*
X135116620Y-55133684D01*
X134910424Y-55014636D01*
X134721657Y-54960637D01*
X134615369Y-54954258D01*
X134550320Y-54971687D01*
X134461462Y-55030356D01*
G04 #@! TO.C,U10*
X65148412Y-37082791D02*
X65553174Y-37783859D01*
X65559554Y-37890147D01*
X65542124Y-37955196D01*
X65483455Y-38044054D01*
X65318497Y-38139292D01*
X65212209Y-38145672D01*
X65147161Y-38128242D01*
X65058302Y-38069573D01*
X64653540Y-37368505D01*
X64287515Y-38734531D02*
X64782387Y-38448816D01*
X64534951Y-38591673D02*
X64034951Y-37725648D01*
X64188858Y-37801747D01*
X64318956Y-37836606D01*
X64425244Y-37830227D01*
X63251404Y-38178029D02*
X63168925Y-38225648D01*
X63110256Y-38314506D01*
X63092826Y-38379555D01*
X63099206Y-38485843D01*
X63153205Y-38674610D01*
X63272253Y-38880807D01*
X63408730Y-39021954D01*
X63497588Y-39080623D01*
X63562637Y-39098053D01*
X63668925Y-39091673D01*
X63751404Y-39044054D01*
X63810073Y-38955196D01*
X63827503Y-38890147D01*
X63821123Y-38783859D01*
X63767124Y-38595092D01*
X63648077Y-38388896D01*
X63511599Y-38247748D01*
X63422741Y-38189079D01*
X63357692Y-38171649D01*
X63251404Y-38178029D01*
G04 #@! TO.C,U20*
X131696031Y-47513706D02*
X131291269Y-48214774D01*
X131202411Y-48273443D01*
X131137362Y-48290873D01*
X131031074Y-48284493D01*
X130866117Y-48189255D01*
X130807447Y-48100397D01*
X130790018Y-48035348D01*
X130796397Y-47929060D01*
X131201159Y-47227992D01*
X130782387Y-47096185D02*
X130764957Y-47031136D01*
X130706288Y-46942278D01*
X130500091Y-46823230D01*
X130393803Y-46816850D01*
X130328754Y-46834280D01*
X130239896Y-46892949D01*
X130192277Y-46975428D01*
X130162087Y-47122955D01*
X130371245Y-47903541D01*
X129835134Y-47594017D01*
X129799023Y-46418468D02*
X129716544Y-46370849D01*
X129610256Y-46364469D01*
X129545207Y-46381899D01*
X129456349Y-46440568D01*
X129319872Y-46581716D01*
X129200824Y-46787912D01*
X129146825Y-46976679D01*
X129140445Y-47082967D01*
X129157875Y-47148016D01*
X129216544Y-47236874D01*
X129299023Y-47284493D01*
X129405311Y-47290873D01*
X129470360Y-47273443D01*
X129559218Y-47214774D01*
X129695696Y-47073627D01*
X129814743Y-46867430D01*
X129868742Y-46678663D01*
X129875122Y-46572375D01*
X129857692Y-46507326D01*
X129799023Y-46418468D01*
G04 #@! TO.C,J30*
X55530509Y-73325122D02*
X56149099Y-73682265D01*
X56296626Y-73712454D01*
X56426724Y-73677594D01*
X56539392Y-73577686D01*
X56587011Y-73495207D01*
X55340033Y-73655036D02*
X55030509Y-74191147D01*
X55527091Y-74092948D01*
X55455662Y-74216666D01*
X55449282Y-74322954D01*
X55466712Y-74388003D01*
X55525381Y-74476861D01*
X55731578Y-74595909D01*
X55837866Y-74602289D01*
X55902915Y-74584859D01*
X55991773Y-74526190D01*
X56134630Y-74278754D01*
X56141010Y-74172466D01*
X56123580Y-74107417D01*
X54720986Y-74727258D02*
X54673367Y-74809737D01*
X54666987Y-74916025D01*
X54684417Y-74981074D01*
X54743086Y-75069932D01*
X54884233Y-75206409D01*
X55090430Y-75325457D01*
X55279197Y-75379456D01*
X55385485Y-75385836D01*
X55450534Y-75368406D01*
X55539392Y-75309737D01*
X55587011Y-75227258D01*
X55593391Y-75120970D01*
X55575961Y-75055921D01*
X55517292Y-74967063D01*
X55376144Y-74830585D01*
X55169948Y-74711538D01*
X54981181Y-74657539D01*
X54874893Y-74651159D01*
X54809844Y-74668589D01*
X54720986Y-74727258D01*
G04 #@! TO.C,J31*
X69827258Y-46120986D02*
X70184401Y-46739575D01*
X70297069Y-46839484D01*
X70427167Y-46874343D01*
X70574694Y-46844154D01*
X70657173Y-46796535D01*
X69497344Y-46311462D02*
X68961233Y-46620986D01*
X69440384Y-46784233D01*
X69316666Y-46855662D01*
X69257997Y-46944520D01*
X69240567Y-47009569D01*
X69246947Y-47115857D01*
X69365995Y-47322054D01*
X69454853Y-47380723D01*
X69519902Y-47398153D01*
X69626190Y-47391773D01*
X69873626Y-47248916D01*
X69932295Y-47160057D01*
X69949725Y-47095009D01*
X68636447Y-47963201D02*
X69131318Y-47677487D01*
X68883882Y-47820344D02*
X68383882Y-46954319D01*
X68537790Y-47030418D01*
X68667887Y-47065277D01*
X68774175Y-47058898D01*
G04 #@! TO.C,J32*
X74727258Y-54720986D02*
X75084401Y-55339575D01*
X75197069Y-55439484D01*
X75327167Y-55474343D01*
X75474694Y-55444154D01*
X75557173Y-55396535D01*
X74397344Y-54911462D02*
X73861233Y-55220986D01*
X74340384Y-55384233D01*
X74216666Y-55455662D01*
X74157997Y-55544520D01*
X74140567Y-55609569D01*
X74146947Y-55715857D01*
X74265995Y-55922054D01*
X74354853Y-55980723D01*
X74419902Y-55998153D01*
X74526190Y-55991773D01*
X74773626Y-55848916D01*
X74832295Y-55760057D01*
X74849725Y-55695009D01*
X73578937Y-55493940D02*
X73513889Y-55476511D01*
X73407600Y-55482890D01*
X73201404Y-55601938D01*
X73142735Y-55690796D01*
X73125305Y-55755845D01*
X73131685Y-55862133D01*
X73179304Y-55944612D01*
X73291972Y-56044520D01*
X74072558Y-56253678D01*
X73536447Y-56563201D01*
G04 #@! TO.C,R30*
X114952380Y-20157142D02*
X114476190Y-19823809D01*
X114952380Y-19585714D02*
X113952380Y-19585714D01*
X113952380Y-19966666D01*
X114000000Y-20061904D01*
X114047619Y-20109523D01*
X114142857Y-20157142D01*
X114285714Y-20157142D01*
X114380952Y-20109523D01*
X114428571Y-20061904D01*
X114476190Y-19966666D01*
X114476190Y-19585714D01*
X113952380Y-20490476D02*
X113952380Y-21109523D01*
X114333333Y-20776190D01*
X114333333Y-20919047D01*
X114380952Y-21014285D01*
X114428571Y-21061904D01*
X114523809Y-21109523D01*
X114761904Y-21109523D01*
X114857142Y-21061904D01*
X114904761Y-21014285D01*
X114952380Y-20919047D01*
X114952380Y-20633333D01*
X114904761Y-20538095D01*
X114857142Y-20490476D01*
X113952380Y-21728571D02*
X113952380Y-21823809D01*
X114000000Y-21919047D01*
X114047619Y-21966666D01*
X114142857Y-22014285D01*
X114333333Y-22061904D01*
X114571428Y-22061904D01*
X114761904Y-22014285D01*
X114857142Y-21966666D01*
X114904761Y-21919047D01*
X114952380Y-21823809D01*
X114952380Y-21728571D01*
X114904761Y-21633333D01*
X114857142Y-21585714D01*
X114761904Y-21538095D01*
X114571428Y-21490476D01*
X114333333Y-21490476D01*
X114142857Y-21538095D01*
X114047619Y-21585714D01*
X114000000Y-21633333D01*
X113952380Y-21728571D01*
G04 #@! TO.C,R31*
X109052380Y-20257142D02*
X108576190Y-19923809D01*
X109052380Y-19685714D02*
X108052380Y-19685714D01*
X108052380Y-20066666D01*
X108100000Y-20161904D01*
X108147619Y-20209523D01*
X108242857Y-20257142D01*
X108385714Y-20257142D01*
X108480952Y-20209523D01*
X108528571Y-20161904D01*
X108576190Y-20066666D01*
X108576190Y-19685714D01*
X108052380Y-20590476D02*
X108052380Y-21209523D01*
X108433333Y-20876190D01*
X108433333Y-21019047D01*
X108480952Y-21114285D01*
X108528571Y-21161904D01*
X108623809Y-21209523D01*
X108861904Y-21209523D01*
X108957142Y-21161904D01*
X109004761Y-21114285D01*
X109052380Y-21019047D01*
X109052380Y-20733333D01*
X109004761Y-20638095D01*
X108957142Y-20590476D01*
X109052380Y-22161904D02*
X109052380Y-21590476D01*
X109052380Y-21876190D02*
X108052380Y-21876190D01*
X108195238Y-21780952D01*
X108290476Y-21685714D01*
X108338095Y-21590476D01*
G04 #@! TO.C,U30*
X98952380Y-33761904D02*
X99761904Y-33761904D01*
X99857142Y-33809523D01*
X99904761Y-33857142D01*
X99952380Y-33952380D01*
X99952380Y-34142857D01*
X99904761Y-34238095D01*
X99857142Y-34285714D01*
X99761904Y-34333333D01*
X98952380Y-34333333D01*
X98952380Y-34714285D02*
X98952380Y-35333333D01*
X99333333Y-35000000D01*
X99333333Y-35142857D01*
X99380952Y-35238095D01*
X99428571Y-35285714D01*
X99523809Y-35333333D01*
X99761904Y-35333333D01*
X99857142Y-35285714D01*
X99904761Y-35238095D01*
X99952380Y-35142857D01*
X99952380Y-34857142D01*
X99904761Y-34761904D01*
X99857142Y-34714285D01*
X98952380Y-35952380D02*
X98952380Y-36047619D01*
X99000000Y-36142857D01*
X99047619Y-36190476D01*
X99142857Y-36238095D01*
X99333333Y-36285714D01*
X99571428Y-36285714D01*
X99761904Y-36238095D01*
X99857142Y-36190476D01*
X99904761Y-36142857D01*
X99952380Y-36047619D01*
X99952380Y-35952380D01*
X99904761Y-35857142D01*
X99857142Y-35809523D01*
X99761904Y-35761904D01*
X99571428Y-35714285D01*
X99333333Y-35714285D01*
X99142857Y-35761904D01*
X99047619Y-35809523D01*
X99000000Y-35857142D01*
X98952380Y-35952380D01*
G04 #@! TO.C,J34*
X53041983Y-71975122D02*
X53660573Y-72332265D01*
X53808100Y-72362454D01*
X53938198Y-72327594D01*
X54050866Y-72227686D01*
X54098485Y-72145207D01*
X52851507Y-72305036D02*
X52541983Y-72841147D01*
X53038565Y-72742948D01*
X52967136Y-72866666D01*
X52960756Y-72972954D01*
X52978186Y-73038003D01*
X53036855Y-73126861D01*
X53243052Y-73245909D01*
X53349340Y-73252289D01*
X53414389Y-73234859D01*
X53503247Y-73176190D01*
X53646104Y-72928754D01*
X53652484Y-72822466D01*
X53635054Y-72757417D01*
X52402087Y-73750121D02*
X52979437Y-74083455D01*
X52191220Y-73353449D02*
X52928857Y-73504395D01*
X52619334Y-74040506D01*
G04 #@! TD*
M02*
