G04 #@! TF.GenerationSoftware,KiCad,Pcbnew,(5.0.1-3-g963ef8bb5)*
G04 #@! TF.CreationDate,2019-08-14T18:08:12+02:00*
G04 #@! TF.ProjectId,crecol_led_pcb_v20,637265636F6C5F6C65645F7063625F76,rev?*
G04 #@! TF.SameCoordinates,Original*
G04 #@! TF.FileFunction,Paste,Bot*
G04 #@! TF.FilePolarity,Positive*
%FSLAX46Y46*%
G04 Gerber Fmt 4.6, Leading zero omitted, Abs format (unit mm)*
G04 Created by KiCad (PCBNEW (5.0.1-3-g963ef8bb5)) date 2019 August 14, Wednesday 18:08:12*
%MOMM*%
%LPD*%
G01*
G04 APERTURE LIST*
%ADD10C,0.100000*%
%ADD11C,0.950000*%
%ADD12C,0.550000*%
%ADD13R,1.600000X0.550000*%
%ADD14C,1.450000*%
%ADD15C,0.800000*%
%ADD16C,2.300000*%
%ADD17C,0.450000*%
%ADD18C,0.600000*%
%ADD19R,1.200000X2.000000*%
G04 APERTURE END LIST*
D10*
G04 #@! TO.C,C31*
G36*
X65787993Y-56351077D02*
X65811148Y-56353741D01*
X65833929Y-56358662D01*
X65856119Y-56365791D01*
X65877503Y-56375062D01*
X65897876Y-56386383D01*
X65917041Y-56399648D01*
X65934813Y-56414726D01*
X65951022Y-56431474D01*
X65965511Y-56449730D01*
X65978141Y-56469319D01*
X66215641Y-56880681D01*
X66226290Y-56901413D01*
X66234856Y-56923089D01*
X66241256Y-56945500D01*
X66245428Y-56968431D01*
X66247333Y-56991660D01*
X66246951Y-57014964D01*
X66244288Y-57038119D01*
X66239367Y-57060901D01*
X66232238Y-57083090D01*
X66222967Y-57104475D01*
X66211646Y-57124847D01*
X66198381Y-57144012D01*
X66183303Y-57161784D01*
X66166555Y-57177993D01*
X66148298Y-57192482D01*
X66128710Y-57205112D01*
X65630746Y-57492612D01*
X65610014Y-57503261D01*
X65588338Y-57511827D01*
X65565927Y-57518227D01*
X65542996Y-57522399D01*
X65519767Y-57524304D01*
X65496463Y-57523923D01*
X65473308Y-57521259D01*
X65450527Y-57516338D01*
X65428337Y-57509209D01*
X65406953Y-57499938D01*
X65386580Y-57488617D01*
X65367415Y-57475352D01*
X65349643Y-57460274D01*
X65333434Y-57443526D01*
X65318945Y-57425270D01*
X65306315Y-57405681D01*
X65068815Y-56994319D01*
X65058166Y-56973587D01*
X65049600Y-56951911D01*
X65043200Y-56929500D01*
X65039028Y-56906569D01*
X65037123Y-56883340D01*
X65037505Y-56860036D01*
X65040168Y-56836881D01*
X65045089Y-56814099D01*
X65052218Y-56791910D01*
X65061489Y-56770525D01*
X65072810Y-56750153D01*
X65086075Y-56730988D01*
X65101153Y-56713216D01*
X65117901Y-56697007D01*
X65136158Y-56682518D01*
X65155746Y-56669888D01*
X65653710Y-56382388D01*
X65674442Y-56371739D01*
X65696118Y-56363173D01*
X65718529Y-56356773D01*
X65741460Y-56352601D01*
X65764689Y-56350696D01*
X65787993Y-56351077D01*
X65787993Y-56351077D01*
G37*
D11*
X65642228Y-56937500D03*
D10*
G36*
X67303537Y-55476077D02*
X67326692Y-55478741D01*
X67349473Y-55483662D01*
X67371663Y-55490791D01*
X67393047Y-55500062D01*
X67413420Y-55511383D01*
X67432585Y-55524648D01*
X67450357Y-55539726D01*
X67466566Y-55556474D01*
X67481055Y-55574730D01*
X67493685Y-55594319D01*
X67731185Y-56005681D01*
X67741834Y-56026413D01*
X67750400Y-56048089D01*
X67756800Y-56070500D01*
X67760972Y-56093431D01*
X67762877Y-56116660D01*
X67762495Y-56139964D01*
X67759832Y-56163119D01*
X67754911Y-56185901D01*
X67747782Y-56208090D01*
X67738511Y-56229475D01*
X67727190Y-56249847D01*
X67713925Y-56269012D01*
X67698847Y-56286784D01*
X67682099Y-56302993D01*
X67663842Y-56317482D01*
X67644254Y-56330112D01*
X67146290Y-56617612D01*
X67125558Y-56628261D01*
X67103882Y-56636827D01*
X67081471Y-56643227D01*
X67058540Y-56647399D01*
X67035311Y-56649304D01*
X67012007Y-56648923D01*
X66988852Y-56646259D01*
X66966071Y-56641338D01*
X66943881Y-56634209D01*
X66922497Y-56624938D01*
X66902124Y-56613617D01*
X66882959Y-56600352D01*
X66865187Y-56585274D01*
X66848978Y-56568526D01*
X66834489Y-56550270D01*
X66821859Y-56530681D01*
X66584359Y-56119319D01*
X66573710Y-56098587D01*
X66565144Y-56076911D01*
X66558744Y-56054500D01*
X66554572Y-56031569D01*
X66552667Y-56008340D01*
X66553049Y-55985036D01*
X66555712Y-55961881D01*
X66560633Y-55939099D01*
X66567762Y-55916910D01*
X66577033Y-55895525D01*
X66588354Y-55875153D01*
X66601619Y-55855988D01*
X66616697Y-55838216D01*
X66633445Y-55822007D01*
X66651702Y-55807518D01*
X66671290Y-55794888D01*
X67169254Y-55507388D01*
X67189986Y-55496739D01*
X67211662Y-55488173D01*
X67234073Y-55481773D01*
X67257004Y-55477601D01*
X67280233Y-55475696D01*
X67303537Y-55476077D01*
X67303537Y-55476077D01*
G37*
D11*
X67157772Y-56062500D03*
G04 #@! TD*
D10*
G04 #@! TO.C,C30*
G36*
X64903537Y-51276077D02*
X64926692Y-51278741D01*
X64949473Y-51283662D01*
X64971663Y-51290791D01*
X64993047Y-51300062D01*
X65013420Y-51311383D01*
X65032585Y-51324648D01*
X65050357Y-51339726D01*
X65066566Y-51356474D01*
X65081055Y-51374730D01*
X65093685Y-51394319D01*
X65331185Y-51805681D01*
X65341834Y-51826413D01*
X65350400Y-51848089D01*
X65356800Y-51870500D01*
X65360972Y-51893431D01*
X65362877Y-51916660D01*
X65362495Y-51939964D01*
X65359832Y-51963119D01*
X65354911Y-51985901D01*
X65347782Y-52008090D01*
X65338511Y-52029475D01*
X65327190Y-52049847D01*
X65313925Y-52069012D01*
X65298847Y-52086784D01*
X65282099Y-52102993D01*
X65263842Y-52117482D01*
X65244254Y-52130112D01*
X64746290Y-52417612D01*
X64725558Y-52428261D01*
X64703882Y-52436827D01*
X64681471Y-52443227D01*
X64658540Y-52447399D01*
X64635311Y-52449304D01*
X64612007Y-52448923D01*
X64588852Y-52446259D01*
X64566071Y-52441338D01*
X64543881Y-52434209D01*
X64522497Y-52424938D01*
X64502124Y-52413617D01*
X64482959Y-52400352D01*
X64465187Y-52385274D01*
X64448978Y-52368526D01*
X64434489Y-52350270D01*
X64421859Y-52330681D01*
X64184359Y-51919319D01*
X64173710Y-51898587D01*
X64165144Y-51876911D01*
X64158744Y-51854500D01*
X64154572Y-51831569D01*
X64152667Y-51808340D01*
X64153049Y-51785036D01*
X64155712Y-51761881D01*
X64160633Y-51739099D01*
X64167762Y-51716910D01*
X64177033Y-51695525D01*
X64188354Y-51675153D01*
X64201619Y-51655988D01*
X64216697Y-51638216D01*
X64233445Y-51622007D01*
X64251702Y-51607518D01*
X64271290Y-51594888D01*
X64769254Y-51307388D01*
X64789986Y-51296739D01*
X64811662Y-51288173D01*
X64834073Y-51281773D01*
X64857004Y-51277601D01*
X64880233Y-51275696D01*
X64903537Y-51276077D01*
X64903537Y-51276077D01*
G37*
D11*
X64757772Y-51862500D03*
D10*
G36*
X63387993Y-52151077D02*
X63411148Y-52153741D01*
X63433929Y-52158662D01*
X63456119Y-52165791D01*
X63477503Y-52175062D01*
X63497876Y-52186383D01*
X63517041Y-52199648D01*
X63534813Y-52214726D01*
X63551022Y-52231474D01*
X63565511Y-52249730D01*
X63578141Y-52269319D01*
X63815641Y-52680681D01*
X63826290Y-52701413D01*
X63834856Y-52723089D01*
X63841256Y-52745500D01*
X63845428Y-52768431D01*
X63847333Y-52791660D01*
X63846951Y-52814964D01*
X63844288Y-52838119D01*
X63839367Y-52860901D01*
X63832238Y-52883090D01*
X63822967Y-52904475D01*
X63811646Y-52924847D01*
X63798381Y-52944012D01*
X63783303Y-52961784D01*
X63766555Y-52977993D01*
X63748298Y-52992482D01*
X63728710Y-53005112D01*
X63230746Y-53292612D01*
X63210014Y-53303261D01*
X63188338Y-53311827D01*
X63165927Y-53318227D01*
X63142996Y-53322399D01*
X63119767Y-53324304D01*
X63096463Y-53323923D01*
X63073308Y-53321259D01*
X63050527Y-53316338D01*
X63028337Y-53309209D01*
X63006953Y-53299938D01*
X62986580Y-53288617D01*
X62967415Y-53275352D01*
X62949643Y-53260274D01*
X62933434Y-53243526D01*
X62918945Y-53225270D01*
X62906315Y-53205681D01*
X62668815Y-52794319D01*
X62658166Y-52773587D01*
X62649600Y-52751911D01*
X62643200Y-52729500D01*
X62639028Y-52706569D01*
X62637123Y-52683340D01*
X62637505Y-52660036D01*
X62640168Y-52636881D01*
X62645089Y-52614099D01*
X62652218Y-52591910D01*
X62661489Y-52570525D01*
X62672810Y-52550153D01*
X62686075Y-52530988D01*
X62701153Y-52513216D01*
X62717901Y-52497007D01*
X62736158Y-52482518D01*
X62755746Y-52469888D01*
X63253710Y-52182388D01*
X63274442Y-52171739D01*
X63296118Y-52163173D01*
X63318529Y-52156773D01*
X63341460Y-52152601D01*
X63364689Y-52150696D01*
X63387993Y-52151077D01*
X63387993Y-52151077D01*
G37*
D11*
X63242228Y-52737500D03*
G04 #@! TD*
D10*
G04 #@! TO.C,R32*
G36*
X65703537Y-52676077D02*
X65726692Y-52678741D01*
X65749473Y-52683662D01*
X65771663Y-52690791D01*
X65793047Y-52700062D01*
X65813420Y-52711383D01*
X65832585Y-52724648D01*
X65850357Y-52739726D01*
X65866566Y-52756474D01*
X65881055Y-52774730D01*
X65893685Y-52794319D01*
X66131185Y-53205681D01*
X66141834Y-53226413D01*
X66150400Y-53248089D01*
X66156800Y-53270500D01*
X66160972Y-53293431D01*
X66162877Y-53316660D01*
X66162495Y-53339964D01*
X66159832Y-53363119D01*
X66154911Y-53385901D01*
X66147782Y-53408090D01*
X66138511Y-53429475D01*
X66127190Y-53449847D01*
X66113925Y-53469012D01*
X66098847Y-53486784D01*
X66082099Y-53502993D01*
X66063842Y-53517482D01*
X66044254Y-53530112D01*
X65546290Y-53817612D01*
X65525558Y-53828261D01*
X65503882Y-53836827D01*
X65481471Y-53843227D01*
X65458540Y-53847399D01*
X65435311Y-53849304D01*
X65412007Y-53848923D01*
X65388852Y-53846259D01*
X65366071Y-53841338D01*
X65343881Y-53834209D01*
X65322497Y-53824938D01*
X65302124Y-53813617D01*
X65282959Y-53800352D01*
X65265187Y-53785274D01*
X65248978Y-53768526D01*
X65234489Y-53750270D01*
X65221859Y-53730681D01*
X64984359Y-53319319D01*
X64973710Y-53298587D01*
X64965144Y-53276911D01*
X64958744Y-53254500D01*
X64954572Y-53231569D01*
X64952667Y-53208340D01*
X64953049Y-53185036D01*
X64955712Y-53161881D01*
X64960633Y-53139099D01*
X64967762Y-53116910D01*
X64977033Y-53095525D01*
X64988354Y-53075153D01*
X65001619Y-53055988D01*
X65016697Y-53038216D01*
X65033445Y-53022007D01*
X65051702Y-53007518D01*
X65071290Y-52994888D01*
X65569254Y-52707388D01*
X65589986Y-52696739D01*
X65611662Y-52688173D01*
X65634073Y-52681773D01*
X65657004Y-52677601D01*
X65680233Y-52675696D01*
X65703537Y-52676077D01*
X65703537Y-52676077D01*
G37*
D11*
X65557772Y-53262500D03*
D10*
G36*
X64187993Y-53551077D02*
X64211148Y-53553741D01*
X64233929Y-53558662D01*
X64256119Y-53565791D01*
X64277503Y-53575062D01*
X64297876Y-53586383D01*
X64317041Y-53599648D01*
X64334813Y-53614726D01*
X64351022Y-53631474D01*
X64365511Y-53649730D01*
X64378141Y-53669319D01*
X64615641Y-54080681D01*
X64626290Y-54101413D01*
X64634856Y-54123089D01*
X64641256Y-54145500D01*
X64645428Y-54168431D01*
X64647333Y-54191660D01*
X64646951Y-54214964D01*
X64644288Y-54238119D01*
X64639367Y-54260901D01*
X64632238Y-54283090D01*
X64622967Y-54304475D01*
X64611646Y-54324847D01*
X64598381Y-54344012D01*
X64583303Y-54361784D01*
X64566555Y-54377993D01*
X64548298Y-54392482D01*
X64528710Y-54405112D01*
X64030746Y-54692612D01*
X64010014Y-54703261D01*
X63988338Y-54711827D01*
X63965927Y-54718227D01*
X63942996Y-54722399D01*
X63919767Y-54724304D01*
X63896463Y-54723923D01*
X63873308Y-54721259D01*
X63850527Y-54716338D01*
X63828337Y-54709209D01*
X63806953Y-54699938D01*
X63786580Y-54688617D01*
X63767415Y-54675352D01*
X63749643Y-54660274D01*
X63733434Y-54643526D01*
X63718945Y-54625270D01*
X63706315Y-54605681D01*
X63468815Y-54194319D01*
X63458166Y-54173587D01*
X63449600Y-54151911D01*
X63443200Y-54129500D01*
X63439028Y-54106569D01*
X63437123Y-54083340D01*
X63437505Y-54060036D01*
X63440168Y-54036881D01*
X63445089Y-54014099D01*
X63452218Y-53991910D01*
X63461489Y-53970525D01*
X63472810Y-53950153D01*
X63486075Y-53930988D01*
X63501153Y-53913216D01*
X63517901Y-53897007D01*
X63536158Y-53882518D01*
X63555746Y-53869888D01*
X64053710Y-53582388D01*
X64074442Y-53571739D01*
X64096118Y-53563173D01*
X64118529Y-53556773D01*
X64141460Y-53552601D01*
X64164689Y-53550696D01*
X64187993Y-53551077D01*
X64187993Y-53551077D01*
G37*
D11*
X64042228Y-54137500D03*
G04 #@! TD*
D10*
G04 #@! TO.C,R33*
G36*
X64987993Y-54951077D02*
X65011148Y-54953741D01*
X65033929Y-54958662D01*
X65056119Y-54965791D01*
X65077503Y-54975062D01*
X65097876Y-54986383D01*
X65117041Y-54999648D01*
X65134813Y-55014726D01*
X65151022Y-55031474D01*
X65165511Y-55049730D01*
X65178141Y-55069319D01*
X65415641Y-55480681D01*
X65426290Y-55501413D01*
X65434856Y-55523089D01*
X65441256Y-55545500D01*
X65445428Y-55568431D01*
X65447333Y-55591660D01*
X65446951Y-55614964D01*
X65444288Y-55638119D01*
X65439367Y-55660901D01*
X65432238Y-55683090D01*
X65422967Y-55704475D01*
X65411646Y-55724847D01*
X65398381Y-55744012D01*
X65383303Y-55761784D01*
X65366555Y-55777993D01*
X65348298Y-55792482D01*
X65328710Y-55805112D01*
X64830746Y-56092612D01*
X64810014Y-56103261D01*
X64788338Y-56111827D01*
X64765927Y-56118227D01*
X64742996Y-56122399D01*
X64719767Y-56124304D01*
X64696463Y-56123923D01*
X64673308Y-56121259D01*
X64650527Y-56116338D01*
X64628337Y-56109209D01*
X64606953Y-56099938D01*
X64586580Y-56088617D01*
X64567415Y-56075352D01*
X64549643Y-56060274D01*
X64533434Y-56043526D01*
X64518945Y-56025270D01*
X64506315Y-56005681D01*
X64268815Y-55594319D01*
X64258166Y-55573587D01*
X64249600Y-55551911D01*
X64243200Y-55529500D01*
X64239028Y-55506569D01*
X64237123Y-55483340D01*
X64237505Y-55460036D01*
X64240168Y-55436881D01*
X64245089Y-55414099D01*
X64252218Y-55391910D01*
X64261489Y-55370525D01*
X64272810Y-55350153D01*
X64286075Y-55330988D01*
X64301153Y-55313216D01*
X64317901Y-55297007D01*
X64336158Y-55282518D01*
X64355746Y-55269888D01*
X64853710Y-54982388D01*
X64874442Y-54971739D01*
X64896118Y-54963173D01*
X64918529Y-54956773D01*
X64941460Y-54952601D01*
X64964689Y-54950696D01*
X64987993Y-54951077D01*
X64987993Y-54951077D01*
G37*
D11*
X64842228Y-55537500D03*
D10*
G36*
X66503537Y-54076077D02*
X66526692Y-54078741D01*
X66549473Y-54083662D01*
X66571663Y-54090791D01*
X66593047Y-54100062D01*
X66613420Y-54111383D01*
X66632585Y-54124648D01*
X66650357Y-54139726D01*
X66666566Y-54156474D01*
X66681055Y-54174730D01*
X66693685Y-54194319D01*
X66931185Y-54605681D01*
X66941834Y-54626413D01*
X66950400Y-54648089D01*
X66956800Y-54670500D01*
X66960972Y-54693431D01*
X66962877Y-54716660D01*
X66962495Y-54739964D01*
X66959832Y-54763119D01*
X66954911Y-54785901D01*
X66947782Y-54808090D01*
X66938511Y-54829475D01*
X66927190Y-54849847D01*
X66913925Y-54869012D01*
X66898847Y-54886784D01*
X66882099Y-54902993D01*
X66863842Y-54917482D01*
X66844254Y-54930112D01*
X66346290Y-55217612D01*
X66325558Y-55228261D01*
X66303882Y-55236827D01*
X66281471Y-55243227D01*
X66258540Y-55247399D01*
X66235311Y-55249304D01*
X66212007Y-55248923D01*
X66188852Y-55246259D01*
X66166071Y-55241338D01*
X66143881Y-55234209D01*
X66122497Y-55224938D01*
X66102124Y-55213617D01*
X66082959Y-55200352D01*
X66065187Y-55185274D01*
X66048978Y-55168526D01*
X66034489Y-55150270D01*
X66021859Y-55130681D01*
X65784359Y-54719319D01*
X65773710Y-54698587D01*
X65765144Y-54676911D01*
X65758744Y-54654500D01*
X65754572Y-54631569D01*
X65752667Y-54608340D01*
X65753049Y-54585036D01*
X65755712Y-54561881D01*
X65760633Y-54539099D01*
X65767762Y-54516910D01*
X65777033Y-54495525D01*
X65788354Y-54475153D01*
X65801619Y-54455988D01*
X65816697Y-54438216D01*
X65833445Y-54422007D01*
X65851702Y-54407518D01*
X65871290Y-54394888D01*
X66369254Y-54107388D01*
X66389986Y-54096739D01*
X66411662Y-54088173D01*
X66434073Y-54081773D01*
X66457004Y-54077601D01*
X66480233Y-54075696D01*
X66503537Y-54076077D01*
X66503537Y-54076077D01*
G37*
D11*
X66357772Y-54662500D03*
G04 #@! TD*
D10*
G04 #@! TO.C,C0*
G36*
X94260779Y-121401144D02*
X94283834Y-121404563D01*
X94306443Y-121410227D01*
X94328387Y-121418079D01*
X94349457Y-121428044D01*
X94369448Y-121440026D01*
X94388168Y-121453910D01*
X94405438Y-121469562D01*
X94421090Y-121486832D01*
X94434974Y-121505552D01*
X94446956Y-121525543D01*
X94456921Y-121546613D01*
X94464773Y-121568557D01*
X94470437Y-121591166D01*
X94473856Y-121614221D01*
X94475000Y-121637500D01*
X94475000Y-122212500D01*
X94473856Y-122235779D01*
X94470437Y-122258834D01*
X94464773Y-122281443D01*
X94456921Y-122303387D01*
X94446956Y-122324457D01*
X94434974Y-122344448D01*
X94421090Y-122363168D01*
X94405438Y-122380438D01*
X94388168Y-122396090D01*
X94369448Y-122409974D01*
X94349457Y-122421956D01*
X94328387Y-122431921D01*
X94306443Y-122439773D01*
X94283834Y-122445437D01*
X94260779Y-122448856D01*
X94237500Y-122450000D01*
X93762500Y-122450000D01*
X93739221Y-122448856D01*
X93716166Y-122445437D01*
X93693557Y-122439773D01*
X93671613Y-122431921D01*
X93650543Y-122421956D01*
X93630552Y-122409974D01*
X93611832Y-122396090D01*
X93594562Y-122380438D01*
X93578910Y-122363168D01*
X93565026Y-122344448D01*
X93553044Y-122324457D01*
X93543079Y-122303387D01*
X93535227Y-122281443D01*
X93529563Y-122258834D01*
X93526144Y-122235779D01*
X93525000Y-122212500D01*
X93525000Y-121637500D01*
X93526144Y-121614221D01*
X93529563Y-121591166D01*
X93535227Y-121568557D01*
X93543079Y-121546613D01*
X93553044Y-121525543D01*
X93565026Y-121505552D01*
X93578910Y-121486832D01*
X93594562Y-121469562D01*
X93611832Y-121453910D01*
X93630552Y-121440026D01*
X93650543Y-121428044D01*
X93671613Y-121418079D01*
X93693557Y-121410227D01*
X93716166Y-121404563D01*
X93739221Y-121401144D01*
X93762500Y-121400000D01*
X94237500Y-121400000D01*
X94260779Y-121401144D01*
X94260779Y-121401144D01*
G37*
D11*
X94000000Y-121925000D03*
D10*
G36*
X94260779Y-123151144D02*
X94283834Y-123154563D01*
X94306443Y-123160227D01*
X94328387Y-123168079D01*
X94349457Y-123178044D01*
X94369448Y-123190026D01*
X94388168Y-123203910D01*
X94405438Y-123219562D01*
X94421090Y-123236832D01*
X94434974Y-123255552D01*
X94446956Y-123275543D01*
X94456921Y-123296613D01*
X94464773Y-123318557D01*
X94470437Y-123341166D01*
X94473856Y-123364221D01*
X94475000Y-123387500D01*
X94475000Y-123962500D01*
X94473856Y-123985779D01*
X94470437Y-124008834D01*
X94464773Y-124031443D01*
X94456921Y-124053387D01*
X94446956Y-124074457D01*
X94434974Y-124094448D01*
X94421090Y-124113168D01*
X94405438Y-124130438D01*
X94388168Y-124146090D01*
X94369448Y-124159974D01*
X94349457Y-124171956D01*
X94328387Y-124181921D01*
X94306443Y-124189773D01*
X94283834Y-124195437D01*
X94260779Y-124198856D01*
X94237500Y-124200000D01*
X93762500Y-124200000D01*
X93739221Y-124198856D01*
X93716166Y-124195437D01*
X93693557Y-124189773D01*
X93671613Y-124181921D01*
X93650543Y-124171956D01*
X93630552Y-124159974D01*
X93611832Y-124146090D01*
X93594562Y-124130438D01*
X93578910Y-124113168D01*
X93565026Y-124094448D01*
X93553044Y-124074457D01*
X93543079Y-124053387D01*
X93535227Y-124031443D01*
X93529563Y-124008834D01*
X93526144Y-123985779D01*
X93525000Y-123962500D01*
X93525000Y-123387500D01*
X93526144Y-123364221D01*
X93529563Y-123341166D01*
X93535227Y-123318557D01*
X93543079Y-123296613D01*
X93553044Y-123275543D01*
X93565026Y-123255552D01*
X93578910Y-123236832D01*
X93594562Y-123219562D01*
X93611832Y-123203910D01*
X93630552Y-123190026D01*
X93650543Y-123178044D01*
X93671613Y-123168079D01*
X93693557Y-123160227D01*
X93716166Y-123154563D01*
X93739221Y-123151144D01*
X93762500Y-123150000D01*
X94237500Y-123150000D01*
X94260779Y-123151144D01*
X94260779Y-123151144D01*
G37*
D11*
X94000000Y-123675000D03*
G04 #@! TD*
D10*
G04 #@! TO.C,R0*
G36*
X106260779Y-123151144D02*
X106283834Y-123154563D01*
X106306443Y-123160227D01*
X106328387Y-123168079D01*
X106349457Y-123178044D01*
X106369448Y-123190026D01*
X106388168Y-123203910D01*
X106405438Y-123219562D01*
X106421090Y-123236832D01*
X106434974Y-123255552D01*
X106446956Y-123275543D01*
X106456921Y-123296613D01*
X106464773Y-123318557D01*
X106470437Y-123341166D01*
X106473856Y-123364221D01*
X106475000Y-123387500D01*
X106475000Y-123962500D01*
X106473856Y-123985779D01*
X106470437Y-124008834D01*
X106464773Y-124031443D01*
X106456921Y-124053387D01*
X106446956Y-124074457D01*
X106434974Y-124094448D01*
X106421090Y-124113168D01*
X106405438Y-124130438D01*
X106388168Y-124146090D01*
X106369448Y-124159974D01*
X106349457Y-124171956D01*
X106328387Y-124181921D01*
X106306443Y-124189773D01*
X106283834Y-124195437D01*
X106260779Y-124198856D01*
X106237500Y-124200000D01*
X105762500Y-124200000D01*
X105739221Y-124198856D01*
X105716166Y-124195437D01*
X105693557Y-124189773D01*
X105671613Y-124181921D01*
X105650543Y-124171956D01*
X105630552Y-124159974D01*
X105611832Y-124146090D01*
X105594562Y-124130438D01*
X105578910Y-124113168D01*
X105565026Y-124094448D01*
X105553044Y-124074457D01*
X105543079Y-124053387D01*
X105535227Y-124031443D01*
X105529563Y-124008834D01*
X105526144Y-123985779D01*
X105525000Y-123962500D01*
X105525000Y-123387500D01*
X105526144Y-123364221D01*
X105529563Y-123341166D01*
X105535227Y-123318557D01*
X105543079Y-123296613D01*
X105553044Y-123275543D01*
X105565026Y-123255552D01*
X105578910Y-123236832D01*
X105594562Y-123219562D01*
X105611832Y-123203910D01*
X105630552Y-123190026D01*
X105650543Y-123178044D01*
X105671613Y-123168079D01*
X105693557Y-123160227D01*
X105716166Y-123154563D01*
X105739221Y-123151144D01*
X105762500Y-123150000D01*
X106237500Y-123150000D01*
X106260779Y-123151144D01*
X106260779Y-123151144D01*
G37*
D11*
X106000000Y-123675000D03*
D10*
G36*
X106260779Y-121401144D02*
X106283834Y-121404563D01*
X106306443Y-121410227D01*
X106328387Y-121418079D01*
X106349457Y-121428044D01*
X106369448Y-121440026D01*
X106388168Y-121453910D01*
X106405438Y-121469562D01*
X106421090Y-121486832D01*
X106434974Y-121505552D01*
X106446956Y-121525543D01*
X106456921Y-121546613D01*
X106464773Y-121568557D01*
X106470437Y-121591166D01*
X106473856Y-121614221D01*
X106475000Y-121637500D01*
X106475000Y-122212500D01*
X106473856Y-122235779D01*
X106470437Y-122258834D01*
X106464773Y-122281443D01*
X106456921Y-122303387D01*
X106446956Y-122324457D01*
X106434974Y-122344448D01*
X106421090Y-122363168D01*
X106405438Y-122380438D01*
X106388168Y-122396090D01*
X106369448Y-122409974D01*
X106349457Y-122421956D01*
X106328387Y-122431921D01*
X106306443Y-122439773D01*
X106283834Y-122445437D01*
X106260779Y-122448856D01*
X106237500Y-122450000D01*
X105762500Y-122450000D01*
X105739221Y-122448856D01*
X105716166Y-122445437D01*
X105693557Y-122439773D01*
X105671613Y-122431921D01*
X105650543Y-122421956D01*
X105630552Y-122409974D01*
X105611832Y-122396090D01*
X105594562Y-122380438D01*
X105578910Y-122363168D01*
X105565026Y-122344448D01*
X105553044Y-122324457D01*
X105543079Y-122303387D01*
X105535227Y-122281443D01*
X105529563Y-122258834D01*
X105526144Y-122235779D01*
X105525000Y-122212500D01*
X105525000Y-121637500D01*
X105526144Y-121614221D01*
X105529563Y-121591166D01*
X105535227Y-121568557D01*
X105543079Y-121546613D01*
X105553044Y-121525543D01*
X105565026Y-121505552D01*
X105578910Y-121486832D01*
X105594562Y-121469562D01*
X105611832Y-121453910D01*
X105630552Y-121440026D01*
X105650543Y-121428044D01*
X105671613Y-121418079D01*
X105693557Y-121410227D01*
X105716166Y-121404563D01*
X105739221Y-121401144D01*
X105762500Y-121400000D01*
X106237500Y-121400000D01*
X106260779Y-121401144D01*
X106260779Y-121401144D01*
G37*
D11*
X106000000Y-121925000D03*
G04 #@! TD*
D12*
G04 #@! TO.C,SW0*
X80600000Y-114511474D03*
D10*
G36*
X79961843Y-113956154D02*
X80438157Y-113681154D01*
X81238157Y-115066794D01*
X80761843Y-115341794D01*
X79961843Y-113956154D01*
X79961843Y-113956154D01*
G37*
D12*
X77700000Y-109488526D03*
D10*
G36*
X77061843Y-108933206D02*
X77538157Y-108658206D01*
X78338157Y-110043846D01*
X77861843Y-110318846D01*
X77061843Y-108933206D01*
X77061843Y-108933206D01*
G37*
D12*
X76600148Y-110123526D03*
D10*
G36*
X75961991Y-109568206D02*
X76438305Y-109293206D01*
X77238305Y-110678846D01*
X76761991Y-110953846D01*
X75961991Y-109568206D01*
X75961991Y-109568206D01*
G37*
D12*
X78799852Y-108853526D03*
D10*
G36*
X78161695Y-108298206D02*
X78638009Y-108023206D01*
X79438009Y-109408846D01*
X78961695Y-109683846D01*
X78161695Y-108298206D01*
X78161695Y-108298206D01*
G37*
D12*
X81699852Y-113876474D03*
D10*
G36*
X81061695Y-113321154D02*
X81538009Y-113046154D01*
X82338009Y-114431794D01*
X81861695Y-114706794D01*
X81061695Y-113321154D01*
X81061695Y-113321154D01*
G37*
D12*
X79500148Y-115146474D03*
D10*
G36*
X78861991Y-114591154D02*
X79338305Y-114316154D01*
X80138305Y-115701794D01*
X79661991Y-115976794D01*
X78861991Y-114591154D01*
X78861991Y-114591154D01*
G37*
G04 #@! TD*
D13*
G04 #@! TO.C,SW1*
X102900000Y-76000000D03*
X97100000Y-76000000D03*
X97100000Y-77270000D03*
X97100000Y-74730000D03*
X102900000Y-74730000D03*
X102900000Y-77270000D03*
G04 #@! TD*
D12*
G04 #@! TO.C,SW2*
X123349852Y-110123526D03*
D10*
G36*
X123188009Y-110953846D02*
X122711695Y-110678846D01*
X123511695Y-109293206D01*
X123988009Y-109568206D01*
X123188009Y-110953846D01*
X123188009Y-110953846D01*
G37*
D12*
X121150148Y-108853526D03*
D10*
G36*
X120988305Y-109683846D02*
X120511991Y-109408846D01*
X121311991Y-108023206D01*
X121788305Y-108298206D01*
X120988305Y-109683846D01*
X120988305Y-109683846D01*
G37*
D12*
X118250148Y-113876474D03*
D10*
G36*
X118088305Y-114706794D02*
X117611991Y-114431794D01*
X118411991Y-113046154D01*
X118888305Y-113321154D01*
X118088305Y-114706794D01*
X118088305Y-114706794D01*
G37*
D12*
X120449852Y-115146474D03*
D10*
G36*
X120288009Y-115976794D02*
X119811695Y-115701794D01*
X120611695Y-114316154D01*
X121088009Y-114591154D01*
X120288009Y-115976794D01*
X120288009Y-115976794D01*
G37*
D12*
X119350000Y-114511474D03*
D10*
G36*
X119188157Y-115341794D02*
X118711843Y-115066794D01*
X119511843Y-113681154D01*
X119988157Y-113956154D01*
X119188157Y-115341794D01*
X119188157Y-115341794D01*
G37*
D12*
X122250000Y-109488526D03*
D10*
G36*
X122088157Y-110318846D02*
X121611843Y-110043846D01*
X122411843Y-108658206D01*
X122888157Y-108933206D01*
X122088157Y-110318846D01*
X122088157Y-110318846D01*
G37*
G04 #@! TD*
G04 #@! TO.C,C10*
G36*
X66887993Y-35551077D02*
X66911148Y-35553741D01*
X66933929Y-35558662D01*
X66956119Y-35565791D01*
X66977503Y-35575062D01*
X66997876Y-35586383D01*
X67017041Y-35599648D01*
X67034813Y-35614726D01*
X67051022Y-35631474D01*
X67065511Y-35649730D01*
X67078141Y-35669319D01*
X67315641Y-36080681D01*
X67326290Y-36101413D01*
X67334856Y-36123089D01*
X67341256Y-36145500D01*
X67345428Y-36168431D01*
X67347333Y-36191660D01*
X67346951Y-36214964D01*
X67344288Y-36238119D01*
X67339367Y-36260901D01*
X67332238Y-36283090D01*
X67322967Y-36304475D01*
X67311646Y-36324847D01*
X67298381Y-36344012D01*
X67283303Y-36361784D01*
X67266555Y-36377993D01*
X67248298Y-36392482D01*
X67228710Y-36405112D01*
X66730746Y-36692612D01*
X66710014Y-36703261D01*
X66688338Y-36711827D01*
X66665927Y-36718227D01*
X66642996Y-36722399D01*
X66619767Y-36724304D01*
X66596463Y-36723923D01*
X66573308Y-36721259D01*
X66550527Y-36716338D01*
X66528337Y-36709209D01*
X66506953Y-36699938D01*
X66486580Y-36688617D01*
X66467415Y-36675352D01*
X66449643Y-36660274D01*
X66433434Y-36643526D01*
X66418945Y-36625270D01*
X66406315Y-36605681D01*
X66168815Y-36194319D01*
X66158166Y-36173587D01*
X66149600Y-36151911D01*
X66143200Y-36129500D01*
X66139028Y-36106569D01*
X66137123Y-36083340D01*
X66137505Y-36060036D01*
X66140168Y-36036881D01*
X66145089Y-36014099D01*
X66152218Y-35991910D01*
X66161489Y-35970525D01*
X66172810Y-35950153D01*
X66186075Y-35930988D01*
X66201153Y-35913216D01*
X66217901Y-35897007D01*
X66236158Y-35882518D01*
X66255746Y-35869888D01*
X66753710Y-35582388D01*
X66774442Y-35571739D01*
X66796118Y-35563173D01*
X66818529Y-35556773D01*
X66841460Y-35552601D01*
X66864689Y-35550696D01*
X66887993Y-35551077D01*
X66887993Y-35551077D01*
G37*
D11*
X66742228Y-36137500D03*
D10*
G36*
X68403537Y-34676077D02*
X68426692Y-34678741D01*
X68449473Y-34683662D01*
X68471663Y-34690791D01*
X68493047Y-34700062D01*
X68513420Y-34711383D01*
X68532585Y-34724648D01*
X68550357Y-34739726D01*
X68566566Y-34756474D01*
X68581055Y-34774730D01*
X68593685Y-34794319D01*
X68831185Y-35205681D01*
X68841834Y-35226413D01*
X68850400Y-35248089D01*
X68856800Y-35270500D01*
X68860972Y-35293431D01*
X68862877Y-35316660D01*
X68862495Y-35339964D01*
X68859832Y-35363119D01*
X68854911Y-35385901D01*
X68847782Y-35408090D01*
X68838511Y-35429475D01*
X68827190Y-35449847D01*
X68813925Y-35469012D01*
X68798847Y-35486784D01*
X68782099Y-35502993D01*
X68763842Y-35517482D01*
X68744254Y-35530112D01*
X68246290Y-35817612D01*
X68225558Y-35828261D01*
X68203882Y-35836827D01*
X68181471Y-35843227D01*
X68158540Y-35847399D01*
X68135311Y-35849304D01*
X68112007Y-35848923D01*
X68088852Y-35846259D01*
X68066071Y-35841338D01*
X68043881Y-35834209D01*
X68022497Y-35824938D01*
X68002124Y-35813617D01*
X67982959Y-35800352D01*
X67965187Y-35785274D01*
X67948978Y-35768526D01*
X67934489Y-35750270D01*
X67921859Y-35730681D01*
X67684359Y-35319319D01*
X67673710Y-35298587D01*
X67665144Y-35276911D01*
X67658744Y-35254500D01*
X67654572Y-35231569D01*
X67652667Y-35208340D01*
X67653049Y-35185036D01*
X67655712Y-35161881D01*
X67660633Y-35139099D01*
X67667762Y-35116910D01*
X67677033Y-35095525D01*
X67688354Y-35075153D01*
X67701619Y-35055988D01*
X67716697Y-35038216D01*
X67733445Y-35022007D01*
X67751702Y-35007518D01*
X67771290Y-34994888D01*
X68269254Y-34707388D01*
X68289986Y-34696739D01*
X68311662Y-34688173D01*
X68334073Y-34681773D01*
X68357004Y-34677601D01*
X68380233Y-34675696D01*
X68403537Y-34676077D01*
X68403537Y-34676077D01*
G37*
D11*
X68257772Y-35262500D03*
G04 #@! TD*
D10*
G04 #@! TO.C,C11*
G36*
X61603537Y-38376077D02*
X61626692Y-38378741D01*
X61649473Y-38383662D01*
X61671663Y-38390791D01*
X61693047Y-38400062D01*
X61713420Y-38411383D01*
X61732585Y-38424648D01*
X61750357Y-38439726D01*
X61766566Y-38456474D01*
X61781055Y-38474730D01*
X61793685Y-38494319D01*
X62031185Y-38905681D01*
X62041834Y-38926413D01*
X62050400Y-38948089D01*
X62056800Y-38970500D01*
X62060972Y-38993431D01*
X62062877Y-39016660D01*
X62062495Y-39039964D01*
X62059832Y-39063119D01*
X62054911Y-39085901D01*
X62047782Y-39108090D01*
X62038511Y-39129475D01*
X62027190Y-39149847D01*
X62013925Y-39169012D01*
X61998847Y-39186784D01*
X61982099Y-39202993D01*
X61963842Y-39217482D01*
X61944254Y-39230112D01*
X61446290Y-39517612D01*
X61425558Y-39528261D01*
X61403882Y-39536827D01*
X61381471Y-39543227D01*
X61358540Y-39547399D01*
X61335311Y-39549304D01*
X61312007Y-39548923D01*
X61288852Y-39546259D01*
X61266071Y-39541338D01*
X61243881Y-39534209D01*
X61222497Y-39524938D01*
X61202124Y-39513617D01*
X61182959Y-39500352D01*
X61165187Y-39485274D01*
X61148978Y-39468526D01*
X61134489Y-39450270D01*
X61121859Y-39430681D01*
X60884359Y-39019319D01*
X60873710Y-38998587D01*
X60865144Y-38976911D01*
X60858744Y-38954500D01*
X60854572Y-38931569D01*
X60852667Y-38908340D01*
X60853049Y-38885036D01*
X60855712Y-38861881D01*
X60860633Y-38839099D01*
X60867762Y-38816910D01*
X60877033Y-38795525D01*
X60888354Y-38775153D01*
X60901619Y-38755988D01*
X60916697Y-38738216D01*
X60933445Y-38722007D01*
X60951702Y-38707518D01*
X60971290Y-38694888D01*
X61469254Y-38407388D01*
X61489986Y-38396739D01*
X61511662Y-38388173D01*
X61534073Y-38381773D01*
X61557004Y-38377601D01*
X61580233Y-38375696D01*
X61603537Y-38376077D01*
X61603537Y-38376077D01*
G37*
D11*
X61457772Y-38962500D03*
D10*
G36*
X60087993Y-39251077D02*
X60111148Y-39253741D01*
X60133929Y-39258662D01*
X60156119Y-39265791D01*
X60177503Y-39275062D01*
X60197876Y-39286383D01*
X60217041Y-39299648D01*
X60234813Y-39314726D01*
X60251022Y-39331474D01*
X60265511Y-39349730D01*
X60278141Y-39369319D01*
X60515641Y-39780681D01*
X60526290Y-39801413D01*
X60534856Y-39823089D01*
X60541256Y-39845500D01*
X60545428Y-39868431D01*
X60547333Y-39891660D01*
X60546951Y-39914964D01*
X60544288Y-39938119D01*
X60539367Y-39960901D01*
X60532238Y-39983090D01*
X60522967Y-40004475D01*
X60511646Y-40024847D01*
X60498381Y-40044012D01*
X60483303Y-40061784D01*
X60466555Y-40077993D01*
X60448298Y-40092482D01*
X60428710Y-40105112D01*
X59930746Y-40392612D01*
X59910014Y-40403261D01*
X59888338Y-40411827D01*
X59865927Y-40418227D01*
X59842996Y-40422399D01*
X59819767Y-40424304D01*
X59796463Y-40423923D01*
X59773308Y-40421259D01*
X59750527Y-40416338D01*
X59728337Y-40409209D01*
X59706953Y-40399938D01*
X59686580Y-40388617D01*
X59667415Y-40375352D01*
X59649643Y-40360274D01*
X59633434Y-40343526D01*
X59618945Y-40325270D01*
X59606315Y-40305681D01*
X59368815Y-39894319D01*
X59358166Y-39873587D01*
X59349600Y-39851911D01*
X59343200Y-39829500D01*
X59339028Y-39806569D01*
X59337123Y-39783340D01*
X59337505Y-39760036D01*
X59340168Y-39736881D01*
X59345089Y-39714099D01*
X59352218Y-39691910D01*
X59361489Y-39670525D01*
X59372810Y-39650153D01*
X59386075Y-39630988D01*
X59401153Y-39613216D01*
X59417901Y-39597007D01*
X59436158Y-39582518D01*
X59455746Y-39569888D01*
X59953710Y-39282388D01*
X59974442Y-39271739D01*
X59996118Y-39263173D01*
X60018529Y-39256773D01*
X60041460Y-39252601D01*
X60064689Y-39250696D01*
X60087993Y-39251077D01*
X60087993Y-39251077D01*
G37*
D11*
X59942228Y-39837500D03*
G04 #@! TD*
D10*
G04 #@! TO.C,C20*
G36*
X123642996Y-52277601D02*
X123665927Y-52281773D01*
X123688338Y-52288173D01*
X123710014Y-52296739D01*
X123730746Y-52307388D01*
X124228710Y-52594888D01*
X124248299Y-52607518D01*
X124266555Y-52622007D01*
X124283303Y-52638216D01*
X124298381Y-52655988D01*
X124311646Y-52675153D01*
X124322967Y-52695526D01*
X124332238Y-52716910D01*
X124339367Y-52739100D01*
X124344288Y-52761881D01*
X124346952Y-52785036D01*
X124347333Y-52808340D01*
X124345428Y-52831569D01*
X124341256Y-52854500D01*
X124334856Y-52876911D01*
X124326290Y-52898587D01*
X124315641Y-52919319D01*
X124078141Y-53330681D01*
X124065511Y-53350269D01*
X124051022Y-53368526D01*
X124034813Y-53385274D01*
X124017041Y-53400352D01*
X123997876Y-53413617D01*
X123977504Y-53424938D01*
X123956119Y-53434209D01*
X123933930Y-53441338D01*
X123911148Y-53446259D01*
X123887993Y-53448922D01*
X123864689Y-53449304D01*
X123841460Y-53447399D01*
X123818529Y-53443227D01*
X123796118Y-53436827D01*
X123774442Y-53428261D01*
X123753710Y-53417612D01*
X123255746Y-53130112D01*
X123236157Y-53117482D01*
X123217901Y-53102993D01*
X123201153Y-53086784D01*
X123186075Y-53069012D01*
X123172810Y-53049847D01*
X123161489Y-53029474D01*
X123152218Y-53008090D01*
X123145089Y-52985900D01*
X123140168Y-52963119D01*
X123137504Y-52939964D01*
X123137123Y-52916660D01*
X123139028Y-52893431D01*
X123143200Y-52870500D01*
X123149600Y-52848089D01*
X123158166Y-52826413D01*
X123168815Y-52805681D01*
X123406315Y-52394319D01*
X123418945Y-52374731D01*
X123433434Y-52356474D01*
X123449643Y-52339726D01*
X123467415Y-52324648D01*
X123486580Y-52311383D01*
X123506952Y-52300062D01*
X123528337Y-52290791D01*
X123550526Y-52283662D01*
X123573308Y-52278741D01*
X123596463Y-52276078D01*
X123619767Y-52275696D01*
X123642996Y-52277601D01*
X123642996Y-52277601D01*
G37*
D11*
X123742228Y-52862500D03*
D10*
G36*
X125158540Y-53152601D02*
X125181471Y-53156773D01*
X125203882Y-53163173D01*
X125225558Y-53171739D01*
X125246290Y-53182388D01*
X125744254Y-53469888D01*
X125763843Y-53482518D01*
X125782099Y-53497007D01*
X125798847Y-53513216D01*
X125813925Y-53530988D01*
X125827190Y-53550153D01*
X125838511Y-53570526D01*
X125847782Y-53591910D01*
X125854911Y-53614100D01*
X125859832Y-53636881D01*
X125862496Y-53660036D01*
X125862877Y-53683340D01*
X125860972Y-53706569D01*
X125856800Y-53729500D01*
X125850400Y-53751911D01*
X125841834Y-53773587D01*
X125831185Y-53794319D01*
X125593685Y-54205681D01*
X125581055Y-54225269D01*
X125566566Y-54243526D01*
X125550357Y-54260274D01*
X125532585Y-54275352D01*
X125513420Y-54288617D01*
X125493048Y-54299938D01*
X125471663Y-54309209D01*
X125449474Y-54316338D01*
X125426692Y-54321259D01*
X125403537Y-54323922D01*
X125380233Y-54324304D01*
X125357004Y-54322399D01*
X125334073Y-54318227D01*
X125311662Y-54311827D01*
X125289986Y-54303261D01*
X125269254Y-54292612D01*
X124771290Y-54005112D01*
X124751701Y-53992482D01*
X124733445Y-53977993D01*
X124716697Y-53961784D01*
X124701619Y-53944012D01*
X124688354Y-53924847D01*
X124677033Y-53904474D01*
X124667762Y-53883090D01*
X124660633Y-53860900D01*
X124655712Y-53838119D01*
X124653048Y-53814964D01*
X124652667Y-53791660D01*
X124654572Y-53768431D01*
X124658744Y-53745500D01*
X124665144Y-53723089D01*
X124673710Y-53701413D01*
X124684359Y-53680681D01*
X124921859Y-53269319D01*
X124934489Y-53249731D01*
X124948978Y-53231474D01*
X124965187Y-53214726D01*
X124982959Y-53199648D01*
X125002124Y-53186383D01*
X125022496Y-53175062D01*
X125043881Y-53165791D01*
X125066070Y-53158662D01*
X125088852Y-53153741D01*
X125112007Y-53151078D01*
X125135311Y-53150696D01*
X125158540Y-53152601D01*
X125158540Y-53152601D01*
G37*
D11*
X125257772Y-53737500D03*
G04 #@! TD*
D10*
G04 #@! TO.C,C21*
G36*
X128858540Y-55252601D02*
X128881471Y-55256773D01*
X128903882Y-55263173D01*
X128925558Y-55271739D01*
X128946290Y-55282388D01*
X129444254Y-55569888D01*
X129463843Y-55582518D01*
X129482099Y-55597007D01*
X129498847Y-55613216D01*
X129513925Y-55630988D01*
X129527190Y-55650153D01*
X129538511Y-55670526D01*
X129547782Y-55691910D01*
X129554911Y-55714100D01*
X129559832Y-55736881D01*
X129562496Y-55760036D01*
X129562877Y-55783340D01*
X129560972Y-55806569D01*
X129556800Y-55829500D01*
X129550400Y-55851911D01*
X129541834Y-55873587D01*
X129531185Y-55894319D01*
X129293685Y-56305681D01*
X129281055Y-56325269D01*
X129266566Y-56343526D01*
X129250357Y-56360274D01*
X129232585Y-56375352D01*
X129213420Y-56388617D01*
X129193048Y-56399938D01*
X129171663Y-56409209D01*
X129149474Y-56416338D01*
X129126692Y-56421259D01*
X129103537Y-56423922D01*
X129080233Y-56424304D01*
X129057004Y-56422399D01*
X129034073Y-56418227D01*
X129011662Y-56411827D01*
X128989986Y-56403261D01*
X128969254Y-56392612D01*
X128471290Y-56105112D01*
X128451701Y-56092482D01*
X128433445Y-56077993D01*
X128416697Y-56061784D01*
X128401619Y-56044012D01*
X128388354Y-56024847D01*
X128377033Y-56004474D01*
X128367762Y-55983090D01*
X128360633Y-55960900D01*
X128355712Y-55938119D01*
X128353048Y-55914964D01*
X128352667Y-55891660D01*
X128354572Y-55868431D01*
X128358744Y-55845500D01*
X128365144Y-55823089D01*
X128373710Y-55801413D01*
X128384359Y-55780681D01*
X128621859Y-55369319D01*
X128634489Y-55349731D01*
X128648978Y-55331474D01*
X128665187Y-55314726D01*
X128682959Y-55299648D01*
X128702124Y-55286383D01*
X128722496Y-55275062D01*
X128743881Y-55265791D01*
X128766070Y-55258662D01*
X128788852Y-55253741D01*
X128812007Y-55251078D01*
X128835311Y-55250696D01*
X128858540Y-55252601D01*
X128858540Y-55252601D01*
G37*
D11*
X128957772Y-55837500D03*
D10*
G36*
X127342996Y-54377601D02*
X127365927Y-54381773D01*
X127388338Y-54388173D01*
X127410014Y-54396739D01*
X127430746Y-54407388D01*
X127928710Y-54694888D01*
X127948299Y-54707518D01*
X127966555Y-54722007D01*
X127983303Y-54738216D01*
X127998381Y-54755988D01*
X128011646Y-54775153D01*
X128022967Y-54795526D01*
X128032238Y-54816910D01*
X128039367Y-54839100D01*
X128044288Y-54861881D01*
X128046952Y-54885036D01*
X128047333Y-54908340D01*
X128045428Y-54931569D01*
X128041256Y-54954500D01*
X128034856Y-54976911D01*
X128026290Y-54998587D01*
X128015641Y-55019319D01*
X127778141Y-55430681D01*
X127765511Y-55450269D01*
X127751022Y-55468526D01*
X127734813Y-55485274D01*
X127717041Y-55500352D01*
X127697876Y-55513617D01*
X127677504Y-55524938D01*
X127656119Y-55534209D01*
X127633930Y-55541338D01*
X127611148Y-55546259D01*
X127587993Y-55548922D01*
X127564689Y-55549304D01*
X127541460Y-55547399D01*
X127518529Y-55543227D01*
X127496118Y-55536827D01*
X127474442Y-55528261D01*
X127453710Y-55517612D01*
X126955746Y-55230112D01*
X126936157Y-55217482D01*
X126917901Y-55202993D01*
X126901153Y-55186784D01*
X126886075Y-55169012D01*
X126872810Y-55149847D01*
X126861489Y-55129474D01*
X126852218Y-55108090D01*
X126845089Y-55085900D01*
X126840168Y-55063119D01*
X126837504Y-55039964D01*
X126837123Y-55016660D01*
X126839028Y-54993431D01*
X126843200Y-54970500D01*
X126849600Y-54948089D01*
X126858166Y-54926413D01*
X126868815Y-54905681D01*
X127106315Y-54494319D01*
X127118945Y-54474731D01*
X127133434Y-54456474D01*
X127149643Y-54439726D01*
X127167415Y-54424648D01*
X127186580Y-54411383D01*
X127206952Y-54400062D01*
X127228337Y-54390791D01*
X127250526Y-54383662D01*
X127273308Y-54378741D01*
X127296463Y-54376078D01*
X127319767Y-54375696D01*
X127342996Y-54377601D01*
X127342996Y-54377601D01*
G37*
D11*
X127442228Y-54962500D03*
G04 #@! TD*
D14*
G04 #@! TO.C,J10*
X158625207Y-70914166D03*
D10*
G36*
X158497339Y-72142691D02*
X157497339Y-70410641D01*
X158753075Y-69685641D01*
X159753075Y-71417691D01*
X158497339Y-72142691D01*
X158497339Y-72142691D01*
G37*
D14*
X146717356Y-77789166D03*
D10*
G36*
X146589488Y-79017691D02*
X145589488Y-77285641D01*
X146845224Y-76560641D01*
X147845224Y-78292691D01*
X146589488Y-79017691D01*
X146589488Y-79017691D01*
G37*
D14*
X142567355Y-70601156D03*
D10*
G36*
X142439487Y-71829681D02*
X141439487Y-70097631D01*
X142695223Y-69372631D01*
X143695223Y-71104681D01*
X142439487Y-71829681D01*
X142439487Y-71829681D01*
G37*
D14*
X154475206Y-63726156D03*
D10*
G36*
X154347338Y-64954681D02*
X153347338Y-63222631D01*
X154603074Y-62497631D01*
X155603074Y-64229681D01*
X154347338Y-64954681D01*
X154347338Y-64954681D01*
G37*
D15*
X155268395Y-69850000D03*
D10*
G36*
X155296985Y-70699519D02*
X154546985Y-69400481D01*
X155239805Y-69000481D01*
X155989805Y-70299519D01*
X155296985Y-70699519D01*
X155296985Y-70699519D01*
G37*
D15*
X154315768Y-70400000D03*
D10*
G36*
X154344358Y-71249519D02*
X153594358Y-69950481D01*
X154287178Y-69550481D01*
X155037178Y-70849519D01*
X154344358Y-71249519D01*
X154344358Y-71249519D01*
G37*
D15*
X153363139Y-70950000D03*
D10*
G36*
X153391729Y-71799519D02*
X152641729Y-70500481D01*
X153334549Y-70100481D01*
X154084549Y-71399519D01*
X153391729Y-71799519D01*
X153391729Y-71799519D01*
G37*
D15*
X152410512Y-71500000D03*
D10*
G36*
X152439102Y-72349519D02*
X151689102Y-71050481D01*
X152381922Y-70650481D01*
X153131922Y-71949519D01*
X152439102Y-72349519D01*
X152439102Y-72349519D01*
G37*
D15*
X151457884Y-72050000D03*
D10*
G36*
X151486474Y-72899519D02*
X150736474Y-71600481D01*
X151429294Y-71200481D01*
X152179294Y-72499519D01*
X151486474Y-72899519D01*
X151486474Y-72899519D01*
G37*
D15*
X150505256Y-72600000D03*
D10*
G36*
X150533846Y-73449519D02*
X149783846Y-72150481D01*
X150476666Y-71750481D01*
X151226666Y-73049519D01*
X150533846Y-73449519D01*
X150533846Y-73449519D01*
G37*
D15*
X149552628Y-73150000D03*
D10*
G36*
X149581218Y-73999519D02*
X148831218Y-72700481D01*
X149524038Y-72300481D01*
X150274038Y-73599519D01*
X149581218Y-73999519D01*
X149581218Y-73999519D01*
G37*
D15*
X148600000Y-73700000D03*
D10*
G36*
X148628590Y-74549519D02*
X147878590Y-73250481D01*
X148571410Y-72850481D01*
X149321410Y-74149519D01*
X148628590Y-74549519D01*
X148628590Y-74549519D01*
G37*
G04 #@! TD*
D16*
G04 #@! TO.C,J20*
X128841601Y-65950000D03*
D10*
G36*
X130128556Y-68020929D02*
X126404646Y-65870929D01*
X127554646Y-63879071D01*
X131278556Y-66029071D01*
X130128556Y-68020929D01*
X130128556Y-68020929D01*
G37*
D16*
X115158399Y-58050000D03*
D10*
G36*
X116445354Y-60120929D02*
X112721444Y-57970929D01*
X113871444Y-55979071D01*
X117595354Y-58129071D01*
X116445354Y-60120929D01*
X116445354Y-60120929D01*
G37*
G04 #@! TD*
G04 #@! TO.C,R10*
G36*
X71645765Y-44013577D02*
X71668920Y-44016241D01*
X71691701Y-44021162D01*
X71713891Y-44028291D01*
X71735275Y-44037562D01*
X71755648Y-44048883D01*
X71774813Y-44062148D01*
X71792585Y-44077226D01*
X71808794Y-44093974D01*
X71823283Y-44112230D01*
X71835913Y-44131819D01*
X72073413Y-44543181D01*
X72084062Y-44563913D01*
X72092628Y-44585589D01*
X72099028Y-44608000D01*
X72103200Y-44630931D01*
X72105105Y-44654160D01*
X72104723Y-44677464D01*
X72102060Y-44700619D01*
X72097139Y-44723401D01*
X72090010Y-44745590D01*
X72080739Y-44766975D01*
X72069418Y-44787347D01*
X72056153Y-44806512D01*
X72041075Y-44824284D01*
X72024327Y-44840493D01*
X72006070Y-44854982D01*
X71986482Y-44867612D01*
X71488518Y-45155112D01*
X71467786Y-45165761D01*
X71446110Y-45174327D01*
X71423699Y-45180727D01*
X71400768Y-45184899D01*
X71377539Y-45186804D01*
X71354235Y-45186423D01*
X71331080Y-45183759D01*
X71308299Y-45178838D01*
X71286109Y-45171709D01*
X71264725Y-45162438D01*
X71244352Y-45151117D01*
X71225187Y-45137852D01*
X71207415Y-45122774D01*
X71191206Y-45106026D01*
X71176717Y-45087770D01*
X71164087Y-45068181D01*
X70926587Y-44656819D01*
X70915938Y-44636087D01*
X70907372Y-44614411D01*
X70900972Y-44592000D01*
X70896800Y-44569069D01*
X70894895Y-44545840D01*
X70895277Y-44522536D01*
X70897940Y-44499381D01*
X70902861Y-44476599D01*
X70909990Y-44454410D01*
X70919261Y-44433025D01*
X70930582Y-44412653D01*
X70943847Y-44393488D01*
X70958925Y-44375716D01*
X70975673Y-44359507D01*
X70993930Y-44345018D01*
X71013518Y-44332388D01*
X71511482Y-44044888D01*
X71532214Y-44034239D01*
X71553890Y-44025673D01*
X71576301Y-44019273D01*
X71599232Y-44015101D01*
X71622461Y-44013196D01*
X71645765Y-44013577D01*
X71645765Y-44013577D01*
G37*
D11*
X71500000Y-44600000D03*
D10*
G36*
X73161309Y-43138577D02*
X73184464Y-43141241D01*
X73207245Y-43146162D01*
X73229435Y-43153291D01*
X73250819Y-43162562D01*
X73271192Y-43173883D01*
X73290357Y-43187148D01*
X73308129Y-43202226D01*
X73324338Y-43218974D01*
X73338827Y-43237230D01*
X73351457Y-43256819D01*
X73588957Y-43668181D01*
X73599606Y-43688913D01*
X73608172Y-43710589D01*
X73614572Y-43733000D01*
X73618744Y-43755931D01*
X73620649Y-43779160D01*
X73620267Y-43802464D01*
X73617604Y-43825619D01*
X73612683Y-43848401D01*
X73605554Y-43870590D01*
X73596283Y-43891975D01*
X73584962Y-43912347D01*
X73571697Y-43931512D01*
X73556619Y-43949284D01*
X73539871Y-43965493D01*
X73521614Y-43979982D01*
X73502026Y-43992612D01*
X73004062Y-44280112D01*
X72983330Y-44290761D01*
X72961654Y-44299327D01*
X72939243Y-44305727D01*
X72916312Y-44309899D01*
X72893083Y-44311804D01*
X72869779Y-44311423D01*
X72846624Y-44308759D01*
X72823843Y-44303838D01*
X72801653Y-44296709D01*
X72780269Y-44287438D01*
X72759896Y-44276117D01*
X72740731Y-44262852D01*
X72722959Y-44247774D01*
X72706750Y-44231026D01*
X72692261Y-44212770D01*
X72679631Y-44193181D01*
X72442131Y-43781819D01*
X72431482Y-43761087D01*
X72422916Y-43739411D01*
X72416516Y-43717000D01*
X72412344Y-43694069D01*
X72410439Y-43670840D01*
X72410821Y-43647536D01*
X72413484Y-43624381D01*
X72418405Y-43601599D01*
X72425534Y-43579410D01*
X72434805Y-43558025D01*
X72446126Y-43537653D01*
X72459391Y-43518488D01*
X72474469Y-43500716D01*
X72491217Y-43484507D01*
X72509474Y-43470018D01*
X72529062Y-43457388D01*
X73027026Y-43169888D01*
X73047758Y-43159239D01*
X73069434Y-43150673D01*
X73091845Y-43144273D01*
X73114776Y-43140101D01*
X73138005Y-43138196D01*
X73161309Y-43138577D01*
X73161309Y-43138577D01*
G37*
D11*
X73015544Y-43725000D03*
G04 #@! TD*
D10*
G04 #@! TO.C,R20*
G36*
X133531569Y-53654572D02*
X133554500Y-53658744D01*
X133576911Y-53665144D01*
X133598587Y-53673710D01*
X133619319Y-53684359D01*
X134030681Y-53921859D01*
X134050269Y-53934489D01*
X134068526Y-53948978D01*
X134085274Y-53965187D01*
X134100352Y-53982959D01*
X134113617Y-54002124D01*
X134124938Y-54022496D01*
X134134209Y-54043881D01*
X134141338Y-54066070D01*
X134146259Y-54088852D01*
X134148922Y-54112007D01*
X134149304Y-54135311D01*
X134147399Y-54158540D01*
X134143227Y-54181471D01*
X134136827Y-54203882D01*
X134128261Y-54225558D01*
X134117612Y-54246290D01*
X133830112Y-54744254D01*
X133817482Y-54763843D01*
X133802993Y-54782099D01*
X133786784Y-54798847D01*
X133769012Y-54813925D01*
X133749847Y-54827190D01*
X133729474Y-54838511D01*
X133708090Y-54847782D01*
X133685900Y-54854911D01*
X133663119Y-54859832D01*
X133639964Y-54862496D01*
X133616660Y-54862877D01*
X133593431Y-54860972D01*
X133570500Y-54856800D01*
X133548089Y-54850400D01*
X133526413Y-54841834D01*
X133505681Y-54831185D01*
X133094319Y-54593685D01*
X133074731Y-54581055D01*
X133056474Y-54566566D01*
X133039726Y-54550357D01*
X133024648Y-54532585D01*
X133011383Y-54513420D01*
X133000062Y-54493048D01*
X132990791Y-54471663D01*
X132983662Y-54449474D01*
X132978741Y-54426692D01*
X132976078Y-54403537D01*
X132975696Y-54380233D01*
X132977601Y-54357004D01*
X132981773Y-54334073D01*
X132988173Y-54311662D01*
X132996739Y-54289986D01*
X133007388Y-54269254D01*
X133294888Y-53771290D01*
X133307518Y-53751701D01*
X133322007Y-53733445D01*
X133338216Y-53716697D01*
X133355988Y-53701619D01*
X133375153Y-53688354D01*
X133395526Y-53677033D01*
X133416910Y-53667762D01*
X133439100Y-53660633D01*
X133461881Y-53655712D01*
X133485036Y-53653048D01*
X133508340Y-53652667D01*
X133531569Y-53654572D01*
X133531569Y-53654572D01*
G37*
D11*
X133562500Y-54257772D03*
D10*
G36*
X134406569Y-52139028D02*
X134429500Y-52143200D01*
X134451911Y-52149600D01*
X134473587Y-52158166D01*
X134494319Y-52168815D01*
X134905681Y-52406315D01*
X134925269Y-52418945D01*
X134943526Y-52433434D01*
X134960274Y-52449643D01*
X134975352Y-52467415D01*
X134988617Y-52486580D01*
X134999938Y-52506952D01*
X135009209Y-52528337D01*
X135016338Y-52550526D01*
X135021259Y-52573308D01*
X135023922Y-52596463D01*
X135024304Y-52619767D01*
X135022399Y-52642996D01*
X135018227Y-52665927D01*
X135011827Y-52688338D01*
X135003261Y-52710014D01*
X134992612Y-52730746D01*
X134705112Y-53228710D01*
X134692482Y-53248299D01*
X134677993Y-53266555D01*
X134661784Y-53283303D01*
X134644012Y-53298381D01*
X134624847Y-53311646D01*
X134604474Y-53322967D01*
X134583090Y-53332238D01*
X134560900Y-53339367D01*
X134538119Y-53344288D01*
X134514964Y-53346952D01*
X134491660Y-53347333D01*
X134468431Y-53345428D01*
X134445500Y-53341256D01*
X134423089Y-53334856D01*
X134401413Y-53326290D01*
X134380681Y-53315641D01*
X133969319Y-53078141D01*
X133949731Y-53065511D01*
X133931474Y-53051022D01*
X133914726Y-53034813D01*
X133899648Y-53017041D01*
X133886383Y-52997876D01*
X133875062Y-52977504D01*
X133865791Y-52956119D01*
X133858662Y-52933930D01*
X133853741Y-52911148D01*
X133851078Y-52887993D01*
X133850696Y-52864689D01*
X133852601Y-52841460D01*
X133856773Y-52818529D01*
X133863173Y-52796118D01*
X133871739Y-52774442D01*
X133882388Y-52753710D01*
X134169888Y-52255746D01*
X134182518Y-52236157D01*
X134197007Y-52217901D01*
X134213216Y-52201153D01*
X134230988Y-52186075D01*
X134250153Y-52172810D01*
X134270526Y-52161489D01*
X134291910Y-52152218D01*
X134314100Y-52145089D01*
X134336881Y-52140168D01*
X134360036Y-52137504D01*
X134383340Y-52137123D01*
X134406569Y-52139028D01*
X134406569Y-52139028D01*
G37*
D11*
X134437500Y-52742228D03*
G04 #@! TD*
D17*
G04 #@! TO.C,U10*
X67592275Y-37891876D03*
D10*
G36*
X68107643Y-37334520D02*
X68332643Y-37724232D01*
X67076907Y-38449232D01*
X66851907Y-38059520D01*
X68107643Y-37334520D01*
X68107643Y-37334520D01*
G37*
D17*
X67917275Y-38454792D03*
D10*
G36*
X68432643Y-37897436D02*
X68657643Y-38287148D01*
X67401907Y-39012148D01*
X67176907Y-38622436D01*
X68432643Y-37897436D01*
X68432643Y-37897436D01*
G37*
D17*
X68242275Y-39017709D03*
D10*
G36*
X68757643Y-38460353D02*
X68982643Y-38850065D01*
X67726907Y-39575065D01*
X67501907Y-39185353D01*
X68757643Y-38460353D01*
X68757643Y-38460353D01*
G37*
D17*
X68567275Y-39580625D03*
D10*
G36*
X69082643Y-39023269D02*
X69307643Y-39412981D01*
X68051907Y-40137981D01*
X67826907Y-39748269D01*
X69082643Y-39023269D01*
X69082643Y-39023269D01*
G37*
D17*
X68892275Y-40143542D03*
D10*
G36*
X69407643Y-39586186D02*
X69632643Y-39975898D01*
X68376907Y-40700898D01*
X68151907Y-40311186D01*
X69407643Y-39586186D01*
X69407643Y-39586186D01*
G37*
D17*
X69217275Y-40706458D03*
D10*
G36*
X69732643Y-40149102D02*
X69957643Y-40538814D01*
X68701907Y-41263814D01*
X68476907Y-40874102D01*
X69732643Y-40149102D01*
X69732643Y-40149102D01*
G37*
D17*
X69542275Y-41269375D03*
D10*
G36*
X70057643Y-40712019D02*
X70282643Y-41101731D01*
X69026907Y-41826731D01*
X68801907Y-41437019D01*
X70057643Y-40712019D01*
X70057643Y-40712019D01*
G37*
D17*
X69867275Y-41832291D03*
D10*
G36*
X70382643Y-41274935D02*
X70607643Y-41664647D01*
X69351907Y-42389647D01*
X69126907Y-41999935D01*
X70382643Y-41274935D01*
X70382643Y-41274935D01*
G37*
D17*
X70192275Y-42395208D03*
D10*
G36*
X70707643Y-41837852D02*
X70932643Y-42227564D01*
X69676907Y-42952564D01*
X69451907Y-42562852D01*
X70707643Y-41837852D01*
X70707643Y-41837852D01*
G37*
D17*
X70517275Y-42958124D03*
D10*
G36*
X71032643Y-42400768D02*
X71257643Y-42790480D01*
X70001907Y-43515480D01*
X69776907Y-43125768D01*
X71032643Y-42400768D01*
X71032643Y-42400768D01*
G37*
D17*
X65407725Y-45908124D03*
D10*
G36*
X65923093Y-45350768D02*
X66148093Y-45740480D01*
X64892357Y-46465480D01*
X64667357Y-46075768D01*
X65923093Y-45350768D01*
X65923093Y-45350768D01*
G37*
D17*
X65082725Y-45345208D03*
D10*
G36*
X65598093Y-44787852D02*
X65823093Y-45177564D01*
X64567357Y-45902564D01*
X64342357Y-45512852D01*
X65598093Y-44787852D01*
X65598093Y-44787852D01*
G37*
D17*
X64757725Y-44782291D03*
D10*
G36*
X65273093Y-44224935D02*
X65498093Y-44614647D01*
X64242357Y-45339647D01*
X64017357Y-44949935D01*
X65273093Y-44224935D01*
X65273093Y-44224935D01*
G37*
D17*
X64432725Y-44219375D03*
D10*
G36*
X64948093Y-43662019D02*
X65173093Y-44051731D01*
X63917357Y-44776731D01*
X63692357Y-44387019D01*
X64948093Y-43662019D01*
X64948093Y-43662019D01*
G37*
D17*
X64107725Y-43656458D03*
D10*
G36*
X64623093Y-43099102D02*
X64848093Y-43488814D01*
X63592357Y-44213814D01*
X63367357Y-43824102D01*
X64623093Y-43099102D01*
X64623093Y-43099102D01*
G37*
D17*
X63782725Y-43093542D03*
D10*
G36*
X64298093Y-42536186D02*
X64523093Y-42925898D01*
X63267357Y-43650898D01*
X63042357Y-43261186D01*
X64298093Y-42536186D01*
X64298093Y-42536186D01*
G37*
D17*
X63457725Y-42530625D03*
D10*
G36*
X63973093Y-41973269D02*
X64198093Y-42362981D01*
X62942357Y-43087981D01*
X62717357Y-42698269D01*
X63973093Y-41973269D01*
X63973093Y-41973269D01*
G37*
D17*
X63132725Y-41967709D03*
D10*
G36*
X63648093Y-41410353D02*
X63873093Y-41800065D01*
X62617357Y-42525065D01*
X62392357Y-42135353D01*
X63648093Y-41410353D01*
X63648093Y-41410353D01*
G37*
D17*
X62807725Y-41404792D03*
D10*
G36*
X63323093Y-40847436D02*
X63548093Y-41237148D01*
X62292357Y-41962148D01*
X62067357Y-41572436D01*
X63323093Y-40847436D01*
X63323093Y-40847436D01*
G37*
D17*
X62482725Y-40841876D03*
D10*
G36*
X62998093Y-40284520D02*
X63223093Y-40674232D01*
X61967357Y-41399232D01*
X61742357Y-41009520D01*
X62998093Y-40284520D01*
X62998093Y-40284520D01*
G37*
G04 #@! TD*
D18*
G04 #@! TO.C,U20*
X131890769Y-50100222D03*
D10*
G36*
X132711939Y-50227914D02*
X132411939Y-50747530D01*
X131069599Y-49972530D01*
X131369599Y-49452914D01*
X132711939Y-50227914D01*
X132711939Y-50227914D01*
G37*
D18*
X131255769Y-51200074D03*
D10*
G36*
X132076939Y-51327766D02*
X131776939Y-51847382D01*
X130434599Y-51072382D01*
X130734599Y-50552766D01*
X132076939Y-51327766D01*
X132076939Y-51327766D01*
G37*
D18*
X130620769Y-52299926D03*
D10*
G36*
X131441939Y-52427618D02*
X131141939Y-52947234D01*
X129799599Y-52172234D01*
X130099599Y-51652618D01*
X131441939Y-52427618D01*
X131441939Y-52427618D01*
G37*
D18*
X129985769Y-53399778D03*
D10*
G36*
X130806939Y-53527470D02*
X130506939Y-54047086D01*
X129164599Y-53272086D01*
X129464599Y-52752470D01*
X130806939Y-53527470D01*
X130806939Y-53527470D01*
G37*
D18*
X125309231Y-50699778D03*
D10*
G36*
X126130401Y-50827470D02*
X125830401Y-51347086D01*
X124488061Y-50572086D01*
X124788061Y-50052470D01*
X126130401Y-50827470D01*
X126130401Y-50827470D01*
G37*
D18*
X125944231Y-49599926D03*
D10*
G36*
X126765401Y-49727618D02*
X126465401Y-50247234D01*
X125123061Y-49472234D01*
X125423061Y-48952618D01*
X126765401Y-49727618D01*
X126765401Y-49727618D01*
G37*
D18*
X126579231Y-48500074D03*
D10*
G36*
X127400401Y-48627766D02*
X127100401Y-49147382D01*
X125758061Y-48372382D01*
X126058061Y-47852766D01*
X127400401Y-48627766D01*
X127400401Y-48627766D01*
G37*
D18*
X127214231Y-47400222D03*
D10*
G36*
X128035401Y-47527914D02*
X127735401Y-48047530D01*
X126393061Y-47272530D01*
X126693061Y-46752914D01*
X128035401Y-47527914D01*
X128035401Y-47527914D01*
G37*
G04 #@! TD*
G04 #@! TO.C,R30*
G36*
X112960779Y-21151144D02*
X112983834Y-21154563D01*
X113006443Y-21160227D01*
X113028387Y-21168079D01*
X113049457Y-21178044D01*
X113069448Y-21190026D01*
X113088168Y-21203910D01*
X113105438Y-21219562D01*
X113121090Y-21236832D01*
X113134974Y-21255552D01*
X113146956Y-21275543D01*
X113156921Y-21296613D01*
X113164773Y-21318557D01*
X113170437Y-21341166D01*
X113173856Y-21364221D01*
X113175000Y-21387500D01*
X113175000Y-21962500D01*
X113173856Y-21985779D01*
X113170437Y-22008834D01*
X113164773Y-22031443D01*
X113156921Y-22053387D01*
X113146956Y-22074457D01*
X113134974Y-22094448D01*
X113121090Y-22113168D01*
X113105438Y-22130438D01*
X113088168Y-22146090D01*
X113069448Y-22159974D01*
X113049457Y-22171956D01*
X113028387Y-22181921D01*
X113006443Y-22189773D01*
X112983834Y-22195437D01*
X112960779Y-22198856D01*
X112937500Y-22200000D01*
X112462500Y-22200000D01*
X112439221Y-22198856D01*
X112416166Y-22195437D01*
X112393557Y-22189773D01*
X112371613Y-22181921D01*
X112350543Y-22171956D01*
X112330552Y-22159974D01*
X112311832Y-22146090D01*
X112294562Y-22130438D01*
X112278910Y-22113168D01*
X112265026Y-22094448D01*
X112253044Y-22074457D01*
X112243079Y-22053387D01*
X112235227Y-22031443D01*
X112229563Y-22008834D01*
X112226144Y-21985779D01*
X112225000Y-21962500D01*
X112225000Y-21387500D01*
X112226144Y-21364221D01*
X112229563Y-21341166D01*
X112235227Y-21318557D01*
X112243079Y-21296613D01*
X112253044Y-21275543D01*
X112265026Y-21255552D01*
X112278910Y-21236832D01*
X112294562Y-21219562D01*
X112311832Y-21203910D01*
X112330552Y-21190026D01*
X112350543Y-21178044D01*
X112371613Y-21168079D01*
X112393557Y-21160227D01*
X112416166Y-21154563D01*
X112439221Y-21151144D01*
X112462500Y-21150000D01*
X112937500Y-21150000D01*
X112960779Y-21151144D01*
X112960779Y-21151144D01*
G37*
D11*
X112700000Y-21675000D03*
D10*
G36*
X112960779Y-19401144D02*
X112983834Y-19404563D01*
X113006443Y-19410227D01*
X113028387Y-19418079D01*
X113049457Y-19428044D01*
X113069448Y-19440026D01*
X113088168Y-19453910D01*
X113105438Y-19469562D01*
X113121090Y-19486832D01*
X113134974Y-19505552D01*
X113146956Y-19525543D01*
X113156921Y-19546613D01*
X113164773Y-19568557D01*
X113170437Y-19591166D01*
X113173856Y-19614221D01*
X113175000Y-19637500D01*
X113175000Y-20212500D01*
X113173856Y-20235779D01*
X113170437Y-20258834D01*
X113164773Y-20281443D01*
X113156921Y-20303387D01*
X113146956Y-20324457D01*
X113134974Y-20344448D01*
X113121090Y-20363168D01*
X113105438Y-20380438D01*
X113088168Y-20396090D01*
X113069448Y-20409974D01*
X113049457Y-20421956D01*
X113028387Y-20431921D01*
X113006443Y-20439773D01*
X112983834Y-20445437D01*
X112960779Y-20448856D01*
X112937500Y-20450000D01*
X112462500Y-20450000D01*
X112439221Y-20448856D01*
X112416166Y-20445437D01*
X112393557Y-20439773D01*
X112371613Y-20431921D01*
X112350543Y-20421956D01*
X112330552Y-20409974D01*
X112311832Y-20396090D01*
X112294562Y-20380438D01*
X112278910Y-20363168D01*
X112265026Y-20344448D01*
X112253044Y-20324457D01*
X112243079Y-20303387D01*
X112235227Y-20281443D01*
X112229563Y-20258834D01*
X112226144Y-20235779D01*
X112225000Y-20212500D01*
X112225000Y-19637500D01*
X112226144Y-19614221D01*
X112229563Y-19591166D01*
X112235227Y-19568557D01*
X112243079Y-19546613D01*
X112253044Y-19525543D01*
X112265026Y-19505552D01*
X112278910Y-19486832D01*
X112294562Y-19469562D01*
X112311832Y-19453910D01*
X112330552Y-19440026D01*
X112350543Y-19428044D01*
X112371613Y-19418079D01*
X112393557Y-19410227D01*
X112416166Y-19404563D01*
X112439221Y-19401144D01*
X112462500Y-19400000D01*
X112937500Y-19400000D01*
X112960779Y-19401144D01*
X112960779Y-19401144D01*
G37*
D11*
X112700000Y-19925000D03*
G04 #@! TD*
D10*
G04 #@! TO.C,R31*
G36*
X110460779Y-19401144D02*
X110483834Y-19404563D01*
X110506443Y-19410227D01*
X110528387Y-19418079D01*
X110549457Y-19428044D01*
X110569448Y-19440026D01*
X110588168Y-19453910D01*
X110605438Y-19469562D01*
X110621090Y-19486832D01*
X110634974Y-19505552D01*
X110646956Y-19525543D01*
X110656921Y-19546613D01*
X110664773Y-19568557D01*
X110670437Y-19591166D01*
X110673856Y-19614221D01*
X110675000Y-19637500D01*
X110675000Y-20212500D01*
X110673856Y-20235779D01*
X110670437Y-20258834D01*
X110664773Y-20281443D01*
X110656921Y-20303387D01*
X110646956Y-20324457D01*
X110634974Y-20344448D01*
X110621090Y-20363168D01*
X110605438Y-20380438D01*
X110588168Y-20396090D01*
X110569448Y-20409974D01*
X110549457Y-20421956D01*
X110528387Y-20431921D01*
X110506443Y-20439773D01*
X110483834Y-20445437D01*
X110460779Y-20448856D01*
X110437500Y-20450000D01*
X109962500Y-20450000D01*
X109939221Y-20448856D01*
X109916166Y-20445437D01*
X109893557Y-20439773D01*
X109871613Y-20431921D01*
X109850543Y-20421956D01*
X109830552Y-20409974D01*
X109811832Y-20396090D01*
X109794562Y-20380438D01*
X109778910Y-20363168D01*
X109765026Y-20344448D01*
X109753044Y-20324457D01*
X109743079Y-20303387D01*
X109735227Y-20281443D01*
X109729563Y-20258834D01*
X109726144Y-20235779D01*
X109725000Y-20212500D01*
X109725000Y-19637500D01*
X109726144Y-19614221D01*
X109729563Y-19591166D01*
X109735227Y-19568557D01*
X109743079Y-19546613D01*
X109753044Y-19525543D01*
X109765026Y-19505552D01*
X109778910Y-19486832D01*
X109794562Y-19469562D01*
X109811832Y-19453910D01*
X109830552Y-19440026D01*
X109850543Y-19428044D01*
X109871613Y-19418079D01*
X109893557Y-19410227D01*
X109916166Y-19404563D01*
X109939221Y-19401144D01*
X109962500Y-19400000D01*
X110437500Y-19400000D01*
X110460779Y-19401144D01*
X110460779Y-19401144D01*
G37*
D11*
X110200000Y-19925000D03*
D10*
G36*
X110460779Y-21151144D02*
X110483834Y-21154563D01*
X110506443Y-21160227D01*
X110528387Y-21168079D01*
X110549457Y-21178044D01*
X110569448Y-21190026D01*
X110588168Y-21203910D01*
X110605438Y-21219562D01*
X110621090Y-21236832D01*
X110634974Y-21255552D01*
X110646956Y-21275543D01*
X110656921Y-21296613D01*
X110664773Y-21318557D01*
X110670437Y-21341166D01*
X110673856Y-21364221D01*
X110675000Y-21387500D01*
X110675000Y-21962500D01*
X110673856Y-21985779D01*
X110670437Y-22008834D01*
X110664773Y-22031443D01*
X110656921Y-22053387D01*
X110646956Y-22074457D01*
X110634974Y-22094448D01*
X110621090Y-22113168D01*
X110605438Y-22130438D01*
X110588168Y-22146090D01*
X110569448Y-22159974D01*
X110549457Y-22171956D01*
X110528387Y-22181921D01*
X110506443Y-22189773D01*
X110483834Y-22195437D01*
X110460779Y-22198856D01*
X110437500Y-22200000D01*
X109962500Y-22200000D01*
X109939221Y-22198856D01*
X109916166Y-22195437D01*
X109893557Y-22189773D01*
X109871613Y-22181921D01*
X109850543Y-22171956D01*
X109830552Y-22159974D01*
X109811832Y-22146090D01*
X109794562Y-22130438D01*
X109778910Y-22113168D01*
X109765026Y-22094448D01*
X109753044Y-22074457D01*
X109743079Y-22053387D01*
X109735227Y-22031443D01*
X109729563Y-22008834D01*
X109726144Y-21985779D01*
X109725000Y-21962500D01*
X109725000Y-21387500D01*
X109726144Y-21364221D01*
X109729563Y-21341166D01*
X109735227Y-21318557D01*
X109743079Y-21296613D01*
X109753044Y-21275543D01*
X109765026Y-21255552D01*
X109778910Y-21236832D01*
X109794562Y-21219562D01*
X109811832Y-21203910D01*
X109830552Y-21190026D01*
X109850543Y-21178044D01*
X109871613Y-21168079D01*
X109893557Y-21160227D01*
X109916166Y-21154563D01*
X109939221Y-21151144D01*
X109962500Y-21150000D01*
X110437500Y-21150000D01*
X110460779Y-21151144D01*
X110460779Y-21151144D01*
G37*
D11*
X110200000Y-21675000D03*
G04 #@! TD*
D19*
G04 #@! TO.C,U30*
X117780000Y-45540000D03*
X115240000Y-42240000D03*
X112700000Y-45540000D03*
X110160000Y-42240000D03*
X107620000Y-45540000D03*
X105080000Y-42240000D03*
X102540000Y-45540000D03*
X100000000Y-42240000D03*
X97460000Y-45540000D03*
X94920000Y-42240000D03*
X92380000Y-45540000D03*
X89840000Y-42240000D03*
X87300000Y-45540000D03*
X84760000Y-42240000D03*
X82220000Y-45540000D03*
X82220000Y-27760000D03*
X84760000Y-24460000D03*
X87300000Y-27760000D03*
X89840000Y-24460000D03*
X92380000Y-27760000D03*
X94920000Y-24460000D03*
X97460000Y-27760000D03*
X100000000Y-24460000D03*
X102540000Y-27760000D03*
X105080000Y-24460000D03*
X107620000Y-27760000D03*
X110160000Y-24460000D03*
X112700000Y-27760000D03*
X115240000Y-24460000D03*
X117780000Y-27760000D03*
G04 #@! TD*
M02*
