M48
;DRILL file {KiCad (5.0.1-3-g963ef8bb5)} date 2019 August 14, Wednesday 17:51:55
;FORMAT={-:-/ absolute / metric / decimal}
FMAT,2
METRIC,TZ
T1C0.400
T2C0.750
T3C1.000
T4C1.000
T5C1.300
T6C3.200
%
G90
G05
M71
T1
X26.Y-100.
X35.914Y-63.
X35.914Y-137.
X52.5Y-100.
X58.3Y-45.6
X60.Y-38.3
X61.3Y-37.9
X61.9Y-55.2
X63.Y-164.086
X63.5Y-36.7
X77.4Y-40.1
X77.916Y-112.75
X79.215Y-112.
X79.5Y-28.6
X80.3Y-49.1
X80.514Y-111.25
X82.6Y-25.5
X84.7Y-39.3
X87.4Y-24.4
X89.Y-35.3
X89.8Y-27.1
X90.3Y-59.6
X92.5Y-37.5
X94.Y-120.
X97.2Y-24.1
X100.Y-74.5
X100.Y-76.
X100.Y-77.5
X100.Y-147.6
X100.Y-174.
X100.5Y-26.6
X104.1Y-38.
X106.Y-120.
X106.6Y-49.8
X110.7Y-27.9
X117.1Y-35.7
X119.486Y-111.25
X120.Y-50.
X120.785Y-112.
X122.084Y-112.75
X127.1Y-45.5
X127.43Y-31.87
X128.Y-33.5
X128.6Y-57.5
X132.Y-45.5
X137.Y-35.914
X137.Y-164.086
X147.Y-100.
X164.086Y-63.
X164.086Y-137.
X174.Y-100.
T2
X48.6Y-74.964
X49.6Y-73.232
X50.6Y-71.5
X51.6Y-69.768
X52.6Y-68.036
X57.2Y-79.864
X58.2Y-78.132
X59.2Y-76.4
X60.2Y-74.668
X61.2Y-72.936
X69.768Y-51.6
X71.5Y-50.6
X73.232Y-49.6
X98.Y-122.6
X100.Y-122.6
X102.Y-122.6
X74.768Y-60.2
X76.5Y-59.2
X78.232Y-58.2
T3
X98.8Y-50.7
X101.3Y-50.7
T4
X125.248Y-63.875
T5
X118.752Y-60.125
T6
X65.Y-100.
X100.Y-65.
X135.Y-100.
X43.4Y-156.6
X43.4Y-43.4
X100.Y-135.
X20.Y-100.
X156.6Y-43.4
X180.Y-100.
X156.6Y-156.6
X100.Y-180.
T0
M30
